<?xml version="1.0" encoding="utf-8" standalone="no"?>
<!DOCTYPE svg PUBLIC "-//W3C//DTD SVG 1.1//EN"
  "http://www.w3.org/Graphics/SVG/1.1/DTD/svg11.dtd">
<svg xmlns:xlink="http://www.w3.org/1999/xlink" width="504.978125pt" height="392.514375pt" viewBox="0 0 504.978125 392.514375" xmlns="http://www.w3.org/2000/svg" version="1.1">
 <metadata>
  <rdf:RDF xmlns:dc="http://purl.org/dc/elements/1.1/" xmlns:cc="http://creativecommons.org/ns#" xmlns:rdf="http://www.w3.org/1999/02/22-rdf-syntax-ns#">
   <cc:Work>
    <dc:type rdf:resource="http://purl.org/dc/dcmitype/StillImage"/>
    <dc:date>2025-08-04T23:46:20.541457</dc:date>
    <dc:format>image/svg+xml</dc:format>
    <dc:creator>
     <cc:Agent>
      <dc:title>Matplotlib v3.10.5, https://matplotlib.org/</dc:title>
     </cc:Agent>
    </dc:creator>
   </cc:Work>
  </rdf:RDF>
 </metadata>
 <defs>
  <style type="text/css">*{stroke-linejoin: round; stroke-linecap: butt}</style>
 </defs>
 <g id="figure_1">
  <g id="patch_1">
   <path d="M 0 392.514375 
L 504.978125 392.514375 
L 504.978125 0 
L 0 0 
z
" style="fill: #ffffff"/>
  </g>
  <g id="axes_1">
   <g id="patch_2">
    <path d="M 51.378125 354.958125 
L 497.778125 354.958125 
L 497.778125 22.318125 
L 51.378125 22.318125 
z
" style="fill: #ffffff"/>
   </g>
   <g id="FillBetweenPolyCollection_1">
    <defs>
     <path id="m580391df6b" d="M -23552.192993 -118.35095 
L -23552.192993 -118.35095 
L -23552.192993 -118.583601 
L -23552.192993 -118.815126 
L -23552.192993 -119.045536 
L -23552.192993 -119.27484 
L -23552.192993 -119.503049 
L -23552.192993 -119.730175 
L -23552.192993 -119.956226 
L -23552.192993 -120.181214 
L -23552.192993 -120.405148 
L -23552.192993 -120.628038 
L -23552.192993 -120.849893 
L -23552.192993 -121.070724 
L -23552.192993 -121.29054 
L -23552.192993 -121.509349 
L -23552.192993 -121.727162 
L -23552.192993 -121.943987 
L -23552.192993 -122.159833 
L -23552.192993 -122.374708 
L -23552.192993 -122.588623 
L -23552.192993 -122.801584 
L -23552.192993 -123.013601 
L -23552.192993 -123.224683 
L -23552.192993 -123.434836 
L -23552.192993 -123.644069 
L -23552.192993 -123.852391 
L -23552.192993 -124.059809 
L -23552.192993 -124.266331 
L -23552.192993 -124.471965 
L -23552.192993 -124.676718 
L -23552.192993 -124.880598 
L -23552.192993 -125.083612 
L -23552.192993 -125.285768 
L -23552.192993 -125.487072 
L -23552.192993 -125.687533 
L -23552.192993 -125.887157 
L -23552.192993 -126.08595 
L -23552.192993 -126.28392 
L -23552.192993 -126.481074 
L -23552.192993 -126.677419 
L -23552.192993 -126.87296 
L -23552.192993 -127.067704 
L -23552.192993 -127.261659 
L -23552.192993 -127.45483 
L -23552.192993 -127.647224 
L -23552.192993 -127.838846 
L -23552.192993 -128.029704 
L -23552.192993 -128.219803 
L -23552.192993 -128.409148 
L -23552.192993 -128.597747 
L -23552.192993 -128.785605 
L -23552.192993 -128.972728 
L -23552.192993 -129.159121 
L -23552.192993 -129.34479 
L -23552.192993 -129.529741 
L -23552.192993 -129.713979 
L -23552.192993 -129.89751 
L -23552.192993 -130.080339 
L -23552.192993 -130.262471 
L -23552.192993 -130.443913 
L -23552.192993 -130.624668 
L -23552.192993 -130.804743 
L -23552.192993 -130.984141 
L -23552.192993 -131.16287 
L -23552.192993 -131.340932 
L -23552.192993 -131.518334 
L -23552.192993 -131.69508 
L -23552.192993 -131.871175 
L -23552.192993 -132.046624 
L -23552.192993 -132.221431 
L -23552.192993 -132.395601 
L -23552.192993 -132.56914 
L -23552.192993 -132.74205 
L -23552.192993 -132.914338 
L -23552.192993 -133.086007 
L -23552.192993 -133.257061 
L -23552.192993 -133.427506 
L -23552.192993 -133.597345 
L -23552.192993 -133.766584 
L -23552.192993 -133.935225 
L -23552.192993 -134.103273 
L -23552.192993 -134.270733 
L -23552.192993 -134.437608 
L -23552.192993 -134.603903 
L -23552.192993 -134.769621 
L -23552.192993 -134.934767 
L -23552.192993 -135.099345 
L -23552.192993 -135.263358 
L -23552.192993 -135.42681 
L -23552.192993 -135.589705 
L -23552.192993 -135.752047 
L -23552.192993 -135.91384 
L -23552.192993 -136.075087 
L -23552.192993 -136.235792 
L -23552.192993 -136.395959 
L -23552.192993 -136.555591 
L -23552.192993 -136.714692 
L -23552.192993 -136.873265 
L -23552.192993 -137.031313 
L -23552.192993 -137.188841 
L -23552.192993 -137.188841 
L -23552.192993 -137.188841 
L -23552.192993 -137.031313 
L -23552.192993 -136.873265 
L -23552.192993 -136.714692 
L -23552.192993 -136.555591 
L -23552.192993 -136.395959 
L -23552.192993 -136.235792 
L -23552.192993 -136.075087 
L -23552.192993 -135.91384 
L -23552.192993 -135.752047 
L -23552.192993 -135.589705 
L -23552.192993 -135.42681 
L -23552.192993 -135.263358 
L -23552.192993 -135.099345 
L -23552.192993 -134.934767 
L -23552.192993 -134.769621 
L -23552.192993 -134.603903 
L -23552.192993 -134.437608 
L -23552.192993 -134.270733 
L -23552.192993 -134.103273 
L -23552.192993 -133.935225 
L -23552.192993 -133.766584 
L -23552.192993 -133.597345 
L -23552.192993 -133.427506 
L -23552.192993 -133.257061 
L -23552.192993 -133.086007 
L -23552.192993 -132.914338 
L -23552.192993 -132.74205 
L -23552.192993 -132.56914 
L -23552.192993 -132.395601 
L -23552.192993 -132.221431 
L -23552.192993 -132.046624 
L -23552.192993 -131.871175 
L -23552.192993 -131.69508 
L -23552.192993 -131.518334 
L -23552.192993 -131.340932 
L -23552.192993 -131.16287 
L -23552.192993 -130.984141 
L -23552.192993 -130.804743 
L -23552.192993 -130.624668 
L -23552.192993 -130.443913 
L -23552.192993 -130.262471 
L -23552.192993 -130.080339 
L -23552.192993 -129.89751 
L -23552.192993 -129.713979 
L -23552.192993 -129.529741 
L -23552.192993 -129.34479 
L -23552.192993 -129.159121 
L -23552.192993 -128.972728 
L -23552.192993 -128.785605 
L -23552.192993 -128.597747 
L -23552.192993 -128.409148 
L -23552.192993 -128.219803 
L -23552.192993 -128.029704 
L -23552.192993 -127.838846 
L -23552.192993 -127.647224 
L -23552.192993 -127.45483 
L -23552.192993 -127.261659 
L -23552.192993 -127.067704 
L -23552.192993 -126.87296 
L -23552.192993 -126.677419 
L -23552.192993 -126.481074 
L -23552.192993 -126.28392 
L -23552.192993 -126.08595 
L -23552.192993 -125.887157 
L -23552.192993 -125.687533 
L -23552.192993 -125.487072 
L -23552.192993 -125.285768 
L -23552.192993 -125.083612 
L -23552.192993 -124.880598 
L -23552.192993 -124.676718 
L -23552.192993 -124.471965 
L -23552.192993 -124.266331 
L -23552.192993 -124.059809 
L -23552.192993 -123.852391 
L -23552.192993 -123.644069 
L -23552.192993 -123.434836 
L -23552.192993 -123.224683 
L -23552.192993 -123.013601 
L -23552.192993 -122.801584 
L -23552.192993 -122.588623 
L -23552.192993 -122.374708 
L -23552.192993 -122.159833 
L -23552.192993 -121.943987 
L -23552.192993 -121.727162 
L -23552.192993 -121.509349 
L -23552.192993 -121.29054 
L -23552.192993 -121.070724 
L -23552.192993 -120.849893 
L -23552.192993 -120.628038 
L -23552.192993 -120.405148 
L -23552.192993 -120.181214 
L -23552.192993 -119.956226 
L -23552.192993 -119.730175 
L -23552.192993 -119.503049 
L -23552.192993 -119.27484 
L -23552.192993 -119.045536 
L -23552.192993 -118.815126 
L -23552.192993 -118.583601 
L -23552.192993 -118.35095 
z
" style="stroke: #3f3f3f; stroke-width: 1.25"/>
    </defs>
    <g clip-path="url(#p982e5662a4)">
     <use xlink:href="#m580391df6b" x="0" y="392.514375" style="fill: #3274a1; stroke: #3f3f3f; stroke-width: 1.25"/>
    </g>
   </g>
   <g id="FillBetweenPolyCollection_2">
    <defs>
     <path id="mfd45373e9a" d="M 449.123015 -52.67625 
L 439.020474 -52.67625 
L 437.976284 -53.001767 
L 436.792003 -53.325083 
L 435.445628 -53.646227 
L 433.908858 -53.965228 
L 432.144731 -54.282115 
L 430.103934 -54.596916 
L 427.718719 -54.909657 
L 424.892153 -55.220365 
L 421.477696 -55.529068 
L 417.236402 -55.83579 
L 411.73414 -56.140556 
L 404.036862 -56.443392 
L 391.379921 -56.744323 
L 71.669034 -57.04337 
L 381.349469 -57.340559 
L 399.226253 -57.635912 
L 408.482681 -57.929451 
L 414.726177 -58.221199 
L 419.388793 -58.511178 
L 423.065082 -58.799409 
L 426.061674 -59.085912 
L 428.558722 -59.370708 
L 430.671933 -59.653818 
L 432.480638 -59.935262 
L 434.042014 -60.215058 
L 435.398892 -60.493226 
L 436.584343 -60.769786 
L 437.624495 -61.044754 
L 438.54036 -61.318151 
L 439.349054 -61.589992 
L 440.064657 -61.860297 
L 440.698838 -62.129082 
L 441.261319 -62.396365 
L 441.760238 -62.662161 
L 442.202435 -62.926488 
L 442.593685 -63.189362 
L 442.938889 -63.450798 
L 443.242243 -63.710812 
L 443.507385 -63.96942 
L 443.737538 -64.226637 
L 443.935636 -64.482477 
L 444.10445 -64.736955 
L 444.246691 -64.990086 
L 444.365099 -65.241884 
L 444.462497 -65.492363 
L 444.541809 -65.741536 
L 444.60604 -65.989417 
L 444.658216 -66.23602 
L 444.701288 -66.481357 
L 444.738013 -66.725442 
L 444.77084 -66.968287 
L 444.801797 -67.209904 
L 444.832415 -67.450307 
L 444.863688 -67.689507 
L 444.896091 -67.927516 
L 444.92963 -68.164346 
L 444.963938 -68.400009 
L 444.998392 -68.634515 
L 445.03223 -68.867877 
L 445.064673 -69.100106 
L 445.095015 -69.331212 
L 445.12269 -69.561206 
L 445.147314 -69.790099 
L 445.168692 -70.017902 
L 445.186809 -70.244624 
L 445.201803 -70.470276 
L 445.213922 -70.694868 
L 445.223491 -70.91841 
L 445.230869 -71.140911 
L 445.236418 -71.362382 
L 445.240477 -71.582832 
L 445.243342 -71.80227 
L 445.245257 -72.020705 
L 445.246403 -72.238147 
L 445.246901 -72.454604 
L 445.246805 -72.670086 
L 445.246104 -72.884601 
L 445.244723 -73.098157 
L 445.242522 -73.310764 
L 445.2393 -73.52243 
L 445.234796 -73.733163 
L 445.228703 -73.942971 
L 445.220678 -74.151862 
L 445.210367 -74.359845 
L 445.197435 -74.566926 
L 445.181606 -74.773115 
L 445.162704 -74.978418 
L 445.140706 -75.182843 
L 445.115778 -75.386398 
L 445.08832 -75.58909 
L 445.058978 -75.790927 
L 445.028648 -75.991914 
L 444.998445 -76.192061 
L 444.969648 -76.391373 
L 444.943616 -76.589857 
L 444.921681 -76.787521 
L 444.905043 -76.984371 
L 444.894651 -77.180414 
L 444.891117 -77.375656 
L 445.596888 -77.375656 
L 445.596888 -77.375656 
L 445.593583 -77.180414 
L 445.583856 -76.984371 
L 445.568242 -76.787521 
L 445.547584 -76.589857 
L 445.522956 -76.391373 
L 445.495574 -76.192061 
L 445.466696 -75.991914 
L 445.43753 -75.790927 
L 445.409156 -75.58909 
L 445.38246 -75.386398 
L 445.358104 -75.182843 
L 445.336514 -74.978418 
L 445.317892 -74.773115 
L 445.302244 -74.566926 
L 445.289426 -74.359845 
L 445.279183 -74.151862 
L 445.271196 -73.942971 
L 445.265125 -73.733163 
L 445.260632 -73.52243 
L 445.257415 -73.310764 
L 445.255217 -73.098157 
L 445.253837 -72.884601 
L 445.253137 -72.670086 
L 445.253041 -72.454604 
L 445.253538 -72.238147 
L 445.254684 -72.020705 
L 445.256596 -71.80227 
L 445.259457 -71.582832 
L 445.263507 -71.362382 
L 445.269039 -71.140911 
L 445.276385 -70.91841 
L 445.285896 -70.694868 
L 445.297918 -70.470276 
L 445.312753 -70.244624 
L 445.330622 -70.017902 
L 445.351628 -69.790099 
L 445.375718 -69.561206 
L 445.402659 -69.331212 
L 445.432035 -69.100106 
L 445.463259 -68.867877 
L 445.495625 -68.634515 
L 445.528368 -68.400009 
L 445.560765 -68.164346 
L 445.592237 -67.927516 
L 445.622457 -67.689507 
L 445.651452 -67.450307 
L 445.679677 -67.209904 
L 445.708054 -66.968287 
L 445.73797 -66.725442 
L 445.771226 -66.481357 
L 445.809945 -66.23602 
L 445.856446 -65.989417 
L 445.913091 -65.741536 
L 445.982138 -65.492363 
L 446.065603 -65.241884 
L 446.16515 -64.990086 
L 446.282031 -64.736955 
L 446.417053 -64.482477 
L 446.570597 -64.226637 
L 446.742653 -63.96942 
L 446.932884 -63.710812 
L 447.140676 -63.450798 
L 447.365196 -63.189362 
L 447.605426 -62.926488 
L 447.860188 -62.662161 
L 448.128153 -62.396365 
L 448.407834 -62.129082 
L 448.697576 -61.860297 
L 448.995529 -61.589992 
L 449.299625 -61.318151 
L 449.607545 -61.044754 
L 449.916695 -60.769786 
L 450.224185 -60.493226 
L 450.526824 -60.215058 
L 450.821131 -59.935262 
L 451.103378 -59.653818 
L 451.369649 -59.370708 
L 451.615937 -59.085912 
L 451.838248 -58.799409 
L 452.032732 -58.511178 
L 452.195813 -58.221199 
L 452.324315 -57.929451 
L 452.415584 -57.635912 
L 452.467585 -57.340559 
L 452.478974 -57.04337 
L 452.449149 -56.744323 
L 452.378253 -56.443392 
L 452.267158 -56.140556 
L 452.117407 -55.83579 
L 451.931133 -55.529068 
L 451.710948 -55.220365 
L 451.459835 -54.909657 
L 451.181029 -54.596916 
L 450.877928 -54.282115 
L 450.554023 -53.965228 
L 450.212874 -53.646227 
L 449.858119 -53.325083 
L 449.493519 -53.001767 
L 449.123015 -52.67625 
z
" style="stroke: #3f3f3f; stroke-width: 1.25"/>
    </defs>
    <g clip-path="url(#p982e5662a4)">
     <use xlink:href="#mfd45373e9a" x="0" y="392.514375" style="fill: #e1812c; stroke: #3f3f3f; stroke-width: 1.25"/>
    </g>
   </g>
   <g id="FillBetweenPolyCollection_3">
    <defs>
     <path id="m9b6d371f50" d="M 460.129621 -123.93768 
L 459.268567 -123.93768 
L 459.202363 -124.038347 
L 459.129107 -124.138803 
L 459.048577 -124.239048 
L 458.960667 -124.339083 
L 458.865405 -124.43891 
L 458.762969 -124.538528 
L 458.653699 -124.637939 
L 458.538103 -124.737144 
L 458.416856 -124.836144 
L 458.290794 -124.934939 
L 458.160899 -125.03353 
L 458.028292 -125.131919 
L 457.894209 -125.230105 
L 457.75999 -125.32809 
L 457.627068 -125.425875 
L 457.496949 -125.52346 
L 457.371211 -125.620846 
L 457.251489 -125.718034 
L 457.139461 -125.815025 
L 457.036832 -125.91182 
L 456.945304 -126.008419 
L 456.866537 -126.104824 
L 456.802097 -126.201034 
L 456.753396 -126.297052 
L 456.721622 -126.392876 
L 456.70767 -126.488509 
L 456.71208 -126.583952 
L 456.734987 -126.679204 
L 456.776092 -126.774266 
L 456.834662 -126.86914 
L 456.909547 -126.963826 
L 456.999238 -127.058325 
L 457.101926 -127.152638 
L 457.215592 -127.246764 
L 457.338092 -127.340706 
L 457.467244 -127.434464 
L 457.600909 -127.528038 
L 457.737051 -127.62143 
L 457.873796 -127.714639 
L 458.009461 -127.807667 
L 458.142576 -127.900514 
L 458.271895 -127.993181 
L 458.396392 -128.085669 
L 458.515252 -128.177979 
L 458.627859 -128.27011 
L 458.733777 -128.362065 
L 458.832733 -128.453842 
L 458.924593 -128.545444 
L 459.009348 -128.636871 
L 459.087091 -128.728124 
L 459.157993 -128.819202 
L 459.222289 -128.910107 
L 459.280259 -129.00084 
L 459.332208 -129.091401 
L 459.378452 -129.181791 
L 459.419312 -129.27201 
L 459.455099 -129.362059 
L 459.486112 -129.451939 
L 459.512641 -129.54165 
L 459.534962 -129.631194 
L 459.553348 -129.720569 
L 459.568071 -129.809778 
L 459.579412 -129.898821 
L 459.587659 -129.987699 
L 459.593121 -130.076411 
L 459.59612 -130.164959 
L 459.596994 -130.253344 
L 459.596092 -130.341565 
L 459.593766 -130.429624 
L 459.590361 -130.517521 
L 459.586211 -130.605257 
L 459.581622 -130.692832 
L 459.57687 -130.780247 
L 459.57219 -130.867502 
L 459.567777 -130.954598 
L 459.563781 -131.041536 
L 459.560307 -131.128317 
L 459.557425 -131.21494 
L 459.555165 -131.301406 
L 459.553532 -131.387716 
L 459.552503 -131.473871 
L 459.552038 -131.55987 
L 459.552084 -131.645716 
L 459.552576 -131.731407 
L 459.553447 -131.816945 
L 459.554626 -131.902331 
L 459.55605 -131.987564 
L 459.557661 -132.072645 
L 459.559416 -132.157575 
L 459.561289 -132.242355 
L 459.563278 -132.326985 
L 459.565401 -132.411465 
L 459.567702 -132.495796 
L 459.570242 -132.579978 
L 459.5731 -132.664013 
L 459.576361 -132.7479 
L 459.58011 -132.83164 
L 459.58442 -132.915234 
L 459.589341 -132.998682 
L 459.825279 -132.998682 
L 459.825279 -132.998682 
L 459.830088 -132.915234 
L 459.834296 -132.83164 
L 459.837953 -132.7479 
L 459.841133 -132.664013 
L 459.843918 -132.579978 
L 459.846391 -132.495796 
L 459.84863 -132.411465 
L 459.850696 -132.326985 
L 459.852631 -132.242355 
L 459.854453 -132.157575 
L 459.856158 -132.072645 
L 459.857723 -131.987564 
L 459.859106 -131.902331 
L 459.860252 -131.816945 
L 459.861097 -131.731407 
L 459.861575 -131.645716 
L 459.861619 -131.55987 
L 459.861168 -131.473871 
L 459.860169 -131.387716 
L 459.858583 -131.301406 
L 459.856388 -131.21494 
L 459.853586 -131.128317 
L 459.850208 -131.041536 
L 459.846318 -130.954598 
L 459.842019 -130.867502 
L 459.837457 -130.780247 
L 459.83282 -130.692832 
L 459.828338 -130.605257 
L 459.824282 -130.517521 
L 459.820952 -130.429624 
L 459.818675 -130.341565 
L 459.817792 -130.253344 
L 459.818648 -130.164959 
L 459.821583 -130.076411 
L 459.826923 -129.987699 
L 459.834977 -129.898821 
L 459.846031 -129.809778 
L 459.860348 -129.720569 
L 459.878169 -129.631194 
L 459.899723 -129.54165 
L 459.925221 -129.451939 
L 459.954869 -129.362059 
L 459.988867 -129.27201 
L 460.027409 -129.181791 
L 460.070677 -129.091401 
L 460.118843 -129.00084 
L 460.17205 -128.910107 
L 460.230406 -128.819202 
L 460.293968 -128.728124 
L 460.362731 -128.636871 
L 460.436607 -128.545444 
L 460.515423 -128.453842 
L 460.5989 -128.362065 
L 460.686655 -128.27011 
L 460.778189 -128.177979 
L 460.872891 -128.085669 
L 460.970036 -127.993181 
L 461.068791 -127.900514 
L 461.168224 -127.807667 
L 461.267317 -127.714639 
L 461.364978 -127.62143 
L 461.460062 -127.528038 
L 461.551395 -127.434464 
L 461.637801 -127.340706 
L 461.718129 -127.246764 
L 461.791285 -127.152638 
L 461.856261 -127.058325 
L 461.912167 -126.963826 
L 461.958253 -126.86914 
L 461.993927 -126.774266 
L 462.018772 -126.679204 
L 462.03255 -126.583952 
L 462.035197 -126.488509 
L 462.026816 -126.392876 
L 462.007664 -126.297052 
L 461.978127 -126.201034 
L 461.938702 -126.104824 
L 461.889973 -126.008419 
L 461.832595 -125.91182 
L 461.767272 -125.815025 
L 461.694752 -125.718034 
L 461.615814 -125.620846 
L 461.531268 -125.52346 
L 461.441955 -125.425875 
L 461.348748 -125.32809 
L 461.25255 -125.230105 
L 461.154292 -125.131919 
L 461.054929 -125.03353 
L 460.955422 -124.934939 
L 460.856724 -124.836144 
L 460.759759 -124.737144 
L 460.665396 -124.637939 
L 460.574426 -124.538528 
L 460.487537 -124.43891 
L 460.405301 -124.339083 
L 460.328154 -124.239048 
L 460.256401 -124.138803 
L 460.190208 -124.038347 
L 460.129621 -123.93768 
z
" style="stroke: #3f3f3f; stroke-width: 1.25"/>
    </defs>
    <g clip-path="url(#p982e5662a4)">
     <use xlink:href="#m9b6d371f50" x="0" y="392.514375" style="fill: #3274a1; stroke: #3f3f3f; stroke-width: 1.25"/>
    </g>
   </g>
   <g id="FillBetweenPolyCollection_4">
    <defs>
     <path id="m2427eb804f" d="M 464.529531 -56.939203 
L 463.308072 -56.939203 
L 463.221754 -57.13396 
L 463.129553 -57.327926 
L 463.03226 -57.521109 
L 462.930936 -57.713515 
L 462.826913 -57.905149 
L 462.721782 -58.096018 
L 462.617364 -58.286128 
L 462.515662 -58.475485 
L 462.418796 -58.664096 
L 462.328912 -58.851965 
L 462.248093 -59.039098 
L 462.178246 -59.225502 
L 462.121004 -59.411182 
L 462.077625 -59.596144 
L 462.04892 -59.780393 
L 462.035197 -59.963935 
L 462.036244 -60.146775 
L 462.051343 -60.328918 
L 462.079314 -60.51037 
L 462.11859 -60.691135 
L 462.167311 -60.87122 
L 462.223427 -61.050629 
L 462.284807 -61.229368 
L 462.349343 -61.40744 
L 462.415039 -61.584852 
L 462.480088 -61.761608 
L 462.542923 -61.937713 
L 462.602259 -62.113172 
L 462.657107 -62.287989 
L 462.706778 -62.462169 
L 462.750866 -62.635716 
L 462.789228 -62.808637 
L 462.821949 -62.980934 
L 462.849303 -63.152612 
L 462.871717 -63.323676 
L 462.889727 -63.49413 
L 462.903943 -63.663978 
L 462.915016 -63.833226 
L 462.92361 -64.001876 
L 462.930386 -64.169933 
L 462.93598 -64.337402 
L 462.941005 -64.504286 
L 462.946038 -64.67059 
L 462.95163 -64.836317 
L 462.958298 -65.001472 
L 462.966535 -65.166058 
L 462.976803 -65.330079 
L 462.989529 -65.49354 
L 463.005102 -65.656444 
L 463.023853 -65.818794 
L 463.046048 -65.980595 
L 463.071867 -66.141851 
L 463.101388 -66.302564 
L 463.134577 -66.462739 
L 463.171277 -66.622379 
L 463.211206 -66.781488 
L 463.253963 -66.940069 
L 463.29904 -67.098125 
L 463.345839 -67.255661 
L 463.393703 -67.41268 
L 463.441938 -67.569184 
L 463.489845 -67.725178 
L 463.536752 -67.880665 
L 463.582038 -68.035647 
L 463.625156 -68.190129 
L 463.665653 -68.344113 
L 463.703173 -68.497603 
L 463.737471 -68.650601 
L 463.768402 -68.803112 
L 463.795922 -68.955138 
L 463.820074 -69.106681 
L 463.840972 -69.257746 
L 463.858788 -69.408335 
L 463.873737 -69.558452 
L 463.886057 -69.708098 
L 463.895999 -69.857277 
L 463.903812 -70.005993 
L 463.909737 -70.154247 
L 463.913993 -70.302043 
L 463.91678 -70.449383 
L 463.918276 -70.596271 
L 463.918634 -70.742709 
L 463.917988 -70.8887 
L 463.916456 -71.034246 
L 463.914148 -71.17935 
L 463.911167 -71.324016 
L 463.907616 -71.468245 
L 463.903605 -71.61204 
L 463.899249 -71.755404 
L 463.894677 -71.89834 
L 463.890024 -72.040849 
L 463.885435 -72.182935 
L 463.881059 -72.3246 
L 463.877045 -72.465846 
L 463.873534 -72.606676 
L 463.870655 -72.747093 
L 463.868516 -72.887098 
L 463.867199 -73.026695 
L 463.866756 -73.165885 
L 464.006124 -73.165885 
L 464.006124 -73.165885 
L 464.005687 -73.026695 
L 464.004388 -72.887098 
L 464.002276 -72.747093 
L 463.999432 -72.606676 
L 463.995962 -72.465846 
L 463.991992 -72.3246 
L 463.987661 -72.182935 
L 463.983114 -72.040849 
L 463.978501 -71.89834 
L 463.973963 -71.755404 
L 463.969637 -71.61204 
L 463.965649 -71.468245 
L 463.962117 -71.324016 
L 463.959149 -71.17935 
L 463.956851 -71.034246 
L 463.955325 -70.8887 
L 463.954681 -70.742709 
L 463.955038 -70.596271 
L 463.956528 -70.449383 
L 463.959304 -70.302043 
L 463.96354 -70.154247 
L 463.96943 -70.005993 
L 463.977189 -69.857277 
L 463.987045 -69.708098 
L 463.999232 -69.558452 
L 464.01398 -69.408335 
L 464.031504 -69.257746 
L 464.051983 -69.106681 
L 464.075549 -68.955138 
L 464.102272 -68.803112 
L 464.132142 -68.650601 
L 464.165059 -68.497603 
L 464.200828 -68.344113 
L 464.239154 -68.190129 
L 464.279645 -68.035647 
L 464.321824 -67.880665 
L 464.365142 -67.725178 
L 464.408999 -67.569184 
L 464.452768 -67.41268 
L 464.495822 -67.255661 
L 464.537558 -67.098125 
L 464.577425 -66.940069 
L 464.614941 -66.781488 
L 464.649717 -66.622379 
L 464.681462 -66.462739 
L 464.709992 -66.302564 
L 464.735227 -66.141851 
L 464.757189 -65.980595 
L 464.775989 -65.818794 
L 464.791814 -65.656444 
L 464.804917 -65.49354 
L 464.815598 -65.330079 
L 464.824198 -65.166058 
L 464.831086 -65.001472 
L 464.836655 -64.836317 
L 464.84132 -64.67059 
L 464.845515 -64.504286 
L 464.849699 -64.337402 
L 464.854353 -64.169933 
L 464.859984 -64.001876 
L 464.867117 -63.833226 
L 464.876291 -63.663978 
L 464.888042 -63.49413 
L 464.902888 -63.323676 
L 464.9213 -63.152612 
L 464.943672 -62.980934 
L 464.970294 -62.808637 
L 465.001313 -62.635716 
L 465.036709 -62.462169 
L 465.076266 -62.287989 
L 465.119555 -62.113172 
L 465.165931 -61.937713 
L 465.214533 -61.761608 
L 465.264304 -61.584852 
L 465.31402 -61.40744 
L 465.362325 -61.229368 
L 465.407787 -61.050629 
L 465.448946 -60.87122 
L 465.48437 -60.691135 
L 465.512721 -60.51037 
L 465.5328 -60.328918 
L 465.5436 -60.146775 
L 465.544349 -59.963935 
L 465.534535 -59.780393 
L 465.513936 -59.596144 
L 465.482622 -59.411182 
L 465.440955 -59.225502 
L 465.389574 -59.039098 
L 465.329369 -58.851965 
L 465.261445 -58.664096 
L 465.18708 -58.475485 
L 465.107674 -58.286128 
L 465.024694 -58.096018 
L 464.93962 -57.905149 
L 464.853895 -57.713515 
L 464.768876 -57.521109 
L 464.685792 -57.327926 
L 464.605713 -57.13396 
L 464.529531 -56.939203 
z
" style="stroke: #3f3f3f; stroke-width: 1.25"/>
    </defs>
    <g clip-path="url(#p982e5662a4)">
     <use xlink:href="#m2427eb804f" x="0" y="392.514375" style="fill: #e1812c; stroke: #3f3f3f; stroke-width: 1.25"/>
    </g>
   </g>
   <g id="FillBetweenPolyCollection_5">
    <defs>
     <path id="mdc92d278e4" d="M 468.795628 -164.279548 
L 467.494558 -164.279548 
L 467.441146 -164.322825 
L 467.388047 -164.366064 
L 467.335815 -164.409263 
L 467.285002 -164.452423 
L 467.236151 -164.495545 
L 467.189779 -164.538627 
L 467.146369 -164.581671 
L 467.106354 -164.624676 
L 467.070114 -164.667642 
L 467.037961 -164.71057 
L 467.010134 -164.753459 
L 466.986795 -164.79631 
L 466.968019 -164.839122 
L 466.953793 -164.881896 
L 466.944019 -164.924632 
L 466.938506 -164.96733 
L 466.93698 -165.00999 
L 466.939088 -165.052611 
L 466.944403 -165.095195 
L 466.952439 -165.13774 
L 466.96266 -165.180248 
L 466.974499 -165.222718 
L 466.987375 -165.265151 
L 467.000708 -165.307546 
L 467.013944 -165.349903 
L 467.026567 -165.392223 
L 467.038124 -165.434505 
L 467.048233 -165.47675 
L 467.056602 -165.518958 
L 467.063037 -165.561128 
L 467.067445 -165.603261 
L 467.06984 -165.645358 
L 467.070338 -165.687417 
L 467.069148 -165.729439 
L 467.066568 -165.771424 
L 467.062965 -165.813373 
L 467.058763 -165.855284 
L 467.054423 -165.897159 
L 467.050426 -165.938998 
L 467.047253 -165.980799 
L 467.045369 -166.022565 
L 467.045205 -166.064293 
L 467.047148 -166.105986 
L 467.051527 -166.147642 
L 467.058611 -166.189262 
L 467.068598 -166.230845 
L 467.081621 -166.272393 
L 467.097744 -166.313904 
L 467.116968 -166.355379 
L 467.139237 -166.396819 
L 467.164444 -166.438222 
L 467.192437 -166.47959 
L 467.223024 -166.520922 
L 467.255984 -166.562218 
L 467.291067 -166.603479 
L 467.328005 -166.644704 
L 467.366511 -166.685893 
L 467.406287 -166.727047 
L 467.447024 -166.768166 
L 467.488407 -166.809249 
L 467.530119 -166.850297 
L 467.57184 -166.89131 
L 467.613257 -166.932288 
L 467.654059 -166.97323 
L 467.69395 -167.014138 
L 467.732644 -167.055011 
L 467.769877 -167.095848 
L 467.805404 -167.136651 
L 467.839009 -167.177419 
L 467.870503 -167.218152 
L 467.89973 -167.258851 
L 467.926567 -167.299515 
L 467.95093 -167.340144 
L 467.97277 -167.380739 
L 467.992074 -167.4213 
L 468.008868 -167.461826 
L 468.02321 -167.502318 
L 468.035193 -167.542775 
L 468.044939 -167.583199 
L 468.0526 -167.623588 
L 468.058349 -167.663943 
L 468.062381 -167.704264 
L 468.064904 -167.744551 
L 468.06614 -167.784804 
L 468.066316 -167.825023 
L 468.065661 -167.865209 
L 468.064402 -167.905361 
L 468.062758 -167.945479 
L 468.060936 -167.985563 
L 468.05913 -168.025614 
L 468.057513 -168.065631 
L 468.056236 -168.105615 
L 468.055426 -168.145566 
L 468.055185 -168.185483 
L 468.055587 -168.225366 
L 468.056679 -168.265217 
L 468.058481 -168.305034 
L 468.060989 -168.344818 
L 468.064175 -168.38457 
L 468.26559 -168.38457 
L 468.26559 -168.38457 
L 468.268714 -168.344818 
L 468.271172 -168.305034 
L 468.272938 -168.265217 
L 468.274007 -168.225366 
L 468.2744 -168.185483 
L 468.274164 -168.145566 
L 468.273371 -168.105615 
L 468.27212 -168.065631 
L 468.270536 -168.025614 
L 468.268766 -167.985563 
L 468.26698 -167.945479 
L 468.265367 -167.905361 
L 468.264132 -167.865209 
L 468.263489 -167.825023 
L 468.263662 -167.784804 
L 468.264875 -167.744551 
L 468.267349 -167.704264 
L 468.271301 -167.663943 
L 468.276931 -167.623588 
L 468.284423 -167.583199 
L 468.29394 -167.542775 
L 468.305616 -167.502318 
L 468.319556 -167.461826 
L 468.33583 -167.4213 
L 468.354475 -167.380739 
L 468.375487 -167.340144 
L 468.398824 -167.299515 
L 468.42441 -167.258851 
L 468.452126 -167.218152 
L 468.481825 -167.177419 
L 468.513322 -167.136651 
L 468.546409 -167.095848 
L 468.580852 -167.055011 
L 468.616397 -167.014138 
L 468.652777 -166.97323 
L 468.689716 -166.932288 
L 468.72693 -166.89131 
L 468.764137 -166.850297 
L 468.801054 -166.809249 
L 468.837408 -166.768166 
L 468.87293 -166.727047 
L 468.907365 -166.685893 
L 468.940469 -166.644704 
L 468.972011 -166.603479 
L 469.00178 -166.562218 
L 469.029578 -166.520922 
L 469.055231 -166.47959 
L 469.078587 -166.438222 
L 469.099522 -166.396819 
L 469.117939 -166.355379 
L 469.133781 -166.313904 
L 469.147025 -166.272393 
L 469.157696 -166.230845 
L 469.165863 -166.189262 
L 469.171647 -166.147642 
L 469.17522 -166.105986 
L 469.176804 -166.064293 
L 469.17667 -166.022565 
L 469.175134 -165.980799 
L 469.172546 -165.938998 
L 469.169284 -165.897159 
L 469.165739 -165.855284 
L 469.162305 -165.813373 
L 469.159358 -165.771424 
L 469.157246 -165.729439 
L 469.156272 -165.687417 
L 469.156679 -165.645358 
L 469.158639 -165.603261 
L 469.162246 -165.561128 
L 469.167504 -165.518958 
L 469.174335 -165.47675 
L 469.182572 -165.434505 
L 469.191972 -165.392223 
L 469.202217 -165.349903 
L 469.212935 -165.307546 
L 469.223708 -165.265151 
L 469.234087 -165.222718 
L 469.24361 -165.180248 
L 469.251816 -165.13774 
L 469.258257 -165.095195 
L 469.262513 -165.052611 
L 469.2642 -165.00999 
L 469.262979 -164.96733 
L 469.258565 -164.924632 
L 469.25073 -164.881896 
L 469.239302 -164.839122 
L 469.224176 -164.79631 
L 469.205305 -164.753459 
L 469.182705 -164.71057 
L 469.156455 -164.667642 
L 469.126692 -164.624676 
L 469.093608 -164.581671 
L 469.057454 -164.538627 
L 469.018526 -164.495545 
L 468.977171 -164.452423 
L 468.933773 -164.409263 
L 468.888751 -164.366064 
L 468.842549 -164.322825 
L 468.795628 -164.279548 
z
" style="stroke: #3f3f3f; stroke-width: 1.25"/>
    </defs>
    <g clip-path="url(#p982e5662a4)">
     <use xlink:href="#mdc92d278e4" x="0" y="392.514375" style="fill: #3274a1; stroke: #3f3f3f; stroke-width: 1.25"/>
    </g>
   </g>
   <g id="FillBetweenPolyCollection_6">
    <defs>
     <path id="m20670e0bcd" d="M 470.646383 -73.776457 
L 469.855035 -73.776457 
L 469.818109 -73.877888 
L 469.779938 -73.979105 
L 469.74078 -74.080108 
L 469.700933 -74.180898 
L 469.660729 -74.281476 
L 469.620529 -74.381843 
L 469.580722 -74.482 
L 469.54171 -74.581947 
L 469.503907 -74.681686 
L 469.467724 -74.781217 
L 469.433563 -74.880541 
L 469.401805 -74.979659 
L 469.372796 -75.078573 
L 469.346844 -75.177282 
L 469.324204 -75.275787 
L 469.305073 -75.374091 
L 469.289581 -75.472192 
L 469.277792 -75.570093 
L 469.269697 -75.667793 
L 469.265215 -75.765294 
L 469.2642 -75.862597 
L 469.26644 -75.959702 
L 469.27167 -76.056611 
L 469.279574 -76.153323 
L 469.289801 -76.24984 
L 469.301973 -76.346163 
L 469.315694 -76.442292 
L 469.330566 -76.538228 
L 469.346195 -76.633972 
L 469.362203 -76.729524 
L 469.378239 -76.824886 
L 469.393981 -76.920058 
L 469.409147 -77.015042 
L 469.423498 -77.109836 
L 469.436838 -77.204443 
L 469.449022 -77.298864 
L 469.459949 -77.393098 
L 469.469566 -77.487147 
L 469.477861 -77.581011 
L 469.484863 -77.674691 
L 469.490638 -77.768188 
L 469.495281 -77.861503 
L 469.498912 -77.954636 
L 469.501673 -78.047588 
L 469.503718 -78.140359 
L 469.505211 -78.232951 
L 469.506317 -78.325363 
L 469.507201 -78.417598 
L 469.508021 -78.509655 
L 469.508923 -78.601535 
L 469.510039 -78.693238 
L 469.511485 -78.784766 
L 469.513357 -78.87612 
L 469.515731 -78.967299 
L 469.518662 -79.058304 
L 469.522184 -79.149137 
L 469.526311 -79.239797 
L 469.531039 -79.330286 
L 469.536348 -79.420604 
L 469.542204 -79.510751 
L 469.548562 -79.600729 
L 469.55537 -79.690538 
L 469.56257 -79.780178 
L 469.570105 -79.869651 
L 469.577919 -79.958956 
L 469.58596 -80.048095 
L 469.594186 -80.137069 
L 469.602562 -80.225876 
L 469.611067 -80.31452 
L 469.619688 -80.402999 
L 469.628429 -80.491314 
L 469.637305 -80.579467 
L 469.646343 -80.667458 
L 469.655581 -80.755287 
L 469.665064 -80.842955 
L 469.674848 -80.930462 
L 469.684989 -81.01781 
L 469.695548 -81.104998 
L 469.706584 -81.192028 
L 469.71815 -81.278899 
L 469.730297 -81.365613 
L 469.743065 -81.45217 
L 469.756482 -81.538571 
L 469.770566 -81.624815 
L 469.78532 -81.710905 
L 469.800732 -81.796839 
L 469.816775 -81.88262 
L 469.833411 -81.968246 
L 469.850583 -82.05372 
L 469.868224 -82.139041 
L 469.886256 -82.22421 
L 469.904591 -82.309228 
L 469.923134 -82.394095 
L 469.941783 -82.478811 
L 469.960435 -82.563378 
L 469.978987 -82.647795 
L 469.997334 -82.732064 
L 470.015379 -82.816184 
L 470.033027 -82.900156 
L 470.478639 -82.900156 
L 470.478639 -82.900156 
L 470.495521 -82.816184 
L 470.512725 -82.732064 
L 470.530158 -82.647795 
L 470.547724 -82.563378 
L 470.565324 -82.478811 
L 470.582861 -82.394095 
L 470.600236 -82.309228 
L 470.617359 -82.22421 
L 470.634143 -82.139041 
L 470.650508 -82.05372 
L 470.666387 -81.968246 
L 470.681722 -81.88262 
L 470.696467 -81.796839 
L 470.710591 -81.710905 
L 470.724073 -81.624815 
L 470.73691 -81.538571 
L 470.749109 -81.45217 
L 470.760689 -81.365613 
L 470.771681 -81.278899 
L 470.782125 -81.192028 
L 470.792069 -81.104998 
L 470.801565 -81.01781 
L 470.810668 -80.930462 
L 470.819435 -80.842955 
L 470.827917 -80.755287 
L 470.836166 -80.667458 
L 470.844223 -80.579467 
L 470.852122 -80.491314 
L 470.85989 -80.402999 
L 470.867539 -80.31452 
L 470.875072 -80.225876 
L 470.88248 -80.137069 
L 470.889745 -80.048095 
L 470.896836 -79.958956 
L 470.903717 -79.869651 
L 470.910343 -79.780178 
L 470.916666 -79.690538 
L 470.922637 -79.600729 
L 470.928207 -79.510751 
L 470.933332 -79.420604 
L 470.937973 -79.330286 
L 470.942103 -79.239797 
L 470.945705 -79.149137 
L 470.948776 -79.058304 
L 470.951331 -78.967299 
L 470.953399 -78.87612 
L 470.955029 -78.784766 
L 470.956288 -78.693238 
L 470.95726 -78.601535 
L 470.958045 -78.509655 
L 470.958758 -78.417598 
L 470.959527 -78.325363 
L 470.960489 -78.232951 
L 470.961787 -78.140359 
L 470.963565 -78.047588 
L 470.965964 -77.954636 
L 470.969118 -77.861503 
L 470.973148 -77.768188 
L 470.978155 -77.674691 
L 470.984219 -77.581011 
L 470.991393 -77.487147 
L 470.999697 -77.393098 
L 471.009115 -77.298864 
L 471.019595 -77.204443 
L 471.031043 -77.109836 
L 471.043328 -77.015042 
L 471.056277 -76.920058 
L 471.069681 -76.824886 
L 471.083297 -76.729524 
L 471.096851 -76.633972 
L 471.110046 -76.538228 
L 471.122569 -76.442292 
L 471.134093 -76.346163 
L 471.144293 -76.24984 
L 471.152847 -76.153323 
L 471.159447 -76.056611 
L 471.163809 -75.959702 
L 471.165676 -75.862597 
L 471.16483 -75.765294 
L 471.161093 -75.667793 
L 471.154335 -75.570093 
L 471.144477 -75.472192 
L 471.131492 -75.374091 
L 471.115407 -75.275787 
L 471.096302 -75.177282 
L 471.074307 -75.078573 
L 471.049602 -74.979659 
L 471.022408 -74.880541 
L 470.992985 -74.781217 
L 470.961623 -74.681686 
L 470.92864 -74.581947 
L 470.894365 -74.482 
L 470.859142 -74.381843 
L 470.823314 -74.281476 
L 470.787219 -74.180898 
L 470.751183 -74.080108 
L 470.715513 -73.979105 
L 470.680494 -73.877888 
L 470.646383 -73.776457 
z
" style="stroke: #3f3f3f; stroke-width: 1.25"/>
    </defs>
    <g clip-path="url(#p982e5662a4)">
     <use xlink:href="#m20670e0bcd" x="0" y="392.514375" style="fill: #e1812c; stroke: #3f3f3f; stroke-width: 1.25"/>
    </g>
   </g>
   <g id="FillBetweenPolyCollection_7">
    <defs>
     <path id="mc1134b16e9" d="M 473.075526 -255.254938 
L 472.46216 -255.254938 
L 472.433394 -255.308623 
L 472.403877 -255.362247 
L 472.373812 -255.415811 
L 472.343424 -255.469316 
L 472.312945 -255.52276 
L 472.282619 -255.576145 
L 472.252697 -255.629471 
L 472.223429 -255.682737 
L 472.195067 -255.735943 
L 472.167853 -255.789091 
L 472.142026 -255.84218 
L 472.11781 -255.895209 
L 472.095414 -255.94818 
L 472.075034 -256.001092 
L 472.056841 -256.053946 
L 472.040989 -256.106742 
L 472.027607 -256.159479 
L 472.016799 -256.212158 
L 472.008643 -256.264779 
L 472.003191 -256.317342 
L 472.000466 -256.369848 
L 472.000461 -256.422296 
L 472.003143 -256.474686 
L 472.008449 -256.527019 
L 472.016288 -256.579295 
L 472.02654 -256.631514 
L 472.039063 -256.683676 
L 472.053689 -256.735781 
L 472.07023 -256.787829 
L 472.088482 -256.83982 
L 472.108225 -256.891756 
L 472.129232 -256.943634 
L 472.151267 -256.995457 
L 472.174097 -257.047223 
L 472.197491 -257.098934 
L 472.221224 -257.150588 
L 472.245084 -257.202187 
L 472.268872 -257.25373 
L 472.292408 -257.305218 
L 472.315527 -257.356651 
L 472.338087 -257.408028 
L 472.359966 -257.459349 
L 472.381061 -257.510616 
L 472.40129 -257.561828 
L 472.420589 -257.612985 
L 472.438911 -257.664088 
L 472.456225 -257.715136 
L 472.472512 -257.766129 
L 472.487767 -257.817068 
L 472.501992 -257.867953 
L 472.515199 -257.918784 
L 472.527405 -257.969561 
L 472.538631 -258.020284 
L 472.548901 -258.070953 
L 472.558243 -258.121569 
L 472.566685 -258.172131 
L 472.574258 -258.222639 
L 472.580992 -258.273094 
L 472.586921 -258.323497 
L 472.59208 -258.373846 
L 472.596508 -258.424142 
L 472.600248 -258.474385 
L 472.603348 -258.524575 
L 472.605863 -258.574713 
L 472.607854 -258.624798 
L 472.609389 -258.674831 
L 472.610544 -258.724812 
L 472.611402 -258.77474 
L 472.612049 -258.824617 
L 472.612577 -258.874441 
L 472.613078 -258.924213 
L 472.613644 -258.973934 
L 472.614362 -259.023603 
L 472.615313 -259.073221 
L 472.616568 -259.122787 
L 472.618187 -259.172301 
L 472.620215 -259.221765 
L 472.622681 -259.271177 
L 472.6256 -259.320538 
L 472.628968 -259.369849 
L 472.632767 -259.419109 
L 472.636966 -259.468317 
L 472.641521 -259.517476 
L 472.646378 -259.566584 
L 472.651478 -259.615641 
L 472.656757 -259.664648 
L 472.662152 -259.713605 
L 472.6676 -259.762512 
L 472.673045 -259.811369 
L 472.678435 -259.860176 
L 472.683726 -259.908933 
L 472.688884 -259.957641 
L 472.693883 -260.006299 
L 472.698706 -260.054907 
L 472.703342 -260.103467 
L 472.707789 -260.151977 
L 472.712049 -260.200437 
L 472.71613 -260.248849 
L 472.720039 -260.297212 
L 472.826393 -260.297212 
L 472.826393 -260.297212 
L 472.830261 -260.248849 
L 472.834296 -260.200437 
L 472.838505 -260.151977 
L 472.842895 -260.103467 
L 472.847467 -260.054907 
L 472.852219 -260.006299 
L 472.85714 -259.957641 
L 472.862213 -259.908933 
L 472.867412 -259.860176 
L 472.872702 -259.811369 
L 472.878041 -259.762512 
L 472.883378 -259.713605 
L 472.888657 -259.664648 
L 472.893817 -259.615641 
L 472.898798 -259.566584 
L 472.903537 -259.517476 
L 472.907976 -259.468317 
L 472.912066 -259.419109 
L 472.915764 -259.369849 
L 472.919039 -259.320538 
L 472.921876 -259.271177 
L 472.924272 -259.221765 
L 472.926241 -259.172301 
L 472.927813 -259.122787 
L 472.929031 -259.073221 
L 472.929954 -259.023603 
L 472.930651 -258.973934 
L 472.931199 -258.924213 
L 472.931685 -258.874441 
L 472.932197 -258.824617 
L 472.932825 -258.77474 
L 472.933656 -258.724812 
L 472.934776 -258.674831 
L 472.936264 -258.624798 
L 472.938193 -258.574713 
L 472.940628 -258.524575 
L 472.943629 -258.474385 
L 472.947246 -258.424142 
L 472.951526 -258.373846 
L 472.956508 -258.323497 
L 472.962227 -258.273094 
L 472.968715 -258.222639 
L 472.976002 -258.172131 
L 472.984113 -258.121569 
L 472.993073 -258.070953 
L 473.002906 -258.020284 
L 473.013631 -257.969561 
L 473.025268 -257.918784 
L 473.037829 -257.867953 
L 473.051324 -257.817068 
L 473.065756 -257.766129 
L 473.081119 -257.715136 
L 473.0974 -257.664088 
L 473.114571 -257.612985 
L 473.132596 -257.561828 
L 473.151419 -257.510616 
L 473.170974 -257.459349 
L 473.191175 -257.408028 
L 473.211921 -257.356651 
L 473.233091 -257.305218 
L 473.25455 -257.25373 
L 473.276146 -257.202187 
L 473.297713 -257.150588 
L 473.319072 -257.098934 
L 473.340036 -257.047223 
L 473.360409 -256.995457 
L 473.379993 -256.943634 
L 473.39859 -256.891756 
L 473.416005 -256.83982 
L 473.432049 -256.787829 
L 473.446544 -256.735781 
L 473.459324 -256.683676 
L 473.470241 -256.631514 
L 473.47916 -256.579295 
L 473.485967 -256.527019 
L 473.49057 -256.474686 
L 473.492895 -256.422296 
L 473.492891 -256.369848 
L 473.490529 -256.317342 
L 473.485799 -256.264779 
L 473.478715 -256.212158 
L 473.469312 -256.159479 
L 473.457643 -256.106742 
L 473.443785 -256.053946 
L 473.427832 -256.001092 
L 473.409897 -255.94818 
L 473.390114 -255.895209 
L 473.368632 -255.84218 
L 473.345616 -255.789091 
L 473.321249 -255.735943 
L 473.295723 -255.682737 
L 473.269245 -255.629471 
L 473.242027 -255.576145 
L 473.21429 -255.52276 
L 473.186256 -255.469316 
L 473.158148 -255.415811 
L 473.130184 -255.362247 
L 473.102576 -255.308623 
L 473.075526 -255.254938 
z
" style="stroke: #3f3f3f; stroke-width: 1.25"/>
    </defs>
    <g clip-path="url(#p982e5662a4)">
     <use xlink:href="#mc1134b16e9" x="0" y="392.514375" style="fill: #3274a1; stroke: #3f3f3f; stroke-width: 1.25"/>
    </g>
   </g>
   <g id="FillBetweenPolyCollection_8">
    <defs>
     <path id="m5f9787da8b" d="M 474.62911 -141.098283 
L 473.681331 -141.098283 
L 473.627084 -141.361999 
L 473.579141 -141.624269 
L 473.54 -141.885108 
L 473.511736 -142.144531 
L 473.495801 -142.402554 
L 473.492895 -142.659193 
L 473.502915 -142.914461 
L 473.524995 -143.168373 
L 473.557629 -143.420944 
L 473.598842 -143.672188 
L 473.64639 -143.922118 
L 473.697964 -144.170749 
L 473.751355 -144.418093 
L 473.804588 -144.664164 
L 473.85601 -144.908975 
L 473.904327 -145.152539 
L 473.948611 -145.394869 
L 473.988281 -145.635976 
L 474.023059 -145.875873 
L 474.052921 -146.114573 
L 474.078049 -146.352087 
L 474.098771 -146.588427 
L 474.115521 -146.823604 
L 474.128786 -147.05763 
L 474.139077 -147.290516 
L 474.146895 -147.522273 
L 474.152708 -147.752912 
L 474.156937 -147.982444 
L 474.159945 -148.210879 
L 474.162038 -148.438228 
L 474.163461 -148.664501 
L 474.164405 -148.889708 
L 474.165018 -149.113859 
L 474.165406 -149.336964 
L 474.165646 -149.559033 
L 474.165791 -149.780075 
L 474.165876 -150.0001 
L 474.165925 -150.219116 
L 474.165952 -150.437135 
L 474.165967 -150.654163 
L 474.165975 -150.870211 
L 474.165979 -151.085286 
L 474.165981 -151.299399 
L 474.165982 -151.512557 
L 474.165983 -151.724769 
L 474.165983 -151.936043 
L 474.165983 -152.146387 
L 474.165983 -152.35581 
L 474.165983 -152.56432 
L 474.165983 -152.771924 
L 474.165983 -152.978631 
L 474.165983 -153.184448 
L 474.165983 -153.389383 
L 474.165983 -153.593443 
L 474.165983 -153.796635 
L 474.165983 -153.998968 
L 474.165983 -154.200448 
L 474.165983 -154.401083 
L 474.165983 -154.600879 
L 474.165983 -154.799843 
L 474.165983 -154.997983 
L 474.165983 -155.195306 
L 474.165983 -155.391817 
L 474.165983 -155.587524 
L 474.165983 -155.782433 
L 474.165983 -155.97655 
L 474.165983 -156.169883 
L 474.165983 -156.362437 
L 474.165983 -156.554218 
L 474.165983 -156.745234 
L 474.165983 -156.935489 
L 474.165982 -157.12499 
L 474.165981 -157.313743 
L 474.165978 -157.501753 
L 474.165974 -157.689027 
L 474.165966 -157.875571 
L 474.165952 -158.061389 
L 474.165929 -158.246488 
L 474.165891 -158.430873 
L 474.165831 -158.61455 
L 474.165739 -158.797524 
L 474.1656 -158.9798 
L 474.165398 -159.161384 
L 474.165113 -159.342281 
L 474.164721 -159.522496 
L 474.164199 -159.702034 
L 474.163525 -159.880901 
L 474.162682 -160.059101 
L 474.161662 -160.236639 
L 474.16047 -160.41352 
L 474.159128 -160.589749 
L 474.157674 -160.765331 
L 474.156167 -160.940271 
L 474.15468 -161.114573 
L 474.153297 -161.288241 
L 474.152105 -161.461281 
L 474.151186 -161.633697 
L 474.150606 -161.805494 
L 474.150407 -161.976675 
L 474.181536 -161.976675 
L 474.181536 -161.976675 
L 474.181338 -161.805494 
L 474.18076 -161.633697 
L 474.179843 -161.461281 
L 474.178654 -161.288241 
L 474.177275 -161.114573 
L 474.175791 -160.940271 
L 474.174286 -160.765331 
L 474.172834 -160.589749 
L 474.171493 -160.41352 
L 474.170303 -160.236639 
L 474.169284 -160.059101 
L 474.168441 -159.880901 
L 474.167767 -159.702034 
L 474.167246 -159.522496 
L 474.166854 -159.342281 
L 474.166568 -159.161384 
L 474.166367 -158.9798 
L 474.166228 -158.797524 
L 474.166136 -158.61455 
L 474.166076 -158.430873 
L 474.166038 -158.246488 
L 474.166015 -158.061389 
L 474.166001 -157.875571 
L 474.165993 -157.689027 
L 474.165989 -157.501753 
L 474.165986 -157.313743 
L 474.165985 -157.12499 
L 474.165984 -156.935489 
L 474.165984 -156.745234 
L 474.165984 -156.554218 
L 474.165983 -156.362437 
L 474.165983 -156.169883 
L 474.165983 -155.97655 
L 474.165983 -155.782433 
L 474.165983 -155.587524 
L 474.165983 -155.391817 
L 474.165983 -155.195306 
L 474.165983 -154.997983 
L 474.165983 -154.799843 
L 474.165983 -154.600879 
L 474.165983 -154.401083 
L 474.165983 -154.200448 
L 474.165983 -153.998968 
L 474.165983 -153.796635 
L 474.165983 -153.593443 
L 474.165983 -153.389383 
L 474.165983 -153.184448 
L 474.165983 -152.978631 
L 474.165983 -152.771924 
L 474.165983 -152.56432 
L 474.165983 -152.35581 
L 474.165983 -152.146387 
L 474.165984 -151.936043 
L 474.165984 -151.724769 
L 474.165984 -151.512557 
L 474.165985 -151.299399 
L 474.165987 -151.085286 
L 474.165992 -150.870211 
L 474.166 -150.654163 
L 474.166015 -150.437135 
L 474.166042 -150.219116 
L 474.166091 -150.0001 
L 474.166176 -149.780075 
L 474.166321 -149.559033 
L 474.166561 -149.336964 
L 474.166949 -149.113859 
L 474.167561 -148.889708 
L 474.168505 -148.664501 
L 474.169927 -148.438228 
L 474.172018 -148.210879 
L 474.175022 -147.982444 
L 474.179242 -147.752912 
L 474.185037 -147.522273 
L 474.192821 -147.290516 
L 474.203049 -147.05763 
L 474.216203 -146.823604 
L 474.232765 -146.588427 
L 474.253183 -146.352087 
L 474.277833 -146.114573 
L 474.306976 -145.875873 
L 474.340708 -145.635976 
L 474.378917 -145.394869 
L 474.421236 -145.152539 
L 474.467009 -144.908975 
L 474.515274 -144.664164 
L 474.564756 -144.418093 
L 474.613899 -144.170749 
L 474.660914 -143.922118 
L 474.703868 -143.672188 
L 474.740799 -143.420944 
L 474.769847 -143.168373 
L 474.789404 -142.914461 
L 474.798252 -142.659193 
L 474.795688 -142.402554 
L 474.7816 -142.144531 
L 474.756512 -141.885108 
L 474.721556 -141.624269 
L 474.6784 -141.361999 
L 474.62911 -141.098283 
z
" style="stroke: #3f3f3f; stroke-width: 1.25"/>
    </defs>
    <g clip-path="url(#p982e5662a4)">
     <use xlink:href="#m5f9787da8b" x="0" y="392.514375" style="fill: #e1812c; stroke: #3f3f3f; stroke-width: 1.25"/>
    </g>
   </g>
   <g id="FillBetweenPolyCollection_9">
    <defs>
     <path id="m27e794d713" d="M 476.320297 -335.252085 
L 475.583185 -335.252085 
L 475.543026 -335.499588 
L 475.505263 -335.745817 
L 475.471236 -335.990785 
L 475.442207 -336.234504 
L 475.419283 -336.476986 
L 475.403337 -336.718245 
L 475.39495 -336.958293 
L 475.394372 -337.197141 
L 475.401513 -337.434802 
L 475.415957 -337.671287 
L 475.437004 -337.906609 
L 475.463723 -338.140778 
L 475.495028 -338.373805 
L 475.529747 -338.605702 
L 475.566699 -338.83648 
L 475.604746 -339.066149 
L 475.642854 -339.294721 
L 475.68012 -339.522204 
L 475.715798 -339.748611 
L 475.749306 -339.97395 
L 475.780221 -340.198232 
L 475.808271 -340.421467 
L 475.83332 -340.643664 
L 475.855345 -340.864834 
L 475.874414 -341.084985 
L 475.890669 -341.304127 
L 475.904305 -341.522269 
L 475.91555 -341.73942 
L 475.924649 -341.955589 
L 475.931855 -342.170786 
L 475.937417 -342.385018 
L 475.941573 -342.598294 
L 475.944543 -342.810624 
L 475.946531 -343.022014 
L 475.94772 -343.232474 
L 475.948277 -343.442011 
L 475.94835 -343.650634 
L 475.948071 -343.858351 
L 475.947557 -344.065169 
L 475.946914 -344.271097 
L 475.946232 -344.476141 
L 475.945587 -344.680309 
L 475.945042 -344.88361 
L 475.944642 -345.086049 
L 475.944416 -345.287635 
L 475.944376 -345.488375 
L 475.944515 -345.688275 
L 475.944812 -345.887343 
L 475.945233 -346.085585 
L 475.945732 -346.283009 
L 475.946259 -346.479621 
L 475.946762 -346.675428 
L 475.947192 -346.870436 
L 475.947507 -347.064651 
L 475.947678 -347.258081 
L 475.947688 -347.450732 
L 475.947537 -347.64261 
L 475.947239 -347.83372 
L 475.946822 -348.024069 
L 475.946326 -348.213664 
L 475.945802 -348.40251 
L 475.9453 -348.590613 
L 475.944873 -348.777978 
L 475.94457 -348.964613 
L 475.944428 -349.150521 
L 475.944474 -349.335709 
L 475.944724 -349.520183 
L 475.945177 -349.703948 
L 475.945818 -349.887009 
L 475.946624 -350.069372 
L 475.947559 -350.251042 
L 475.948583 -350.432024 
L 475.949653 -350.612324 
L 475.950728 -350.791946 
L 475.951767 -350.970896 
L 475.952736 -351.149178 
L 475.953607 -351.326799 
L 475.954357 -351.503762 
L 475.95497 -351.680072 
L 475.955434 -351.855734 
L 475.955742 -352.030754 
L 475.955891 -352.205135 
L 475.955878 -352.378882 
L 475.955704 -352.552 
L 475.955371 -352.724494 
L 475.954883 -352.896367 
L 475.954248 -353.067625 
L 475.953478 -353.238271 
L 475.952592 -353.408311 
L 475.951612 -353.577748 
L 475.950569 -353.746586 
L 475.949498 -353.914831 
L 475.948442 -354.082485 
L 475.947444 -354.249554 
L 475.94655 -354.416041 
L 475.945803 -354.58195 
L 475.945239 -354.747285 
L 475.944888 -354.91205 
L 475.94477 -355.07625 
L 475.971717 -355.07625 
L 475.971717 -355.07625 
L 475.971599 -354.91205 
L 475.971249 -354.747285 
L 475.970687 -354.58195 
L 475.969941 -354.416041 
L 475.969049 -354.249554 
L 475.968053 -354.082485 
L 475.966999 -353.914831 
L 475.96593 -353.746586 
L 475.964888 -353.577748 
L 475.963909 -353.408311 
L 475.963024 -353.238271 
L 475.962255 -353.067625 
L 475.96162 -352.896367 
L 475.961133 -352.724494 
L 475.960799 -352.552 
L 475.960625 -352.378882 
L 475.960613 -352.205135 
L 475.960761 -352.030754 
L 475.96107 -351.855734 
L 475.961534 -351.680072 
L 475.962146 -351.503762 
L 475.962895 -351.326799 
L 475.963765 -351.149178 
L 475.964733 -350.970896 
L 475.965771 -350.791946 
L 475.966844 -350.612324 
L 475.967913 -350.432024 
L 475.968935 -350.251042 
L 475.969868 -350.069372 
L 475.970671 -349.887009 
L 475.971311 -349.703948 
L 475.971762 -349.520183 
L 475.972012 -349.335709 
L 475.972058 -349.150521 
L 475.971917 -348.964613 
L 475.971614 -348.777978 
L 475.971188 -348.590613 
L 475.970688 -348.40251 
L 475.970164 -348.213664 
L 475.96967 -348.024069 
L 475.969254 -347.83372 
L 475.968956 -347.64261 
L 475.968805 -347.450732 
L 475.968815 -347.258081 
L 475.968986 -347.064651 
L 475.969301 -346.870436 
L 475.96973 -346.675428 
L 475.970231 -346.479621 
L 475.970757 -346.283009 
L 475.971255 -346.085585 
L 475.971675 -345.887343 
L 475.971971 -345.688275 
L 475.97211 -345.488375 
L 475.97207 -345.287635 
L 475.971844 -345.086049 
L 475.971445 -344.88361 
L 475.970901 -344.680309 
L 475.970258 -344.476141 
L 475.969578 -344.271097 
L 475.968936 -344.065169 
L 475.968424 -343.858351 
L 475.968145 -343.650634 
L 475.968217 -343.442011 
L 475.968773 -343.232474 
L 475.96996 -343.022014 
L 475.971943 -342.810624 
L 475.974905 -342.598294 
L 475.979045 -342.385018 
L 475.984582 -342.170786 
L 475.991748 -341.955589 
L 476.00078 -341.73942 
L 476.011921 -341.522269 
L 476.0254 -341.304127 
L 476.041422 -341.084985 
L 476.060154 -340.864834 
L 476.081705 -340.643664 
L 476.106107 -340.421467 
L 476.133295 -340.198232 
L 476.163094 -339.97395 
L 476.195197 -339.748611 
L 476.229159 -339.522204 
L 476.264392 -339.294721 
L 476.300168 -339.066149 
L 476.335636 -338.83648 
L 476.369843 -338.605702 
L 476.401774 -338.373805 
L 476.43039 -338.140778 
L 476.454684 -337.906609 
L 476.473737 -337.671287 
L 476.486771 -337.434802 
L 476.493203 -337.197141 
L 476.492682 -336.958293 
L 476.485127 -336.718245 
L 476.470731 -336.476986 
L 476.449962 -336.234504 
L 476.423537 -335.990785 
L 476.392382 -335.745817 
L 476.357578 -335.499588 
L 476.320297 -335.252085 
z
" style="stroke: #3f3f3f; stroke-width: 1.25"/>
    </defs>
    <g clip-path="url(#p982e5662a4)">
     <use xlink:href="#m27e794d713" x="0" y="392.514375" style="fill: #3274a1; stroke: #3f3f3f; stroke-width: 1.25"/>
    </g>
   </g>
   <g id="FillBetweenPolyCollection_10">
    <defs>
     <path id="me9d11ee1f2" d="M 477.073392 -219.081488 
L 476.93021 -219.081488 
L 476.926971 -219.273516 
L 476.923965 -219.464775 
L 476.921225 -219.655273 
L 476.918776 -219.845014 
L 476.91664 -220.034006 
L 476.914834 -220.222253 
L 476.913366 -220.409762 
L 476.912244 -220.596538 
L 476.911465 -220.782588 
L 476.911023 -220.967916 
L 476.910905 -221.152529 
L 476.911095 -221.336431 
L 476.911568 -221.519629 
L 476.912299 -221.702128 
L 476.913254 -221.883932 
L 476.9144 -222.065048 
L 476.915697 -222.245481 
L 476.917107 -222.425235 
L 476.918586 -222.604315 
L 476.92009 -222.782728 
L 476.921577 -222.960477 
L 476.923002 -223.137567 
L 476.924321 -223.314004 
L 476.925494 -223.489793 
L 476.92648 -223.664937 
L 476.927243 -223.839442 
L 476.927747 -224.013313 
L 476.927962 -224.186553 
L 476.927861 -224.359168 
L 476.927422 -224.531162 
L 476.926627 -224.70254 
L 476.925462 -224.873305 
L 476.92392 -225.043463 
L 476.921996 -225.213017 
L 476.919692 -225.381972 
L 476.917014 -225.550332 
L 476.913969 -225.718101 
L 476.910572 -225.885283 
L 476.906839 -226.051883 
L 476.902787 -226.217905 
L 476.898437 -226.383351 
L 476.893811 -226.548228 
L 476.888928 -226.712537 
L 476.88381 -226.876284 
L 476.878474 -227.039472 
L 476.872936 -227.202105 
L 476.867207 -227.364187 
L 476.861293 -227.525721 
L 476.855196 -227.68671 
L 476.848909 -227.84716 
L 476.842419 -228.007073 
L 476.835704 -228.166453 
L 476.828735 -228.325303 
L 476.821474 -228.483628 
L 476.813876 -228.641429 
L 476.805889 -228.798712 
L 476.797456 -228.955479 
L 476.788516 -229.111733 
L 476.779008 -229.267479 
L 476.768874 -229.422719 
L 476.75806 -229.577456 
L 476.746522 -229.731694 
L 476.734228 -229.885436 
L 476.721167 -230.038686 
L 476.707345 -230.191445 
L 476.692795 -230.343719 
L 476.677578 -230.495508 
L 476.661786 -230.646818 
L 476.64554 -230.79765 
L 476.628998 -230.948007 
L 476.612343 -231.097893 
L 476.595793 -231.247311 
L 476.579587 -231.396263 
L 476.563987 -231.544753 
L 476.549266 -231.692783 
L 476.535706 -231.840356 
L 476.523587 -231.987475 
L 476.513179 -232.134142 
L 476.504732 -232.280361 
L 476.498469 -232.426134 
L 476.494577 -232.571464 
L 476.493203 -232.716354 
L 476.494443 -232.860806 
L 476.498344 -233.004822 
L 476.504898 -233.148406 
L 476.514046 -233.291561 
L 476.525672 -233.434288 
L 476.539619 -233.57659 
L 476.555681 -233.718469 
L 476.57362 -233.859929 
L 476.593169 -234.000972 
L 476.614039 -234.1416 
L 476.635931 -234.281815 
L 476.658543 -234.42162 
L 476.681576 -234.561018 
L 476.704743 -234.70001 
L 476.727777 -234.8386 
L 476.750431 -234.976789 
L 476.772488 -235.11458 
L 477.226662 -235.11458 
L 477.226662 -235.11458 
L 477.247736 -234.976789 
L 477.269289 -234.8386 
L 477.291111 -234.70001 
L 477.312964 -234.561018 
L 477.334597 -234.42162 
L 477.355745 -234.281815 
L 477.376136 -234.1416 
L 477.395498 -234.000972 
L 477.413567 -233.859929 
L 477.430091 -233.718469 
L 477.444839 -233.57659 
L 477.45761 -233.434288 
L 477.468232 -233.291561 
L 477.476572 -233.148406 
L 477.48254 -233.004822 
L 477.486088 -232.860806 
L 477.487216 -232.716354 
L 477.485966 -232.571464 
L 477.482426 -232.426134 
L 477.476724 -232.280361 
L 477.469022 -232.134142 
L 477.459516 -231.987475 
L 477.448425 -231.840356 
L 477.435986 -231.692783 
L 477.422447 -231.544753 
L 477.408059 -231.396263 
L 477.393068 -231.247311 
L 477.377712 -231.097893 
L 477.362213 -230.948007 
L 477.346769 -230.79765 
L 477.331557 -230.646818 
L 477.316725 -230.495508 
L 477.302393 -230.343719 
L 477.288651 -230.191445 
L 477.275561 -230.038686 
L 477.26316 -229.885436 
L 477.251462 -229.731694 
L 477.240457 -229.577456 
L 477.230121 -229.422719 
L 477.220416 -229.267479 
L 477.211294 -229.111733 
L 477.202702 -228.955479 
L 477.194584 -228.798712 
L 477.186883 -228.641429 
L 477.179547 -228.483628 
L 477.172526 -228.325303 
L 477.165779 -228.166453 
L 477.159269 -228.007073 
L 477.152969 -227.84716 
L 477.146859 -227.68671 
L 477.140927 -227.525721 
L 477.135166 -227.364187 
L 477.12958 -227.202105 
L 477.124173 -227.039472 
L 477.118959 -226.876284 
L 477.113952 -226.712537 
L 477.109172 -226.548228 
L 477.104638 -226.383351 
L 477.100372 -226.217905 
L 477.096394 -226.051883 
L 477.092727 -225.885283 
L 477.089388 -225.718101 
L 477.086393 -225.550332 
L 477.083757 -225.381972 
L 477.081488 -225.213017 
L 477.079594 -225.043463 
L 477.078074 -224.873305 
L 477.076926 -224.70254 
L 477.076142 -224.531162 
L 477.07571 -224.359168 
L 477.07561 -224.186553 
L 477.075822 -224.013313 
L 477.076319 -223.839442 
L 477.07707 -223.664937 
L 477.078042 -223.489793 
L 477.079198 -223.314004 
L 477.080498 -223.137567 
L 477.081901 -222.960477 
L 477.083365 -222.782728 
L 477.084846 -222.604315 
L 477.086301 -222.425235 
L 477.087688 -222.245481 
L 477.088964 -222.065048 
L 477.090091 -221.883932 
L 477.09103 -221.702128 
L 477.091748 -221.519629 
L 477.092213 -221.336431 
L 477.092399 -221.152529 
L 477.092284 -220.967916 
L 477.09185 -220.782588 
L 477.091084 -220.596538 
L 477.08998 -220.409762 
L 477.088538 -220.222253 
L 477.08676 -220.034006 
L 477.084658 -219.845014 
L 477.082248 -219.655273 
L 477.079549 -219.464775 
L 477.076587 -219.273516 
L 477.073392 -219.081488 
z
" style="stroke: #3f3f3f; stroke-width: 1.25"/>
    </defs>
    <g clip-path="url(#p982e5662a4)">
     <use xlink:href="#me9d11ee1f2" x="0" y="392.514375" style="fill: #e1812c; stroke: #3f3f3f; stroke-width: 1.25"/>
    </g>
   </g>
   <g id="patch_3">
    <path d="M -23552.192993 110149.713157 
L -23552.192993 110149.713157 
L -23552.192993 110149.713157 
L -23552.192993 110149.713157 
z
" clip-path="url(#p982e5662a4)" style="fill: #3274a1; stroke: #3f3f3f; stroke-width: 1.25; stroke-linejoin: miter"/>
   </g>
   <g id="patch_4">
    <path d="M -23552.192993 110149.713157 
L -23552.192993 110149.713157 
L -23552.192993 110149.713157 
L -23552.192993 110149.713157 
z
" clip-path="url(#p982e5662a4)" style="fill: #e1812c; stroke: #3f3f3f; stroke-width: 1.25; stroke-linejoin: miter"/>
   </g>
   <g id="matplotlib.axis_1">
    <g id="xtick_1">
     <g id="line2d_1">
      <defs>
       <path id="m78e8879d5a" d="M 0 0 
L 0 3.5 
" style="stroke: #000000; stroke-width: 0.8"/>
      </defs>
      <g>
       <use xlink:href="#m78e8879d5a" x="101.821774" y="354.958125" style="stroke: #000000; stroke-width: 0.8"/>
      </g>
     </g>
     <g id="text_1">
      <!-- $\mathdefault{10^{-15}}$ -->
      <g transform="translate(87.871774 369.556562) scale(0.1 -0.1)">
       <defs>
        <path id="DejaVuSans-31" d="M 794 531 
L 1825 531 
L 1825 4091 
L 703 3866 
L 703 4441 
L 1819 4666 
L 2450 4666 
L 2450 531 
L 3481 531 
L 3481 0 
L 794 0 
L 794 531 
z
" transform="scale(0.015625)"/>
        <path id="DejaVuSans-30" d="M 2034 4250 
Q 1547 4250 1301 3770 
Q 1056 3291 1056 2328 
Q 1056 1369 1301 889 
Q 1547 409 2034 409 
Q 2525 409 2770 889 
Q 3016 1369 3016 2328 
Q 3016 3291 2770 3770 
Q 2525 4250 2034 4250 
z
M 2034 4750 
Q 2819 4750 3233 4129 
Q 3647 3509 3647 2328 
Q 3647 1150 3233 529 
Q 2819 -91 2034 -91 
Q 1250 -91 836 529 
Q 422 1150 422 2328 
Q 422 3509 836 4129 
Q 1250 4750 2034 4750 
z
" transform="scale(0.015625)"/>
        <path id="DejaVuSans-2212" d="M 678 2272 
L 4684 2272 
L 4684 1741 
L 678 1741 
L 678 2272 
z
" transform="scale(0.015625)"/>
        <path id="DejaVuSans-35" d="M 691 4666 
L 3169 4666 
L 3169 4134 
L 1269 4134 
L 1269 2991 
Q 1406 3038 1543 3061 
Q 1681 3084 1819 3084 
Q 2600 3084 3056 2656 
Q 3513 2228 3513 1497 
Q 3513 744 3044 326 
Q 2575 -91 1722 -91 
Q 1428 -91 1123 -41 
Q 819 9 494 109 
L 494 744 
Q 775 591 1075 516 
Q 1375 441 1709 441 
Q 2250 441 2565 725 
Q 2881 1009 2881 1497 
Q 2881 1984 2565 2268 
Q 2250 2553 1709 2553 
Q 1456 2553 1204 2497 
Q 953 2441 691 2322 
L 691 4666 
z
" transform="scale(0.015625)"/>
       </defs>
       <use xlink:href="#DejaVuSans-31" transform="translate(0 0.684375)"/>
       <use xlink:href="#DejaVuSans-30" transform="translate(63.623047 0.684375)"/>
       <use xlink:href="#DejaVuSans-2212" transform="translate(128.203125 38.965625) scale(0.7)"/>
       <use xlink:href="#DejaVuSans-31" transform="translate(186.855469 38.965625) scale(0.7)"/>
       <use xlink:href="#DejaVuSans-35" transform="translate(231.391602 38.965625) scale(0.7)"/>
      </g>
     </g>
    </g>
    <g id="xtick_2">
     <g id="line2d_2">
      <g>
       <use xlink:href="#m78e8879d5a" x="173.864458" y="354.958125" style="stroke: #000000; stroke-width: 0.8"/>
      </g>
     </g>
     <g id="text_2">
      <!-- $\mathdefault{10^{-12}}$ -->
      <g transform="translate(159.914458 369.556562) scale(0.1 -0.1)">
       <defs>
        <path id="DejaVuSans-32" d="M 1228 531 
L 3431 531 
L 3431 0 
L 469 0 
L 469 531 
Q 828 903 1448 1529 
Q 2069 2156 2228 2338 
Q 2531 2678 2651 2914 
Q 2772 3150 2772 3378 
Q 2772 3750 2511 3984 
Q 2250 4219 1831 4219 
Q 1534 4219 1204 4116 
Q 875 4013 500 3803 
L 500 4441 
Q 881 4594 1212 4672 
Q 1544 4750 1819 4750 
Q 2544 4750 2975 4387 
Q 3406 4025 3406 3419 
Q 3406 3131 3298 2873 
Q 3191 2616 2906 2266 
Q 2828 2175 2409 1742 
Q 1991 1309 1228 531 
z
" transform="scale(0.015625)"/>
       </defs>
       <use xlink:href="#DejaVuSans-31" transform="translate(0 0.765625)"/>
       <use xlink:href="#DejaVuSans-30" transform="translate(63.623047 0.765625)"/>
       <use xlink:href="#DejaVuSans-2212" transform="translate(128.203125 39.046875) scale(0.7)"/>
       <use xlink:href="#DejaVuSans-31" transform="translate(186.855469 39.046875) scale(0.7)"/>
       <use xlink:href="#DejaVuSans-32" transform="translate(231.391602 39.046875) scale(0.7)"/>
      </g>
     </g>
    </g>
    <g id="xtick_3">
     <g id="line2d_3">
      <g>
       <use xlink:href="#m78e8879d5a" x="245.907143" y="354.958125" style="stroke: #000000; stroke-width: 0.8"/>
      </g>
     </g>
     <g id="text_3">
      <!-- $\mathdefault{10^{-9}}$ -->
      <g transform="translate(234.157143 369.556562) scale(0.1 -0.1)">
       <defs>
        <path id="DejaVuSans-39" d="M 703 97 
L 703 672 
Q 941 559 1184 500 
Q 1428 441 1663 441 
Q 2288 441 2617 861 
Q 2947 1281 2994 2138 
Q 2813 1869 2534 1725 
Q 2256 1581 1919 1581 
Q 1219 1581 811 2004 
Q 403 2428 403 3163 
Q 403 3881 828 4315 
Q 1253 4750 1959 4750 
Q 2769 4750 3195 4129 
Q 3622 3509 3622 2328 
Q 3622 1225 3098 567 
Q 2575 -91 1691 -91 
Q 1453 -91 1209 -44 
Q 966 3 703 97 
z
M 1959 2075 
Q 2384 2075 2632 2365 
Q 2881 2656 2881 3163 
Q 2881 3666 2632 3958 
Q 2384 4250 1959 4250 
Q 1534 4250 1286 3958 
Q 1038 3666 1038 3163 
Q 1038 2656 1286 2365 
Q 1534 2075 1959 2075 
z
" transform="scale(0.015625)"/>
       </defs>
       <use xlink:href="#DejaVuSans-31" transform="translate(0 0.765625)"/>
       <use xlink:href="#DejaVuSans-30" transform="translate(63.623047 0.765625)"/>
       <use xlink:href="#DejaVuSans-2212" transform="translate(128.203125 39.046875) scale(0.7)"/>
       <use xlink:href="#DejaVuSans-39" transform="translate(186.855469 39.046875) scale(0.7)"/>
      </g>
     </g>
    </g>
    <g id="xtick_4">
     <g id="line2d_4">
      <g>
       <use xlink:href="#m78e8879d5a" x="317.949827" y="354.958125" style="stroke: #000000; stroke-width: 0.8"/>
      </g>
     </g>
     <g id="text_4">
      <!-- $\mathdefault{10^{-6}}$ -->
      <g transform="translate(306.199827 369.556562) scale(0.1 -0.1)">
       <defs>
        <path id="DejaVuSans-36" d="M 2113 2584 
Q 1688 2584 1439 2293 
Q 1191 2003 1191 1497 
Q 1191 994 1439 701 
Q 1688 409 2113 409 
Q 2538 409 2786 701 
Q 3034 994 3034 1497 
Q 3034 2003 2786 2293 
Q 2538 2584 2113 2584 
z
M 3366 4563 
L 3366 3988 
Q 3128 4100 2886 4159 
Q 2644 4219 2406 4219 
Q 1781 4219 1451 3797 
Q 1122 3375 1075 2522 
Q 1259 2794 1537 2939 
Q 1816 3084 2150 3084 
Q 2853 3084 3261 2657 
Q 3669 2231 3669 1497 
Q 3669 778 3244 343 
Q 2819 -91 2113 -91 
Q 1303 -91 875 529 
Q 447 1150 447 2328 
Q 447 3434 972 4092 
Q 1497 4750 2381 4750 
Q 2619 4750 2861 4703 
Q 3103 4656 3366 4563 
z
" transform="scale(0.015625)"/>
       </defs>
       <use xlink:href="#DejaVuSans-31" transform="translate(0 0.765625)"/>
       <use xlink:href="#DejaVuSans-30" transform="translate(63.623047 0.765625)"/>
       <use xlink:href="#DejaVuSans-2212" transform="translate(128.203125 39.046875) scale(0.7)"/>
       <use xlink:href="#DejaVuSans-36" transform="translate(186.855469 39.046875) scale(0.7)"/>
      </g>
     </g>
    </g>
    <g id="xtick_5">
     <g id="line2d_5">
      <g>
       <use xlink:href="#m78e8879d5a" x="389.992512" y="354.958125" style="stroke: #000000; stroke-width: 0.8"/>
      </g>
     </g>
     <g id="text_5">
      <!-- $\mathdefault{10^{-3}}$ -->
      <g transform="translate(378.242512 369.556562) scale(0.1 -0.1)">
       <defs>
        <path id="DejaVuSans-33" d="M 2597 2516 
Q 3050 2419 3304 2112 
Q 3559 1806 3559 1356 
Q 3559 666 3084 287 
Q 2609 -91 1734 -91 
Q 1441 -91 1130 -33 
Q 819 25 488 141 
L 488 750 
Q 750 597 1062 519 
Q 1375 441 1716 441 
Q 2309 441 2620 675 
Q 2931 909 2931 1356 
Q 2931 1769 2642 2001 
Q 2353 2234 1838 2234 
L 1294 2234 
L 1294 2753 
L 1863 2753 
Q 2328 2753 2575 2939 
Q 2822 3125 2822 3475 
Q 2822 3834 2567 4026 
Q 2313 4219 1838 4219 
Q 1578 4219 1281 4162 
Q 984 4106 628 3988 
L 628 4550 
Q 988 4650 1302 4700 
Q 1616 4750 1894 4750 
Q 2613 4750 3031 4423 
Q 3450 4097 3450 3541 
Q 3450 3153 3228 2886 
Q 3006 2619 2597 2516 
z
" transform="scale(0.015625)"/>
       </defs>
       <use xlink:href="#DejaVuSans-31" transform="translate(0 0.765625)"/>
       <use xlink:href="#DejaVuSans-30" transform="translate(63.623047 0.765625)"/>
       <use xlink:href="#DejaVuSans-2212" transform="translate(128.203125 39.046875) scale(0.7)"/>
       <use xlink:href="#DejaVuSans-33" transform="translate(186.855469 39.046875) scale(0.7)"/>
      </g>
     </g>
    </g>
    <g id="xtick_6">
     <g id="line2d_6">
      <g>
       <use xlink:href="#m78e8879d5a" x="462.035197" y="354.958125" style="stroke: #000000; stroke-width: 0.8"/>
      </g>
     </g>
     <g id="text_6">
      <!-- $\mathdefault{10^{0}}$ -->
      <g transform="translate(453.235197 369.556562) scale(0.1 -0.1)">
       <use xlink:href="#DejaVuSans-31" transform="translate(0 0.765625)"/>
       <use xlink:href="#DejaVuSans-30" transform="translate(63.623047 0.765625)"/>
       <use xlink:href="#DejaVuSans-30" transform="translate(128.203125 39.046875) scale(0.7)"/>
      </g>
     </g>
    </g>
    <g id="text_7">
     <!-- Dataset size (#rows) -->
     <g transform="translate(222.338281 383.234687) scale(0.1 -0.1)">
      <defs>
       <path id="DejaVuSans-44" d="M 1259 4147 
L 1259 519 
L 2022 519 
Q 2988 519 3436 956 
Q 3884 1394 3884 2338 
Q 3884 3275 3436 3711 
Q 2988 4147 2022 4147 
L 1259 4147 
z
M 628 4666 
L 1925 4666 
Q 3281 4666 3915 4102 
Q 4550 3538 4550 2338 
Q 4550 1131 3912 565 
Q 3275 0 1925 0 
L 628 0 
L 628 4666 
z
" transform="scale(0.015625)"/>
       <path id="DejaVuSans-61" d="M 2194 1759 
Q 1497 1759 1228 1600 
Q 959 1441 959 1056 
Q 959 750 1161 570 
Q 1363 391 1709 391 
Q 2188 391 2477 730 
Q 2766 1069 2766 1631 
L 2766 1759 
L 2194 1759 
z
M 3341 1997 
L 3341 0 
L 2766 0 
L 2766 531 
Q 2569 213 2275 61 
Q 1981 -91 1556 -91 
Q 1019 -91 701 211 
Q 384 513 384 1019 
Q 384 1609 779 1909 
Q 1175 2209 1959 2209 
L 2766 2209 
L 2766 2266 
Q 2766 2663 2505 2880 
Q 2244 3097 1772 3097 
Q 1472 3097 1187 3025 
Q 903 2953 641 2809 
L 641 3341 
Q 956 3463 1253 3523 
Q 1550 3584 1831 3584 
Q 2591 3584 2966 3190 
Q 3341 2797 3341 1997 
z
" transform="scale(0.015625)"/>
       <path id="DejaVuSans-74" d="M 1172 4494 
L 1172 3500 
L 2356 3500 
L 2356 3053 
L 1172 3053 
L 1172 1153 
Q 1172 725 1289 603 
Q 1406 481 1766 481 
L 2356 481 
L 2356 0 
L 1766 0 
Q 1100 0 847 248 
Q 594 497 594 1153 
L 594 3053 
L 172 3053 
L 172 3500 
L 594 3500 
L 594 4494 
L 1172 4494 
z
" transform="scale(0.015625)"/>
       <path id="DejaVuSans-73" d="M 2834 3397 
L 2834 2853 
Q 2591 2978 2328 3040 
Q 2066 3103 1784 3103 
Q 1356 3103 1142 2972 
Q 928 2841 928 2578 
Q 928 2378 1081 2264 
Q 1234 2150 1697 2047 
L 1894 2003 
Q 2506 1872 2764 1633 
Q 3022 1394 3022 966 
Q 3022 478 2636 193 
Q 2250 -91 1575 -91 
Q 1294 -91 989 -36 
Q 684 19 347 128 
L 347 722 
Q 666 556 975 473 
Q 1284 391 1588 391 
Q 1994 391 2212 530 
Q 2431 669 2431 922 
Q 2431 1156 2273 1281 
Q 2116 1406 1581 1522 
L 1381 1569 
Q 847 1681 609 1914 
Q 372 2147 372 2553 
Q 372 3047 722 3315 
Q 1072 3584 1716 3584 
Q 2034 3584 2315 3537 
Q 2597 3491 2834 3397 
z
" transform="scale(0.015625)"/>
       <path id="DejaVuSans-65" d="M 3597 1894 
L 3597 1613 
L 953 1613 
Q 991 1019 1311 708 
Q 1631 397 2203 397 
Q 2534 397 2845 478 
Q 3156 559 3463 722 
L 3463 178 
Q 3153 47 2828 -22 
Q 2503 -91 2169 -91 
Q 1331 -91 842 396 
Q 353 884 353 1716 
Q 353 2575 817 3079 
Q 1281 3584 2069 3584 
Q 2775 3584 3186 3129 
Q 3597 2675 3597 1894 
z
M 3022 2063 
Q 3016 2534 2758 2815 
Q 2500 3097 2075 3097 
Q 1594 3097 1305 2825 
Q 1016 2553 972 2059 
L 3022 2063 
z
" transform="scale(0.015625)"/>
       <path id="DejaVuSans-20" transform="scale(0.015625)"/>
       <path id="DejaVuSans-69" d="M 603 3500 
L 1178 3500 
L 1178 0 
L 603 0 
L 603 3500 
z
M 603 4863 
L 1178 4863 
L 1178 4134 
L 603 4134 
L 603 4863 
z
" transform="scale(0.015625)"/>
       <path id="DejaVuSans-7a" d="M 353 3500 
L 3084 3500 
L 3084 2975 
L 922 459 
L 3084 459 
L 3084 0 
L 275 0 
L 275 525 
L 2438 3041 
L 353 3041 
L 353 3500 
z
" transform="scale(0.015625)"/>
       <path id="DejaVuSans-28" d="M 1984 4856 
Q 1566 4138 1362 3434 
Q 1159 2731 1159 2009 
Q 1159 1288 1364 580 
Q 1569 -128 1984 -844 
L 1484 -844 
Q 1016 -109 783 600 
Q 550 1309 550 2009 
Q 550 2706 781 3412 
Q 1013 4119 1484 4856 
L 1984 4856 
z
" transform="scale(0.015625)"/>
       <path id="DejaVuSans-23" d="M 3272 2816 
L 2363 2816 
L 2100 1772 
L 3016 1772 
L 3272 2816 
z
M 2803 4594 
L 2478 3297 
L 3391 3297 
L 3719 4594 
L 4219 4594 
L 3897 3297 
L 4872 3297 
L 4872 2816 
L 3775 2816 
L 3519 1772 
L 4513 1772 
L 4513 1294 
L 3397 1294 
L 3072 0 
L 2572 0 
L 2894 1294 
L 1978 1294 
L 1656 0 
L 1153 0 
L 1478 1294 
L 494 1294 
L 494 1772 
L 1594 1772 
L 1856 2816 
L 850 2816 
L 850 3297 
L 1978 3297 
L 2297 4594 
L 2803 4594 
z
" transform="scale(0.015625)"/>
       <path id="DejaVuSans-72" d="M 2631 2963 
Q 2534 3019 2420 3045 
Q 2306 3072 2169 3072 
Q 1681 3072 1420 2755 
Q 1159 2438 1159 1844 
L 1159 0 
L 581 0 
L 581 3500 
L 1159 3500 
L 1159 2956 
Q 1341 3275 1631 3429 
Q 1922 3584 2338 3584 
Q 2397 3584 2469 3576 
Q 2541 3569 2628 3553 
L 2631 2963 
z
" transform="scale(0.015625)"/>
       <path id="DejaVuSans-6f" d="M 1959 3097 
Q 1497 3097 1228 2736 
Q 959 2375 959 1747 
Q 959 1119 1226 758 
Q 1494 397 1959 397 
Q 2419 397 2687 759 
Q 2956 1122 2956 1747 
Q 2956 2369 2687 2733 
Q 2419 3097 1959 3097 
z
M 1959 3584 
Q 2709 3584 3137 3096 
Q 3566 2609 3566 1747 
Q 3566 888 3137 398 
Q 2709 -91 1959 -91 
Q 1206 -91 779 398 
Q 353 888 353 1747 
Q 353 2609 779 3096 
Q 1206 3584 1959 3584 
z
" transform="scale(0.015625)"/>
       <path id="DejaVuSans-77" d="M 269 3500 
L 844 3500 
L 1563 769 
L 2278 3500 
L 2956 3500 
L 3675 769 
L 4391 3500 
L 4966 3500 
L 4050 0 
L 3372 0 
L 2619 2869 
L 1863 0 
L 1184 0 
L 269 3500 
z
" transform="scale(0.015625)"/>
       <path id="DejaVuSans-29" d="M 513 4856 
L 1013 4856 
Q 1481 4119 1714 3412 
Q 1947 2706 1947 2009 
Q 1947 1309 1714 600 
Q 1481 -109 1013 -844 
L 513 -844 
Q 928 -128 1133 580 
Q 1338 1288 1338 2009 
Q 1338 2731 1133 3434 
Q 928 4138 513 4856 
z
" transform="scale(0.015625)"/>
      </defs>
      <use xlink:href="#DejaVuSans-44"/>
      <use xlink:href="#DejaVuSans-61" transform="translate(77.001953 0)"/>
      <use xlink:href="#DejaVuSans-74" transform="translate(138.28125 0)"/>
      <use xlink:href="#DejaVuSans-61" transform="translate(177.490234 0)"/>
      <use xlink:href="#DejaVuSans-73" transform="translate(238.769531 0)"/>
      <use xlink:href="#DejaVuSans-65" transform="translate(290.869141 0)"/>
      <use xlink:href="#DejaVuSans-74" transform="translate(352.392578 0)"/>
      <use xlink:href="#DejaVuSans-20" transform="translate(391.601562 0)"/>
      <use xlink:href="#DejaVuSans-73" transform="translate(423.388672 0)"/>
      <use xlink:href="#DejaVuSans-69" transform="translate(475.488281 0)"/>
      <use xlink:href="#DejaVuSans-7a" transform="translate(503.271484 0)"/>
      <use xlink:href="#DejaVuSans-65" transform="translate(555.761719 0)"/>
      <use xlink:href="#DejaVuSans-20" transform="translate(617.285156 0)"/>
      <use xlink:href="#DejaVuSans-28" transform="translate(649.072266 0)"/>
      <use xlink:href="#DejaVuSans-23" transform="translate(688.085938 0)"/>
      <use xlink:href="#DejaVuSans-72" transform="translate(771.875 0)"/>
      <use xlink:href="#DejaVuSans-6f" transform="translate(810.738281 0)"/>
      <use xlink:href="#DejaVuSans-77" transform="translate(871.919922 0)"/>
      <use xlink:href="#DejaVuSans-73" transform="translate(953.707031 0)"/>
      <use xlink:href="#DejaVuSans-29" transform="translate(1005.806641 0)"/>
     </g>
    </g>
   </g>
   <g id="matplotlib.axis_2">
    <g id="ytick_1">
     <g id="line2d_7">
      <defs>
       <path id="md7c55d5c2f" d="M 0 0 
L -3.5 0 
" style="stroke: #000000; stroke-width: 0.8"/>
      </defs>
      <g>
       <use xlink:href="#md7c55d5c2f" x="51.378125" y="284.486042" style="stroke: #000000; stroke-width: 0.8"/>
      </g>
     </g>
     <g id="text_8">
      <!-- $\mathdefault{10^{-2}}$ -->
      <g transform="translate(20.878125 288.285261) scale(0.1 -0.1)">
       <use xlink:href="#DejaVuSans-31" transform="translate(0 0.765625)"/>
       <use xlink:href="#DejaVuSans-30" transform="translate(63.623047 0.765625)"/>
       <use xlink:href="#DejaVuSans-2212" transform="translate(128.203125 39.046875) scale(0.7)"/>
       <use xlink:href="#DejaVuSans-32" transform="translate(186.855469 39.046875) scale(0.7)"/>
      </g>
     </g>
    </g>
    <g id="ytick_2">
     <g id="line2d_8">
      <g>
       <use xlink:href="#md7c55d5c2f" x="51.378125" y="174.400644" style="stroke: #000000; stroke-width: 0.8"/>
      </g>
     </g>
     <g id="text_9">
      <!-- $\mathdefault{10^{-1}}$ -->
      <g transform="translate(20.878125 178.199863) scale(0.1 -0.1)">
       <use xlink:href="#DejaVuSans-31" transform="translate(0 0.684375)"/>
       <use xlink:href="#DejaVuSans-30" transform="translate(63.623047 0.684375)"/>
       <use xlink:href="#DejaVuSans-2212" transform="translate(128.203125 38.965625) scale(0.7)"/>
       <use xlink:href="#DejaVuSans-31" transform="translate(186.855469 38.965625) scale(0.7)"/>
      </g>
     </g>
    </g>
    <g id="ytick_3">
     <g id="line2d_9">
      <g>
       <use xlink:href="#md7c55d5c2f" x="51.378125" y="64.315246" style="stroke: #000000; stroke-width: 0.8"/>
      </g>
     </g>
     <g id="text_10">
      <!-- $\mathdefault{10^{0}}$ -->
      <g transform="translate(26.778125 68.114465) scale(0.1 -0.1)">
       <use xlink:href="#DejaVuSans-31" transform="translate(0 0.765625)"/>
       <use xlink:href="#DejaVuSans-30" transform="translate(63.623047 0.765625)"/>
       <use xlink:href="#DejaVuSans-30" transform="translate(128.203125 39.046875) scale(0.7)"/>
      </g>
     </g>
    </g>
    <g id="ytick_4">
     <g id="line2d_10">
      <defs>
       <path id="md8369cd694" d="M 0 0 
L -2 0 
" style="stroke: #000000; stroke-width: 0.6"/>
      </defs>
      <g>
       <use xlink:href="#md8369cd694" x="51.378125" y="342.047357" style="stroke: #000000; stroke-width: 0.6"/>
      </g>
     </g>
    </g>
    <g id="ytick_5">
     <g id="line2d_11">
      <g>
       <use xlink:href="#md8369cd694" x="51.378125" y="328.293426" style="stroke: #000000; stroke-width: 0.6"/>
      </g>
     </g>
    </g>
    <g id="ytick_6">
     <g id="line2d_12">
      <g>
       <use xlink:href="#md8369cd694" x="51.378125" y="317.625049" style="stroke: #000000; stroke-width: 0.6"/>
      </g>
     </g>
    </g>
    <g id="ytick_7">
     <g id="line2d_13">
      <g>
       <use xlink:href="#md8369cd694" x="51.378125" y="308.90835" style="stroke: #000000; stroke-width: 0.6"/>
      </g>
     </g>
    </g>
    <g id="ytick_8">
     <g id="line2d_14">
      <g>
       <use xlink:href="#md8369cd694" x="51.378125" y="301.538486" style="stroke: #000000; stroke-width: 0.6"/>
      </g>
     </g>
    </g>
    <g id="ytick_9">
     <g id="line2d_15">
      <g>
       <use xlink:href="#md8369cd694" x="51.378125" y="295.154419" style="stroke: #000000; stroke-width: 0.6"/>
      </g>
     </g>
    </g>
    <g id="ytick_10">
     <g id="line2d_16">
      <g>
       <use xlink:href="#md8369cd694" x="51.378125" y="289.523273" style="stroke: #000000; stroke-width: 0.6"/>
      </g>
     </g>
    </g>
    <g id="ytick_11">
     <g id="line2d_17">
      <g>
       <use xlink:href="#md8369cd694" x="51.378125" y="251.347035" style="stroke: #000000; stroke-width: 0.6"/>
      </g>
     </g>
    </g>
    <g id="ytick_12">
     <g id="line2d_18">
      <g>
       <use xlink:href="#md8369cd694" x="51.378125" y="231.961959" style="stroke: #000000; stroke-width: 0.6"/>
      </g>
     </g>
    </g>
    <g id="ytick_13">
     <g id="line2d_19">
      <g>
       <use xlink:href="#md8369cd694" x="51.378125" y="218.208028" style="stroke: #000000; stroke-width: 0.6"/>
      </g>
     </g>
    </g>
    <g id="ytick_14">
     <g id="line2d_20">
      <g>
       <use xlink:href="#md8369cd694" x="51.378125" y="207.539651" style="stroke: #000000; stroke-width: 0.6"/>
      </g>
     </g>
    </g>
    <g id="ytick_15">
     <g id="line2d_21">
      <g>
       <use xlink:href="#md8369cd694" x="51.378125" y="198.822952" style="stroke: #000000; stroke-width: 0.6"/>
      </g>
     </g>
    </g>
    <g id="ytick_16">
     <g id="line2d_22">
      <g>
       <use xlink:href="#md8369cd694" x="51.378125" y="191.453088" style="stroke: #000000; stroke-width: 0.6"/>
      </g>
     </g>
    </g>
    <g id="ytick_17">
     <g id="line2d_23">
      <g>
       <use xlink:href="#md8369cd694" x="51.378125" y="185.069021" style="stroke: #000000; stroke-width: 0.6"/>
      </g>
     </g>
    </g>
    <g id="ytick_18">
     <g id="line2d_24">
      <g>
       <use xlink:href="#md8369cd694" x="51.378125" y="179.437876" style="stroke: #000000; stroke-width: 0.6"/>
      </g>
     </g>
    </g>
    <g id="ytick_19">
     <g id="line2d_25">
      <g>
       <use xlink:href="#md8369cd694" x="51.378125" y="141.261637" style="stroke: #000000; stroke-width: 0.6"/>
      </g>
     </g>
    </g>
    <g id="ytick_20">
     <g id="line2d_26">
      <g>
       <use xlink:href="#md8369cd694" x="51.378125" y="121.876561" style="stroke: #000000; stroke-width: 0.6"/>
      </g>
     </g>
    </g>
    <g id="ytick_21">
     <g id="line2d_27">
      <g>
       <use xlink:href="#md8369cd694" x="51.378125" y="108.12263" style="stroke: #000000; stroke-width: 0.6"/>
      </g>
     </g>
    </g>
    <g id="ytick_22">
     <g id="line2d_28">
      <g>
       <use xlink:href="#md8369cd694" x="51.378125" y="97.454253" style="stroke: #000000; stroke-width: 0.6"/>
      </g>
     </g>
    </g>
    <g id="ytick_23">
     <g id="line2d_29">
      <g>
       <use xlink:href="#md8369cd694" x="51.378125" y="88.737554" style="stroke: #000000; stroke-width: 0.6"/>
      </g>
     </g>
    </g>
    <g id="ytick_24">
     <g id="line2d_30">
      <g>
       <use xlink:href="#md8369cd694" x="51.378125" y="81.36769" style="stroke: #000000; stroke-width: 0.6"/>
      </g>
     </g>
    </g>
    <g id="ytick_25">
     <g id="line2d_31">
      <g>
       <use xlink:href="#md8369cd694" x="51.378125" y="74.983623" style="stroke: #000000; stroke-width: 0.6"/>
      </g>
     </g>
    </g>
    <g id="ytick_26">
     <g id="line2d_32">
      <g>
       <use xlink:href="#md8369cd694" x="51.378125" y="69.352478" style="stroke: #000000; stroke-width: 0.6"/>
      </g>
     </g>
    </g>
    <g id="ytick_27">
     <g id="line2d_33">
      <g>
       <use xlink:href="#md8369cd694" x="51.378125" y="31.176239" style="stroke: #000000; stroke-width: 0.6"/>
      </g>
     </g>
    </g>
    <g id="text_11">
     <!-- Query time (s) -->
     <g transform="translate(14.798437 224.814687) rotate(-90) scale(0.1 -0.1)">
      <defs>
       <path id="DejaVuSans-51" d="M 2522 4238 
Q 1834 4238 1429 3725 
Q 1025 3213 1025 2328 
Q 1025 1447 1429 934 
Q 1834 422 2522 422 
Q 3209 422 3611 934 
Q 4013 1447 4013 2328 
Q 4013 3213 3611 3725 
Q 3209 4238 2522 4238 
z
M 3406 84 
L 4238 -825 
L 3475 -825 
L 2784 -78 
Q 2681 -84 2626 -87 
Q 2572 -91 2522 -91 
Q 1538 -91 948 567 
Q 359 1225 359 2328 
Q 359 3434 948 4092 
Q 1538 4750 2522 4750 
Q 3503 4750 4090 4092 
Q 4678 3434 4678 2328 
Q 4678 1516 4351 937 
Q 4025 359 3406 84 
z
" transform="scale(0.015625)"/>
       <path id="DejaVuSans-75" d="M 544 1381 
L 544 3500 
L 1119 3500 
L 1119 1403 
Q 1119 906 1312 657 
Q 1506 409 1894 409 
Q 2359 409 2629 706 
Q 2900 1003 2900 1516 
L 2900 3500 
L 3475 3500 
L 3475 0 
L 2900 0 
L 2900 538 
Q 2691 219 2414 64 
Q 2138 -91 1772 -91 
Q 1169 -91 856 284 
Q 544 659 544 1381 
z
M 1991 3584 
L 1991 3584 
z
" transform="scale(0.015625)"/>
       <path id="DejaVuSans-79" d="M 2059 -325 
Q 1816 -950 1584 -1140 
Q 1353 -1331 966 -1331 
L 506 -1331 
L 506 -850 
L 844 -850 
Q 1081 -850 1212 -737 
Q 1344 -625 1503 -206 
L 1606 56 
L 191 3500 
L 800 3500 
L 1894 763 
L 2988 3500 
L 3597 3500 
L 2059 -325 
z
" transform="scale(0.015625)"/>
       <path id="DejaVuSans-6d" d="M 3328 2828 
Q 3544 3216 3844 3400 
Q 4144 3584 4550 3584 
Q 5097 3584 5394 3201 
Q 5691 2819 5691 2113 
L 5691 0 
L 5113 0 
L 5113 2094 
Q 5113 2597 4934 2840 
Q 4756 3084 4391 3084 
Q 3944 3084 3684 2787 
Q 3425 2491 3425 1978 
L 3425 0 
L 2847 0 
L 2847 2094 
Q 2847 2600 2669 2842 
Q 2491 3084 2119 3084 
Q 1678 3084 1418 2786 
Q 1159 2488 1159 1978 
L 1159 0 
L 581 0 
L 581 3500 
L 1159 3500 
L 1159 2956 
Q 1356 3278 1631 3431 
Q 1906 3584 2284 3584 
Q 2666 3584 2933 3390 
Q 3200 3197 3328 2828 
z
" transform="scale(0.015625)"/>
      </defs>
      <use xlink:href="#DejaVuSans-51"/>
      <use xlink:href="#DejaVuSans-75" transform="translate(78.710938 0)"/>
      <use xlink:href="#DejaVuSans-65" transform="translate(142.089844 0)"/>
      <use xlink:href="#DejaVuSans-72" transform="translate(203.613281 0)"/>
      <use xlink:href="#DejaVuSans-79" transform="translate(244.726562 0)"/>
      <use xlink:href="#DejaVuSans-20" transform="translate(303.90625 0)"/>
      <use xlink:href="#DejaVuSans-74" transform="translate(335.693359 0)"/>
      <use xlink:href="#DejaVuSans-69" transform="translate(374.902344 0)"/>
      <use xlink:href="#DejaVuSans-6d" transform="translate(402.685547 0)"/>
      <use xlink:href="#DejaVuSans-65" transform="translate(500.097656 0)"/>
      <use xlink:href="#DejaVuSans-20" transform="translate(561.621094 0)"/>
      <use xlink:href="#DejaVuSans-28" transform="translate(593.408203 0)"/>
      <use xlink:href="#DejaVuSans-73" transform="translate(632.421875 0)"/>
      <use xlink:href="#DejaVuSans-29" transform="translate(684.521484 0)"/>
     </g>
    </g>
   </g>
   <g id="line2d_34">
    <path clip-path="url(#p982e5662a4)" style="fill: none; stroke-dasharray: 1.5625,0.9375; stroke-dashoffset: 0; stroke: #3f3f3f; stroke-width: 1.25"/>
   </g>
   <g id="line2d_35">
    <path clip-path="url(#p982e5662a4)" style="fill: none; stroke-dasharray: 3.125,1.25; stroke-dashoffset: 0; stroke: #3f3f3f; stroke-width: 1.25"/>
   </g>
   <g id="line2d_36">
    <path clip-path="url(#p982e5662a4)" style="fill: none; stroke-dasharray: 1.5625,0.9375; stroke-dashoffset: 0; stroke: #3f3f3f; stroke-width: 1.25"/>
   </g>
   <g id="line2d_37">
    <path d="M 420.93234 336.938413 
L 451.959751 336.938413 
" clip-path="url(#p982e5662a4)" style="fill: none; stroke-dasharray: 1.5625,0.9375; stroke-dashoffset: 0; stroke: #3f3f3f; stroke-width: 1.25"/>
   </g>
   <g id="line2d_38">
    <path d="M 393.809559 335.024172 
L 452.44131 335.024172 
" clip-path="url(#p982e5662a4)" style="fill: none; stroke-dasharray: 3.125,1.25; stroke-dashoffset: 0; stroke: #3f3f3f; stroke-width: 1.25"/>
   </g>
   <g id="line2d_39">
    <path d="M 428.486533 333.152867 
L 451.37772 333.152867 
" clip-path="url(#p982e5662a4)" style="fill: none; stroke-dasharray: 1.5625,0.9375; stroke-dashoffset: 0; stroke: #3f3f3f; stroke-width: 1.25"/>
   </g>
   <g id="line2d_40">
    <path d="M 457.227186 266.775194 
L 461.710593 266.775194 
" clip-path="url(#p982e5662a4)" style="fill: none; stroke-dasharray: 1.5625,0.9375; stroke-dashoffset: 0; stroke: #3f3f3f; stroke-width: 1.25"/>
   </g>
   <g id="line2d_41">
    <path d="M 456.713204 265.925749 
L 462.031875 265.925749 
" clip-path="url(#p982e5662a4)" style="fill: none; stroke-dasharray: 3.125,1.25; stroke-dashoffset: 0; stroke: #3f3f3f; stroke-width: 1.25"/>
   </g>
   <g id="line2d_42">
    <path d="M 457.23616 265.251902 
L 461.704751 265.251902 
" clip-path="url(#p982e5662a4)" style="fill: none; stroke-dasharray: 1.5625,0.9375; stroke-dashoffset: 0; stroke: #3f3f3f; stroke-width: 1.25"/>
   </g>
   <g id="line2d_43">
    <path d="M 462.05582 332.77816 
L 465.529593 332.77816 
" clip-path="url(#p982e5662a4)" style="fill: none; stroke-dasharray: 1.5625,0.9375; stroke-dashoffset: 0; stroke: #3f3f3f; stroke-width: 1.25"/>
   </g>
   <g id="line2d_44">
    <path d="M 462.215546 331.488958 
L 465.413591 331.488958 
" clip-path="url(#p982e5662a4)" style="fill: none; stroke-dasharray: 3.125,1.25; stroke-dashoffset: 0; stroke: #3f3f3f; stroke-width: 1.25"/>
   </g>
   <g id="line2d_45">
    <path d="M 462.941759 327.985136 
L 464.844887 327.985136 
" clip-path="url(#p982e5662a4)" style="fill: none; stroke-dasharray: 1.5625,0.9375; stroke-dashoffset: 0; stroke: #3f3f3f; stroke-width: 1.25"/>
   </g>
   <g id="line2d_46">
    <path d="M 466.940926 227.565781 
L 469.261042 227.565781 
" clip-path="url(#p982e5662a4)" style="fill: none; stroke-dasharray: 1.5625,0.9375; stroke-dashoffset: 0; stroke: #3f3f3f; stroke-width: 1.25"/>
   </g>
   <g id="line2d_47">
    <path d="M 467.070104 226.818712 
L 469.156463 226.818712 
" clip-path="url(#p982e5662a4)" style="fill: none; stroke-dasharray: 3.125,1.25; stroke-dashoffset: 0; stroke: #3f3f3f; stroke-width: 1.25"/>
   </g>
   <g id="line2d_48">
    <path d="M 467.068987 226.282291 
L 469.157378 226.282291 
" clip-path="url(#p982e5662a4)" style="fill: none; stroke-dasharray: 1.5625,0.9375; stroke-dashoffset: 0; stroke: #3f3f3f; stroke-width: 1.25"/>
   </g>
   <g id="line2d_49">
    <path d="M 469.281051 316.971311 
L 471.151613 316.971311 
" clip-path="url(#p982e5662a4)" style="fill: none; stroke-dasharray: 1.5625,0.9375; stroke-dashoffset: 0; stroke: #3f3f3f; stroke-width: 1.25"/>
   </g>
   <g id="line2d_50">
    <path d="M 469.491212 314.734642 
L 470.97265 314.734642 
" clip-path="url(#p982e5662a4)" style="fill: none; stroke-dasharray: 3.125,1.25; stroke-dashoffset: 0; stroke: #3f3f3f; stroke-width: 1.25"/>
   </g>
   <g id="line2d_51">
    <path d="M 469.55658 312.808766 
L 470.915604 312.808766 
" clip-path="url(#p982e5662a4)" style="fill: none; stroke-dasharray: 1.5625,0.9375; stroke-dashoffset: 0; stroke: #3f3f3f; stroke-width: 1.25"/>
   </g>
   <g id="line2d_52">
    <path d="M 472.046058 136.424501 
L 473.453216 136.424501 
" clip-path="url(#p982e5662a4)" style="fill: none; stroke-dasharray: 1.5625,0.9375; stroke-dashoffset: 0; stroke: #3f3f3f; stroke-width: 1.25"/>
   </g>
   <g id="line2d_53">
    <path d="M 472.029395 135.870969 
L 473.467754 135.870969 
" clip-path="url(#p982e5662a4)" style="fill: none; stroke-dasharray: 3.125,1.25; stroke-dashoffset: 0; stroke: #3f3f3f; stroke-width: 1.25"/>
   </g>
   <g id="line2d_54">
    <path d="M 472.37099 135.028241 
L 473.160765 135.028241 
" clip-path="url(#p982e5662a4)" style="fill: none; stroke-dasharray: 1.5625,0.9375; stroke-dashoffset: 0; stroke: #3f3f3f; stroke-width: 1.25"/>
   </g>
   <g id="line2d_55">
    <path d="M 473.52796 250.518494 
L 474.767215 250.518494 
" clip-path="url(#p982e5662a4)" style="fill: none; stroke-dasharray: 1.5625,0.9375; stroke-dashoffset: 0; stroke: #3f3f3f; stroke-width: 1.25"/>
   </g>
   <g id="line2d_56">
    <path d="M 473.494152 249.966038 
L 474.797143 249.966038 
" clip-path="url(#p982e5662a4)" style="fill: none; stroke-dasharray: 3.125,1.25; stroke-dashoffset: 0; stroke: #3f3f3f; stroke-width: 1.25"/>
   </g>
   <g id="line2d_57">
    <path d="M 473.555666 249.108607 
L 474.742551 249.108607 
" clip-path="url(#p982e5662a4)" style="fill: none; stroke-dasharray: 1.5625,0.9375; stroke-dashoffset: 0; stroke: #3f3f3f; stroke-width: 1.25"/>
   </g>
   <g id="line2d_58">
    <path d="M 475.406937 55.85046 
L 476.481881 55.85046 
" clip-path="url(#p982e5662a4)" style="fill: none; stroke-dasharray: 1.5625,0.9375; stroke-dashoffset: 0; stroke: #3f3f3f; stroke-width: 1.25"/>
   </g>
   <g id="line2d_59">
    <path d="M 475.395398 55.56888 
L 476.492279 55.56888 
" clip-path="url(#p982e5662a4)" style="fill: none; stroke-dasharray: 3.125,1.25; stroke-dashoffset: 0; stroke: #3f3f3f; stroke-width: 1.25"/>
   </g>
   <g id="line2d_60">
    <path d="M 475.470381 54.323996 
L 476.424317 54.323996 
" clip-path="url(#p982e5662a4)" style="fill: none; stroke-dasharray: 1.5625,0.9375; stroke-dashoffset: 0; stroke: #3f3f3f; stroke-width: 1.25"/>
   </g>
   <g id="line2d_61">
    <path d="M 476.800903 163.622896 
L 477.199386 163.622896 
" clip-path="url(#p982e5662a4)" style="fill: none; stroke-dasharray: 1.5625,0.9375; stroke-dashoffset: 0; stroke: #3f3f3f; stroke-width: 1.25"/>
   </g>
   <g id="line2d_62">
    <path d="M 476.497328 160.045584 
L 477.483464 160.045584 
" clip-path="url(#p982e5662a4)" style="fill: none; stroke-dasharray: 3.125,1.25; stroke-dashoffset: 0; stroke: #3f3f3f; stroke-width: 1.25"/>
   </g>
   <g id="line2d_63">
    <path d="M 476.496711 159.569773 
L 477.484025 159.569773 
" clip-path="url(#p982e5662a4)" style="fill: none; stroke-dasharray: 1.5625,0.9375; stroke-dashoffset: 0; stroke: #3f3f3f; stroke-width: 1.25"/>
   </g>
   <g id="patch_5">
    <path d="M 51.378125 354.958125 
L 51.378125 22.318125 
" style="fill: none; stroke: #000000; stroke-width: 0.8; stroke-linejoin: miter; stroke-linecap: square"/>
   </g>
   <g id="patch_6">
    <path d="M 497.778125 354.958125 
L 497.778125 22.318125 
" style="fill: none; stroke: #000000; stroke-width: 0.8; stroke-linejoin: miter; stroke-linecap: square"/>
   </g>
   <g id="patch_7">
    <path d="M 51.378125 354.958125 
L 497.778125 354.958125 
" style="fill: none; stroke: #000000; stroke-width: 0.8; stroke-linejoin: miter; stroke-linecap: square"/>
   </g>
   <g id="patch_8">
    <path d="M 51.378125 22.318125 
L 497.778125 22.318125 
" style="fill: none; stroke: #000000; stroke-width: 0.8; stroke-linejoin: miter; stroke-linecap: square"/>
   </g>
   <g id="text_12">
    <!-- Imputation Time -->
    <g transform="translate(225.243125 16.318125) scale(0.12 -0.12)">
     <defs>
      <path id="DejaVuSans-49" d="M 628 4666 
L 1259 4666 
L 1259 0 
L 628 0 
L 628 4666 
z
" transform="scale(0.015625)"/>
      <path id="DejaVuSans-70" d="M 1159 525 
L 1159 -1331 
L 581 -1331 
L 581 3500 
L 1159 3500 
L 1159 2969 
Q 1341 3281 1617 3432 
Q 1894 3584 2278 3584 
Q 2916 3584 3314 3078 
Q 3713 2572 3713 1747 
Q 3713 922 3314 415 
Q 2916 -91 2278 -91 
Q 1894 -91 1617 61 
Q 1341 213 1159 525 
z
M 3116 1747 
Q 3116 2381 2855 2742 
Q 2594 3103 2138 3103 
Q 1681 3103 1420 2742 
Q 1159 2381 1159 1747 
Q 1159 1113 1420 752 
Q 1681 391 2138 391 
Q 2594 391 2855 752 
Q 3116 1113 3116 1747 
z
" transform="scale(0.015625)"/>
      <path id="DejaVuSans-6e" d="M 3513 2113 
L 3513 0 
L 2938 0 
L 2938 2094 
Q 2938 2591 2744 2837 
Q 2550 3084 2163 3084 
Q 1697 3084 1428 2787 
Q 1159 2491 1159 1978 
L 1159 0 
L 581 0 
L 581 3500 
L 1159 3500 
L 1159 2956 
Q 1366 3272 1645 3428 
Q 1925 3584 2291 3584 
Q 2894 3584 3203 3211 
Q 3513 2838 3513 2113 
z
" transform="scale(0.015625)"/>
      <path id="DejaVuSans-54" d="M -19 4666 
L 3928 4666 
L 3928 4134 
L 2272 4134 
L 2272 0 
L 1638 0 
L 1638 4134 
L -19 4134 
L -19 4666 
z
" transform="scale(0.015625)"/>
     </defs>
     <use xlink:href="#DejaVuSans-49"/>
     <use xlink:href="#DejaVuSans-6d" transform="translate(29.492188 0)"/>
     <use xlink:href="#DejaVuSans-70" transform="translate(126.904297 0)"/>
     <use xlink:href="#DejaVuSans-75" transform="translate(190.380859 0)"/>
     <use xlink:href="#DejaVuSans-74" transform="translate(253.759766 0)"/>
     <use xlink:href="#DejaVuSans-61" transform="translate(292.96875 0)"/>
     <use xlink:href="#DejaVuSans-74" transform="translate(354.248047 0)"/>
     <use xlink:href="#DejaVuSans-69" transform="translate(393.457031 0)"/>
     <use xlink:href="#DejaVuSans-6f" transform="translate(421.240234 0)"/>
     <use xlink:href="#DejaVuSans-6e" transform="translate(482.421875 0)"/>
     <use xlink:href="#DejaVuSans-20" transform="translate(545.800781 0)"/>
     <use xlink:href="#DejaVuSans-54" transform="translate(577.587891 0)"/>
     <use xlink:href="#DejaVuSans-69" transform="translate(635.546875 0)"/>
     <use xlink:href="#DejaVuSans-6d" transform="translate(663.330078 0)"/>
     <use xlink:href="#DejaVuSans-65" transform="translate(760.742188 0)"/>
    </g>
   </g>
   <g id="legend_1">
    <g id="patch_9">
     <path d="M 58.378125 74.3525 
L 133.571875 74.3525 
Q 135.571875 74.3525 135.571875 72.3525 
L 135.571875 29.318125 
Q 135.571875 27.318125 133.571875 27.318125 
L 58.378125 27.318125 
Q 56.378125 27.318125 56.378125 29.318125 
L 56.378125 72.3525 
Q 56.378125 74.3525 58.378125 74.3525 
z
" style="fill: #ffffff; opacity: 0.8; stroke: #cccccc; stroke-linejoin: miter"/>
    </g>
    <g id="text_13">
     <!-- DBMS -->
     <g transform="translate(81.20625 38.916562) scale(0.1 -0.1)">
      <defs>
       <path id="DejaVuSans-42" d="M 1259 2228 
L 1259 519 
L 2272 519 
Q 2781 519 3026 730 
Q 3272 941 3272 1375 
Q 3272 1813 3026 2020 
Q 2781 2228 2272 2228 
L 1259 2228 
z
M 1259 4147 
L 1259 2741 
L 2194 2741 
Q 2656 2741 2882 2914 
Q 3109 3088 3109 3444 
Q 3109 3797 2882 3972 
Q 2656 4147 2194 4147 
L 1259 4147 
z
M 628 4666 
L 2241 4666 
Q 2963 4666 3353 4366 
Q 3744 4066 3744 3513 
Q 3744 3084 3544 2831 
Q 3344 2578 2956 2516 
Q 3422 2416 3680 2098 
Q 3938 1781 3938 1306 
Q 3938 681 3513 340 
Q 3088 0 2303 0 
L 628 0 
L 628 4666 
z
" transform="scale(0.015625)"/>
       <path id="DejaVuSans-4d" d="M 628 4666 
L 1569 4666 
L 2759 1491 
L 3956 4666 
L 4897 4666 
L 4897 0 
L 4281 0 
L 4281 4097 
L 3078 897 
L 2444 897 
L 1241 4097 
L 1241 0 
L 628 0 
L 628 4666 
z
" transform="scale(0.015625)"/>
       <path id="DejaVuSans-53" d="M 3425 4513 
L 3425 3897 
Q 3066 4069 2747 4153 
Q 2428 4238 2131 4238 
Q 1616 4238 1336 4038 
Q 1056 3838 1056 3469 
Q 1056 3159 1242 3001 
Q 1428 2844 1947 2747 
L 2328 2669 
Q 3034 2534 3370 2195 
Q 3706 1856 3706 1288 
Q 3706 609 3251 259 
Q 2797 -91 1919 -91 
Q 1588 -91 1214 -16 
Q 841 59 441 206 
L 441 856 
Q 825 641 1194 531 
Q 1563 422 1919 422 
Q 2459 422 2753 634 
Q 3047 847 3047 1241 
Q 3047 1584 2836 1778 
Q 2625 1972 2144 2069 
L 1759 2144 
Q 1053 2284 737 2584 
Q 422 2884 422 3419 
Q 422 4038 858 4394 
Q 1294 4750 2059 4750 
Q 2388 4750 2728 4690 
Q 3069 4631 3425 4513 
z
" transform="scale(0.015625)"/>
      </defs>
      <use xlink:href="#DejaVuSans-44"/>
      <use xlink:href="#DejaVuSans-42" transform="translate(77.001953 0)"/>
      <use xlink:href="#DejaVuSans-4d" transform="translate(145.605469 0)"/>
      <use xlink:href="#DejaVuSans-53" transform="translate(231.884766 0)"/>
     </g>
    </g>
    <g id="patch_10">
     <path d="M 60.378125 53.594687 
L 80.378125 53.594687 
L 80.378125 46.594687 
L 60.378125 46.594687 
z
" style="fill: #3274a1; stroke: #3f3f3f; stroke-width: 1.25; stroke-linejoin: miter"/>
    </g>
    <g id="text_14">
     <!-- pandas -->
     <g transform="translate(88.378125 53.594687) scale(0.1 -0.1)">
      <defs>
       <path id="DejaVuSans-64" d="M 2906 2969 
L 2906 4863 
L 3481 4863 
L 3481 0 
L 2906 0 
L 2906 525 
Q 2725 213 2448 61 
Q 2172 -91 1784 -91 
Q 1150 -91 751 415 
Q 353 922 353 1747 
Q 353 2572 751 3078 
Q 1150 3584 1784 3584 
Q 2172 3584 2448 3432 
Q 2725 3281 2906 2969 
z
M 947 1747 
Q 947 1113 1208 752 
Q 1469 391 1925 391 
Q 2381 391 2643 752 
Q 2906 1113 2906 1747 
Q 2906 2381 2643 2742 
Q 2381 3103 1925 3103 
Q 1469 3103 1208 2742 
Q 947 2381 947 1747 
z
" transform="scale(0.015625)"/>
      </defs>
      <use xlink:href="#DejaVuSans-70"/>
      <use xlink:href="#DejaVuSans-61" transform="translate(63.476562 0)"/>
      <use xlink:href="#DejaVuSans-6e" transform="translate(124.755859 0)"/>
      <use xlink:href="#DejaVuSans-64" transform="translate(188.134766 0)"/>
      <use xlink:href="#DejaVuSans-61" transform="translate(251.611328 0)"/>
      <use xlink:href="#DejaVuSans-73" transform="translate(312.890625 0)"/>
     </g>
    </g>
    <g id="patch_11">
     <path d="M 60.378125 68.272812 
L 80.378125 68.272812 
L 80.378125 61.272812 
L 60.378125 61.272812 
z
" style="fill: #e1812c; stroke: #3f3f3f; stroke-width: 1.25; stroke-linejoin: miter"/>
    </g>
    <g id="text_15">
     <!-- postgres -->
     <g transform="translate(88.378125 68.272812) scale(0.1 -0.1)">
      <defs>
       <path id="DejaVuSans-67" d="M 2906 1791 
Q 2906 2416 2648 2759 
Q 2391 3103 1925 3103 
Q 1463 3103 1205 2759 
Q 947 2416 947 1791 
Q 947 1169 1205 825 
Q 1463 481 1925 481 
Q 2391 481 2648 825 
Q 2906 1169 2906 1791 
z
M 3481 434 
Q 3481 -459 3084 -895 
Q 2688 -1331 1869 -1331 
Q 1566 -1331 1297 -1286 
Q 1028 -1241 775 -1147 
L 775 -588 
Q 1028 -725 1275 -790 
Q 1522 -856 1778 -856 
Q 2344 -856 2625 -561 
Q 2906 -266 2906 331 
L 2906 616 
Q 2728 306 2450 153 
Q 2172 0 1784 0 
Q 1141 0 747 490 
Q 353 981 353 1791 
Q 353 2603 747 3093 
Q 1141 3584 1784 3584 
Q 2172 3584 2450 3431 
Q 2728 3278 2906 2969 
L 2906 3500 
L 3481 3500 
L 3481 434 
z
" transform="scale(0.015625)"/>
      </defs>
      <use xlink:href="#DejaVuSans-70"/>
      <use xlink:href="#DejaVuSans-6f" transform="translate(63.476562 0)"/>
      <use xlink:href="#DejaVuSans-73" transform="translate(124.658203 0)"/>
      <use xlink:href="#DejaVuSans-74" transform="translate(176.757812 0)"/>
      <use xlink:href="#DejaVuSans-67" transform="translate(215.966797 0)"/>
      <use xlink:href="#DejaVuSans-72" transform="translate(279.443359 0)"/>
      <use xlink:href="#DejaVuSans-65" transform="translate(318.306641 0)"/>
      <use xlink:href="#DejaVuSans-73" transform="translate(379.830078 0)"/>
     </g>
    </g>
   </g>
  </g>
 </g>
 <defs>
  <clipPath id="p982e5662a4">
   <rect x="51.378125" y="22.318125" width="446.4" height="332.64"/>
  </clipPath>
 </defs>
</svg>
