<?xml version="1.0" encoding="utf-8" standalone="no"?>
<!DOCTYPE svg PUBLIC "-//W3C//DTD SVG 1.1//EN"
  "http://www.w3.org/Graphics/SVG/1.1/DTD/svg11.dtd">
<svg xmlns:xlink="http://www.w3.org/1999/xlink" width="504.978125pt" height="392.514375pt" viewBox="0 0 504.978125 392.514375" xmlns="http://www.w3.org/2000/svg" version="1.1">
 <metadata>
  <rdf:RDF xmlns:dc="http://purl.org/dc/elements/1.1/" xmlns:cc="http://creativecommons.org/ns#" xmlns:rdf="http://www.w3.org/1999/02/22-rdf-syntax-ns#">
   <cc:Work>
    <dc:type rdf:resource="http://purl.org/dc/dcmitype/StillImage"/>
    <dc:date>2025-08-04T19:30:48.277424</dc:date>
    <dc:format>image/svg+xml</dc:format>
    <dc:creator>
     <cc:Agent>
      <dc:title>Matplotlib v3.10.5, https://matplotlib.org/</dc:title>
     </cc:Agent>
    </dc:creator>
   </cc:Work>
  </rdf:RDF>
 </metadata>
 <defs>
  <style type="text/css">*{stroke-linejoin: round; stroke-linecap: butt}</style>
 </defs>
 <g id="figure_1">
  <g id="patch_1">
   <path d="M 0 392.514375 
L 504.978125 392.514375 
L 504.978125 0 
L 0 0 
z
" style="fill: #ffffff"/>
  </g>
  <g id="axes_1">
   <g id="patch_2">
    <path d="M 51.378125 354.958125 
L 497.778125 354.958125 
L 497.778125 22.318125 
L 51.378125 22.318125 
z
" style="fill: #ffffff"/>
   </g>
   <g id="FillBetweenPolyCollection_1">
    <defs>
     <path id="mb19d2fa8b9" d="M -23552.192993 -123.607166 
L -23552.192993 -123.607166 
L -23552.192993 -123.779436 
L -23552.192993 -123.951113 
L -23552.192993 -124.122202 
L -23552.192993 -124.292707 
L -23552.192993 -124.462632 
L -23552.192993 -124.631981 
L -23552.192993 -124.800758 
L -23552.192993 -124.968966 
L -23552.192993 -125.13661 
L -23552.192993 -125.303693 
L -23552.192993 -125.470219 
L -23552.192993 -125.636191 
L -23552.192993 -125.801614 
L -23552.192993 -125.966491 
L -23552.192993 -126.130826 
L -23552.192993 -126.294621 
L -23552.192993 -126.457881 
L -23552.192993 -126.620609 
L -23552.192993 -126.782809 
L -23552.192993 -126.944484 
L -23552.192993 -127.105637 
L -23552.192993 -127.266272 
L -23552.192993 -127.426392 
L -23552.192993 -127.586 
L -23552.192993 -127.7451 
L -23552.192993 -127.903695 
L -23552.192993 -128.061787 
L -23552.192993 -128.219381 
L -23552.192993 -128.37648 
L -23552.192993 -128.533085 
L -23552.192993 -128.689202 
L -23552.192993 -128.844831 
L -23552.192993 -128.999978 
L -23552.192993 -129.154644 
L -23552.192993 -129.308832 
L -23552.192993 -129.462546 
L -23552.192993 -129.615789 
L -23552.192993 -129.768563 
L -23552.192993 -129.92087 
L -23552.192993 -130.072715 
L -23552.192993 -130.2241 
L -23552.192993 -130.375027 
L -23552.192993 -130.5255 
L -23552.192993 -130.67552 
L -23552.192993 -130.825091 
L -23552.192993 -130.974216 
L -23552.192993 -131.122897 
L -23552.192993 -131.271137 
L -23552.192993 -131.418938 
L -23552.192993 -131.566303 
L -23552.192993 -131.713234 
L -23552.192993 -131.859735 
L -23552.192993 -132.005807 
L -23552.192993 -132.151453 
L -23552.192993 -132.296675 
L -23552.192993 -132.441477 
L -23552.192993 -132.58586 
L -23552.192993 -132.729827 
L -23552.192993 -132.87338 
L -23552.192993 -133.016522 
L -23552.192993 -133.159254 
L -23552.192993 -133.30158 
L -23552.192993 -133.443502 
L -23552.192993 -133.585021 
L -23552.192993 -133.726141 
L -23552.192993 -133.866863 
L -23552.192993 -134.00719 
L -23552.192993 -134.147123 
L -23552.192993 -134.286666 
L -23552.192993 -134.42582 
L -23552.192993 -134.564587 
L -23552.192993 -134.70297 
L -23552.192993 -134.840971 
L -23552.192993 -134.978591 
L -23552.192993 -135.115833 
L -23552.192993 -135.252699 
L -23552.192993 -135.389191 
L -23552.192993 -135.525311 
L -23552.192993 -135.661061 
L -23552.192993 -135.796444 
L -23552.192993 -135.93146 
L -23552.192993 -136.066112 
L -23552.192993 -136.200402 
L -23552.192993 -136.334333 
L -23552.192993 -136.467905 
L -23552.192993 -136.60112 
L -23552.192993 -136.733982 
L -23552.192993 -136.866491 
L -23552.192993 -136.998649 
L -23552.192993 -137.130459 
L -23552.192993 -137.261921 
L -23552.192993 -137.393039 
L -23552.192993 -137.523813 
L -23552.192993 -137.654246 
L -23552.192993 -137.784339 
L -23552.192993 -137.914094 
L -23552.192993 -138.043513 
L -23552.192993 -138.172597 
L -23552.192993 -138.301349 
L -23552.192993 -138.301349 
L -23552.192993 -138.301349 
L -23552.192993 -138.172597 
L -23552.192993 -138.043513 
L -23552.192993 -137.914094 
L -23552.192993 -137.784339 
L -23552.192993 -137.654246 
L -23552.192993 -137.523813 
L -23552.192993 -137.393039 
L -23552.192993 -137.261921 
L -23552.192993 -137.130459 
L -23552.192993 -136.998649 
L -23552.192993 -136.866491 
L -23552.192993 -136.733982 
L -23552.192993 -136.60112 
L -23552.192993 -136.467905 
L -23552.192993 -136.334333 
L -23552.192993 -136.200402 
L -23552.192993 -136.066112 
L -23552.192993 -135.93146 
L -23552.192993 -135.796444 
L -23552.192993 -135.661061 
L -23552.192993 -135.525311 
L -23552.192993 -135.389191 
L -23552.192993 -135.252699 
L -23552.192993 -135.115833 
L -23552.192993 -134.978591 
L -23552.192993 -134.840971 
L -23552.192993 -134.70297 
L -23552.192993 -134.564587 
L -23552.192993 -134.42582 
L -23552.192993 -134.286666 
L -23552.192993 -134.147123 
L -23552.192993 -134.00719 
L -23552.192993 -133.866863 
L -23552.192993 -133.726141 
L -23552.192993 -133.585021 
L -23552.192993 -133.443502 
L -23552.192993 -133.30158 
L -23552.192993 -133.159254 
L -23552.192993 -133.016522 
L -23552.192993 -132.87338 
L -23552.192993 -132.729827 
L -23552.192993 -132.58586 
L -23552.192993 -132.441477 
L -23552.192993 -132.296675 
L -23552.192993 -132.151453 
L -23552.192993 -132.005807 
L -23552.192993 -131.859735 
L -23552.192993 -131.713234 
L -23552.192993 -131.566303 
L -23552.192993 -131.418938 
L -23552.192993 -131.271137 
L -23552.192993 -131.122897 
L -23552.192993 -130.974216 
L -23552.192993 -130.825091 
L -23552.192993 -130.67552 
L -23552.192993 -130.5255 
L -23552.192993 -130.375027 
L -23552.192993 -130.2241 
L -23552.192993 -130.072715 
L -23552.192993 -129.92087 
L -23552.192993 -129.768563 
L -23552.192993 -129.615789 
L -23552.192993 -129.462546 
L -23552.192993 -129.308832 
L -23552.192993 -129.154644 
L -23552.192993 -128.999978 
L -23552.192993 -128.844831 
L -23552.192993 -128.689202 
L -23552.192993 -128.533085 
L -23552.192993 -128.37648 
L -23552.192993 -128.219381 
L -23552.192993 -128.061787 
L -23552.192993 -127.903695 
L -23552.192993 -127.7451 
L -23552.192993 -127.586 
L -23552.192993 -127.426392 
L -23552.192993 -127.266272 
L -23552.192993 -127.105637 
L -23552.192993 -126.944484 
L -23552.192993 -126.782809 
L -23552.192993 -126.620609 
L -23552.192993 -126.457881 
L -23552.192993 -126.294621 
L -23552.192993 -126.130826 
L -23552.192993 -125.966491 
L -23552.192993 -125.801614 
L -23552.192993 -125.636191 
L -23552.192993 -125.470219 
L -23552.192993 -125.303693 
L -23552.192993 -125.13661 
L -23552.192993 -124.968966 
L -23552.192993 -124.800758 
L -23552.192993 -124.631981 
L -23552.192993 -124.462632 
L -23552.192993 -124.292707 
L -23552.192993 -124.122202 
L -23552.192993 -123.951113 
L -23552.192993 -123.779436 
L -23552.192993 -123.607166 
z
" style="stroke: #3f3f3f; stroke-width: 1.25"/>
    </defs>
    <g clip-path="url(#p8cd4505a61)">
     <use xlink:href="#mb19d2fa8b9" x="0" y="392.514375" style="fill: #3274a1; stroke: #3f3f3f; stroke-width: 1.25"/>
    </g>
   </g>
   <g id="FillBetweenPolyCollection_2">
    <defs>
     <path id="m824fe49168" d="M 448.672859 -52.67625 
L 440.120996 -52.67625 
L 439.333458 -52.987281 
L 438.471962 -53.296387 
L 437.533604 -53.603592 
L 436.51433 -53.908919 
L 435.408219 -54.212391 
L 434.20658 -54.51403 
L 432.896842 -54.813859 
L 431.461172 -55.111899 
L 429.874681 -55.40817 
L 428.102965 -55.702695 
L 426.098438 -55.995493 
L 423.79444 -56.286585 
L 421.094949 -56.57599 
L 417.85509 -56.863728 
L 413.840412 -57.149818 
L 408.629445 -57.434279 
L 401.326647 -57.717129 
L 389.318666 -57.998386 
L 71.669034 -58.278068 
L 375.419146 -58.556193 
L 395.822435 -58.832778 
L 405.772849 -59.107839 
L 412.454661 -59.381394 
L 417.46173 -59.65346 
L 421.428732 -59.924051 
L 424.674977 -60.193184 
L 427.38456 -60.460875 
L 429.673938 -60.727139 
L 431.622143 -60.991991 
L 433.285987 -61.255446 
L 434.708417 -61.517519 
L 435.923419 -61.778224 
L 436.959037 -62.037575 
L 437.839296 -62.295586 
L 438.585442 -62.552272 
L 439.216725 -62.807645 
L 439.75087 -63.061719 
L 440.204302 -63.314507 
L 440.592199 -63.566023 
L 440.92842 -63.816278 
L 441.225347 -64.065286 
L 441.493698 -64.313058 
L 441.742374 -64.559607 
L 441.97835 -64.804946 
L 442.206677 -65.049085 
L 442.430588 -65.292037 
L 442.651701 -65.533812 
L 442.870305 -65.774423 
L 443.085683 -66.013881 
L 443.296451 -66.252196 
L 443.500857 -66.489379 
L 443.697049 -66.725441 
L 443.883269 -66.960393 
L 444.057998 -67.194245 
L 444.22004 -67.427007 
L 444.36856 -67.65869 
L 444.503093 -67.889303 
L 444.623522 -68.118856 
L 444.730048 -68.347359 
L 444.823143 -68.574821 
L 444.903502 -68.801252 
L 444.971998 -69.026661 
L 445.029629 -69.251058 
L 445.077476 -69.474451 
L 445.116656 -69.696849 
L 445.148285 -69.918261 
L 445.173444 -70.138697 
L 445.19315 -70.358163 
L 445.208332 -70.57667 
L 445.219818 -70.794225 
L 445.228325 -71.010836 
L 445.23445 -71.226513 
L 445.238673 -71.441261 
L 445.241361 -71.655091 
L 445.24277 -71.868009 
L 445.24305 -72.080023 
L 445.242255 -72.291141 
L 445.240348 -72.501371 
L 445.23721 -72.710719 
L 445.232649 -72.919194 
L 445.226413 -73.126802 
L 445.218207 -73.333551 
L 445.207714 -73.539447 
L 445.194627 -73.744498 
L 445.178676 -73.948711 
L 445.159675 -74.152093 
L 445.137556 -74.354649 
L 445.112411 -74.556388 
L 445.084527 -74.757315 
L 445.054411 -74.957437 
L 445.022795 -75.15676 
L 444.990626 -75.355291 
L 444.959033 -75.553036 
L 444.929266 -75.750001 
L 444.902621 -75.946193 
L 444.88035 -76.141617 
L 444.863556 -76.336279 
L 444.853109 -76.530186 
L 444.849562 -76.723343 
L 445.635574 -76.723343 
L 445.635574 -76.723343 
L 445.632284 -76.530186 
L 445.62258 -76.336279 
L 445.606941 -76.141617 
L 445.586125 -75.946193 
L 445.561109 -75.750001 
L 445.533013 -75.553036 
L 445.503023 -75.355291 
L 445.472305 -75.15676 
L 445.441932 -74.957437 
L 445.412832 -74.757315 
L 445.385741 -74.556388 
L 445.361188 -74.354649 
L 445.339492 -74.152093 
L 445.320782 -73.948711 
L 445.305024 -73.744498 
L 445.292058 -73.539447 
L 445.28164 -73.333551 
L 445.273477 -73.126802 
L 445.267265 -72.919194 
L 445.262717 -72.710719 
L 445.259586 -72.501371 
L 445.257682 -72.291141 
L 445.256888 -72.080023 
L 445.257168 -71.868009 
L 445.258574 -71.655091 
L 445.261257 -71.441261 
L 445.26547 -71.226513 
L 445.271573 -71.010836 
L 445.280037 -70.794225 
L 445.291445 -70.57667 
L 445.306485 -70.358163 
L 445.325941 -70.138697 
L 445.350676 -69.918261 
L 445.381604 -69.696849 
L 445.41966 -69.474451 
L 445.465755 -69.251058 
L 445.520728 -69.026661 
L 445.5853 -68.801252 
L 445.660016 -68.574821 
L 445.745201 -68.347359 
L 445.840914 -68.118856 
L 445.946919 -67.889303 
L 446.062662 -67.65869 
L 446.187272 -67.427007 
L 446.319578 -67.194245 
L 446.458148 -66.960393 
L 446.601349 -66.725441 
L 446.747437 -66.489379 
L 446.894663 -66.252196 
L 447.041396 -66.013881 
L 447.186267 -65.774423 
L 447.328312 -65.533812 
L 447.46711 -65.292037 
L 447.602898 -65.049085 
L 447.736654 -64.804946 
L 447.870128 -64.559607 
L 448.005792 -64.313058 
L 448.146726 -64.065286 
L 448.296398 -63.816278 
L 448.458374 -63.566023 
L 448.635956 -63.314507 
L 448.8318 -63.061719 
L 449.047543 -62.807645 
L 449.283509 -62.552272 
L 449.538528 -62.295586 
L 449.809903 -62.037575 
L 450.093539 -61.778224 
L 450.3842 -61.517519 
L 450.675871 -61.255446 
L 450.962161 -60.991991 
L 451.236708 -60.727139 
L 451.493539 -60.460875 
L 451.72736 -60.193184 
L 451.933767 -59.924051 
L 452.109369 -59.65346 
L 452.25184 -59.381394 
L 452.359907 -59.107839 
L 452.433275 -58.832778 
L 452.472526 -58.556193 
L 452.478974 -58.278068 
L 452.454504 -57.998386 
L 452.401388 -57.717129 
L 452.322107 -57.434279 
L 452.219159 -57.149818 
L 452.094897 -56.863728 
L 451.951382 -56.57599 
L 451.79027 -56.286585 
L 451.612759 -55.995493 
L 451.419578 -55.702695 
L 451.211037 -55.40817 
L 450.987137 -55.111899 
L 450.747715 -54.813859 
L 450.492624 -54.51403 
L 450.221933 -54.212391 
L 449.936109 -53.908919 
L 449.636189 -53.603592 
L 449.323895 -53.296387 
L 449.001707 -52.987281 
L 448.672859 -52.67625 
z
" style="stroke: #3f3f3f; stroke-width: 1.25"/>
    </defs>
    <g clip-path="url(#p8cd4505a61)">
     <use xlink:href="#m824fe49168" x="0" y="392.514375" style="fill: #e1812c; stroke: #3f3f3f; stroke-width: 1.25"/>
    </g>
   </g>
   <g id="FillBetweenPolyCollection_3">
    <defs>
     <path id="maa2b171c83" d="M 460.243576 -131.902639 
L 459.143377 -131.902639 
L 459.062069 -131.975103 
L 458.97238 -132.047463 
L 458.874182 -132.119718 
L 458.76753 -132.191869 
L 458.652693 -132.263915 
L 458.530181 -132.335858 
L 458.400767 -132.407697 
L 458.265499 -132.479433 
L 458.125692 -132.551066 
L 457.982925 -132.622597 
L 457.839001 -132.694025 
L 457.695907 -132.765352 
L 457.555756 -132.836576 
L 457.420708 -132.907699 
L 457.292894 -132.978721 
L 457.174328 -133.049643 
L 457.066823 -133.120463 
L 456.971918 -133.191184 
L 456.890814 -133.261804 
L 456.824337 -133.332325 
L 456.772919 -133.402746 
L 456.736601 -133.473068 
L 456.715064 -133.543292 
L 456.70767 -133.613416 
L 456.713521 -133.683443 
L 456.731516 -133.753371 
L 456.760415 -133.823201 
L 456.798894 -133.892935 
L 456.845585 -133.96257 
L 456.899115 -134.032109 
L 456.958126 -134.101551 
L 457.021291 -134.170897 
L 457.087319 -134.240147 
L 457.154963 -134.309301 
L 457.223018 -134.378359 
L 457.290338 -134.447322 
L 457.355839 -134.51619 
L 457.418525 -134.584962 
L 457.477511 -134.653641 
L 457.532049 -134.722225 
L 457.581566 -134.790715 
L 457.625693 -134.859111 
L 457.664295 -134.927414 
L 457.697491 -134.995623 
L 457.725667 -135.06374 
L 457.749479 -135.131763 
L 457.769827 -135.199694 
L 457.787834 -135.267533 
L 457.80479 -135.33528 
L 457.822091 -135.402935 
L 457.841169 -135.470499 
L 457.863406 -135.537971 
L 457.890056 -135.605352 
L 457.922172 -135.672643 
L 457.960536 -135.739843 
L 458.005617 -135.806953 
L 458.057546 -135.873972 
L 458.116116 -135.940902 
L 458.180801 -136.007742 
L 458.250804 -136.074493 
L 458.325107 -136.141155 
L 458.402548 -136.207728 
L 458.481885 -136.274213 
L 458.561869 -136.340609 
L 458.641304 -136.406917 
L 458.719099 -136.473137 
L 458.794309 -136.539269 
L 458.866151 -136.605314 
L 458.934028 -136.671271 
L 458.997516 -136.737142 
L 459.056363 -136.802926 
L 459.110469 -136.868623 
L 459.159863 -136.934234 
L 459.204682 -136.999759 
L 459.245138 -137.065199 
L 459.281505 -137.130552 
L 459.314086 -137.19582 
L 459.3432 -137.261003 
L 459.369165 -137.326101 
L 459.392286 -137.391115 
L 459.412849 -137.456043 
L 459.43111 -137.520888 
L 459.447301 -137.585648 
L 459.461629 -137.650325 
L 459.474275 -137.714918 
L 459.485405 -137.779427 
L 459.49517 -137.843853 
L 459.503718 -137.908197 
L 459.511193 -137.972457 
L 459.517744 -138.036635 
L 459.523526 -138.100731 
L 459.5287 -138.164744 
L 459.533435 -138.228676 
L 459.537903 -138.292525 
L 459.542274 -138.356294 
L 459.546711 -138.419981 
L 459.551363 -138.483587 
L 459.556358 -138.547111 
L 459.561797 -138.610556 
L 459.852137 -138.610556 
L 459.852137 -138.610556 
L 459.857424 -138.547111 
L 459.862275 -138.483587 
L 459.866788 -138.419981 
L 459.871089 -138.356294 
L 459.875323 -138.292525 
L 459.879646 -138.228676 
L 459.884225 -138.164744 
L 459.889223 -138.100731 
L 459.894803 -138.036635 
L 459.901117 -137.972457 
L 459.908313 -137.908197 
L 459.916529 -137.843853 
L 459.925899 -137.779427 
L 459.936557 -137.714918 
L 459.948641 -137.650325 
L 459.962296 -137.585648 
L 459.977685 -137.520888 
L 459.994984 -137.456043 
L 460.014393 -137.391115 
L 460.036128 -137.326101 
L 460.060427 -137.261003 
L 460.087532 -137.19582 
L 460.117693 -137.130552 
L 460.151146 -137.065199 
L 460.188099 -136.999759 
L 460.228718 -136.934234 
L 460.273101 -136.868623 
L 460.321262 -136.802926 
L 460.373112 -136.737142 
L 460.428439 -136.671271 
L 460.486899 -136.605314 
L 460.548011 -136.539269 
L 460.611159 -136.473137 
L 460.675606 -136.406917 
L 460.740514 -136.340609 
L 460.804971 -136.274213 
L 460.868033 -136.207728 
L 460.928767 -136.141155 
L 460.98629 -136.074493 
L 461.039824 -136.007742 
L 461.088733 -135.940902 
L 461.132562 -135.873972 
L 461.171063 -135.806953 
L 461.204218 -135.739843 
L 461.232238 -135.672643 
L 461.255558 -135.605352 
L 461.274816 -135.537971 
L 461.290819 -135.470499 
L 461.304503 -135.402935 
L 461.316875 -135.33528 
L 461.328966 -135.267533 
L 461.34177 -135.199694 
L 461.356193 -135.131763 
L 461.37301 -135.06374 
L 461.392825 -134.995623 
L 461.416054 -134.927414 
L 461.442908 -134.859111 
L 461.473401 -134.790715 
L 461.50736 -134.722225 
L 461.54445 -134.653641 
L 461.584199 -134.584962 
L 461.626034 -134.51619 
L 461.669302 -134.447322 
L 461.713304 -134.378359 
L 461.757313 -134.309301 
L 461.800591 -134.240147 
L 461.842395 -134.170897 
L 461.881984 -134.101551 
L 461.91862 -134.032109 
L 461.951564 -133.96257 
L 461.980077 -133.892935 
L 462.003421 -133.823201 
L 462.020863 -133.753371 
L 462.031685 -133.683443 
L 462.035197 -133.613416 
L 462.030758 -133.543292 
L 462.017799 -133.473068 
L 461.99585 -133.402746 
L 461.964565 -133.332325 
L 461.923746 -133.261804 
L 461.873373 -133.191184 
L 461.813614 -133.120463 
L 461.744839 -133.049643 
L 461.667622 -132.978721 
L 461.582735 -132.907699 
L 461.491136 -132.836576 
L 461.393936 -132.765352 
L 461.292376 -132.694025 
L 461.187783 -132.622597 
L 461.081526 -132.551066 
L 460.974971 -132.479433 
L 460.869439 -132.407697 
L 460.766157 -132.335858 
L 460.666226 -132.263915 
L 460.570591 -132.191869 
L 460.480019 -132.119718 
L 460.395092 -132.047463 
L 460.316205 -131.975103 
L 460.243576 -131.902639 
z
" style="stroke: #3f3f3f; stroke-width: 1.25"/>
    </defs>
    <g clip-path="url(#p8cd4505a61)">
     <use xlink:href="#maa2b171c83" x="0" y="392.514375" style="fill: #3274a1; stroke: #3f3f3f; stroke-width: 1.25"/>
    </g>
   </g>
   <g id="FillBetweenPolyCollection_4">
    <defs>
     <path id="m9c275bde0f" d="M 464.554987 -55.757256 
L 463.279378 -55.757256 
L 463.2283 -55.914915 
L 463.175932 -56.072079 
L 463.122438 -56.228749 
L 463.067985 -56.38493 
L 463.012751 -56.540624 
L 462.956918 -56.695834 
L 462.900678 -56.850563 
L 462.844233 -57.004814 
L 462.787795 -57.158591 
L 462.731589 -57.311895 
L 462.675855 -57.464731 
L 462.620844 -57.6171 
L 462.566824 -57.769006 
L 462.514073 -57.920451 
L 462.462879 -58.071438 
L 462.413536 -58.22197 
L 462.36634 -58.372051 
L 462.32158 -58.521681 
L 462.279533 -58.670865 
L 462.240454 -58.819604 
L 462.204569 -58.967902 
L 462.172067 -59.11576 
L 462.143089 -59.263183 
L 462.117721 -59.410171 
L 462.095993 -59.556728 
L 462.077869 -59.702857 
L 462.063251 -59.848559 
L 462.051977 -59.993837 
L 462.043827 -60.138694 
L 462.038529 -60.283132 
L 462.035768 -60.427154 
L 462.035197 -60.570761 
L 462.03645 -60.713957 
L 462.039159 -60.856744 
L 462.042959 -60.999123 
L 462.04751 -61.141098 
L 462.052506 -61.282671 
L 462.057684 -61.423843 
L 462.062835 -61.564617 
L 462.06781 -61.704996 
L 462.07252 -61.844981 
L 462.076944 -61.984575 
L 462.08112 -62.12378 
L 462.085145 -62.262599 
L 462.089167 -62.401032 
L 462.093378 -62.539083 
L 462.098004 -62.676753 
L 462.103292 -62.814045 
L 462.109499 -62.950961 
L 462.116882 -63.087502 
L 462.125684 -63.223671 
L 462.136128 -63.35947 
L 462.148402 -63.494901 
L 462.162654 -63.629965 
L 462.17899 -63.764665 
L 462.197467 -63.899003 
L 462.218093 -64.032981 
L 462.240831 -64.1666 
L 462.265603 -64.299862 
L 462.292293 -64.43277 
L 462.320757 -64.565326 
L 462.350832 -64.69753 
L 462.382343 -64.829386 
L 462.415112 -64.960894 
L 462.448969 -65.092057 
L 462.483755 -65.222877 
L 462.519329 -65.353354 
L 462.555571 -65.483492 
L 462.592385 -65.613292 
L 462.629699 -65.742755 
L 462.667459 -65.871883 
L 462.705631 -66.000679 
L 462.744192 -66.129143 
L 462.783126 -66.257278 
L 462.822421 -66.385085 
L 462.862058 -66.512565 
L 462.902009 -66.639721 
L 462.942236 -66.766555 
L 462.982681 -66.893067 
L 463.023272 -67.019259 
L 463.063918 -67.145133 
L 463.10451 -67.270691 
L 463.144928 -67.395934 
L 463.185039 -67.520864 
L 463.224704 -67.645482 
L 463.263783 -67.76979 
L 463.302135 -67.89379 
L 463.339627 -68.017482 
L 463.376138 -68.140869 
L 463.411558 -68.263951 
L 463.445792 -68.386732 
L 463.478766 -68.509211 
L 463.510419 -68.63139 
L 463.540712 -68.753272 
L 463.569622 -68.874856 
L 463.597139 -68.996146 
L 463.62327 -69.117141 
L 463.648031 -69.237845 
L 463.671448 -69.358257 
L 464.19532 -69.358257 
L 464.19532 -69.358257 
L 464.217541 -69.237845 
L 464.240932 -69.117141 
L 464.265501 -68.996146 
L 464.291244 -68.874856 
L 464.318149 -68.753272 
L 464.346187 -68.63139 
L 464.375318 -68.509211 
L 464.405484 -68.386732 
L 464.436611 -68.263951 
L 464.468611 -68.140869 
L 464.501382 -68.017482 
L 464.534809 -67.89379 
L 464.568768 -67.76979 
L 464.603129 -67.645482 
L 464.63776 -67.520864 
L 464.67253 -67.395934 
L 464.707315 -67.270691 
L 464.742 -67.145133 
L 464.77648 -67.019259 
L 464.810667 -66.893067 
L 464.844489 -66.766555 
L 464.877891 -66.639721 
L 464.910832 -66.512565 
L 464.943287 -66.385085 
L 464.975241 -66.257278 
L 465.006689 -66.129143 
L 465.037626 -66.000679 
L 465.06805 -65.871883 
L 465.097949 -65.742755 
L 465.127305 -65.613292 
L 465.156085 -65.483492 
L 465.184242 -65.353354 
L 465.211711 -65.222877 
L 465.238411 -65.092057 
L 465.264249 -64.960894 
L 465.289116 -64.829386 
L 465.312899 -64.69753 
L 465.335481 -64.565326 
L 465.356749 -64.43277 
L 465.376599 -64.299862 
L 465.394944 -64.1666 
L 465.411716 -64.032981 
L 465.426876 -63.899003 
L 465.440411 -63.764665 
L 465.452344 -63.629965 
L 465.462729 -63.494901 
L 465.471652 -63.35947 
L 465.47923 -63.223671 
L 465.485608 -63.087502 
L 465.490949 -62.950961 
L 465.495435 -62.814045 
L 465.499253 -62.676753 
L 465.50259 -62.539083 
L 465.505627 -62.401032 
L 465.508524 -62.262599 
L 465.511422 -62.12378 
L 465.514426 -61.984575 
L 465.517607 -61.844981 
L 465.520991 -61.704996 
L 465.524562 -61.564617 
L 465.528256 -61.423843 
L 465.531967 -61.282671 
L 465.535544 -61.141098 
L 465.538801 -60.999123 
L 465.541518 -60.856744 
L 465.543453 -60.713957 
L 465.544349 -60.570761 
L 465.543941 -60.427154 
L 465.541967 -60.283132 
L 465.538179 -60.138694 
L 465.532346 -59.993837 
L 465.524263 -59.848559 
L 465.513761 -59.702857 
L 465.500705 -59.556728 
L 465.485 -59.410171 
L 465.466594 -59.263183 
L 465.445472 -59.11576 
L 465.421661 -58.967902 
L 465.395223 -58.819604 
L 465.36625 -58.670865 
L 465.334864 -58.521681 
L 465.30121 -58.372051 
L 465.265448 -58.22197 
L 465.227754 -58.071438 
L 465.188311 -57.920451 
L 465.147307 -57.769006 
L 465.104932 -57.6171 
L 465.061375 -57.464731 
L 465.016823 -57.311895 
L 464.971456 -57.158591 
L 464.925455 -57.004814 
L 464.878992 -56.850563 
L 464.83224 -56.695834 
L 464.785365 -56.540624 
L 464.738536 -56.38493 
L 464.691917 -56.228749 
L 464.645675 -56.072079 
L 464.599977 -55.914915 
L 464.554987 -55.757256 
z
" style="stroke: #3f3f3f; stroke-width: 1.25"/>
    </defs>
    <g clip-path="url(#p8cd4505a61)">
     <use xlink:href="#m9c275bde0f" x="0" y="392.514375" style="fill: #e1812c; stroke: #3f3f3f; stroke-width: 1.25"/>
    </g>
   </g>
   <g id="FillBetweenPolyCollection_5">
    <defs>
     <path id="mb2713c2eb8" d="M 468.6207 -179.367084 
L 467.689247 -179.367084 
L 467.660052 -179.400495 
L 467.631571 -179.433883 
L 467.603984 -179.467249 
L 467.577436 -179.500593 
L 467.552031 -179.533915 
L 467.527826 -179.567214 
L 467.504832 -179.600491 
L 467.483013 -179.633746 
L 467.462287 -179.666979 
L 467.442534 -179.70019 
L 467.423598 -179.733379 
L 467.405298 -179.766545 
L 467.387438 -179.79969 
L 467.369817 -179.832813 
L 467.352235 -179.865914 
L 467.334511 -179.898992 
L 467.316487 -179.932049 
L 467.298039 -179.965084 
L 467.279081 -179.998098 
L 467.259575 -180.031089 
L 467.239525 -180.064059 
L 467.218985 -180.097007 
L 467.198053 -180.129933 
L 467.176867 -180.162837 
L 467.155597 -180.19572 
L 467.134438 -180.228582 
L 467.113604 -180.261421 
L 467.093313 -180.294239 
L 467.073779 -180.327036 
L 467.055204 -180.359811 
L 467.037768 -180.392564 
L 467.021621 -180.425296 
L 467.00688 -180.458007 
L 466.993625 -180.490696 
L 466.981897 -180.523364 
L 466.971701 -180.55601 
L 466.963004 -180.588635 
L 466.955746 -180.621239 
L 466.949844 -180.653822 
L 466.945196 -180.686383 
L 466.941692 -180.718923 
L 466.939222 -180.751442 
L 466.937682 -180.78394 
L 466.93698 -180.816416 
L 466.937045 -180.848872 
L 466.937829 -180.881306 
L 466.939311 -180.91372 
L 466.9415 -180.946112 
L 466.944433 -180.978483 
L 466.948178 -181.010834 
L 466.952827 -181.043163 
L 466.958494 -181.075472 
L 466.96531 -181.10776 
L 466.97342 -181.140026 
L 466.982971 -181.172272 
L 466.99411 -181.204498 
L 467.006975 -181.236702 
L 467.021688 -181.268886 
L 467.038348 -181.301049 
L 467.057029 -181.333191 
L 467.077767 -181.365312 
L 467.100565 -181.397413 
L 467.125381 -181.429494 
L 467.152136 -181.461553 
L 467.180707 -181.493592 
L 467.210935 -181.525611 
L 467.242622 -181.557609 
L 467.27554 -181.589587 
L 467.309438 -181.621544 
L 467.344045 -181.653481 
L 467.379083 -181.685397 
L 467.414269 -181.717293 
L 467.44933 -181.749169 
L 467.484004 -181.781024 
L 467.51805 -181.812859 
L 467.551257 -181.844673 
L 467.583441 -181.876468 
L 467.614455 -181.908242 
L 467.644189 -181.939996 
L 467.672566 -181.97173 
L 467.699547 -182.003443 
L 467.725125 -182.035137 
L 467.749322 -182.06681 
L 467.772185 -182.098464 
L 467.793779 -182.130097 
L 467.814186 -182.161711 
L 467.833496 -182.193304 
L 467.851807 -182.224877 
L 467.869213 -182.256431 
L 467.885807 -182.287964 
L 467.901676 -182.319478 
L 467.916896 -182.350971 
L 467.931536 -182.382445 
L 467.945651 -182.413899 
L 467.959284 -182.445334 
L 467.97247 -182.476748 
L 467.985231 -182.508143 
L 467.997579 -182.539518 
L 468.009521 -182.570873 
L 468.318921 -182.570873 
L 468.318921 -182.570873 
L 468.330501 -182.539518 
L 468.342448 -182.508143 
L 468.354764 -182.476748 
L 468.36746 -182.445334 
L 468.380553 -182.413899 
L 468.394073 -182.382445 
L 468.408059 -182.350971 
L 468.422559 -182.319478 
L 468.437632 -182.287964 
L 468.453347 -182.256431 
L 468.469778 -182.224877 
L 468.487005 -182.193304 
L 468.505111 -182.161711 
L 468.524173 -182.130097 
L 468.544267 -182.098464 
L 468.565453 -182.06681 
L 468.587779 -182.035137 
L 468.611271 -182.003443 
L 468.635932 -181.97173 
L 468.661739 -181.939996 
L 468.688635 -181.908242 
L 468.716535 -181.876468 
L 468.745322 -181.844673 
L 468.774847 -181.812859 
L 468.804935 -181.781024 
L 468.835389 -181.749169 
L 468.86599 -181.717293 
L 468.896508 -181.685397 
L 468.926707 -181.653481 
L 468.95635 -181.621544 
L 468.985209 -181.589587 
L 469.013069 -181.557609 
L 469.039734 -181.525611 
L 469.065032 -181.493592 
L 469.088821 -181.461553 
L 469.11099 -181.429494 
L 469.131459 -181.397413 
L 469.150185 -181.365312 
L 469.167156 -181.333191 
L 469.18239 -181.301049 
L 469.195935 -181.268886 
L 469.207864 -181.236702 
L 469.21827 -181.204498 
L 469.227261 -181.172272 
L 469.234956 -181.140026 
L 469.24148 -181.10776 
L 469.246957 -181.075472 
L 469.251505 -181.043163 
L 469.255232 -181.010834 
L 469.258233 -180.978483 
L 469.260583 -180.946112 
L 469.262335 -180.91372 
L 469.263521 -180.881306 
L 469.264148 -180.848872 
L 469.2642 -180.816416 
L 469.263638 -180.78394 
L 469.262405 -180.751442 
L 469.260428 -180.718923 
L 469.257623 -180.686383 
L 469.253897 -180.653822 
L 469.249162 -180.621239 
L 469.243334 -180.588635 
L 469.23634 -180.55601 
L 469.228126 -180.523364 
L 469.218661 -180.490696 
L 469.207941 -180.458007 
L 469.195989 -180.425296 
L 469.182862 -180.392564 
L 469.168646 -180.359811 
L 469.153453 -180.327036 
L 469.137424 -180.294239 
L 469.120714 -180.261421 
L 469.103496 -180.228582 
L 469.085946 -180.19572 
L 469.068237 -180.162837 
L 469.050531 -180.129933 
L 469.032973 -180.097007 
L 469.015682 -180.064059 
L 468.998741 -180.031089 
L 468.982202 -179.998098 
L 468.966074 -179.965084 
L 468.950327 -179.932049 
L 468.934892 -179.898992 
L 468.919665 -179.865914 
L 468.904513 -179.832813 
L 468.889278 -179.79969 
L 468.873789 -179.766545 
L 468.857867 -179.733379 
L 468.841336 -179.70019 
L 468.824031 -179.666979 
L 468.805808 -179.633746 
L 468.78655 -179.600491 
L 468.766173 -179.567214 
L 468.744631 -179.533915 
L 468.721919 -179.500593 
L 468.698073 -179.467249 
L 468.673171 -179.433883 
L 468.647329 -179.400495 
L 468.6207 -179.367084 
z
" style="stroke: #3f3f3f; stroke-width: 1.25"/>
    </defs>
    <g clip-path="url(#p8cd4505a61)">
     <use xlink:href="#mb2713c2eb8" x="0" y="392.514375" style="fill: #3274a1; stroke: #3f3f3f; stroke-width: 1.25"/>
    </g>
   </g>
   <g id="FillBetweenPolyCollection_6">
    <defs>
     <path id="m486b1c0a97" d="M 470.512136 -81.180653 
L 469.997952 -81.180653 
L 469.974747 -81.276912 
L 469.950541 -81.372986 
L 469.925404 -81.468875 
L 469.899423 -81.564581 
L 469.872699 -81.660104 
L 469.845348 -81.755444 
L 469.817497 -81.850603 
L 469.789286 -81.945581 
L 469.760864 -82.040378 
L 469.732381 -82.134996 
L 469.703992 -82.229435 
L 469.675845 -82.323696 
L 469.648082 -82.417779 
L 469.620834 -82.511686 
L 469.594216 -82.605416 
L 469.568325 -82.69897 
L 469.543243 -82.79235 
L 469.519028 -82.885556 
L 469.495726 -82.978588 
L 469.473364 -83.071446 
L 469.451957 -83.164133 
L 469.431515 -83.256648 
L 469.412044 -83.348992 
L 469.393549 -83.441165 
L 469.376047 -83.533169 
L 469.35956 -83.625004 
L 469.344127 -83.71667 
L 469.329799 -83.808168 
L 469.316643 -83.899498 
L 469.30474 -83.990663 
L 469.294179 -84.081661 
L 469.285058 -84.172493 
L 469.277474 -84.263161 
L 469.27152 -84.353664 
L 469.267281 -84.444004 
L 469.264825 -84.53418 
L 469.2642 -84.624194 
L 469.265429 -84.714047 
L 469.268512 -84.803737 
L 469.27342 -84.893267 
L 469.280098 -84.982637 
L 469.288466 -85.071847 
L 469.298422 -85.160899 
L 469.309846 -85.249791 
L 469.322603 -85.338526 
L 469.336551 -85.427103 
L 469.351538 -85.515524 
L 469.367414 -85.603788 
L 469.38403 -85.691897 
L 469.401239 -85.779851 
L 469.418901 -85.867649 
L 469.436884 -85.955294 
L 469.455062 -86.042786 
L 469.473319 -86.130124 
L 469.491544 -86.21731 
L 469.509638 -86.304344 
L 469.527504 -86.391226 
L 469.54506 -86.477958 
L 469.562226 -86.564539 
L 469.578935 -86.650971 
L 469.59513 -86.737253 
L 469.610765 -86.823387 
L 469.625805 -86.909372 
L 469.640233 -86.995209 
L 469.654044 -87.080899 
L 469.667251 -87.166443 
L 469.679882 -87.25184 
L 469.691983 -87.337091 
L 469.703614 -87.422197 
L 469.714853 -87.507159 
L 469.725786 -87.591976 
L 469.736513 -87.676649 
L 469.747138 -87.761179 
L 469.75777 -87.845566 
L 469.768519 -87.929811 
L 469.779487 -88.013914 
L 469.790772 -88.097876 
L 469.80246 -88.181697 
L 469.81462 -88.265377 
L 469.827306 -88.348917 
L 469.840551 -88.432318 
L 469.854369 -88.51558 
L 469.868752 -88.598703 
L 469.883672 -88.681688 
L 469.89908 -88.764536 
L 469.914913 -88.847246 
L 469.931089 -88.92982 
L 469.947518 -89.012257 
L 469.9641 -89.094559 
L 469.980729 -89.176725 
L 469.9973 -89.258756 
L 470.013709 -89.340653 
L 470.029857 -89.422415 
L 470.045653 -89.504044 
L 470.061014 -89.58554 
L 470.075869 -89.666903 
L 470.090158 -89.748134 
L 470.103834 -89.829233 
L 470.11686 -89.9102 
L 470.397676 -89.9102 
L 470.397676 -89.9102 
L 470.41034 -89.829233 
L 470.423603 -89.748134 
L 470.437424 -89.666903 
L 470.451752 -89.58554 
L 470.466527 -89.504044 
L 470.481675 -89.422415 
L 470.497115 -89.340653 
L 470.512757 -89.258756 
L 470.528505 -89.176725 
L 470.544259 -89.094559 
L 470.559919 -89.012257 
L 470.575387 -88.92982 
L 470.590572 -88.847246 
L 470.605389 -88.764536 
L 470.619768 -88.681688 
L 470.633652 -88.598703 
L 470.647 -88.51558 
L 470.659791 -88.432318 
L 470.672021 -88.348917 
L 470.683706 -88.265377 
L 470.694881 -88.181697 
L 470.705598 -88.097876 
L 470.715925 -88.013914 
L 470.725942 -87.929811 
L 470.735737 -87.845566 
L 470.745409 -87.761179 
L 470.755054 -87.676649 
L 470.764773 -87.591976 
L 470.77466 -87.507159 
L 470.784802 -87.422197 
L 470.795278 -87.337091 
L 470.806152 -87.25184 
L 470.817477 -87.166443 
L 470.82929 -87.080899 
L 470.841614 -86.995209 
L 470.854455 -86.909372 
L 470.867806 -86.823387 
L 470.881646 -86.737253 
L 470.89594 -86.650971 
L 470.910645 -86.564539 
L 470.925706 -86.477958 
L 470.94106 -86.391226 
L 470.956638 -86.304344 
L 470.972361 -86.21731 
L 470.988149 -86.130124 
L 471.003911 -86.042786 
L 471.019556 -85.955294 
L 471.034982 -85.867649 
L 471.050085 -85.779851 
L 471.064755 -85.691897 
L 471.078876 -85.603788 
L 471.092331 -85.515524 
L 471.104998 -85.427103 
L 471.116755 -85.338526 
L 471.127484 -85.249791 
L 471.137071 -85.160899 
L 471.14541 -85.071847 
L 471.152408 -84.982637 
L 471.157986 -84.893267 
L 471.162081 -84.803737 
L 471.164651 -84.714047 
L 471.165676 -84.624194 
L 471.165155 -84.53418 
L 471.163107 -84.444004 
L 471.159571 -84.353664 
L 471.154601 -84.263161 
L 471.148262 -84.172493 
L 471.140627 -84.081661 
L 471.131771 -83.990663 
L 471.12177 -83.899498 
L 471.110693 -83.808168 
L 471.098599 -83.71667 
L 471.085537 -83.625004 
L 471.071545 -83.533169 
L 471.056645 -83.441165 
L 471.040851 -83.348992 
L 471.024166 -83.256648 
L 471.006587 -83.164133 
L 470.98811 -83.071446 
L 470.968732 -82.978588 
L 470.948456 -82.885556 
L 470.927298 -82.79235 
L 470.905283 -82.69897 
L 470.882454 -82.605416 
L 470.858872 -82.511686 
L 470.834614 -82.417779 
L 470.809774 -82.323696 
L 470.784462 -82.229435 
L 470.7588 -82.134996 
L 470.73292 -82.040378 
L 470.70696 -81.945581 
L 470.681058 -81.850603 
L 470.655354 -81.755444 
L 470.629983 -81.660104 
L 470.605069 -81.564581 
L 470.580729 -81.468875 
L 470.557068 -81.372986 
L 470.534178 -81.276912 
L 470.512136 -81.180653 
z
" style="stroke: #3f3f3f; stroke-width: 1.25"/>
    </defs>
    <g clip-path="url(#p8cd4505a61)">
     <use xlink:href="#m486b1c0a97" x="0" y="392.514375" style="fill: #e1812c; stroke: #3f3f3f; stroke-width: 1.25"/>
    </g>
   </g>
   <g id="FillBetweenPolyCollection_7">
    <defs>
     <path id="m795ab4f800" d="M 472.965282 -279.144666 
L 472.577822 -279.144666 
L 472.559948 -279.187254 
L 472.541237 -279.229806 
L 472.521704 -279.272322 
L 472.501363 -279.314801 
L 472.480235 -279.357245 
L 472.458344 -279.399652 
L 472.435726 -279.442024 
L 472.412425 -279.484359 
L 472.388498 -279.526659 
L 472.364017 -279.568923 
L 472.339074 -279.611151 
L 472.313777 -279.653343 
L 472.288256 -279.6955 
L 472.26266 -279.737621 
L 472.23716 -279.779707 
L 472.211943 -279.821758 
L 472.187213 -279.863773 
L 472.163184 -279.905752 
L 472.14008 -279.947697 
L 472.118124 -279.989606 
L 472.097536 -280.03148 
L 472.078527 -280.073319 
L 472.06129 -280.115123 
L 472.045994 -280.156892 
L 472.032781 -280.198626 
L 472.021759 -280.240326 
L 472.013003 -280.28199 
L 472.006544 -280.32362 
L 472.002378 -280.365215 
L 472.000461 -280.406776 
L 472.000716 -280.448302 
L 472.003034 -280.489793 
L 472.007278 -280.53125 
L 472.013294 -280.572673 
L 472.020914 -280.614062 
L 472.029965 -280.655416 
L 472.040275 -280.696735 
L 472.051676 -280.738021 
L 472.064017 -280.779273 
L 472.07716 -280.82049 
L 472.090986 -280.861674 
L 472.105398 -280.902824 
L 472.120317 -280.94394 
L 472.135682 -280.985022 
L 472.151449 -281.02607 
L 472.167584 -281.067084 
L 472.18406 -281.108065 
L 472.200852 -281.149012 
L 472.217934 -281.189926 
L 472.235272 -281.230806 
L 472.252823 -281.271653 
L 472.270532 -281.312467 
L 472.288329 -281.353247 
L 472.306132 -281.393994 
L 472.323846 -281.434707 
L 472.341367 -281.475388 
L 472.358583 -281.516035 
L 472.375383 -281.556649 
L 472.391653 -281.597231 
L 472.40729 -281.637779 
L 472.422203 -281.678295 
L 472.436312 -281.718777 
L 472.449561 -281.759227 
L 472.461913 -281.799644 
L 472.473352 -281.840029 
L 472.483888 -281.880381 
L 472.49355 -281.9207 
L 472.502388 -281.960987 
L 472.510468 -282.001241 
L 472.517868 -282.041463 
L 472.524675 -282.081652 
L 472.530983 -282.121809 
L 472.536882 -282.161934 
L 472.542459 -282.202027 
L 472.547796 -282.242088 
L 472.552963 -282.282116 
L 472.558018 -282.322112 
L 472.563009 -282.362077 
L 472.567969 -282.402009 
L 472.572922 -282.44191 
L 472.577882 -282.481778 
L 472.582853 -282.521615 
L 472.587836 -282.561421 
L 472.592831 -282.601194 
L 472.597833 -282.640936 
L 472.602843 -282.680646 
L 472.607863 -282.720325 
L 472.612898 -282.759972 
L 472.617958 -282.799588 
L 472.623057 -282.839172 
L 472.628211 -282.878725 
L 472.633438 -282.918247 
L 472.638756 -282.957737 
L 472.644181 -282.997196 
L 472.649724 -283.036624 
L 472.655392 -283.076021 
L 472.661186 -283.115387 
L 472.667099 -283.154722 
L 472.673116 -283.194026 
L 472.872633 -283.194026 
L 472.872633 -283.194026 
L 472.878532 -283.154722 
L 472.884323 -283.115387 
L 472.889992 -283.076021 
L 472.895531 -283.036624 
L 472.900942 -282.997196 
L 472.906232 -282.957737 
L 472.911413 -282.918247 
L 472.9165 -282.878725 
L 472.921511 -282.839172 
L 472.926464 -282.799588 
L 472.931374 -282.759972 
L 472.936255 -282.720325 
L 472.941117 -282.680646 
L 472.945965 -282.640936 
L 472.950801 -282.601194 
L 472.955624 -282.561421 
L 472.960433 -282.521615 
L 472.965225 -282.481778 
L 472.970001 -282.44191 
L 472.974767 -282.402009 
L 472.979535 -282.362077 
L 472.984328 -282.322112 
L 472.989179 -282.282116 
L 472.994132 -282.242088 
L 472.999243 -282.202027 
L 473.004578 -282.161934 
L 473.010215 -282.121809 
L 473.016236 -282.081652 
L 473.022726 -282.041463 
L 473.029772 -282.001241 
L 473.037453 -281.960987 
L 473.045842 -281.9207 
L 473.054997 -281.880381 
L 473.064962 -281.840029 
L 473.075759 -281.799644 
L 473.087391 -281.759227 
L 473.099839 -281.718777 
L 473.113061 -281.678295 
L 473.126998 -281.637779 
L 473.141572 -281.597231 
L 473.156691 -281.556649 
L 473.172253 -281.516035 
L 473.188153 -281.475388 
L 473.204281 -281.434707 
L 473.220535 -281.393994 
L 473.236817 -281.353247 
L 473.25304 -281.312467 
L 473.269131 -281.271653 
L 473.285026 -281.230806 
L 473.300679 -281.189926 
L 473.316053 -281.149012 
L 473.331119 -281.108065 
L 473.345857 -281.067084 
L 473.360247 -281.02607 
L 473.374269 -280.985022 
L 473.387895 -280.94394 
L 473.401088 -280.902824 
L 473.4138 -280.861674 
L 473.425964 -280.82049 
L 473.437498 -280.779273 
L 473.448304 -280.738021 
L 473.458267 -280.696735 
L 473.467257 -280.655416 
L 473.475137 -280.614062 
L 473.481761 -280.572673 
L 473.486984 -280.53125 
L 473.490665 -280.489793 
L 473.492674 -280.448302 
L 473.492895 -280.406776 
L 473.491234 -280.365215 
L 473.487621 -280.32362 
L 473.482014 -280.28199 
L 473.474401 -280.240326 
L 473.464804 -280.198626 
L 473.453272 -280.156892 
L 473.439889 -280.115123 
L 473.424762 -280.073319 
L 473.408026 -280.03148 
L 473.389836 -279.989606 
L 473.370362 -279.947697 
L 473.349785 -279.905752 
L 473.328294 -279.863773 
L 473.306077 -279.821758 
L 473.283319 -279.779707 
L 473.260199 -279.737621 
L 473.236883 -279.6955 
L 473.213526 -279.653343 
L 473.190266 -279.611151 
L 473.167225 -279.568923 
L 473.144508 -279.526659 
L 473.122204 -279.484359 
L 473.100389 -279.442024 
L 473.079122 -279.399652 
L 473.058455 -279.357245 
L 473.038427 -279.314801 
L 473.01907 -279.272322 
L 473.000412 -279.229806 
L 472.982476 -279.187254 
L 472.965282 -279.144666 
z
" style="stroke: #3f3f3f; stroke-width: 1.25"/>
    </defs>
    <g clip-path="url(#p8cd4505a61)">
     <use xlink:href="#m795ab4f800" x="0" y="392.514375" style="fill: #3274a1; stroke: #3f3f3f; stroke-width: 1.25"/>
    </g>
   </g>
   <g id="FillBetweenPolyCollection_8">
    <defs>
     <path id="m5e76d2ab86" d="M 474.687683 -159.640828 
L 473.616806 -159.640828 
L 473.568314 -160.02138 
L 473.53004 -160.399054 
L 473.504367 -160.773894 
L 473.492895 -161.145942 
L 473.496253 -161.515239 
L 473.514036 -161.881826 
L 473.544861 -162.245742 
L 473.586547 -162.607025 
L 473.636372 -162.965714 
L 473.691372 -163.321846 
L 473.748632 -163.675456 
L 473.805526 -164.026581 
L 473.859895 -164.375255 
L 473.910136 -164.721511 
L 473.95522 -165.065383 
L 473.994643 -165.406905 
L 474.028345 -165.746107 
L 474.056594 -166.083021 
L 474.079877 -166.417678 
L 474.098798 -166.750107 
L 474.113998 -167.080339 
L 474.126093 -167.408401 
L 474.13564 -167.734323 
L 474.143121 -168.058132 
L 474.148941 -168.379855 
L 474.153432 -168.69952 
L 474.156863 -169.017151 
L 474.159456 -169.332776 
L 474.161388 -169.646418 
L 474.162805 -169.958103 
L 474.163827 -170.267856 
L 474.16455 -170.575699 
L 474.16505 -170.881657 
L 474.165389 -171.185752 
L 474.165613 -171.488006 
L 474.165758 -171.788443 
L 474.165849 -172.087083 
L 474.165905 -172.383949 
L 474.165939 -172.67906 
L 474.165959 -172.972438 
L 474.16597 -173.264103 
L 474.165976 -173.554075 
L 474.16598 -173.842373 
L 474.165982 -174.129016 
L 474.165982 -174.414024 
L 474.165983 -174.697415 
L 474.165983 -174.979207 
L 474.165983 -175.259418 
L 474.165983 -175.538066 
L 474.165983 -175.815168 
L 474.165983 -176.090742 
L 474.165983 -176.364803 
L 474.165983 -176.637369 
L 474.165983 -176.908455 
L 474.165983 -177.178078 
L 474.165983 -177.446254 
L 474.165983 -177.712997 
L 474.165983 -177.978323 
L 474.165983 -178.242248 
L 474.165983 -178.504785 
L 474.165983 -178.765949 
L 474.165983 -179.025755 
L 474.165983 -179.284217 
L 474.165983 -179.541348 
L 474.165983 -179.797162 
L 474.165983 -180.051673 
L 474.165983 -180.304893 
L 474.165983 -180.556836 
L 474.165983 -180.807515 
L 474.165983 -181.056942 
L 474.165983 -181.305129 
L 474.165982 -181.552089 
L 474.165981 -181.797835 
L 474.165978 -182.042377 
L 474.165973 -182.285728 
L 474.165965 -182.527899 
L 474.165951 -182.768901 
L 474.165928 -183.008746 
L 474.16589 -183.247445 
L 474.165831 -183.485009 
L 474.165739 -183.721448 
L 474.165603 -183.956773 
L 474.165406 -184.190995 
L 474.165129 -184.424123 
L 474.16475 -184.656169 
L 474.164247 -184.887141 
L 474.163601 -185.11705 
L 474.162795 -185.345906 
L 474.161824 -185.573718 
L 474.160693 -185.800496 
L 474.159422 -186.026248 
L 474.15805 -186.250985 
L 474.15663 -186.474716 
L 474.155232 -186.697448 
L 474.153934 -186.919192 
L 474.152816 -187.139956 
L 474.151956 -187.359748 
L 474.151412 -187.578578 
L 474.151226 -187.796453 
L 474.180719 -187.796453 
L 474.180719 -187.796453 
L 474.180534 -187.578578 
L 474.179992 -187.359748 
L 474.179134 -187.139956 
L 474.178019 -186.919192 
L 474.176724 -186.697448 
L 474.175328 -186.474716 
L 474.173911 -186.250985 
L 474.17254 -186.026248 
L 474.171271 -185.800496 
L 474.170141 -185.573718 
L 474.169171 -185.345906 
L 474.168366 -185.11705 
L 474.167719 -184.887141 
L 474.167217 -184.656169 
L 474.166838 -184.424123 
L 474.16656 -184.190995 
L 474.166363 -183.956773 
L 474.166227 -183.721448 
L 474.166136 -183.485009 
L 474.166077 -183.247445 
L 474.166039 -183.008746 
L 474.166016 -182.768901 
L 474.166002 -182.527899 
L 474.165993 -182.285728 
L 474.165989 -182.042377 
L 474.165986 -181.797835 
L 474.165985 -181.552089 
L 474.165984 -181.305129 
L 474.165984 -181.056942 
L 474.165984 -180.807515 
L 474.165983 -180.556836 
L 474.165983 -180.304893 
L 474.165983 -180.051673 
L 474.165983 -179.797162 
L 474.165983 -179.541348 
L 474.165983 -179.284217 
L 474.165983 -179.025755 
L 474.165983 -178.765949 
L 474.165983 -178.504785 
L 474.165983 -178.242248 
L 474.165983 -177.978323 
L 474.165983 -177.712997 
L 474.165983 -177.446254 
L 474.165983 -177.178078 
L 474.165983 -176.908455 
L 474.165983 -176.637369 
L 474.165983 -176.364803 
L 474.165983 -176.090742 
L 474.165983 -175.815168 
L 474.165983 -175.538066 
L 474.165983 -175.259418 
L 474.165984 -174.979207 
L 474.165984 -174.697415 
L 474.165984 -174.414024 
L 474.165985 -174.129016 
L 474.165987 -173.842373 
L 474.16599 -173.554075 
L 474.165997 -173.264103 
L 474.166008 -172.972438 
L 474.166028 -172.67906 
L 474.166061 -172.383949 
L 474.166117 -172.087083 
L 474.166209 -171.788443 
L 474.166354 -171.488006 
L 474.166578 -171.185752 
L 474.166917 -170.881657 
L 474.167417 -170.575699 
L 474.168139 -170.267856 
L 474.16916 -169.958103 
L 474.170577 -169.646418 
L 474.172507 -169.332776 
L 474.175095 -169.017151 
L 474.17852 -168.69952 
L 474.182998 -168.379855 
L 474.188795 -168.058132 
L 474.196239 -167.734323 
L 474.205722 -167.408401 
L 474.21771 -167.080339 
L 474.232738 -166.750107 
L 474.251385 -166.417678 
L 474.274238 -166.083021 
L 474.301829 -165.746107 
L 474.334554 -165.406905 
L 474.372572 -165.065383 
L 474.415704 -164.721511 
L 474.463344 -164.375255 
L 474.514398 -164.026581 
L 474.567274 -163.675456 
L 474.619933 -163.321846 
L 474.669995 -162.965714 
L 474.714914 -162.607025 
L 474.752184 -162.245742 
L 474.779563 -161.881826 
L 474.795288 -161.515239 
L 474.798252 -161.145942 
L 474.78812 -160.773894 
L 474.765368 -160.399054 
L 474.731251 -160.02138 
L 474.687683 -159.640828 
z
" style="stroke: #3f3f3f; stroke-width: 1.25"/>
    </defs>
    <g clip-path="url(#p8cd4505a61)">
     <use xlink:href="#m5e76d2ab86" x="0" y="392.514375" style="fill: #e1812c; stroke: #3f3f3f; stroke-width: 1.25"/>
    </g>
   </g>
   <g id="FillBetweenPolyCollection_9">
    <defs>
     <path id="m65ee0083f1" d="M 475.977298 -351.756511 
L 475.939171 -351.756511 
L 475.939332 -351.791171 
L 475.939918 -351.825807 
L 475.940851 -351.86042 
L 475.942014 -351.895008 
L 475.943262 -351.929572 
L 475.944433 -351.964112 
L 475.94536 -351.998629 
L 475.945879 -352.033121 
L 475.945842 -352.06759 
L 475.94512 -352.102035 
L 475.943608 -352.136456 
L 475.941231 -352.170854 
L 475.93794 -352.205228 
L 475.933719 -352.239578 
L 475.92858 -352.273905 
L 475.922566 -352.308208 
L 475.915743 -352.342487 
L 475.908195 -352.376743 
L 475.900013 -352.410976 
L 475.891283 -352.445185 
L 475.882061 -352.479371 
L 475.872358 -352.513533 
L 475.862113 -352.547672 
L 475.851181 -352.581788 
L 475.839315 -352.61588 
L 475.826173 -352.649949 
L 475.811327 -352.683995 
L 475.794304 -352.718018 
L 475.774629 -352.752017 
L 475.751889 -352.785994 
L 475.725807 -352.819947 
L 475.696316 -352.853877 
L 475.663618 -352.887784 
L 475.628237 -352.921669 
L 475.591034 -352.95553 
L 475.553189 -352.989368 
L 475.516145 -353.023184 
L 475.481507 -353.056976 
L 475.450912 -353.090746 
L 475.425877 -353.124493 
L 475.407639 -353.158217 
L 475.397027 -353.191918 
L 475.394372 -353.225597 
L 475.399471 -353.259252 
L 475.411632 -353.292886 
L 475.429765 -353.326496 
L 475.452531 -353.360084 
L 475.478505 -353.39365 
L 475.506337 -353.427193 
L 475.53488 -353.460713 
L 475.563275 -353.494211 
L 475.590983 -353.527686 
L 475.617757 -353.561139 
L 475.643587 -353.59457 
L 475.668613 -353.627978 
L 475.69303 -353.661364 
L 475.717016 -353.694728 
L 475.740666 -353.728069 
L 475.763965 -353.761388 
L 475.786783 -353.794685 
L 475.808896 -353.82796 
L 475.830021 -353.861213 
L 475.849856 -353.894443 
L 475.868123 -353.927651 
L 475.8846 -353.960838 
L 475.899142 -353.994002 
L 475.91169 -354.027144 
L 475.922274 -354.060265 
L 475.930995 -354.093363 
L 475.938015 -354.126439 
L 475.943534 -354.159494 
L 475.94777 -354.192527 
L 475.950943 -354.225537 
L 475.953263 -354.258526 
L 475.954917 -354.291494 
L 475.956064 -354.324439 
L 475.956836 -354.357363 
L 475.957332 -354.390265 
L 475.957629 -354.423146 
L 475.957776 -354.456005 
L 475.957804 -354.488842 
L 475.957728 -354.521657 
L 475.957544 -354.554452 
L 475.957242 -354.587224 
L 475.956802 -354.619975 
L 475.956198 -354.652705 
L 475.955404 -354.685413 
L 475.954401 -354.7181 
L 475.953175 -354.750765 
L 475.951732 -354.783409 
L 475.950097 -354.816032 
L 475.948315 -354.848634 
L 475.946459 -354.881214 
L 475.94462 -354.913773 
L 475.942903 -354.946311 
L 475.94142 -354.978827 
L 475.940274 -355.011323 
L 475.939549 -355.043797 
L 475.939301 -355.07625 
L 475.977169 -355.07625 
L 475.977169 -355.07625 
L 475.976922 -355.043797 
L 475.9762 -355.011323 
L 475.975057 -354.978827 
L 475.973578 -354.946311 
L 475.971867 -354.913773 
L 475.970032 -354.881214 
L 475.96818 -354.848634 
L 475.966401 -354.816032 
L 475.964768 -354.783409 
L 475.963327 -354.750765 
L 475.962102 -354.7181 
L 475.961099 -354.685413 
L 475.960306 -354.652705 
L 475.959702 -354.619975 
L 475.959262 -354.587224 
L 475.95896 -354.554452 
L 475.958777 -354.521657 
L 475.9587 -354.488842 
L 475.958728 -354.456005 
L 475.958876 -354.423146 
L 475.959172 -354.390265 
L 475.959668 -354.357363 
L 475.960439 -354.324439 
L 475.961586 -354.291494 
L 475.963239 -354.258526 
L 475.965556 -354.225537 
L 475.968724 -354.192527 
L 475.97295 -354.159494 
L 475.97845 -354.126439 
L 475.985438 -354.093363 
L 475.994107 -354.060265 
L 476.004607 -354.027144 
L 476.017029 -353.994002 
L 476.031388 -353.960838 
L 476.047609 -353.927651 
L 476.065533 -353.894443 
L 476.084926 -353.861213 
L 476.105499 -353.82796 
L 476.126948 -353.794685 
L 476.148986 -353.761388 
L 476.171391 -353.728069 
L 476.194034 -353.694728 
L 476.216896 -353.661364 
L 476.240065 -353.627978 
L 476.2637 -353.59457 
L 476.287981 -353.561139 
L 476.313027 -353.527686 
L 476.338815 -353.494211 
L 476.365106 -353.460713 
L 476.391396 -353.427193 
L 476.416898 -353.39365 
L 476.44058 -353.360084 
L 476.461245 -353.326496 
L 476.477644 -353.292886 
L 476.488611 -353.259252 
L 476.493203 -353.225597 
L 476.490812 -353.191918 
L 476.481248 -353.158217 
L 476.464766 -353.124493 
L 476.442053 -353.090746 
L 476.414154 -353.056976 
L 476.382378 -353.023184 
L 476.348169 -352.989368 
L 476.312979 -352.95553 
L 476.278144 -352.921669 
L 476.244791 -352.887784 
L 476.213771 -352.853877 
L 476.185629 -352.819947 
L 476.160611 -352.785994 
L 476.138698 -352.752017 
L 476.119663 -352.718018 
L 476.103136 -352.683995 
L 476.08868 -352.649949 
L 476.075848 -352.61588 
L 476.064235 -352.581788 
L 476.053513 -352.547672 
L 476.043445 -352.513533 
L 476.033891 -352.479371 
L 476.024794 -352.445185 
L 476.016167 -352.410976 
L 476.00807 -352.376743 
L 476.000589 -352.342487 
L 475.993816 -352.308208 
L 475.98784 -352.273905 
L 475.982728 -352.239578 
L 475.978525 -352.205228 
L 475.975246 -352.170854 
L 475.972875 -352.136456 
L 475.971368 -352.102035 
L 475.970647 -352.06759 
L 475.97061 -352.033121 
L 475.971128 -351.998629 
L 475.972053 -351.964112 
L 475.97322 -351.929572 
L 475.974465 -351.895008 
L 475.975624 -351.86042 
L 475.976554 -351.825807 
L 475.977138 -351.791171 
L 475.977298 -351.756511 
z
" style="stroke: #3f3f3f; stroke-width: 1.25"/>
    </defs>
    <g clip-path="url(#p8cd4505a61)">
     <use xlink:href="#m65ee0083f1" x="0" y="392.514375" style="fill: #3274a1; stroke: #3f3f3f; stroke-width: 1.25"/>
    </g>
   </g>
   <g id="FillBetweenPolyCollection_10">
    <defs>
     <path id="m27feec7b91" d="M 477.022041 -221.580067 
L 476.982015 -221.580067 
L 476.982193 -222.178872 
L 476.982716 -222.770582 
L 476.983557 -223.355365 
L 476.984673 -223.933381 
L 476.98601 -224.504784 
L 476.987505 -225.069724 
L 476.989093 -225.628346 
L 476.990711 -226.180789 
L 476.992301 -226.727189 
L 476.993815 -227.267676 
L 476.995216 -227.802378 
L 476.996477 -228.331415 
L 476.997583 -228.854909 
L 476.998528 -229.372972 
L 476.999316 -229.885717 
L 476.999954 -230.393252 
L 477.000455 -230.895682 
L 477.000831 -231.393108 
L 477.001096 -231.885629 
L 477.00126 -232.373341 
L 477.001329 -232.856337 
L 477.001307 -233.334707 
L 477.00119 -233.808539 
L 477.000973 -234.277919 
L 477.000643 -234.742928 
L 477.000184 -235.203648 
L 476.999577 -235.660158 
L 476.9988 -236.112532 
L 476.997831 -236.560847 
L 476.996648 -237.005173 
L 476.995231 -237.445582 
L 476.993566 -237.882141 
L 476.991639 -238.314918 
L 476.989445 -238.743977 
L 476.986981 -239.169382 
L 476.984248 -239.591194 
L 476.981247 -240.009474 
L 476.977977 -240.424281 
L 476.974433 -240.83567 
L 476.9706 -241.2437 
L 476.96645 -241.648422 
L 476.961942 -242.049892 
L 476.957019 -242.448161 
L 476.951608 -242.843279 
L 476.945624 -243.235296 
L 476.938973 -243.624261 
L 476.931557 -244.010219 
L 476.923278 -244.393219 
L 476.91405 -244.773303 
L 476.9038 -245.150518 
L 476.892476 -245.524905 
L 476.880048 -245.896506 
L 476.866514 -246.265364 
L 476.851897 -246.631517 
L 476.836242 -246.995006 
L 476.819616 -247.355869 
L 476.802102 -247.714143 
L 476.783798 -248.069866 
L 476.764809 -248.423073 
L 476.745252 -248.7738 
L 476.725252 -249.122082 
L 476.704945 -249.467951 
L 476.68448 -249.811443 
L 476.664026 -250.152588 
L 476.64377 -250.491419 
L 476.623917 -250.827967 
L 476.604695 -251.162263 
L 476.58634 -251.494336 
L 476.569095 -251.824216 
L 476.553197 -252.151931 
L 476.538866 -252.477511 
L 476.526292 -252.800981 
L 476.515628 -253.122371 
L 476.506981 -253.441706 
L 476.500413 -253.759012 
L 476.495943 -254.074315 
L 476.493554 -254.38764 
L 476.493203 -254.699012 
L 476.494835 -255.008455 
L 476.498396 -255.315993 
L 476.503838 -255.621649 
L 476.511128 -255.925446 
L 476.520249 -256.227406 
L 476.531193 -256.527551 
L 476.543954 -256.825904 
L 476.558515 -257.122485 
L 476.574838 -257.417316 
L 476.592848 -257.710416 
L 476.612425 -258.001807 
L 476.633404 -258.291507 
L 476.655569 -258.579537 
L 476.678662 -258.865916 
L 476.702393 -259.150662 
L 476.726454 -259.433794 
L 476.750528 -259.71533 
L 476.774308 -259.995288 
L 476.797506 -260.273685 
L 476.819865 -260.55054 
L 476.841163 -260.825868 
L 477.160487 -260.825868 
L 477.160487 -260.825868 
L 477.181101 -260.55054 
L 477.202654 -260.273685 
L 477.22492 -259.995288 
L 477.247643 -259.71533 
L 477.270545 -259.433794 
L 477.293331 -259.150662 
L 477.315706 -258.865916 
L 477.337384 -258.579537 
L 477.358103 -258.291507 
L 477.377636 -258.001807 
L 477.395796 -257.710416 
L 477.412443 -257.417316 
L 477.427484 -257.122485 
L 477.440863 -256.825904 
L 477.452559 -256.527551 
L 477.462567 -256.227406 
L 477.470893 -255.925446 
L 477.477538 -255.621649 
L 477.482492 -255.315993 
L 477.485731 -255.008455 
L 477.487216 -254.699012 
L 477.486897 -254.38764 
L 477.484724 -254.074315 
L 477.480656 -253.759012 
L 477.474674 -253.441706 
L 477.466787 -253.122371 
L 477.457043 -252.800981 
L 477.44553 -252.477511 
L 477.432374 -252.151931 
L 477.41774 -251.824216 
L 477.401818 -251.494336 
L 477.384815 -251.162263 
L 477.366946 -250.827967 
L 477.348425 -250.491419 
L 477.329456 -250.152588 
L 477.310229 -249.811443 
L 477.29092 -249.467951 
L 477.271686 -249.122082 
L 477.252671 -248.7738 
L 477.234008 -248.423073 
L 477.215823 -248.069866 
L 477.198231 -247.714143 
L 477.181342 -247.355869 
L 477.165258 -246.995006 
L 477.150066 -246.631517 
L 477.135841 -246.265364 
L 477.122635 -245.896506 
L 477.110479 -245.524905 
L 477.099377 -245.150518 
L 477.089308 -244.773303 
L 477.080226 -244.393219 
L 477.072064 -244.010219 
L 477.064742 -243.624261 
L 477.058166 -243.235296 
L 477.052244 -242.843279 
L 477.046882 -242.448161 
L 477.041999 -242.049892 
L 477.037524 -241.648422 
L 477.0334 -241.2437 
L 477.029589 -240.83567 
L 477.026062 -240.424281 
L 477.022806 -240.009474 
L 477.019816 -239.591194 
L 477.017092 -239.169382 
L 477.014634 -238.743977 
L 477.012445 -238.314918 
L 477.010522 -237.882141 
L 477.008859 -237.445582 
L 477.007444 -237.005173 
L 477.006262 -236.560847 
L 477.005293 -236.112532 
L 477.004517 -235.660158 
L 477.00391 -235.203648 
L 477.003451 -234.742928 
L 477.003121 -234.277919 
L 477.002904 -233.808539 
L 477.002788 -233.334707 
L 477.002765 -232.856337 
L 477.002835 -232.373341 
L 477.002998 -231.885629 
L 477.003263 -231.393108 
L 477.003639 -230.895682 
L 477.00414 -230.393252 
L 477.004778 -229.885717 
L 477.005565 -229.372972 
L 477.00651 -228.854909 
L 477.007614 -228.331415 
L 477.008874 -227.802378 
L 477.010273 -227.267676 
L 477.011784 -226.727189 
L 477.013371 -226.180789 
L 477.014985 -225.628346 
L 477.016569 -225.069724 
L 477.01806 -224.504784 
L 477.019392 -223.933381 
L 477.020505 -223.355365 
L 477.021343 -222.770582 
L 477.021864 -222.178872 
L 477.022041 -221.580067 
z
" style="stroke: #3f3f3f; stroke-width: 1.25"/>
    </defs>
    <g clip-path="url(#p8cd4505a61)">
     <use xlink:href="#m27feec7b91" x="0" y="392.514375" style="fill: #e1812c; stroke: #3f3f3f; stroke-width: 1.25"/>
    </g>
   </g>
   <g id="patch_3">
    <path d="M -23552.192993 115061.712412 
L -23552.192993 115061.712412 
L -23552.192993 115061.712412 
L -23552.192993 115061.712412 
z
" clip-path="url(#p8cd4505a61)" style="fill: #3274a1; stroke: #3f3f3f; stroke-width: 1.25; stroke-linejoin: miter"/>
   </g>
   <g id="patch_4">
    <path d="M -23552.192993 115061.712412 
L -23552.192993 115061.712412 
L -23552.192993 115061.712412 
L -23552.192993 115061.712412 
z
" clip-path="url(#p8cd4505a61)" style="fill: #e1812c; stroke: #3f3f3f; stroke-width: 1.25; stroke-linejoin: miter"/>
   </g>
   <g id="matplotlib.axis_1">
    <g id="xtick_1">
     <g id="line2d_1">
      <defs>
       <path id="m3e02ce1f70" d="M 0 0 
L 0 3.5 
" style="stroke: #000000; stroke-width: 0.8"/>
      </defs>
      <g>
       <use xlink:href="#m3e02ce1f70" x="101.821774" y="354.958125" style="stroke: #000000; stroke-width: 0.8"/>
      </g>
     </g>
     <g id="text_1">
      <!-- $\mathdefault{10^{-15}}$ -->
      <g transform="translate(87.871774 369.556562) scale(0.1 -0.1)">
       <defs>
        <path id="DejaVuSans-31" d="M 794 531 
L 1825 531 
L 1825 4091 
L 703 3866 
L 703 4441 
L 1819 4666 
L 2450 4666 
L 2450 531 
L 3481 531 
L 3481 0 
L 794 0 
L 794 531 
z
" transform="scale(0.015625)"/>
        <path id="DejaVuSans-30" d="M 2034 4250 
Q 1547 4250 1301 3770 
Q 1056 3291 1056 2328 
Q 1056 1369 1301 889 
Q 1547 409 2034 409 
Q 2525 409 2770 889 
Q 3016 1369 3016 2328 
Q 3016 3291 2770 3770 
Q 2525 4250 2034 4250 
z
M 2034 4750 
Q 2819 4750 3233 4129 
Q 3647 3509 3647 2328 
Q 3647 1150 3233 529 
Q 2819 -91 2034 -91 
Q 1250 -91 836 529 
Q 422 1150 422 2328 
Q 422 3509 836 4129 
Q 1250 4750 2034 4750 
z
" transform="scale(0.015625)"/>
        <path id="DejaVuSans-2212" d="M 678 2272 
L 4684 2272 
L 4684 1741 
L 678 1741 
L 678 2272 
z
" transform="scale(0.015625)"/>
        <path id="DejaVuSans-35" d="M 691 4666 
L 3169 4666 
L 3169 4134 
L 1269 4134 
L 1269 2991 
Q 1406 3038 1543 3061 
Q 1681 3084 1819 3084 
Q 2600 3084 3056 2656 
Q 3513 2228 3513 1497 
Q 3513 744 3044 326 
Q 2575 -91 1722 -91 
Q 1428 -91 1123 -41 
Q 819 9 494 109 
L 494 744 
Q 775 591 1075 516 
Q 1375 441 1709 441 
Q 2250 441 2565 725 
Q 2881 1009 2881 1497 
Q 2881 1984 2565 2268 
Q 2250 2553 1709 2553 
Q 1456 2553 1204 2497 
Q 953 2441 691 2322 
L 691 4666 
z
" transform="scale(0.015625)"/>
       </defs>
       <use xlink:href="#DejaVuSans-31" transform="translate(0 0.684375)"/>
       <use xlink:href="#DejaVuSans-30" transform="translate(63.623047 0.684375)"/>
       <use xlink:href="#DejaVuSans-2212" transform="translate(128.203125 38.965625) scale(0.7)"/>
       <use xlink:href="#DejaVuSans-31" transform="translate(186.855469 38.965625) scale(0.7)"/>
       <use xlink:href="#DejaVuSans-35" transform="translate(231.391602 38.965625) scale(0.7)"/>
      </g>
     </g>
    </g>
    <g id="xtick_2">
     <g id="line2d_2">
      <g>
       <use xlink:href="#m3e02ce1f70" x="173.864458" y="354.958125" style="stroke: #000000; stroke-width: 0.8"/>
      </g>
     </g>
     <g id="text_2">
      <!-- $\mathdefault{10^{-12}}$ -->
      <g transform="translate(159.914458 369.556562) scale(0.1 -0.1)">
       <defs>
        <path id="DejaVuSans-32" d="M 1228 531 
L 3431 531 
L 3431 0 
L 469 0 
L 469 531 
Q 828 903 1448 1529 
Q 2069 2156 2228 2338 
Q 2531 2678 2651 2914 
Q 2772 3150 2772 3378 
Q 2772 3750 2511 3984 
Q 2250 4219 1831 4219 
Q 1534 4219 1204 4116 
Q 875 4013 500 3803 
L 500 4441 
Q 881 4594 1212 4672 
Q 1544 4750 1819 4750 
Q 2544 4750 2975 4387 
Q 3406 4025 3406 3419 
Q 3406 3131 3298 2873 
Q 3191 2616 2906 2266 
Q 2828 2175 2409 1742 
Q 1991 1309 1228 531 
z
" transform="scale(0.015625)"/>
       </defs>
       <use xlink:href="#DejaVuSans-31" transform="translate(0 0.765625)"/>
       <use xlink:href="#DejaVuSans-30" transform="translate(63.623047 0.765625)"/>
       <use xlink:href="#DejaVuSans-2212" transform="translate(128.203125 39.046875) scale(0.7)"/>
       <use xlink:href="#DejaVuSans-31" transform="translate(186.855469 39.046875) scale(0.7)"/>
       <use xlink:href="#DejaVuSans-32" transform="translate(231.391602 39.046875) scale(0.7)"/>
      </g>
     </g>
    </g>
    <g id="xtick_3">
     <g id="line2d_3">
      <g>
       <use xlink:href="#m3e02ce1f70" x="245.907143" y="354.958125" style="stroke: #000000; stroke-width: 0.8"/>
      </g>
     </g>
     <g id="text_3">
      <!-- $\mathdefault{10^{-9}}$ -->
      <g transform="translate(234.157143 369.556562) scale(0.1 -0.1)">
       <defs>
        <path id="DejaVuSans-39" d="M 703 97 
L 703 672 
Q 941 559 1184 500 
Q 1428 441 1663 441 
Q 2288 441 2617 861 
Q 2947 1281 2994 2138 
Q 2813 1869 2534 1725 
Q 2256 1581 1919 1581 
Q 1219 1581 811 2004 
Q 403 2428 403 3163 
Q 403 3881 828 4315 
Q 1253 4750 1959 4750 
Q 2769 4750 3195 4129 
Q 3622 3509 3622 2328 
Q 3622 1225 3098 567 
Q 2575 -91 1691 -91 
Q 1453 -91 1209 -44 
Q 966 3 703 97 
z
M 1959 2075 
Q 2384 2075 2632 2365 
Q 2881 2656 2881 3163 
Q 2881 3666 2632 3958 
Q 2384 4250 1959 4250 
Q 1534 4250 1286 3958 
Q 1038 3666 1038 3163 
Q 1038 2656 1286 2365 
Q 1534 2075 1959 2075 
z
" transform="scale(0.015625)"/>
       </defs>
       <use xlink:href="#DejaVuSans-31" transform="translate(0 0.765625)"/>
       <use xlink:href="#DejaVuSans-30" transform="translate(63.623047 0.765625)"/>
       <use xlink:href="#DejaVuSans-2212" transform="translate(128.203125 39.046875) scale(0.7)"/>
       <use xlink:href="#DejaVuSans-39" transform="translate(186.855469 39.046875) scale(0.7)"/>
      </g>
     </g>
    </g>
    <g id="xtick_4">
     <g id="line2d_4">
      <g>
       <use xlink:href="#m3e02ce1f70" x="317.949827" y="354.958125" style="stroke: #000000; stroke-width: 0.8"/>
      </g>
     </g>
     <g id="text_4">
      <!-- $\mathdefault{10^{-6}}$ -->
      <g transform="translate(306.199827 369.556562) scale(0.1 -0.1)">
       <defs>
        <path id="DejaVuSans-36" d="M 2113 2584 
Q 1688 2584 1439 2293 
Q 1191 2003 1191 1497 
Q 1191 994 1439 701 
Q 1688 409 2113 409 
Q 2538 409 2786 701 
Q 3034 994 3034 1497 
Q 3034 2003 2786 2293 
Q 2538 2584 2113 2584 
z
M 3366 4563 
L 3366 3988 
Q 3128 4100 2886 4159 
Q 2644 4219 2406 4219 
Q 1781 4219 1451 3797 
Q 1122 3375 1075 2522 
Q 1259 2794 1537 2939 
Q 1816 3084 2150 3084 
Q 2853 3084 3261 2657 
Q 3669 2231 3669 1497 
Q 3669 778 3244 343 
Q 2819 -91 2113 -91 
Q 1303 -91 875 529 
Q 447 1150 447 2328 
Q 447 3434 972 4092 
Q 1497 4750 2381 4750 
Q 2619 4750 2861 4703 
Q 3103 4656 3366 4563 
z
" transform="scale(0.015625)"/>
       </defs>
       <use xlink:href="#DejaVuSans-31" transform="translate(0 0.765625)"/>
       <use xlink:href="#DejaVuSans-30" transform="translate(63.623047 0.765625)"/>
       <use xlink:href="#DejaVuSans-2212" transform="translate(128.203125 39.046875) scale(0.7)"/>
       <use xlink:href="#DejaVuSans-36" transform="translate(186.855469 39.046875) scale(0.7)"/>
      </g>
     </g>
    </g>
    <g id="xtick_5">
     <g id="line2d_5">
      <g>
       <use xlink:href="#m3e02ce1f70" x="389.992512" y="354.958125" style="stroke: #000000; stroke-width: 0.8"/>
      </g>
     </g>
     <g id="text_5">
      <!-- $\mathdefault{10^{-3}}$ -->
      <g transform="translate(378.242512 369.556562) scale(0.1 -0.1)">
       <defs>
        <path id="DejaVuSans-33" d="M 2597 2516 
Q 3050 2419 3304 2112 
Q 3559 1806 3559 1356 
Q 3559 666 3084 287 
Q 2609 -91 1734 -91 
Q 1441 -91 1130 -33 
Q 819 25 488 141 
L 488 750 
Q 750 597 1062 519 
Q 1375 441 1716 441 
Q 2309 441 2620 675 
Q 2931 909 2931 1356 
Q 2931 1769 2642 2001 
Q 2353 2234 1838 2234 
L 1294 2234 
L 1294 2753 
L 1863 2753 
Q 2328 2753 2575 2939 
Q 2822 3125 2822 3475 
Q 2822 3834 2567 4026 
Q 2313 4219 1838 4219 
Q 1578 4219 1281 4162 
Q 984 4106 628 3988 
L 628 4550 
Q 988 4650 1302 4700 
Q 1616 4750 1894 4750 
Q 2613 4750 3031 4423 
Q 3450 4097 3450 3541 
Q 3450 3153 3228 2886 
Q 3006 2619 2597 2516 
z
" transform="scale(0.015625)"/>
       </defs>
       <use xlink:href="#DejaVuSans-31" transform="translate(0 0.765625)"/>
       <use xlink:href="#DejaVuSans-30" transform="translate(63.623047 0.765625)"/>
       <use xlink:href="#DejaVuSans-2212" transform="translate(128.203125 39.046875) scale(0.7)"/>
       <use xlink:href="#DejaVuSans-33" transform="translate(186.855469 39.046875) scale(0.7)"/>
      </g>
     </g>
    </g>
    <g id="xtick_6">
     <g id="line2d_6">
      <g>
       <use xlink:href="#m3e02ce1f70" x="462.035197" y="354.958125" style="stroke: #000000; stroke-width: 0.8"/>
      </g>
     </g>
     <g id="text_6">
      <!-- $\mathdefault{10^{0}}$ -->
      <g transform="translate(453.235197 369.556562) scale(0.1 -0.1)">
       <use xlink:href="#DejaVuSans-31" transform="translate(0 0.765625)"/>
       <use xlink:href="#DejaVuSans-30" transform="translate(63.623047 0.765625)"/>
       <use xlink:href="#DejaVuSans-30" transform="translate(128.203125 39.046875) scale(0.7)"/>
      </g>
     </g>
    </g>
    <g id="text_7">
     <!-- Dataset size (#rows) -->
     <g transform="translate(222.338281 383.234687) scale(0.1 -0.1)">
      <defs>
       <path id="DejaVuSans-44" d="M 1259 4147 
L 1259 519 
L 2022 519 
Q 2988 519 3436 956 
Q 3884 1394 3884 2338 
Q 3884 3275 3436 3711 
Q 2988 4147 2022 4147 
L 1259 4147 
z
M 628 4666 
L 1925 4666 
Q 3281 4666 3915 4102 
Q 4550 3538 4550 2338 
Q 4550 1131 3912 565 
Q 3275 0 1925 0 
L 628 0 
L 628 4666 
z
" transform="scale(0.015625)"/>
       <path id="DejaVuSans-61" d="M 2194 1759 
Q 1497 1759 1228 1600 
Q 959 1441 959 1056 
Q 959 750 1161 570 
Q 1363 391 1709 391 
Q 2188 391 2477 730 
Q 2766 1069 2766 1631 
L 2766 1759 
L 2194 1759 
z
M 3341 1997 
L 3341 0 
L 2766 0 
L 2766 531 
Q 2569 213 2275 61 
Q 1981 -91 1556 -91 
Q 1019 -91 701 211 
Q 384 513 384 1019 
Q 384 1609 779 1909 
Q 1175 2209 1959 2209 
L 2766 2209 
L 2766 2266 
Q 2766 2663 2505 2880 
Q 2244 3097 1772 3097 
Q 1472 3097 1187 3025 
Q 903 2953 641 2809 
L 641 3341 
Q 956 3463 1253 3523 
Q 1550 3584 1831 3584 
Q 2591 3584 2966 3190 
Q 3341 2797 3341 1997 
z
" transform="scale(0.015625)"/>
       <path id="DejaVuSans-74" d="M 1172 4494 
L 1172 3500 
L 2356 3500 
L 2356 3053 
L 1172 3053 
L 1172 1153 
Q 1172 725 1289 603 
Q 1406 481 1766 481 
L 2356 481 
L 2356 0 
L 1766 0 
Q 1100 0 847 248 
Q 594 497 594 1153 
L 594 3053 
L 172 3053 
L 172 3500 
L 594 3500 
L 594 4494 
L 1172 4494 
z
" transform="scale(0.015625)"/>
       <path id="DejaVuSans-73" d="M 2834 3397 
L 2834 2853 
Q 2591 2978 2328 3040 
Q 2066 3103 1784 3103 
Q 1356 3103 1142 2972 
Q 928 2841 928 2578 
Q 928 2378 1081 2264 
Q 1234 2150 1697 2047 
L 1894 2003 
Q 2506 1872 2764 1633 
Q 3022 1394 3022 966 
Q 3022 478 2636 193 
Q 2250 -91 1575 -91 
Q 1294 -91 989 -36 
Q 684 19 347 128 
L 347 722 
Q 666 556 975 473 
Q 1284 391 1588 391 
Q 1994 391 2212 530 
Q 2431 669 2431 922 
Q 2431 1156 2273 1281 
Q 2116 1406 1581 1522 
L 1381 1569 
Q 847 1681 609 1914 
Q 372 2147 372 2553 
Q 372 3047 722 3315 
Q 1072 3584 1716 3584 
Q 2034 3584 2315 3537 
Q 2597 3491 2834 3397 
z
" transform="scale(0.015625)"/>
       <path id="DejaVuSans-65" d="M 3597 1894 
L 3597 1613 
L 953 1613 
Q 991 1019 1311 708 
Q 1631 397 2203 397 
Q 2534 397 2845 478 
Q 3156 559 3463 722 
L 3463 178 
Q 3153 47 2828 -22 
Q 2503 -91 2169 -91 
Q 1331 -91 842 396 
Q 353 884 353 1716 
Q 353 2575 817 3079 
Q 1281 3584 2069 3584 
Q 2775 3584 3186 3129 
Q 3597 2675 3597 1894 
z
M 3022 2063 
Q 3016 2534 2758 2815 
Q 2500 3097 2075 3097 
Q 1594 3097 1305 2825 
Q 1016 2553 972 2059 
L 3022 2063 
z
" transform="scale(0.015625)"/>
       <path id="DejaVuSans-20" transform="scale(0.015625)"/>
       <path id="DejaVuSans-69" d="M 603 3500 
L 1178 3500 
L 1178 0 
L 603 0 
L 603 3500 
z
M 603 4863 
L 1178 4863 
L 1178 4134 
L 603 4134 
L 603 4863 
z
" transform="scale(0.015625)"/>
       <path id="DejaVuSans-7a" d="M 353 3500 
L 3084 3500 
L 3084 2975 
L 922 459 
L 3084 459 
L 3084 0 
L 275 0 
L 275 525 
L 2438 3041 
L 353 3041 
L 353 3500 
z
" transform="scale(0.015625)"/>
       <path id="DejaVuSans-28" d="M 1984 4856 
Q 1566 4138 1362 3434 
Q 1159 2731 1159 2009 
Q 1159 1288 1364 580 
Q 1569 -128 1984 -844 
L 1484 -844 
Q 1016 -109 783 600 
Q 550 1309 550 2009 
Q 550 2706 781 3412 
Q 1013 4119 1484 4856 
L 1984 4856 
z
" transform="scale(0.015625)"/>
       <path id="DejaVuSans-23" d="M 3272 2816 
L 2363 2816 
L 2100 1772 
L 3016 1772 
L 3272 2816 
z
M 2803 4594 
L 2478 3297 
L 3391 3297 
L 3719 4594 
L 4219 4594 
L 3897 3297 
L 4872 3297 
L 4872 2816 
L 3775 2816 
L 3519 1772 
L 4513 1772 
L 4513 1294 
L 3397 1294 
L 3072 0 
L 2572 0 
L 2894 1294 
L 1978 1294 
L 1656 0 
L 1153 0 
L 1478 1294 
L 494 1294 
L 494 1772 
L 1594 1772 
L 1856 2816 
L 850 2816 
L 850 3297 
L 1978 3297 
L 2297 4594 
L 2803 4594 
z
" transform="scale(0.015625)"/>
       <path id="DejaVuSans-72" d="M 2631 2963 
Q 2534 3019 2420 3045 
Q 2306 3072 2169 3072 
Q 1681 3072 1420 2755 
Q 1159 2438 1159 1844 
L 1159 0 
L 581 0 
L 581 3500 
L 1159 3500 
L 1159 2956 
Q 1341 3275 1631 3429 
Q 1922 3584 2338 3584 
Q 2397 3584 2469 3576 
Q 2541 3569 2628 3553 
L 2631 2963 
z
" transform="scale(0.015625)"/>
       <path id="DejaVuSans-6f" d="M 1959 3097 
Q 1497 3097 1228 2736 
Q 959 2375 959 1747 
Q 959 1119 1226 758 
Q 1494 397 1959 397 
Q 2419 397 2687 759 
Q 2956 1122 2956 1747 
Q 2956 2369 2687 2733 
Q 2419 3097 1959 3097 
z
M 1959 3584 
Q 2709 3584 3137 3096 
Q 3566 2609 3566 1747 
Q 3566 888 3137 398 
Q 2709 -91 1959 -91 
Q 1206 -91 779 398 
Q 353 888 353 1747 
Q 353 2609 779 3096 
Q 1206 3584 1959 3584 
z
" transform="scale(0.015625)"/>
       <path id="DejaVuSans-77" d="M 269 3500 
L 844 3500 
L 1563 769 
L 2278 3500 
L 2956 3500 
L 3675 769 
L 4391 3500 
L 4966 3500 
L 4050 0 
L 3372 0 
L 2619 2869 
L 1863 0 
L 1184 0 
L 269 3500 
z
" transform="scale(0.015625)"/>
       <path id="DejaVuSans-29" d="M 513 4856 
L 1013 4856 
Q 1481 4119 1714 3412 
Q 1947 2706 1947 2009 
Q 1947 1309 1714 600 
Q 1481 -109 1013 -844 
L 513 -844 
Q 928 -128 1133 580 
Q 1338 1288 1338 2009 
Q 1338 2731 1133 3434 
Q 928 4138 513 4856 
z
" transform="scale(0.015625)"/>
      </defs>
      <use xlink:href="#DejaVuSans-44"/>
      <use xlink:href="#DejaVuSans-61" transform="translate(77.001953 0)"/>
      <use xlink:href="#DejaVuSans-74" transform="translate(138.28125 0)"/>
      <use xlink:href="#DejaVuSans-61" transform="translate(177.490234 0)"/>
      <use xlink:href="#DejaVuSans-73" transform="translate(238.769531 0)"/>
      <use xlink:href="#DejaVuSans-65" transform="translate(290.869141 0)"/>
      <use xlink:href="#DejaVuSans-74" transform="translate(352.392578 0)"/>
      <use xlink:href="#DejaVuSans-20" transform="translate(391.601562 0)"/>
      <use xlink:href="#DejaVuSans-73" transform="translate(423.388672 0)"/>
      <use xlink:href="#DejaVuSans-69" transform="translate(475.488281 0)"/>
      <use xlink:href="#DejaVuSans-7a" transform="translate(503.271484 0)"/>
      <use xlink:href="#DejaVuSans-65" transform="translate(555.761719 0)"/>
      <use xlink:href="#DejaVuSans-20" transform="translate(617.285156 0)"/>
      <use xlink:href="#DejaVuSans-28" transform="translate(649.072266 0)"/>
      <use xlink:href="#DejaVuSans-23" transform="translate(688.085938 0)"/>
      <use xlink:href="#DejaVuSans-72" transform="translate(771.875 0)"/>
      <use xlink:href="#DejaVuSans-6f" transform="translate(810.738281 0)"/>
      <use xlink:href="#DejaVuSans-77" transform="translate(871.919922 0)"/>
      <use xlink:href="#DejaVuSans-73" transform="translate(953.707031 0)"/>
      <use xlink:href="#DejaVuSans-29" transform="translate(1005.806641 0)"/>
     </g>
    </g>
   </g>
   <g id="matplotlib.axis_2">
    <g id="ytick_1">
     <g id="line2d_7">
      <defs>
       <path id="m51d7f1dca0" d="M 0 0 
L -3.5 0 
" style="stroke: #000000; stroke-width: 0.8"/>
      </defs>
      <g>
       <use xlink:href="#m51d7f1dca0" x="51.378125" y="281.079933" style="stroke: #000000; stroke-width: 0.8"/>
      </g>
     </g>
     <g id="text_8">
      <!-- $\mathdefault{10^{-2}}$ -->
      <g transform="translate(20.878125 284.879152) scale(0.1 -0.1)">
       <use xlink:href="#DejaVuSans-31" transform="translate(0 0.765625)"/>
       <use xlink:href="#DejaVuSans-30" transform="translate(63.623047 0.765625)"/>
       <use xlink:href="#DejaVuSans-2212" transform="translate(128.203125 39.046875) scale(0.7)"/>
       <use xlink:href="#DejaVuSans-32" transform="translate(186.855469 39.046875) scale(0.7)"/>
      </g>
     </g>
    </g>
    <g id="ytick_2">
     <g id="line2d_8">
      <g>
       <use xlink:href="#m51d7f1dca0" x="51.378125" y="166.069279" style="stroke: #000000; stroke-width: 0.8"/>
      </g>
     </g>
     <g id="text_9">
      <!-- $\mathdefault{10^{-1}}$ -->
      <g transform="translate(20.878125 169.868498) scale(0.1 -0.1)">
       <use xlink:href="#DejaVuSans-31" transform="translate(0 0.684375)"/>
       <use xlink:href="#DejaVuSans-30" transform="translate(63.623047 0.684375)"/>
       <use xlink:href="#DejaVuSans-2212" transform="translate(128.203125 38.965625) scale(0.7)"/>
       <use xlink:href="#DejaVuSans-31" transform="translate(186.855469 38.965625) scale(0.7)"/>
      </g>
     </g>
    </g>
    <g id="ytick_3">
     <g id="line2d_9">
      <g>
       <use xlink:href="#m51d7f1dca0" x="51.378125" y="51.058625" style="stroke: #000000; stroke-width: 0.8"/>
      </g>
     </g>
     <g id="text_10">
      <!-- $\mathdefault{10^{0}}$ -->
      <g transform="translate(26.778125 54.857844) scale(0.1 -0.1)">
       <use xlink:href="#DejaVuSans-31" transform="translate(0 0.765625)"/>
       <use xlink:href="#DejaVuSans-30" transform="translate(63.623047 0.765625)"/>
       <use xlink:href="#DejaVuSans-30" transform="translate(128.203125 39.046875) scale(0.7)"/>
      </g>
     </g>
    </g>
    <g id="ytick_4">
     <g id="line2d_10">
      <defs>
       <path id="m49a005de72" d="M 0 0 
L -2 0 
" style="stroke: #000000; stroke-width: 0.6"/>
      </defs>
      <g>
       <use xlink:href="#m49a005de72" x="51.378125" y="341.216559" style="stroke: #000000; stroke-width: 0.6"/>
      </g>
     </g>
    </g>
    <g id="ytick_5">
     <g id="line2d_11">
      <g>
       <use xlink:href="#m49a005de72" x="51.378125" y="326.847273" style="stroke: #000000; stroke-width: 0.6"/>
      </g>
     </g>
    </g>
    <g id="ytick_6">
     <g id="line2d_12">
      <g>
       <use xlink:href="#m49a005de72" x="51.378125" y="315.701589" style="stroke: #000000; stroke-width: 0.6"/>
      </g>
     </g>
    </g>
    <g id="ytick_7">
     <g id="line2d_13">
      <g>
       <use xlink:href="#m49a005de72" x="51.378125" y="306.594903" style="stroke: #000000; stroke-width: 0.6"/>
      </g>
     </g>
    </g>
    <g id="ytick_8">
     <g id="line2d_14">
      <g>
       <use xlink:href="#m49a005de72" x="51.378125" y="298.895309" style="stroke: #000000; stroke-width: 0.6"/>
      </g>
     </g>
    </g>
    <g id="ytick_9">
     <g id="line2d_15">
      <g>
       <use xlink:href="#m49a005de72" x="51.378125" y="292.225617" style="stroke: #000000; stroke-width: 0.6"/>
      </g>
     </g>
    </g>
    <g id="ytick_10">
     <g id="line2d_16">
      <g>
       <use xlink:href="#m49a005de72" x="51.378125" y="286.342532" style="stroke: #000000; stroke-width: 0.6"/>
      </g>
     </g>
    </g>
    <g id="ytick_11">
     <g id="line2d_17">
      <g>
       <use xlink:href="#m49a005de72" x="51.378125" y="246.458276" style="stroke: #000000; stroke-width: 0.6"/>
      </g>
     </g>
    </g>
    <g id="ytick_12">
     <g id="line2d_18">
      <g>
       <use xlink:href="#m49a005de72" x="51.378125" y="226.205905" style="stroke: #000000; stroke-width: 0.6"/>
      </g>
     </g>
    </g>
    <g id="ytick_13">
     <g id="line2d_19">
      <g>
       <use xlink:href="#m49a005de72" x="51.378125" y="211.83662" style="stroke: #000000; stroke-width: 0.6"/>
      </g>
     </g>
    </g>
    <g id="ytick_14">
     <g id="line2d_20">
      <g>
       <use xlink:href="#m49a005de72" x="51.378125" y="200.690936" style="stroke: #000000; stroke-width: 0.6"/>
      </g>
     </g>
    </g>
    <g id="ytick_15">
     <g id="line2d_21">
      <g>
       <use xlink:href="#m49a005de72" x="51.378125" y="191.584249" style="stroke: #000000; stroke-width: 0.6"/>
      </g>
     </g>
    </g>
    <g id="ytick_16">
     <g id="line2d_22">
      <g>
       <use xlink:href="#m49a005de72" x="51.378125" y="183.884655" style="stroke: #000000; stroke-width: 0.6"/>
      </g>
     </g>
    </g>
    <g id="ytick_17">
     <g id="line2d_23">
      <g>
       <use xlink:href="#m49a005de72" x="51.378125" y="177.214963" style="stroke: #000000; stroke-width: 0.6"/>
      </g>
     </g>
    </g>
    <g id="ytick_18">
     <g id="line2d_24">
      <g>
       <use xlink:href="#m49a005de72" x="51.378125" y="171.331878" style="stroke: #000000; stroke-width: 0.6"/>
      </g>
     </g>
    </g>
    <g id="ytick_19">
     <g id="line2d_25">
      <g>
       <use xlink:href="#m49a005de72" x="51.378125" y="131.447622" style="stroke: #000000; stroke-width: 0.6"/>
      </g>
     </g>
    </g>
    <g id="ytick_20">
     <g id="line2d_26">
      <g>
       <use xlink:href="#m49a005de72" x="51.378125" y="111.195252" style="stroke: #000000; stroke-width: 0.6"/>
      </g>
     </g>
    </g>
    <g id="ytick_21">
     <g id="line2d_27">
      <g>
       <use xlink:href="#m49a005de72" x="51.378125" y="96.825966" style="stroke: #000000; stroke-width: 0.6"/>
      </g>
     </g>
    </g>
    <g id="ytick_22">
     <g id="line2d_28">
      <g>
       <use xlink:href="#m49a005de72" x="51.378125" y="85.680282" style="stroke: #000000; stroke-width: 0.6"/>
      </g>
     </g>
    </g>
    <g id="ytick_23">
     <g id="line2d_29">
      <g>
       <use xlink:href="#m49a005de72" x="51.378125" y="76.573595" style="stroke: #000000; stroke-width: 0.6"/>
      </g>
     </g>
    </g>
    <g id="ytick_24">
     <g id="line2d_30">
      <g>
       <use xlink:href="#m49a005de72" x="51.378125" y="68.874001" style="stroke: #000000; stroke-width: 0.6"/>
      </g>
     </g>
    </g>
    <g id="ytick_25">
     <g id="line2d_31">
      <g>
       <use xlink:href="#m49a005de72" x="51.378125" y="62.204309" style="stroke: #000000; stroke-width: 0.6"/>
      </g>
     </g>
    </g>
    <g id="ytick_26">
     <g id="line2d_32">
      <g>
       <use xlink:href="#m49a005de72" x="51.378125" y="56.321224" style="stroke: #000000; stroke-width: 0.6"/>
      </g>
     </g>
    </g>
    <g id="text_11">
     <!-- Query time (s) -->
     <g transform="translate(14.798437 224.814687) rotate(-90) scale(0.1 -0.1)">
      <defs>
       <path id="DejaVuSans-51" d="M 2522 4238 
Q 1834 4238 1429 3725 
Q 1025 3213 1025 2328 
Q 1025 1447 1429 934 
Q 1834 422 2522 422 
Q 3209 422 3611 934 
Q 4013 1447 4013 2328 
Q 4013 3213 3611 3725 
Q 3209 4238 2522 4238 
z
M 3406 84 
L 4238 -825 
L 3475 -825 
L 2784 -78 
Q 2681 -84 2626 -87 
Q 2572 -91 2522 -91 
Q 1538 -91 948 567 
Q 359 1225 359 2328 
Q 359 3434 948 4092 
Q 1538 4750 2522 4750 
Q 3503 4750 4090 4092 
Q 4678 3434 4678 2328 
Q 4678 1516 4351 937 
Q 4025 359 3406 84 
z
" transform="scale(0.015625)"/>
       <path id="DejaVuSans-75" d="M 544 1381 
L 544 3500 
L 1119 3500 
L 1119 1403 
Q 1119 906 1312 657 
Q 1506 409 1894 409 
Q 2359 409 2629 706 
Q 2900 1003 2900 1516 
L 2900 3500 
L 3475 3500 
L 3475 0 
L 2900 0 
L 2900 538 
Q 2691 219 2414 64 
Q 2138 -91 1772 -91 
Q 1169 -91 856 284 
Q 544 659 544 1381 
z
M 1991 3584 
L 1991 3584 
z
" transform="scale(0.015625)"/>
       <path id="DejaVuSans-79" d="M 2059 -325 
Q 1816 -950 1584 -1140 
Q 1353 -1331 966 -1331 
L 506 -1331 
L 506 -850 
L 844 -850 
Q 1081 -850 1212 -737 
Q 1344 -625 1503 -206 
L 1606 56 
L 191 3500 
L 800 3500 
L 1894 763 
L 2988 3500 
L 3597 3500 
L 2059 -325 
z
" transform="scale(0.015625)"/>
       <path id="DejaVuSans-6d" d="M 3328 2828 
Q 3544 3216 3844 3400 
Q 4144 3584 4550 3584 
Q 5097 3584 5394 3201 
Q 5691 2819 5691 2113 
L 5691 0 
L 5113 0 
L 5113 2094 
Q 5113 2597 4934 2840 
Q 4756 3084 4391 3084 
Q 3944 3084 3684 2787 
Q 3425 2491 3425 1978 
L 3425 0 
L 2847 0 
L 2847 2094 
Q 2847 2600 2669 2842 
Q 2491 3084 2119 3084 
Q 1678 3084 1418 2786 
Q 1159 2488 1159 1978 
L 1159 0 
L 581 0 
L 581 3500 
L 1159 3500 
L 1159 2956 
Q 1356 3278 1631 3431 
Q 1906 3584 2284 3584 
Q 2666 3584 2933 3390 
Q 3200 3197 3328 2828 
z
" transform="scale(0.015625)"/>
      </defs>
      <use xlink:href="#DejaVuSans-51"/>
      <use xlink:href="#DejaVuSans-75" transform="translate(78.710938 0)"/>
      <use xlink:href="#DejaVuSans-65" transform="translate(142.089844 0)"/>
      <use xlink:href="#DejaVuSans-72" transform="translate(203.613281 0)"/>
      <use xlink:href="#DejaVuSans-79" transform="translate(244.726562 0)"/>
      <use xlink:href="#DejaVuSans-20" transform="translate(303.90625 0)"/>
      <use xlink:href="#DejaVuSans-74" transform="translate(335.693359 0)"/>
      <use xlink:href="#DejaVuSans-69" transform="translate(374.902344 0)"/>
      <use xlink:href="#DejaVuSans-6d" transform="translate(402.685547 0)"/>
      <use xlink:href="#DejaVuSans-65" transform="translate(500.097656 0)"/>
      <use xlink:href="#DejaVuSans-20" transform="translate(561.621094 0)"/>
      <use xlink:href="#DejaVuSans-28" transform="translate(593.408203 0)"/>
      <use xlink:href="#DejaVuSans-73" transform="translate(632.421875 0)"/>
      <use xlink:href="#DejaVuSans-29" transform="translate(684.521484 0)"/>
     </g>
    </g>
   </g>
   <g id="line2d_33">
    <path clip-path="url(#p8cd4505a61)" style="fill: none; stroke-dasharray: 1.5625,0.9375; stroke-dashoffset: 0; stroke: #3f3f3f; stroke-width: 1.25"/>
   </g>
   <g id="line2d_34">
    <path clip-path="url(#p8cd4505a61)" style="fill: none; stroke-dasharray: 3.125,1.25; stroke-dashoffset: 0; stroke: #3f3f3f; stroke-width: 1.25"/>
   </g>
   <g id="line2d_35">
    <path clip-path="url(#p8cd4505a61)" style="fill: none; stroke-dasharray: 1.5625,0.9375; stroke-dashoffset: 0; stroke: #3f3f3f; stroke-width: 1.25"/>
   </g>
   <g id="line2d_36">
    <path d="M 424.180528 336.272087 
L 451.763385 336.272087 
" clip-path="url(#p8cd4505a61)" style="fill: none; stroke-dasharray: 1.5625,0.9375; stroke-dashoffset: 0; stroke: #3f3f3f; stroke-width: 1.25"/>
   </g>
   <g id="line2d_37">
    <path d="M 401.866376 333.546112 
L 452.397251 333.546112 
" clip-path="url(#p8cd4505a61)" style="fill: none; stroke-dasharray: 3.125,1.25; stroke-dashoffset: 0; stroke: #3f3f3f; stroke-width: 1.25"/>
   </g>
   <g id="line2d_38">
    <path d="M 426.907319 332.105719 
L 451.539664 332.105719 
" clip-path="url(#p8cd4505a61)" style="fill: none; stroke-dasharray: 1.5625,0.9375; stroke-dashoffset: 0; stroke: #3f3f3f; stroke-width: 1.25"/>
   </g>
   <g id="line2d_39">
    <path d="M 456.808109 259.159776 
L 461.974466 259.159776 
" clip-path="url(#p8cd4505a61)" style="fill: none; stroke-dasharray: 1.5625,0.9375; stroke-dashoffset: 0; stroke: #3f3f3f; stroke-width: 1.25"/>
   </g>
   <g id="line2d_40">
    <path d="M 457.004737 258.361683 
L 461.852808 258.361683 
" clip-path="url(#p8cd4505a61)" style="fill: none; stroke-dasharray: 3.125,1.25; stroke-dashoffset: 0; stroke: #3f3f3f; stroke-width: 1.25"/>
   </g>
   <g id="line2d_41">
    <path d="M 457.897213 256.894037 
L 461.250372 256.894037 
" clip-path="url(#p8cd4505a61)" style="fill: none; stroke-dasharray: 1.5625,0.9375; stroke-dashoffset: 0; stroke: #3f3f3f; stroke-width: 1.25"/>
   </g>
   <g id="line2d_42">
    <path d="M 462.075557 332.788439 
L 465.515423 332.788439 
" clip-path="url(#p8cd4505a61)" style="fill: none; stroke-dasharray: 1.5625,0.9375; stroke-dashoffset: 0; stroke: #3f3f3f; stroke-width: 1.25"/>
   </g>
   <g id="line2d_43">
    <path d="M 462.072948 330.655874 
L 465.517299 330.655874 
" clip-path="url(#p8cd4505a61)" style="fill: none; stroke-dasharray: 3.125,1.25; stroke-dashoffset: 0; stroke: #3f3f3f; stroke-width: 1.25"/>
   </g>
   <g id="line2d_44">
    <path d="M 462.27822 328.15168 
L 465.367226 328.15168 
" clip-path="url(#p8cd4505a61)" style="fill: none; stroke-dasharray: 1.5625,0.9375; stroke-dashoffset: 0; stroke: #3f3f3f; stroke-width: 1.25"/>
   </g>
   <g id="line2d_45">
    <path d="M 467.10907 212.245613 
L 469.124453 212.245613 
" clip-path="url(#p8cd4505a61)" style="fill: none; stroke-dasharray: 1.5625,0.9375; stroke-dashoffset: 0; stroke: #3f3f3f; stroke-width: 1.25"/>
   </g>
   <g id="line2d_46">
    <path d="M 466.939976 211.772848 
L 469.261803 211.772848 
" clip-path="url(#p8cd4505a61)" style="fill: none; stroke-dasharray: 3.125,1.25; stroke-dashoffset: 0; stroke: #3f3f3f; stroke-width: 1.25"/>
   </g>
   <g id="line2d_47">
    <path d="M 467.066192 211.166998 
L 469.159665 211.166998 
" clip-path="url(#p8cd4505a61)" style="fill: none; stroke-dasharray: 1.5625,0.9375; stroke-dashoffset: 0; stroke: #3f3f3f; stroke-width: 1.25"/>
   </g>
   <g id="line2d_48">
    <path d="M 469.380623 309.005232 
L 471.067653 309.005232 
" clip-path="url(#p8cd4505a61)" style="fill: none; stroke-dasharray: 1.5625,0.9375; stroke-dashoffset: 0; stroke: #3f3f3f; stroke-width: 1.25"/>
   </g>
   <g id="line2d_49">
    <path d="M 469.271302 307.659739 
L 471.159754 307.659739 
" clip-path="url(#p8cd4505a61)" style="fill: none; stroke-dasharray: 3.125,1.25; stroke-dashoffset: 0; stroke: #3f3f3f; stroke-width: 1.25"/>
   </g>
   <g id="line2d_50">
    <path d="M 469.563385 305.943839 
L 470.909627 305.943839 
" clip-path="url(#p8cd4505a61)" style="fill: none; stroke-dasharray: 1.5625,0.9375; stroke-dashoffset: 0; stroke: #3f3f3f; stroke-width: 1.25"/>
   </g>
   <g id="line2d_51">
    <path d="M 472.039198 112.336006 
L 473.459207 112.336006 
" clip-path="url(#p8cd4505a61)" style="fill: none; stroke-dasharray: 1.5625,0.9375; stroke-dashoffset: 0; stroke: #3f3f3f; stroke-width: 1.25"/>
   </g>
   <g id="line2d_52">
    <path d="M 472.028743 111.864544 
L 473.468322 111.864544 
" clip-path="url(#p8cd4505a61)" style="fill: none; stroke-dasharray: 3.125,1.25; stroke-dashoffset: 0; stroke: #3f3f3f; stroke-width: 1.25"/>
   </g>
   <g id="line2d_53">
    <path d="M 472.254239 111.23946 
L 473.267846 111.23946 
" clip-path="url(#p8cd4505a61)" style="fill: none; stroke-dasharray: 1.5625,0.9375; stroke-dashoffset: 0; stroke: #3f3f3f; stroke-width: 1.25"/>
   </g>
   <g id="line2d_54">
    <path d="M 473.511294 231.841247 
L 474.781991 231.841247 
" clip-path="url(#p8cd4505a61)" style="fill: none; stroke-dasharray: 1.5625,0.9375; stroke-dashoffset: 0; stroke: #3f3f3f; stroke-width: 1.25"/>
   </g>
   <g id="line2d_55">
    <path d="M 473.49369 231.280836 
L 474.797551 231.280836 
" clip-path="url(#p8cd4505a61)" style="fill: none; stroke-dasharray: 3.125,1.25; stroke-dashoffset: 0; stroke: #3f3f3f; stroke-width: 1.25"/>
   </g>
   <g id="line2d_56">
    <path d="M 473.514825 230.623218 
L 474.778864 230.623218 
" clip-path="url(#p8cd4505a61)" style="fill: none; stroke-dasharray: 1.5625,0.9375; stroke-dashoffset: 0; stroke: #3f3f3f; stroke-width: 1.25"/>
   </g>
   <g id="line2d_57">
    <path d="M 475.473968 39.449067 
L 476.421043 39.449067 
" clip-path="url(#p8cd4505a61)" style="fill: none; stroke-dasharray: 1.5625,0.9375; stroke-dashoffset: 0; stroke: #3f3f3f; stroke-width: 1.25"/>
   </g>
   <g id="line2d_58">
    <path d="M 475.394999 39.284641 
L 476.492638 39.284641 
" clip-path="url(#p8cd4505a61)" style="fill: none; stroke-dasharray: 3.125,1.25; stroke-dashoffset: 0; stroke: #3f3f3f; stroke-width: 1.25"/>
   </g>
   <g id="line2d_59">
    <path d="M 475.532703 39.05622 
L 476.367116 39.05622 
" clip-path="url(#p8cd4505a61)" style="fill: none; stroke-dasharray: 1.5625,0.9375; stroke-dashoffset: 0; stroke: #3f3f3f; stroke-width: 1.25"/>
   </g>
   <g id="line2d_60">
    <path d="M 476.596426 141.202179 
L 477.392481 141.202179 
" clip-path="url(#p8cd4505a61)" style="fill: none; stroke-dasharray: 1.5625,0.9375; stroke-dashoffset: 0; stroke: #3f3f3f; stroke-width: 1.25"/>
   </g>
   <g id="line2d_61">
    <path d="M 476.494896 138.302459 
L 477.485677 138.302459 
" clip-path="url(#p8cd4505a61)" style="fill: none; stroke-dasharray: 3.125,1.25; stroke-dashoffset: 0; stroke: #3f3f3f; stroke-width: 1.25"/>
   </g>
   <g id="line2d_62">
    <path d="M 476.559383 135.376182 
L 477.426685 135.376182 
" clip-path="url(#p8cd4505a61)" style="fill: none; stroke-dasharray: 1.5625,0.9375; stroke-dashoffset: 0; stroke: #3f3f3f; stroke-width: 1.25"/>
   </g>
   <g id="patch_5">
    <path d="M 51.378125 354.958125 
L 51.378125 22.318125 
" style="fill: none; stroke: #000000; stroke-width: 0.8; stroke-linejoin: miter; stroke-linecap: square"/>
   </g>
   <g id="patch_6">
    <path d="M 497.778125 354.958125 
L 497.778125 22.318125 
" style="fill: none; stroke: #000000; stroke-width: 0.8; stroke-linejoin: miter; stroke-linecap: square"/>
   </g>
   <g id="patch_7">
    <path d="M 51.378125 354.958125 
L 497.778125 354.958125 
" style="fill: none; stroke: #000000; stroke-width: 0.8; stroke-linejoin: miter; stroke-linecap: square"/>
   </g>
   <g id="patch_8">
    <path d="M 51.378125 22.318125 
L 497.778125 22.318125 
" style="fill: none; stroke: #000000; stroke-width: 0.8; stroke-linejoin: miter; stroke-linecap: square"/>
   </g>
   <g id="text_12">
    <!-- Imputation Time -->
    <g transform="translate(225.243125 16.318125) scale(0.12 -0.12)">
     <defs>
      <path id="DejaVuSans-49" d="M 628 4666 
L 1259 4666 
L 1259 0 
L 628 0 
L 628 4666 
z
" transform="scale(0.015625)"/>
      <path id="DejaVuSans-70" d="M 1159 525 
L 1159 -1331 
L 581 -1331 
L 581 3500 
L 1159 3500 
L 1159 2969 
Q 1341 3281 1617 3432 
Q 1894 3584 2278 3584 
Q 2916 3584 3314 3078 
Q 3713 2572 3713 1747 
Q 3713 922 3314 415 
Q 2916 -91 2278 -91 
Q 1894 -91 1617 61 
Q 1341 213 1159 525 
z
M 3116 1747 
Q 3116 2381 2855 2742 
Q 2594 3103 2138 3103 
Q 1681 3103 1420 2742 
Q 1159 2381 1159 1747 
Q 1159 1113 1420 752 
Q 1681 391 2138 391 
Q 2594 391 2855 752 
Q 3116 1113 3116 1747 
z
" transform="scale(0.015625)"/>
      <path id="DejaVuSans-6e" d="M 3513 2113 
L 3513 0 
L 2938 0 
L 2938 2094 
Q 2938 2591 2744 2837 
Q 2550 3084 2163 3084 
Q 1697 3084 1428 2787 
Q 1159 2491 1159 1978 
L 1159 0 
L 581 0 
L 581 3500 
L 1159 3500 
L 1159 2956 
Q 1366 3272 1645 3428 
Q 1925 3584 2291 3584 
Q 2894 3584 3203 3211 
Q 3513 2838 3513 2113 
z
" transform="scale(0.015625)"/>
      <path id="DejaVuSans-54" d="M -19 4666 
L 3928 4666 
L 3928 4134 
L 2272 4134 
L 2272 0 
L 1638 0 
L 1638 4134 
L -19 4134 
L -19 4666 
z
" transform="scale(0.015625)"/>
     </defs>
     <use xlink:href="#DejaVuSans-49"/>
     <use xlink:href="#DejaVuSans-6d" transform="translate(29.492188 0)"/>
     <use xlink:href="#DejaVuSans-70" transform="translate(126.904297 0)"/>
     <use xlink:href="#DejaVuSans-75" transform="translate(190.380859 0)"/>
     <use xlink:href="#DejaVuSans-74" transform="translate(253.759766 0)"/>
     <use xlink:href="#DejaVuSans-61" transform="translate(292.96875 0)"/>
     <use xlink:href="#DejaVuSans-74" transform="translate(354.248047 0)"/>
     <use xlink:href="#DejaVuSans-69" transform="translate(393.457031 0)"/>
     <use xlink:href="#DejaVuSans-6f" transform="translate(421.240234 0)"/>
     <use xlink:href="#DejaVuSans-6e" transform="translate(482.421875 0)"/>
     <use xlink:href="#DejaVuSans-20" transform="translate(545.800781 0)"/>
     <use xlink:href="#DejaVuSans-54" transform="translate(577.587891 0)"/>
     <use xlink:href="#DejaVuSans-69" transform="translate(635.546875 0)"/>
     <use xlink:href="#DejaVuSans-6d" transform="translate(663.330078 0)"/>
     <use xlink:href="#DejaVuSans-65" transform="translate(760.742188 0)"/>
    </g>
   </g>
   <g id="legend_1">
    <g id="patch_9">
     <path d="M 58.378125 74.3525 
L 133.571875 74.3525 
Q 135.571875 74.3525 135.571875 72.3525 
L 135.571875 29.318125 
Q 135.571875 27.318125 133.571875 27.318125 
L 58.378125 27.318125 
Q 56.378125 27.318125 56.378125 29.318125 
L 56.378125 72.3525 
Q 56.378125 74.3525 58.378125 74.3525 
z
" style="fill: #ffffff; opacity: 0.8; stroke: #cccccc; stroke-linejoin: miter"/>
    </g>
    <g id="text_13">
     <!-- DBMS -->
     <g transform="translate(81.20625 38.916562) scale(0.1 -0.1)">
      <defs>
       <path id="DejaVuSans-42" d="M 1259 2228 
L 1259 519 
L 2272 519 
Q 2781 519 3026 730 
Q 3272 941 3272 1375 
Q 3272 1813 3026 2020 
Q 2781 2228 2272 2228 
L 1259 2228 
z
M 1259 4147 
L 1259 2741 
L 2194 2741 
Q 2656 2741 2882 2914 
Q 3109 3088 3109 3444 
Q 3109 3797 2882 3972 
Q 2656 4147 2194 4147 
L 1259 4147 
z
M 628 4666 
L 2241 4666 
Q 2963 4666 3353 4366 
Q 3744 4066 3744 3513 
Q 3744 3084 3544 2831 
Q 3344 2578 2956 2516 
Q 3422 2416 3680 2098 
Q 3938 1781 3938 1306 
Q 3938 681 3513 340 
Q 3088 0 2303 0 
L 628 0 
L 628 4666 
z
" transform="scale(0.015625)"/>
       <path id="DejaVuSans-4d" d="M 628 4666 
L 1569 4666 
L 2759 1491 
L 3956 4666 
L 4897 4666 
L 4897 0 
L 4281 0 
L 4281 4097 
L 3078 897 
L 2444 897 
L 1241 4097 
L 1241 0 
L 628 0 
L 628 4666 
z
" transform="scale(0.015625)"/>
       <path id="DejaVuSans-53" d="M 3425 4513 
L 3425 3897 
Q 3066 4069 2747 4153 
Q 2428 4238 2131 4238 
Q 1616 4238 1336 4038 
Q 1056 3838 1056 3469 
Q 1056 3159 1242 3001 
Q 1428 2844 1947 2747 
L 2328 2669 
Q 3034 2534 3370 2195 
Q 3706 1856 3706 1288 
Q 3706 609 3251 259 
Q 2797 -91 1919 -91 
Q 1588 -91 1214 -16 
Q 841 59 441 206 
L 441 856 
Q 825 641 1194 531 
Q 1563 422 1919 422 
Q 2459 422 2753 634 
Q 3047 847 3047 1241 
Q 3047 1584 2836 1778 
Q 2625 1972 2144 2069 
L 1759 2144 
Q 1053 2284 737 2584 
Q 422 2884 422 3419 
Q 422 4038 858 4394 
Q 1294 4750 2059 4750 
Q 2388 4750 2728 4690 
Q 3069 4631 3425 4513 
z
" transform="scale(0.015625)"/>
      </defs>
      <use xlink:href="#DejaVuSans-44"/>
      <use xlink:href="#DejaVuSans-42" transform="translate(77.001953 0)"/>
      <use xlink:href="#DejaVuSans-4d" transform="translate(145.605469 0)"/>
      <use xlink:href="#DejaVuSans-53" transform="translate(231.884766 0)"/>
     </g>
    </g>
    <g id="patch_10">
     <path d="M 60.378125 53.594687 
L 80.378125 53.594687 
L 80.378125 46.594687 
L 60.378125 46.594687 
z
" style="fill: #3274a1; stroke: #3f3f3f; stroke-width: 1.25; stroke-linejoin: miter"/>
    </g>
    <g id="text_14">
     <!-- pandas -->
     <g transform="translate(88.378125 53.594687) scale(0.1 -0.1)">
      <defs>
       <path id="DejaVuSans-64" d="M 2906 2969 
L 2906 4863 
L 3481 4863 
L 3481 0 
L 2906 0 
L 2906 525 
Q 2725 213 2448 61 
Q 2172 -91 1784 -91 
Q 1150 -91 751 415 
Q 353 922 353 1747 
Q 353 2572 751 3078 
Q 1150 3584 1784 3584 
Q 2172 3584 2448 3432 
Q 2725 3281 2906 2969 
z
M 947 1747 
Q 947 1113 1208 752 
Q 1469 391 1925 391 
Q 2381 391 2643 752 
Q 2906 1113 2906 1747 
Q 2906 2381 2643 2742 
Q 2381 3103 1925 3103 
Q 1469 3103 1208 2742 
Q 947 2381 947 1747 
z
" transform="scale(0.015625)"/>
      </defs>
      <use xlink:href="#DejaVuSans-70"/>
      <use xlink:href="#DejaVuSans-61" transform="translate(63.476562 0)"/>
      <use xlink:href="#DejaVuSans-6e" transform="translate(124.755859 0)"/>
      <use xlink:href="#DejaVuSans-64" transform="translate(188.134766 0)"/>
      <use xlink:href="#DejaVuSans-61" transform="translate(251.611328 0)"/>
      <use xlink:href="#DejaVuSans-73" transform="translate(312.890625 0)"/>
     </g>
    </g>
    <g id="patch_11">
     <path d="M 60.378125 68.272812 
L 80.378125 68.272812 
L 80.378125 61.272812 
L 60.378125 61.272812 
z
" style="fill: #e1812c; stroke: #3f3f3f; stroke-width: 1.25; stroke-linejoin: miter"/>
    </g>
    <g id="text_15">
     <!-- postgres -->
     <g transform="translate(88.378125 68.272812) scale(0.1 -0.1)">
      <defs>
       <path id="DejaVuSans-67" d="M 2906 1791 
Q 2906 2416 2648 2759 
Q 2391 3103 1925 3103 
Q 1463 3103 1205 2759 
Q 947 2416 947 1791 
Q 947 1169 1205 825 
Q 1463 481 1925 481 
Q 2391 481 2648 825 
Q 2906 1169 2906 1791 
z
M 3481 434 
Q 3481 -459 3084 -895 
Q 2688 -1331 1869 -1331 
Q 1566 -1331 1297 -1286 
Q 1028 -1241 775 -1147 
L 775 -588 
Q 1028 -725 1275 -790 
Q 1522 -856 1778 -856 
Q 2344 -856 2625 -561 
Q 2906 -266 2906 331 
L 2906 616 
Q 2728 306 2450 153 
Q 2172 0 1784 0 
Q 1141 0 747 490 
Q 353 981 353 1791 
Q 353 2603 747 3093 
Q 1141 3584 1784 3584 
Q 2172 3584 2450 3431 
Q 2728 3278 2906 2969 
L 2906 3500 
L 3481 3500 
L 3481 434 
z
" transform="scale(0.015625)"/>
      </defs>
      <use xlink:href="#DejaVuSans-70"/>
      <use xlink:href="#DejaVuSans-6f" transform="translate(63.476562 0)"/>
      <use xlink:href="#DejaVuSans-73" transform="translate(124.658203 0)"/>
      <use xlink:href="#DejaVuSans-74" transform="translate(176.757812 0)"/>
      <use xlink:href="#DejaVuSans-67" transform="translate(215.966797 0)"/>
      <use xlink:href="#DejaVuSans-72" transform="translate(279.443359 0)"/>
      <use xlink:href="#DejaVuSans-65" transform="translate(318.306641 0)"/>
      <use xlink:href="#DejaVuSans-73" transform="translate(379.830078 0)"/>
     </g>
    </g>
   </g>
  </g>
 </g>
 <defs>
  <clipPath id="p8cd4505a61">
   <rect x="51.378125" y="22.318125" width="446.4" height="332.64"/>
  </clipPath>
 </defs>
</svg>
