<?xml version="1.0" encoding="utf-8" standalone="no"?>
<!DOCTYPE svg PUBLIC "-//W3C//DTD SVG 1.1//EN"
  "http://www.w3.org/Graphics/SVG/1.1/DTD/svg11.dtd">
<svg xmlns:xlink="http://www.w3.org/1999/xlink" width="504.978125pt" height="392.514375pt" viewBox="0 0 504.978125 392.514375" xmlns="http://www.w3.org/2000/svg" version="1.1">
 <metadata>
  <rdf:RDF xmlns:dc="http://purl.org/dc/elements/1.1/" xmlns:cc="http://creativecommons.org/ns#" xmlns:rdf="http://www.w3.org/1999/02/22-rdf-syntax-ns#">
   <cc:Work>
    <dc:type rdf:resource="http://purl.org/dc/dcmitype/StillImage"/>
    <dc:date>2025-08-04T19:30:56.890156</dc:date>
    <dc:format>image/svg+xml</dc:format>
    <dc:creator>
     <cc:Agent>
      <dc:title>Matplotlib v3.10.5, https://matplotlib.org/</dc:title>
     </cc:Agent>
    </dc:creator>
   </cc:Work>
  </rdf:RDF>
 </metadata>
 <defs>
  <style type="text/css">*{stroke-linejoin: round; stroke-linecap: butt}</style>
 </defs>
 <g id="figure_1">
  <g id="patch_1">
   <path d="M 0 392.514375 
L 504.978125 392.514375 
L 504.978125 0 
L 0 0 
z
" style="fill: #ffffff"/>
  </g>
  <g id="axes_1">
   <g id="patch_2">
    <path d="M 51.378125 354.958125 
L 497.778125 354.958125 
L 497.778125 22.318125 
L 51.378125 22.318125 
z
" style="fill: #ffffff"/>
   </g>
   <g id="FillBetweenPolyCollection_1">
    <defs>
     <path id="mdec1cc449d" d="M -23552.192993 -134.362109 
L -23552.192993 -134.362109 
L -23552.192993 -134.741833 
L -23552.192993 -135.118555 
L -23552.192993 -135.492323 
L -23552.192993 -135.863183 
L -23552.192993 -136.23118 
L -23552.192993 -136.596357 
L -23552.192993 -136.958758 
L -23552.192993 -137.318424 
L -23552.192993 -137.675396 
L -23552.192993 -138.029715 
L -23552.192993 -138.38142 
L -23552.192993 -138.730548 
L -23552.192993 -139.077137 
L -23552.192993 -139.421225 
L -23552.192993 -139.762846 
L -23552.192993 -140.102037 
L -23552.192993 -140.43883 
L -23552.192993 -140.773261 
L -23552.192993 -141.105361 
L -23552.192993 -141.435164 
L -23552.192993 -141.7627 
L -23552.192993 -142.088001 
L -23552.192993 -142.411096 
L -23552.192993 -142.732017 
L -23552.192993 -143.050791 
L -23552.192993 -143.367447 
L -23552.192993 -143.682014 
L -23552.192993 -143.994518 
L -23552.192993 -144.304986 
L -23552.192993 -144.613446 
L -23552.192993 -144.919922 
L -23552.192993 -145.22444 
L -23552.192993 -145.527024 
L -23552.192993 -145.8277 
L -23552.192993 -146.126492 
L -23552.192993 -146.423421 
L -23552.192993 -146.718513 
L -23552.192993 -147.011789 
L -23552.192993 -147.303271 
L -23552.192993 -147.592982 
L -23552.192993 -147.880942 
L -23552.192993 -148.167173 
L -23552.192993 -148.451696 
L -23552.192993 -148.73453 
L -23552.192993 -149.015696 
L -23552.192993 -149.295213 
L -23552.192993 -149.5731 
L -23552.192993 -149.849377 
L -23552.192993 -150.124062 
L -23552.192993 -150.397172 
L -23552.192993 -150.668727 
L -23552.192993 -150.938743 
L -23552.192993 -151.207239 
L -23552.192993 -151.47423 
L -23552.192993 -151.739734 
L -23552.192993 -152.003767 
L -23552.192993 -152.266346 
L -23552.192993 -152.527486 
L -23552.192993 -152.787204 
L -23552.192993 -153.045513 
L -23552.192993 -153.302431 
L -23552.192993 -153.557971 
L -23552.192993 -153.812148 
L -23552.192993 -154.064977 
L -23552.192993 -154.316472 
L -23552.192993 -154.566647 
L -23552.192993 -154.815516 
L -23552.192993 -155.063092 
L -23552.192993 -155.309389 
L -23552.192993 -155.55442 
L -23552.192993 -155.798197 
L -23552.192993 -156.040734 
L -23552.192993 -156.282044 
L -23552.192993 -156.522137 
L -23552.192993 -156.761028 
L -23552.192993 -156.998727 
L -23552.192993 -157.235246 
L -23552.192993 -157.470598 
L -23552.192993 -157.704793 
L -23552.192993 -157.937843 
L -23552.192993 -158.169759 
L -23552.192993 -158.400552 
L -23552.192993 -158.630234 
L -23552.192993 -158.858813 
L -23552.192993 -159.086302 
L -23552.192993 -159.31271 
L -23552.192993 -159.538048 
L -23552.192993 -159.762325 
L -23552.192993 -159.985553 
L -23552.192993 -160.207739 
L -23552.192993 -160.428895 
L -23552.192993 -160.649029 
L -23552.192993 -160.868151 
L -23552.192993 -161.086271 
L -23552.192993 -161.303397 
L -23552.192993 -161.519538 
L -23552.192993 -161.734704 
L -23552.192993 -161.948902 
L -23552.192993 -162.162143 
L -23552.192993 -162.162143 
L -23552.192993 -162.162143 
L -23552.192993 -161.948902 
L -23552.192993 -161.734704 
L -23552.192993 -161.519538 
L -23552.192993 -161.303397 
L -23552.192993 -161.086271 
L -23552.192993 -160.868151 
L -23552.192993 -160.649029 
L -23552.192993 -160.428895 
L -23552.192993 -160.207739 
L -23552.192993 -159.985553 
L -23552.192993 -159.762325 
L -23552.192993 -159.538048 
L -23552.192993 -159.31271 
L -23552.192993 -159.086302 
L -23552.192993 -158.858813 
L -23552.192993 -158.630234 
L -23552.192993 -158.400552 
L -23552.192993 -158.169759 
L -23552.192993 -157.937843 
L -23552.192993 -157.704793 
L -23552.192993 -157.470598 
L -23552.192993 -157.235246 
L -23552.192993 -156.998727 
L -23552.192993 -156.761028 
L -23552.192993 -156.522137 
L -23552.192993 -156.282044 
L -23552.192993 -156.040734 
L -23552.192993 -155.798197 
L -23552.192993 -155.55442 
L -23552.192993 -155.309389 
L -23552.192993 -155.063092 
L -23552.192993 -154.815516 
L -23552.192993 -154.566647 
L -23552.192993 -154.316472 
L -23552.192993 -154.064977 
L -23552.192993 -153.812148 
L -23552.192993 -153.557971 
L -23552.192993 -153.302431 
L -23552.192993 -153.045513 
L -23552.192993 -152.787204 
L -23552.192993 -152.527486 
L -23552.192993 -152.266346 
L -23552.192993 -152.003767 
L -23552.192993 -151.739734 
L -23552.192993 -151.47423 
L -23552.192993 -151.207239 
L -23552.192993 -150.938743 
L -23552.192993 -150.668727 
L -23552.192993 -150.397172 
L -23552.192993 -150.124062 
L -23552.192993 -149.849377 
L -23552.192993 -149.5731 
L -23552.192993 -149.295213 
L -23552.192993 -149.015696 
L -23552.192993 -148.73453 
L -23552.192993 -148.451696 
L -23552.192993 -148.167173 
L -23552.192993 -147.880942 
L -23552.192993 -147.592982 
L -23552.192993 -147.303271 
L -23552.192993 -147.011789 
L -23552.192993 -146.718513 
L -23552.192993 -146.423421 
L -23552.192993 -146.126492 
L -23552.192993 -145.8277 
L -23552.192993 -145.527024 
L -23552.192993 -145.22444 
L -23552.192993 -144.919922 
L -23552.192993 -144.613446 
L -23552.192993 -144.304986 
L -23552.192993 -143.994518 
L -23552.192993 -143.682014 
L -23552.192993 -143.367447 
L -23552.192993 -143.050791 
L -23552.192993 -142.732017 
L -23552.192993 -142.411096 
L -23552.192993 -142.088001 
L -23552.192993 -141.7627 
L -23552.192993 -141.435164 
L -23552.192993 -141.105361 
L -23552.192993 -140.773261 
L -23552.192993 -140.43883 
L -23552.192993 -140.102037 
L -23552.192993 -139.762846 
L -23552.192993 -139.421225 
L -23552.192993 -139.077137 
L -23552.192993 -138.730548 
L -23552.192993 -138.38142 
L -23552.192993 -138.029715 
L -23552.192993 -137.675396 
L -23552.192993 -137.318424 
L -23552.192993 -136.958758 
L -23552.192993 -136.596357 
L -23552.192993 -136.23118 
L -23552.192993 -135.863183 
L -23552.192993 -135.492323 
L -23552.192993 -135.118555 
L -23552.192993 -134.741833 
L -23552.192993 -134.362109 
z
" style="stroke: #3f3f3f; stroke-width: 1.25"/>
    </defs>
    <g clip-path="url(#pcdb9597877)">
     <use xlink:href="#mdec1cc449d" x="0" y="392.514375" style="fill: #3274a1; stroke: #3f3f3f; stroke-width: 1.25"/>
    </g>
   </g>
   <g id="FillBetweenPolyCollection_2">
    <defs>
     <path id="m74a7ceffb7" d="M 448.08995 -52.67625 
L 441.334724 -52.67625 
L 440.419344 -53.165889 
L 439.33757 -53.65055 
L 438.065964 -54.130332 
L 436.577011 -54.605332 
L 434.837302 -55.075646 
L 432.8046 -55.541364 
L 430.422996 -56.002576 
L 427.614533 -56.459368 
L 424.263849 -56.911824 
L 420.187504 -57.360025 
L 415.065074 -57.804051 
L 408.254384 -58.243978 
L 398.123501 -58.679882 
L 377.021744 -59.111836 
L 71.669034 -59.539911 
L 391.92327 -59.964175 
L 403.83574 -60.384696 
L 411.106409 -60.801539 
L 416.318632 -61.214769 
L 420.357171 -61.624446 
L 423.636396 -62.030633 
L 426.384249 -62.433387 
L 428.739024 -62.832767 
L 430.790176 -63.228828 
L 432.598136 -63.621625 
L 434.205005 -64.011211 
L 435.640804 -64.397639 
L 436.927386 -64.78096 
L 438.081007 -65.161222 
L 439.114077 -65.538475 
L 440.036408 -65.912765 
L 440.856097 -66.284139 
L 441.580174 -66.652641 
L 442.215064 -67.018317 
L 442.766922 -67.381208 
L 443.241851 -67.741358 
L 443.646032 -68.098806 
L 443.985782 -68.453594 
L 444.267545 -68.805761 
L 444.497832 -69.155344 
L 444.683125 -69.502383 
L 444.829753 -69.846913 
L 444.943761 -70.18897 
L 445.030785 -70.52859 
L 445.095944 -70.865808 
L 445.14377 -71.200656 
L 445.178159 -71.533169 
L 445.20237 -71.863377 
L 445.219052 -72.191314 
L 445.230298 -72.517011 
L 445.237713 -72.840496 
L 445.242493 -73.161801 
L 445.245506 -73.480955 
L 445.247362 -73.797986 
L 445.248479 -74.112922 
L 445.249137 -74.425791 
L 445.249515 -74.73662 
L 445.249727 -75.045434 
L 445.249843 -75.352261 
L 445.249906 -75.657126 
L 445.249939 -75.960052 
L 445.249955 -76.261066 
L 445.249964 -76.560191 
L 445.249968 -76.85745 
L 445.249969 -77.152867 
L 445.24997 -77.446464 
L 445.249969 -77.738264 
L 445.249968 -78.028288 
L 445.249964 -78.316558 
L 445.249957 -78.603095 
L 445.249944 -78.88792 
L 445.249917 -79.171053 
L 445.249869 -79.452515 
L 445.249783 -79.732323 
L 445.249631 -80.010499 
L 445.249371 -80.287061 
L 445.248939 -80.562027 
L 445.248238 -80.835417 
L 445.24713 -81.107247 
L 445.245425 -81.377535 
L 445.24287 -81.6463 
L 445.239143 -81.913557 
L 445.23385 -82.179325 
L 445.22654 -82.443618 
L 445.216723 -82.706455 
L 445.203908 -82.96785 
L 445.187665 -83.227819 
L 445.167686 -83.486378 
L 445.143868 -83.743542 
L 445.116392 -83.999326 
L 445.085781 -84.253745 
L 445.05294 -84.506812 
L 445.01915 -84.758544 
L 444.986014 -85.008952 
L 444.955344 -85.258053 
L 444.929009 -85.505858 
L 444.908745 -85.752381 
L 444.895967 -85.997636 
L 444.8916 -86.241635 
L 445.596436 -86.241635 
L 445.596436 -86.241635 
L 445.592353 -85.997636 
L 445.580386 -85.752381 
L 445.561351 -85.505858 
L 445.536503 -85.258053 
L 445.507413 -85.008952 
L 445.475794 -84.758544 
L 445.44335 -84.506812 
L 445.411617 -84.253745 
L 445.381861 -83.999326 
L 445.355006 -83.743542 
L 445.331613 -83.486378 
L 445.311908 -83.227819 
L 445.295832 -82.96785 
L 445.283114 -82.706455 
L 445.27335 -82.443618 
L 445.266068 -82.179325 
L 445.260789 -81.913557 
L 445.257067 -81.6463 
L 445.254515 -81.377535 
L 445.252812 -81.107247 
L 445.251704 -80.835417 
L 445.251003 -80.562027 
L 445.250571 -80.287061 
L 445.250312 -80.010499 
L 445.25016 -79.732323 
L 445.250073 -79.452515 
L 445.250025 -79.171053 
L 445.249999 -78.88792 
L 445.249985 -78.603095 
L 445.249978 -78.316558 
L 445.249975 -78.028288 
L 445.249973 -77.738264 
L 445.249973 -77.446464 
L 445.249973 -77.152867 
L 445.249975 -76.85745 
L 445.249979 -76.560191 
L 445.249987 -76.261066 
L 445.250004 -75.960052 
L 445.250037 -75.657126 
L 445.250099 -75.352261 
L 445.250216 -75.045434 
L 445.250428 -74.73662 
L 445.250806 -74.425791 
L 445.251463 -74.112922 
L 445.25258 -73.797986 
L 445.254435 -73.480955 
L 445.257444 -73.161801 
L 445.262215 -72.840496 
L 445.269607 -72.517011 
L 445.280799 -72.191314 
L 445.297357 -71.863377 
L 445.321293 -71.533169 
L 445.355102 -71.200656 
L 445.401757 -70.865808 
L 445.464646 -70.52859 
L 445.547447 -70.18897 
L 445.653912 -69.846913 
L 445.78759 -69.502383 
L 445.951497 -69.155344 
L 446.147769 -68.805761 
L 446.377355 -68.453594 
L 446.6398 -68.098806 
L 446.933159 -67.741358 
L 447.254056 -67.381208 
L 447.597896 -67.018317 
L 447.959181 -66.652641 
L 448.331897 -66.284139 
L 448.709898 -65.912765 
L 449.087264 -65.538475 
L 449.458577 -65.161222 
L 449.819116 -64.78096 
L 450.16495 -64.397639 
L 450.492955 -64.011211 
L 450.800753 -63.621625 
L 451.086598 -63.228828 
L 451.349218 -62.832767 
L 451.587634 -62.433387 
L 451.800972 -62.030633 
L 451.988276 -61.624446 
L 452.148353 -61.214769 
L 452.27965 -60.801539 
L 452.380186 -60.384696 
L 452.447551 -59.964175 
L 452.478974 -59.539911 
L 452.471454 -59.111836 
L 452.421962 -58.679882 
L 452.327688 -58.243978 
L 452.186328 -57.804051 
L 451.996381 -57.360025 
L 451.757442 -56.911824 
L 451.470471 -56.459368 
L 451.138003 -56.002576 
L 450.764285 -55.541364 
L 450.355312 -55.075646 
L 449.918736 -54.605332 
L 449.463625 -54.130332 
L 449.00008 -53.65055 
L 448.538699 -53.165889 
L 448.08995 -52.67625 
z
" style="stroke: #3f3f3f; stroke-width: 1.25"/>
    </defs>
    <g clip-path="url(#pcdb9597877)">
     <use xlink:href="#m74a7ceffb7" x="0" y="392.514375" style="fill: #e1812c; stroke: #3f3f3f; stroke-width: 1.25"/>
    </g>
   </g>
   <g id="FillBetweenPolyCollection_3">
    <defs>
     <path id="mf1649ab518" d="M 460.915749 -143.169279 
L 458.341793 -143.169279 
L 458.227791 -143.214881 
L 458.112063 -143.26044 
L 457.995507 -143.305955 
L 457.879066 -143.351427 
L 457.763717 -143.396855 
L 457.650445 -143.442241 
L 457.540229 -143.487583 
L 457.434024 -143.532882 
L 457.332736 -143.578138 
L 457.23721 -143.623351 
L 457.148212 -143.668521 
L 457.066413 -143.713648 
L 456.992381 -143.758733 
L 456.926568 -143.803775 
L 456.869303 -143.848775 
L 456.820788 -143.893732 
L 456.781099 -143.938647 
L 456.750181 -143.983519 
L 456.727855 -144.02835 
L 456.713821 -144.073138 
L 456.70767 -144.117884 
L 456.708887 -144.162588 
L 456.716871 -144.20725 
L 456.730943 -144.251871 
L 456.750369 -144.296449 
L 456.774374 -144.340987 
L 456.802164 -144.385482 
L 456.832945 -144.429936 
L 456.865944 -144.474349 
L 456.900432 -144.51872 
L 456.93574 -144.56305 
L 456.971276 -144.607339 
L 457.006542 -144.651586 
L 457.041142 -144.695793 
L 457.074791 -144.739959 
L 457.107315 -144.784083 
L 457.138654 -144.828167 
L 457.168849 -144.872211 
L 457.198038 -144.916213 
L 457.226436 -144.960175 
L 457.254318 -145.004097 
L 457.282001 -145.047978 
L 457.30982 -145.091819 
L 457.338104 -145.135619 
L 457.367159 -145.179379 
L 457.397248 -145.223099 
L 457.428572 -145.266779 
L 457.461263 -145.310419 
L 457.495377 -145.354019 
L 457.530893 -145.397579 
L 457.567718 -145.4411 
L 457.605697 -145.484581 
L 457.644624 -145.528022 
L 457.684264 -145.571423 
L 457.724367 -145.614785 
L 457.76469 -145.658108 
L 457.805015 -145.701392 
L 457.845163 -145.744636 
L 457.88501 -145.78784 
L 457.924495 -145.831006 
L 457.963621 -145.874133 
L 458.00246 -145.917221 
L 458.041142 -145.960269 
L 458.079849 -146.003279 
L 458.118796 -146.04625 
L 458.158222 -146.089183 
L 458.198363 -146.132077 
L 458.239442 -146.174932 
L 458.281644 -146.217749 
L 458.325104 -146.260527 
L 458.369894 -146.303267 
L 458.416014 -146.345969 
L 458.463387 -146.388632 
L 458.511863 -146.431258 
L 458.561219 -146.473845 
L 458.611169 -146.516394 
L 458.661383 -146.558905 
L 458.711492 -146.601379 
L 458.761114 -146.643814 
L 458.809864 -146.686212 
L 458.857374 -146.728572 
L 458.903308 -146.770895 
L 458.947376 -146.81318 
L 458.98934 -146.855427 
L 459.029026 -146.897637 
L 459.066327 -146.93981 
L 459.101202 -146.981945 
L 459.133676 -147.024044 
L 459.163833 -147.066105 
L 459.19181 -147.108129 
L 459.217787 -147.150116 
L 459.241977 -147.192066 
L 459.264614 -147.233979 
L 459.285941 -147.275855 
L 459.3062 -147.317695 
L 459.325623 -147.359498 
L 459.344419 -147.401264 
L 459.362769 -147.442994 
L 459.380823 -147.484687 
L 460.02518 -147.484687 
L 460.02518 -147.484687 
L 460.042124 -147.442994 
L 460.059288 -147.401264 
L 460.076808 -147.359498 
L 460.094849 -147.317695 
L 460.113598 -147.275855 
L 460.133259 -147.233979 
L 460.154043 -147.192066 
L 460.176158 -147.150116 
L 460.199798 -147.108129 
L 460.225133 -147.066105 
L 460.252298 -147.024044 
L 460.281383 -146.981945 
L 460.312428 -146.93981 
L 460.345417 -146.897637 
L 460.380273 -146.855427 
L 460.416859 -146.81318 
L 460.454984 -146.770895 
L 460.494407 -146.728572 
L 460.534845 -146.686212 
L 460.575985 -146.643814 
L 460.6175 -146.601379 
L 460.659056 -146.558905 
L 460.700335 -146.516394 
L 460.741041 -146.473845 
L 460.780917 -146.431258 
L 460.819751 -146.388632 
L 460.857391 -146.345969 
L 460.893741 -146.303267 
L 460.92877 -146.260527 
L 460.962503 -146.217749 
L 460.995022 -146.174932 
L 461.026453 -146.132077 
L 461.056957 -146.089183 
L 461.086717 -146.04625 
L 461.115923 -146.003279 
L 461.14476 -145.960269 
L 461.173393 -145.917221 
L 461.201957 -145.874133 
L 461.230547 -145.831006 
L 461.259211 -145.78784 
L 461.287949 -145.744636 
L 461.316714 -145.701392 
L 461.345415 -145.658108 
L 461.373926 -145.614785 
L 461.402096 -145.571423 
L 461.42976 -145.528022 
L 461.456753 -145.484581 
L 461.482925 -145.4411 
L 461.50815 -145.397579 
L 461.532336 -145.354019 
L 461.555437 -145.310419 
L 461.577456 -145.266779 
L 461.598446 -145.223099 
L 461.61851 -145.179379 
L 461.637793 -145.135619 
L 461.656479 -145.091819 
L 461.674776 -145.047978 
L 461.692903 -145.004097 
L 461.711081 -144.960175 
L 461.729512 -144.916213 
L 461.748371 -144.872211 
L 461.76779 -144.828167 
L 461.787846 -144.784083 
L 461.808556 -144.739959 
L 461.829872 -144.695793 
L 461.851674 -144.651586 
L 461.873774 -144.607339 
L 461.895922 -144.56305 
L 461.917806 -144.51872 
L 461.939066 -144.474349 
L 461.959303 -144.429936 
L 461.978086 -144.385482 
L 461.994968 -144.340987 
L 462.009493 -144.296449 
L 462.021208 -144.251871 
L 462.029672 -144.20725 
L 462.034466 -144.162588 
L 462.035197 -144.117884 
L 462.031504 -144.073138 
L 462.023067 -144.02835 
L 462.009607 -143.983519 
L 461.99089 -143.938647 
L 461.966732 -143.893732 
L 461.937001 -143.848775 
L 461.901618 -143.803775 
L 461.860563 -143.758733 
L 461.813874 -143.713648 
L 461.761653 -143.668521 
L 461.704067 -143.623351 
L 461.641346 -143.578138 
L 461.573792 -143.532882 
L 461.501769 -143.487583 
L 461.425709 -143.442241 
L 461.346106 -143.396855 
L 461.263509 -143.351427 
L 461.17852 -143.305955 
L 461.091779 -143.26044 
L 461.003959 -143.214881 
L 460.915749 -143.169279 
z
" style="stroke: #3f3f3f; stroke-width: 1.25"/>
    </defs>
    <g clip-path="url(#pcdb9597877)">
     <use xlink:href="#mf1649ab518" x="0" y="392.514375" style="fill: #3274a1; stroke: #3f3f3f; stroke-width: 1.25"/>
    </g>
   </g>
   <g id="FillBetweenPolyCollection_4">
    <defs>
     <path id="m238277277d" d="M 464.467655 -56.640699 
L 463.3772 -56.640699 
L 463.331835 -56.785859 
L 463.285734 -56.930577 
L 463.239072 -57.074858 
L 463.191992 -57.218703 
L 463.144598 -57.362116 
L 463.096953 -57.505098 
L 463.049075 -57.647653 
L 463.000945 -57.789783 
L 462.952511 -57.93149 
L 462.903698 -58.072777 
L 462.854419 -58.213646 
L 462.804593 -58.354101 
L 462.75416 -58.494142 
L 462.703096 -58.633774 
L 462.651432 -58.772997 
L 462.599263 -58.911815 
L 462.546767 -59.05023 
L 462.494202 -59.188245 
L 462.441919 -59.32586 
L 462.390353 -59.46308 
L 462.340017 -59.599906 
L 462.29149 -59.73634 
L 462.245397 -59.872384 
L 462.202389 -60.008042 
L 462.163116 -60.143314 
L 462.128201 -60.278204 
L 462.098213 -60.412713 
L 462.073636 -60.546843 
L 462.054856 -60.680597 
L 462.04213 -60.813977 
L 462.035583 -60.946984 
L 462.035197 -61.079622 
L 462.040807 -61.211891 
L 462.052117 -61.343794 
L 462.068705 -61.475334 
L 462.090043 -61.606511 
L 462.11552 -61.737328 
L 462.144467 -61.867787 
L 462.176179 -61.99789 
L 462.209944 -62.127639 
L 462.245068 -62.257036 
L 462.280888 -62.386083 
L 462.316801 -62.51478 
L 462.35227 -62.643132 
L 462.386834 -62.771139 
L 462.42012 -62.898802 
L 462.451836 -63.026125 
L 462.481778 -63.153109 
L 462.509818 -63.279755 
L 462.535901 -63.406066 
L 462.560034 -63.532042 
L 462.582278 -63.657687 
L 462.602737 -63.783001 
L 462.62155 -63.907987 
L 462.638879 -64.032646 
L 462.654905 -64.15698 
L 462.669819 -64.28099 
L 462.683822 -64.404678 
L 462.697119 -64.528047 
L 462.709921 -64.651096 
L 462.722442 -64.773829 
L 462.734901 -64.896247 
L 462.747527 -65.018351 
L 462.760551 -65.140143 
L 462.774215 -65.261625 
L 462.788762 -65.382798 
L 462.804439 -65.503664 
L 462.821485 -65.624223 
L 462.840132 -65.744479 
L 462.860591 -65.864432 
L 462.883044 -65.984084 
L 462.907637 -66.103437 
L 462.934469 -66.222491 
L 462.963585 -66.341249 
L 462.994967 -66.459711 
L 463.028537 -66.57788 
L 463.064147 -66.695756 
L 463.101591 -66.813342 
L 463.140602 -66.930638 
L 463.180862 -67.047647 
L 463.222016 -67.164369 
L 463.26368 -67.280806 
L 463.305455 -67.396959 
L 463.346943 -67.512829 
L 463.387759 -67.628419 
L 463.427541 -67.743729 
L 463.465968 -67.858761 
L 463.502761 -67.973515 
L 463.537694 -68.087995 
L 463.570597 -68.2022 
L 463.601358 -68.316131 
L 463.629919 -68.429792 
L 463.656276 -68.543182 
L 463.680473 -68.656302 
L 463.702595 -68.769155 
L 463.722758 -68.881741 
L 463.741104 -68.994063 
L 463.75779 -69.106119 
L 463.772981 -69.217914 
L 464.097836 -69.217914 
L 464.097836 -69.217914 
L 464.11254 -69.106119 
L 464.128642 -68.994063 
L 464.146288 -68.881741 
L 464.165612 -68.769155 
L 464.18673 -68.656302 
L 464.209728 -68.543182 
L 464.234662 -68.429792 
L 464.261542 -68.316131 
L 464.290334 -68.2022 
L 464.320949 -68.087995 
L 464.353251 -67.973515 
L 464.387048 -67.858761 
L 464.422103 -67.743729 
L 464.458136 -67.628419 
L 464.494833 -67.512829 
L 464.531858 -67.396959 
L 464.568858 -67.280806 
L 464.605483 -67.164369 
L 464.641392 -67.047647 
L 464.676265 -66.930638 
L 464.709817 -66.813342 
L 464.741804 -66.695756 
L 464.772028 -66.57788 
L 464.800345 -66.459711 
L 464.826667 -66.341249 
L 464.850956 -66.222491 
L 464.873232 -66.103437 
L 464.893557 -65.984084 
L 464.912037 -65.864432 
L 464.928812 -65.744479 
L 464.94405 -65.624223 
L 464.957937 -65.503664 
L 464.970672 -65.382798 
L 464.982458 -65.261625 
L 464.993501 -65.140143 
L 465.004004 -65.018351 
L 465.014162 -64.896247 
L 465.024165 -64.773829 
L 465.034195 -64.651096 
L 465.044427 -64.528047 
L 465.055033 -64.404678 
L 465.066175 -64.28099 
L 465.078012 -64.15698 
L 465.090698 -64.032646 
L 465.104376 -63.907987 
L 465.119179 -63.783001 
L 465.135225 -63.657687 
L 465.152606 -63.532042 
L 465.171388 -63.406066 
L 465.191602 -63.279755 
L 465.213232 -63.153109 
L 465.236217 -63.026125 
L 465.260437 -62.898802 
L 465.285716 -62.771139 
L 465.311817 -62.643132 
L 465.338443 -62.51478 
L 465.365242 -62.386083 
L 465.391812 -62.257036 
L 465.417711 -62.127639 
L 465.442467 -61.99789 
L 465.465591 -61.867787 
L 465.486593 -61.737328 
L 465.504995 -61.606511 
L 465.520348 -61.475334 
L 465.532245 -61.343794 
L 465.540339 -61.211891 
L 465.544349 -61.079622 
L 465.544072 -60.946984 
L 465.539393 -60.813977 
L 465.530284 -60.680597 
L 465.516804 -60.546843 
L 465.499103 -60.412713 
L 465.477405 -60.278204 
L 465.452007 -60.143314 
L 465.423263 -60.008042 
L 465.391569 -59.872384 
L 465.357347 -59.73634 
L 465.321033 -59.599906 
L 465.28305 -59.46308 
L 465.243804 -59.32586 
L 465.203661 -59.188245 
L 465.162941 -59.05023 
L 465.121908 -58.911815 
L 465.080764 -58.772997 
L 465.039653 -58.633774 
L 464.998658 -58.494142 
L 464.957812 -58.354101 
L 464.917104 -58.213646 
L 464.876493 -58.072777 
L 464.835919 -57.93149 
L 464.795315 -57.789783 
L 464.75462 -57.647653 
L 464.713792 -57.505098 
L 464.672815 -57.362116 
L 464.631707 -57.218703 
L 464.590524 -57.074858 
L 464.54936 -56.930577 
L 464.508348 -56.785859 
L 464.467655 -56.640699 
z
" style="stroke: #3f3f3f; stroke-width: 1.25"/>
    </defs>
    <g clip-path="url(#pcdb9597877)">
     <use xlink:href="#m238277277d" x="0" y="392.514375" style="fill: #e1812c; stroke: #3f3f3f; stroke-width: 1.25"/>
    </g>
   </g>
   <g id="FillBetweenPolyCollection_5">
    <defs>
     <path id="mf008448824" d="M 468.593584 -187.720587 
L 467.718816 -187.720587 
L 467.693083 -187.74947 
L 467.668159 -187.778336 
L 467.644177 -187.807185 
L 467.621232 -187.836016 
L 467.599381 -187.86483 
L 467.57864 -187.893626 
L 467.558986 -187.922405 
L 467.540356 -187.951167 
L 467.522652 -187.979911 
L 467.505746 -188.008638 
L 467.489484 -188.037348 
L 467.473691 -188.06604 
L 467.458181 -188.094715 
L 467.442759 -188.123373 
L 467.427234 -188.152014 
L 467.411419 -188.180637 
L 467.395144 -188.209243 
L 467.378258 -188.237833 
L 467.360637 -188.266405 
L 467.342186 -188.294959 
L 467.322849 -188.323497 
L 467.302606 -188.352018 
L 467.281478 -188.380521 
L 467.259528 -188.409008 
L 467.236859 -188.437478 
L 467.213615 -188.46593 
L 467.189973 -188.494366 
L 467.166142 -188.522784 
L 467.142354 -188.551186 
L 467.118862 -188.579571 
L 467.095924 -188.607939 
L 467.0738 -188.63629 
L 467.052743 -188.664624 
L 467.03299 -188.692941 
L 467.014753 -188.721242 
L 466.998215 -188.749526 
L 466.983524 -188.777793 
L 466.970791 -188.806043 
L 466.960087 -188.834276 
L 466.951444 -188.862493 
L 466.94486 -188.890693 
L 466.9403 -188.918877 
L 466.9377 -188.947043 
L 466.93698 -188.975194 
L 466.938043 -189.003327 
L 466.940784 -189.031444 
L 466.945099 -189.059544 
L 466.950889 -189.087628 
L 466.958066 -189.115695 
L 466.966554 -189.143746 
L 466.976294 -189.17178 
L 466.987247 -189.199798 
L 466.99939 -189.227799 
L 467.012717 -189.255784 
L 467.027239 -189.283752 
L 467.042976 -189.311704 
L 467.059957 -189.33964 
L 467.078216 -189.367559 
L 467.097783 -189.395462 
L 467.118687 -189.423349 
L 467.140945 -189.451219 
L 467.16456 -189.479073 
L 467.189519 -189.506911 
L 467.215789 -189.534732 
L 467.243316 -189.562538 
L 467.27202 -189.590327 
L 467.3018 -189.6181 
L 467.332529 -189.645856 
L 467.364059 -189.673597 
L 467.396224 -189.701321 
L 467.428837 -189.729029 
L 467.461702 -189.756722 
L 467.494612 -189.784398 
L 467.527356 -189.812058 
L 467.559724 -189.839702 
L 467.591514 -189.86733 
L 467.622533 -189.894942 
L 467.652605 -189.922538 
L 467.681575 -189.950118 
L 467.709312 -189.977682 
L 467.735712 -190.00523 
L 467.760699 -190.032762 
L 467.78423 -190.060278 
L 467.80629 -190.087779 
L 467.826893 -190.115263 
L 467.846083 -190.142732 
L 467.863925 -190.170185 
L 467.880506 -190.197622 
L 467.89593 -190.225044 
L 467.910311 -190.252449 
L 467.923772 -190.279839 
L 467.936436 -190.307213 
L 467.948425 -190.334572 
L 467.959854 -190.361914 
L 467.970827 -190.389241 
L 467.981436 -190.416553 
L 467.991756 -190.443848 
L 468.001847 -190.471128 
L 468.01175 -190.498393 
L 468.316757 -190.498393 
L 468.316757 -190.498393 
L 468.326366 -190.471128 
L 468.336139 -190.443848 
L 468.346114 -190.416553 
L 468.356348 -190.389241 
L 468.366912 -190.361914 
L 468.377892 -190.334572 
L 468.389384 -190.307213 
L 468.401496 -190.279839 
L 468.414337 -190.252449 
L 468.428022 -190.225044 
L 468.442657 -190.197622 
L 468.458344 -190.170185 
L 468.475169 -190.142732 
L 468.493203 -190.115263 
L 468.512495 -190.087779 
L 468.533068 -190.060278 
L 468.554921 -190.032762 
L 468.578023 -190.00523 
L 468.602315 -189.977682 
L 468.627711 -189.950118 
L 468.654099 -189.922538 
L 468.681343 -189.894942 
L 468.709288 -189.86733 
L 468.737764 -189.839702 
L 468.766591 -189.812058 
L 468.79558 -189.784398 
L 468.824545 -189.756722 
L 468.853299 -189.729029 
L 468.881665 -189.701321 
L 468.90948 -189.673597 
L 468.936591 -189.645856 
L 468.962868 -189.6181 
L 468.988196 -189.590327 
L 469.012483 -189.562538 
L 469.035658 -189.534732 
L 469.057671 -189.506911 
L 469.078492 -189.479073 
L 469.098106 -189.451219 
L 469.11652 -189.423349 
L 469.133748 -189.395462 
L 469.149818 -189.367559 
L 469.164763 -189.33964 
L 469.17862 -189.311704 
L 469.191426 -189.283752 
L 469.203211 -189.255784 
L 469.214002 -189.227799 
L 469.223811 -189.199798 
L 469.232641 -189.17178 
L 469.24048 -189.143746 
L 469.2473 -189.115695 
L 469.253059 -189.087628 
L 469.2577 -189.059544 
L 469.261156 -189.031444 
L 469.26335 -189.003327 
L 469.2642 -188.975194 
L 469.263623 -188.947043 
L 469.261543 -188.918877 
L 469.257891 -188.890693 
L 469.252614 -188.862493 
L 469.245677 -188.834276 
L 469.237072 -188.806043 
L 469.226814 -188.777793 
L 469.214951 -188.749526 
L 469.201561 -188.721242 
L 469.18675 -188.692941 
L 469.170655 -188.664624 
L 469.153437 -188.63629 
L 469.135277 -188.607939 
L 469.116375 -188.579571 
L 469.096938 -188.551186 
L 469.077175 -188.522784 
L 469.057292 -188.494366 
L 469.037484 -188.46593 
L 469.017929 -188.437478 
L 468.998781 -188.409008 
L 468.980166 -188.380521 
L 468.96218 -188.352018 
L 468.944884 -188.323497 
L 468.928304 -188.294959 
L 468.91243 -188.266405 
L 468.897221 -188.237833 
L 468.882601 -188.209243 
L 468.868469 -188.180637 
L 468.854697 -188.152014 
L 468.841138 -188.123373 
L 468.827633 -188.094715 
L 468.814013 -188.06604 
L 468.800105 -188.037348 
L 468.785742 -188.008638 
L 468.770766 -187.979911 
L 468.755034 -187.951167 
L 468.738424 -187.922405 
L 468.720839 -187.893626 
L 468.702215 -187.86483 
L 468.682518 -187.836016 
L 468.661749 -187.807185 
L 468.639949 -187.778336 
L 468.617191 -187.74947 
L 468.593584 -187.720587 
z
" style="stroke: #3f3f3f; stroke-width: 1.25"/>
    </defs>
    <g clip-path="url(#pcdb9597877)">
     <use xlink:href="#mf008448824" x="0" y="392.514375" style="fill: #3274a1; stroke: #3f3f3f; stroke-width: 1.25"/>
    </g>
   </g>
   <g id="FillBetweenPolyCollection_6">
    <defs>
     <path id="m36fd122bb0" d="M 470.64003 -83.892281 
L 469.861885 -83.892281 
L 469.835008 -83.966261 
L 469.808745 -84.040126 
L 469.783295 -84.113877 
L 469.758821 -84.187514 
L 469.735451 -84.261037 
L 469.713267 -84.334447 
L 469.692306 -84.407745 
L 469.672562 -84.480929 
L 469.653982 -84.554002 
L 469.636475 -84.626963 
L 469.619912 -84.699812 
L 469.604141 -84.77255 
L 469.588985 -84.845177 
L 469.574262 -84.917694 
L 469.559785 -84.9901 
L 469.54538 -85.062397 
L 469.530889 -85.134584 
L 469.516183 -85.206662 
L 469.501163 -85.278631 
L 469.485774 -85.350492 
L 469.470001 -85.422245 
L 469.453872 -85.493889 
L 469.437459 -85.565427 
L 469.420872 -85.636856 
L 469.404255 -85.70818 
L 469.38778 -85.779396 
L 469.371637 -85.850506 
L 469.356027 -85.921511 
L 469.341151 -85.992409 
L 469.327202 -86.063203 
L 469.314359 -86.133891 
L 469.30278 -86.204475 
L 469.292594 -86.274954 
L 469.283902 -86.34533 
L 469.276772 -86.415601 
L 469.271242 -86.485769 
L 469.26732 -86.555834 
L 469.264987 -86.625796 
L 469.2642 -86.695656 
L 469.264896 -86.765413 
L 469.266998 -86.835069 
L 469.270418 -86.904622 
L 469.275059 -86.974075 
L 469.280822 -87.043426 
L 469.287609 -87.112677 
L 469.295327 -87.181827 
L 469.30389 -87.250877 
L 469.313221 -87.319827 
L 469.32326 -87.388677 
L 469.333961 -87.457429 
L 469.3453 -87.526081 
L 469.357273 -87.594634 
L 469.369896 -87.663089 
L 469.383209 -87.731446 
L 469.397274 -87.799705 
L 469.41217 -87.867866 
L 469.42799 -87.93593 
L 469.444836 -88.003897 
L 469.462816 -88.071767 
L 469.482029 -88.13954 
L 469.502566 -88.207218 
L 469.524494 -88.274799 
L 469.547855 -88.342285 
L 469.572656 -88.409675 
L 469.598866 -88.47697 
L 469.626412 -88.544171 
L 469.655179 -88.611276 
L 469.685011 -88.678288 
L 469.715712 -88.745205 
L 469.747056 -88.812028 
L 469.778789 -88.878758 
L 469.810639 -88.945395 
L 469.842327 -89.011938 
L 469.873571 -89.078389 
L 469.904098 -89.144747 
L 469.933652 -89.211013 
L 469.961997 -89.277187 
L 469.988927 -89.34327 
L 470.014271 -89.409261 
L 470.037889 -89.47516 
L 470.059682 -89.540969 
L 470.079587 -89.606686 
L 470.097579 -89.672314 
L 470.113667 -89.737851 
L 470.127894 -89.803298 
L 470.140332 -89.868655 
L 470.151079 -89.933923 
L 470.160255 -89.999102 
L 470.167999 -90.064192 
L 470.174462 -90.129192 
L 470.179807 -90.194105 
L 470.184197 -90.258929 
L 470.187801 -90.323665 
L 470.190779 -90.388313 
L 470.193285 -90.452874 
L 470.195462 -90.517347 
L 470.197438 -90.581733 
L 470.199324 -90.646033 
L 470.201213 -90.710245 
L 470.314903 -90.710245 
L 470.314903 -90.710245 
L 470.316771 -90.646033 
L 470.318636 -90.581733 
L 470.320589 -90.517347 
L 470.322739 -90.452874 
L 470.325214 -90.388313 
L 470.328153 -90.323665 
L 470.331707 -90.258929 
L 470.336034 -90.194105 
L 470.341296 -90.129192 
L 470.347654 -90.064192 
L 470.35526 -89.999102 
L 470.364258 -89.933923 
L 470.374776 -89.868655 
L 470.386923 -89.803298 
L 470.400782 -89.737851 
L 470.41641 -89.672314 
L 470.433831 -89.606686 
L 470.453035 -89.540969 
L 470.473979 -89.47516 
L 470.49658 -89.409261 
L 470.52072 -89.34327 
L 470.546248 -89.277187 
L 470.572978 -89.211013 
L 470.600698 -89.144747 
L 470.629172 -89.078389 
L 470.658149 -89.011938 
L 470.687367 -88.945395 
L 470.716564 -88.878758 
L 470.745483 -88.812028 
L 470.773884 -88.745205 
L 470.801546 -88.678288 
L 470.828276 -88.611276 
L 470.853916 -88.544171 
L 470.878343 -88.47697 
L 470.901472 -88.409675 
L 470.923257 -88.342285 
L 470.943689 -88.274799 
L 470.962789 -88.207218 
L 470.98061 -88.13954 
L 470.997223 -88.071767 
L 471.012718 -88.003897 
L 471.027192 -87.93593 
L 471.040743 -87.867866 
L 471.053468 -87.799705 
L 471.065453 -87.731446 
L 471.07677 -87.663089 
L 471.087475 -87.594634 
L 471.097607 -87.526081 
L 471.107183 -87.457429 
L 471.116202 -87.388677 
L 471.124648 -87.319827 
L 471.132485 -87.250877 
L 471.139665 -87.181827 
L 471.146128 -87.112677 
L 471.151804 -87.043426 
L 471.156618 -86.974075 
L 471.160491 -86.904622 
L 471.163343 -86.835069 
L 471.165096 -86.765413 
L 471.165676 -86.695656 
L 471.16502 -86.625796 
L 471.163075 -86.555834 
L 471.159804 -86.485769 
L 471.155188 -86.415601 
L 471.149229 -86.34533 
L 471.141955 -86.274954 
L 471.133416 -86.204475 
L 471.123691 -86.133891 
L 471.112882 -86.063203 
L 471.101114 -85.992409 
L 471.088531 -85.921511 
L 471.075291 -85.850506 
L 471.061562 -85.779396 
L 471.047509 -85.70818 
L 471.033294 -85.636856 
L 471.019062 -85.565427 
L 471.004937 -85.493889 
L 470.991017 -85.422245 
L 470.977365 -85.350492 
L 470.964009 -85.278631 
L 470.950937 -85.206662 
L 470.938104 -85.134584 
L 470.925425 -85.062397 
L 470.912789 -84.9901 
L 470.900058 -84.917694 
L 470.887075 -84.845177 
L 470.873675 -84.77255 
L 470.85969 -84.699812 
L 470.844962 -84.626963 
L 470.829346 -84.554002 
L 470.812718 -84.480929 
L 470.794987 -84.407745 
L 470.776093 -84.334447 
L 470.756018 -84.261037 
L 470.73478 -84.187514 
L 470.712443 -84.113877 
L 470.689107 -84.040126 
L 470.664912 -83.966261 
L 470.64003 -83.892281 
z
" style="stroke: #3f3f3f; stroke-width: 1.25"/>
    </defs>
    <g clip-path="url(#pcdb9597877)">
     <use xlink:href="#m36fd122bb0" x="0" y="392.514375" style="fill: #e1812c; stroke: #3f3f3f; stroke-width: 1.25"/>
    </g>
   </g>
   <g id="FillBetweenPolyCollection_7">
    <defs>
     <path id="m39fb95d334" d="M 472.938763 -283.158674 
L 472.605275 -283.158674 
L 472.592097 -283.204873 
L 472.578839 -283.251026 
L 472.565589 -283.297135 
L 472.55243 -283.3432 
L 472.53944 -283.38922 
L 472.526692 -283.435195 
L 472.514248 -283.481127 
L 472.502166 -283.527014 
L 472.490491 -283.572857 
L 472.479262 -283.618656 
L 472.468506 -283.664411 
L 472.458244 -283.710122 
L 472.448488 -283.755789 
L 472.439241 -283.801413 
L 472.4305 -283.846993 
L 472.422251 -283.892529 
L 472.414475 -283.938022 
L 472.407143 -283.983472 
L 472.400215 -284.028878 
L 472.393642 -284.074241 
L 472.387365 -284.119561 
L 472.381309 -284.164838 
L 472.375391 -284.210072 
L 472.369513 -284.255263 
L 472.363564 -284.300411 
L 472.357426 -284.345516 
L 472.350968 -284.390579 
L 472.344055 -284.435599 
L 472.336551 -284.480577 
L 472.328319 -284.525513 
L 472.319232 -284.570406 
L 472.309174 -284.615256 
L 472.298048 -284.660065 
L 472.285782 -284.704832 
L 472.272332 -284.749556 
L 472.257692 -284.794239 
L 472.241892 -284.83888 
L 472.225006 -284.883479 
L 472.207153 -284.928036 
L 472.188494 -284.972552 
L 472.169237 -285.017026 
L 472.149628 -285.061459 
L 472.129949 -285.10585 
L 472.11051 -285.1502 
L 472.091644 -285.194509 
L 472.073696 -285.238777 
L 472.057012 -285.283003 
L 472.041929 -285.327189 
L 472.028768 -285.371333 
L 472.017818 -285.415437 
L 472.009331 -285.4595 
L 472.003515 -285.503523 
L 472.000524 -285.547504 
L 472.000461 -285.591446 
L 472.003369 -285.635346 
L 472.009237 -285.679207 
L 472.018 -285.723027 
L 472.029547 -285.766806 
L 472.043721 -285.810546 
L 472.060335 -285.854245 
L 472.079169 -285.897905 
L 472.099986 -285.941524 
L 472.122537 -285.985104 
L 472.146565 -286.028644 
L 472.171811 -286.072144 
L 472.198023 -286.115604 
L 472.224951 -286.159025 
L 472.252357 -286.202406 
L 472.28001 -286.245748 
L 472.30769 -286.289051 
L 472.335189 -286.332314 
L 472.362307 -286.375538 
L 472.388856 -286.418722 
L 472.414658 -286.461868 
L 472.439549 -286.504975 
L 472.463377 -286.548042 
L 472.486006 -286.591071 
L 472.50732 -286.634061 
L 472.527222 -286.677013 
L 472.545638 -286.719925 
L 472.562519 -286.762799 
L 472.577842 -286.805635 
L 472.591614 -286.848432 
L 472.603867 -286.89119 
L 472.61466 -286.933911 
L 472.62408 -286.976593 
L 472.632233 -287.019237 
L 472.639245 -287.061842 
L 472.645258 -287.10441 
L 472.650423 -287.14694 
L 472.654896 -287.189432 
L 472.658833 -287.231885 
L 472.662385 -287.274302 
L 472.665695 -287.31668 
L 472.66889 -287.359021 
L 472.672082 -287.401324 
L 472.675363 -287.44359 
L 472.678806 -287.485818 
L 472.68246 -287.528009 
L 472.863458 -287.528009 
L 472.863458 -287.528009 
L 472.867048 -287.485818 
L 472.870428 -287.44359 
L 472.873647 -287.401324 
L 472.876777 -287.359021 
L 472.879908 -287.31668 
L 472.88315 -287.274302 
L 472.886626 -287.231885 
L 472.890477 -287.189432 
L 472.894848 -287.14694 
L 472.899891 -287.10441 
L 472.905755 -287.061842 
L 472.912586 -287.019237 
L 472.920517 -286.976593 
L 472.929664 -286.933911 
L 472.940126 -286.89119 
L 472.951976 -286.848432 
L 472.965263 -286.805635 
L 472.980006 -286.762799 
L 472.996199 -286.719925 
L 473.013806 -286.677013 
L 473.032765 -286.634061 
L 473.052992 -286.591071 
L 473.074379 -286.548042 
L 473.096801 -286.504975 
L 473.120117 -286.461868 
L 473.144174 -286.418722 
L 473.168808 -286.375538 
L 473.193845 -286.332314 
L 473.219107 -286.289051 
L 473.244407 -286.245748 
L 473.269554 -286.202406 
L 473.29435 -286.159025 
L 473.318595 -286.115604 
L 473.34208 -286.072144 
L 473.364595 -286.028644 
L 473.385928 -285.985104 
L 473.405865 -285.941524 
L 473.424198 -285.897905 
L 473.440725 -285.854245 
L 473.455257 -285.810546 
L 473.467622 -285.766806 
L 473.477671 -285.723027 
L 473.485284 -285.679207 
L 473.490374 -285.635346 
L 473.492895 -285.591446 
L 473.49284 -285.547504 
L 473.490248 -285.503523 
L 473.485202 -285.4595 
L 473.47783 -285.415437 
L 473.4683 -285.371333 
L 473.456822 -285.327189 
L 473.443635 -285.283003 
L 473.429006 -285.238777 
L 473.41322 -285.194509 
L 473.396571 -285.1502 
L 473.379357 -285.10585 
L 473.361868 -285.061459 
L 473.34438 -285.017026 
L 473.327145 -284.972552 
L 473.310388 -284.928036 
L 473.294301 -284.883479 
L 473.279037 -284.83888 
L 473.264712 -284.794239 
L 473.251401 -284.749556 
L 473.239142 -284.704832 
L 473.227935 -284.660065 
L 473.217747 -284.615256 
L 473.20852 -284.570406 
L 473.200169 -284.525513 
L 473.192591 -284.480577 
L 473.185673 -284.435599 
L 473.179293 -284.390579 
L 473.173324 -284.345516 
L 473.167644 -284.300411 
L 473.162134 -284.255263 
L 473.156683 -284.210072 
L 473.151189 -284.164838 
L 473.145561 -284.119561 
L 473.13972 -284.074241 
L 473.133598 -284.028878 
L 473.127136 -283.983472 
L 473.120288 -283.938022 
L 473.113016 -283.892529 
L 473.10529 -283.846993 
L 473.09709 -283.801413 
L 473.088401 -283.755789 
L 473.079217 -283.710122 
L 473.069539 -283.664411 
L 473.059375 -283.618656 
L 473.048742 -283.572857 
L 473.037664 -283.527014 
L 473.026173 -283.481127 
L 473.014312 -283.435195 
L 473.002131 -283.38922 
L 472.98969 -283.3432 
L 472.977056 -283.297135 
L 472.964302 -283.251026 
L 472.95151 -283.204873 
L 472.938763 -283.158674 
z
" style="stroke: #3f3f3f; stroke-width: 1.25"/>
    </defs>
    <g clip-path="url(#pcdb9597877)">
     <use xlink:href="#m39fb95d334" x="0" y="392.514375" style="fill: #3274a1; stroke: #3f3f3f; stroke-width: 1.25"/>
    </g>
   </g>
   <g id="FillBetweenPolyCollection_8">
    <defs>
     <path id="mbd377ed76b" d="M 474.198383 -157.752651 
L 474.133483 -157.752651 
L 474.130895 -157.861128 
L 474.127927 -157.96936 
L 474.124468 -158.077346 
L 474.12039 -158.185088 
L 474.115558 -158.292587 
L 474.109826 -158.399845 
L 474.103042 -158.506861 
L 474.095058 -158.613638 
L 474.085727 -158.720176 
L 474.074912 -158.826476 
L 474.062493 -158.93254 
L 474.048365 -159.038368 
L 474.032452 -159.143962 
L 474.014703 -159.249323 
L 473.9951 -159.354451 
L 473.973661 -159.459348 
L 473.950442 -159.564014 
L 473.925536 -159.668451 
L 473.899082 -159.77266 
L 473.871257 -159.876642 
L 473.842277 -159.980397 
L 473.8124 -160.083926 
L 473.781918 -160.187232 
L 473.751154 -160.290314 
L 473.720461 -160.393173 
L 473.690212 -160.495811 
L 473.660795 -160.598229 
L 473.632609 -160.700426 
L 473.606048 -160.802406 
L 473.581501 -160.904167 
L 473.559339 -161.005712 
L 473.539905 -161.107041 
L 473.523511 -161.208154 
L 473.510423 -161.309054 
L 473.500859 -161.409741 
L 473.494983 -161.510215 
L 473.492895 -161.610478 
L 473.494634 -161.710531 
L 473.500169 -161.810374 
L 473.509406 -161.910008 
L 473.522181 -162.009435 
L 473.53827 -162.108654 
L 473.55739 -162.207668 
L 473.579204 -162.306476 
L 473.60333 -162.40508 
L 473.629352 -162.50348 
L 473.656823 -162.601677 
L 473.685285 -162.699673 
L 473.714271 -162.797468 
L 473.743323 -162.895062 
L 473.771999 -162.992457 
L 473.799886 -163.089653 
L 473.826607 -163.186651 
L 473.851834 -163.283453 
L 473.875289 -163.380058 
L 473.896752 -163.476468 
L 473.916066 -163.572683 
L 473.933137 -163.668705 
L 473.947931 -163.764533 
L 473.960476 -163.860169 
L 473.970854 -163.955614 
L 473.979198 -164.050868 
L 473.985685 -164.145932 
L 473.990525 -164.240806 
L 473.993955 -164.335492 
L 473.99623 -164.429991 
L 473.997611 -164.524302 
L 473.998358 -164.618428 
L 473.998721 -164.712367 
L 473.998932 -164.806122 
L 473.999195 -164.899693 
L 473.999687 -164.993081 
L 474.000545 -165.086286 
L 474.001872 -165.179309 
L 474.00373 -165.272151 
L 474.006143 -165.364812 
L 474.0091 -165.457294 
L 474.012558 -165.549596 
L 474.016447 -165.64172 
L 474.020676 -165.733667 
L 474.025142 -165.825436 
L 474.029734 -165.917029 
L 474.034344 -166.008447 
L 474.038869 -166.099689 
L 474.043221 -166.190757 
L 474.047332 -166.281651 
L 474.051153 -166.372373 
L 474.054661 -166.462922 
L 474.057856 -166.553299 
L 474.060763 -166.643505 
L 474.063426 -166.733541 
L 474.065907 -166.823407 
L 474.068279 -166.913104 
L 474.070623 -167.002633 
L 474.07302 -167.091994 
L 474.075547 -167.181187 
L 474.078272 -167.270214 
L 474.081249 -167.359075 
L 474.084515 -167.44777 
L 474.24682 -167.44777 
L 474.24682 -167.44777 
L 474.250035 -167.359075 
L 474.252963 -167.270214 
L 474.255642 -167.181187 
L 474.258126 -167.091994 
L 474.26048 -167.002633 
L 474.262781 -166.913104 
L 474.265109 -166.823407 
L 474.267542 -166.733541 
L 474.270153 -166.643505 
L 474.273001 -166.553299 
L 474.27613 -166.462922 
L 474.279563 -166.372373 
L 474.2833 -166.281651 
L 474.287317 -166.190757 
L 474.291567 -166.099689 
L 474.295982 -166.008447 
L 474.300476 -165.917029 
L 474.304948 -165.825436 
L 474.309294 -165.733667 
L 474.313406 -165.64172 
L 474.317185 -165.549596 
L 474.320542 -165.457294 
L 474.323411 -165.364812 
L 474.325752 -165.272151 
L 474.327553 -165.179309 
L 474.328838 -165.086286 
L 474.32967 -164.993081 
L 474.330146 -164.899693 
L 474.330401 -164.806122 
L 474.330605 -164.712367 
L 474.330957 -164.618428 
L 474.331681 -164.524302 
L 474.333018 -164.429991 
L 474.33522 -164.335492 
L 474.338539 -164.240806 
L 474.343218 -164.145932 
L 474.349482 -164.050868 
L 474.357529 -163.955614 
L 474.36752 -163.860169 
L 474.37957 -163.764533 
L 474.393744 -163.668705 
L 474.410051 -163.572683 
L 474.428439 -163.476468 
L 474.448795 -163.380058 
L 474.470946 -163.283453 
L 474.494663 -163.186651 
L 474.519665 -163.089653 
L 474.545625 -162.992457 
L 474.57218 -162.895062 
L 474.598941 -162.797468 
L 474.625499 -162.699673 
L 474.651439 -162.601677 
L 474.676349 -162.50348 
L 474.699829 -162.40508 
L 474.7215 -162.306476 
L 474.741012 -162.207668 
L 474.758051 -162.108654 
L 474.772344 -162.009435 
L 474.783663 -161.910008 
L 474.79183 -161.810374 
L 474.796718 -161.710531 
L 474.798252 -161.610478 
L 474.79641 -161.510215 
L 474.79122 -161.409741 
L 474.782763 -161.309054 
L 474.771164 -161.208154 
L 474.756596 -161.107041 
L 474.739272 -161.005712 
L 474.71944 -160.904167 
L 474.697382 -160.802406 
L 474.673402 -160.700426 
L 474.647827 -160.598229 
L 474.620995 -160.495811 
L 474.593251 -160.393173 
L 474.564942 -160.290314 
L 474.536406 -160.187232 
L 474.507971 -160.083926 
L 474.479944 -159.980397 
L 474.452609 -159.876642 
L 474.426224 -159.77266 
L 474.401011 -159.668451 
L 474.377161 -159.564014 
L 474.354823 -159.459348 
L 474.334111 -159.354451 
L 474.3151 -159.249323 
L 474.297826 -159.143962 
L 474.28229 -159.038368 
L 474.268457 -158.93254 
L 474.256266 -158.826476 
L 474.245627 -158.720176 
L 474.23643 -158.613638 
L 474.228547 -158.506861 
L 474.22184 -158.399845 
L 474.216166 -158.292587 
L 474.211378 -158.185088 
L 474.207335 -158.077346 
L 474.203901 -157.96936 
L 474.200954 -157.861128 
L 474.198383 -157.752651 
z
" style="stroke: #3f3f3f; stroke-width: 1.25"/>
    </defs>
    <g clip-path="url(#pcdb9597877)">
     <use xlink:href="#mbd377ed76b" x="0" y="392.514375" style="fill: #e1812c; stroke: #3f3f3f; stroke-width: 1.25"/>
    </g>
   </g>
   <g id="FillBetweenPolyCollection_9">
    <defs>
     <path id="m2017b20f7a" d="M 476.00414 -353.081277 
L 475.912161 -353.081277 
L 475.907753 -353.101851 
L 475.903154 -353.122417 
L 475.898262 -353.142974 
L 475.892938 -353.163521 
L 475.88701 -353.18406 
L 475.880283 -353.204591 
L 475.872546 -353.225112 
L 475.863588 -353.245624 
L 475.853211 -353.266128 
L 475.841247 -353.286623 
L 475.827575 -353.307109 
L 475.812133 -353.327586 
L 475.794929 -353.348055 
L 475.776045 -353.368514 
L 475.755641 -353.388965 
L 475.733943 -353.409407 
L 475.711232 -353.42984 
L 475.687832 -353.450265 
L 475.664084 -353.470681 
L 475.640328 -353.491088 
L 475.616886 -353.511486 
L 475.594046 -353.531876 
L 475.572049 -353.552257 
L 475.551089 -353.572629 
L 475.531313 -353.592993 
L 475.512824 -353.613347 
L 475.495689 -353.633694 
L 475.479945 -353.654031 
L 475.465606 -353.67436 
L 475.45267 -353.69468 
L 475.441115 -353.714991 
L 475.43091 -353.735294 
L 475.422011 -353.755588 
L 475.414371 -353.775874 
L 475.407946 -353.796151 
L 475.402709 -353.816419 
L 475.398662 -353.836678 
L 475.395848 -353.856929 
L 475.394372 -353.877172 
L 475.394397 -353.897406 
L 475.396152 -353.917631 
L 475.399921 -353.937848 
L 475.406021 -353.958056 
L 475.414776 -353.978255 
L 475.426484 -353.998446 
L 475.441373 -354.018629 
L 475.459575 -354.038803 
L 475.481089 -354.058968 
L 475.505767 -354.079125 
L 475.533304 -354.099273 
L 475.563254 -354.119413 
L 475.595048 -354.139544 
L 475.628029 -354.159667 
L 475.661495 -354.179781 
L 475.69474 -354.199887 
L 475.727099 -354.219984 
L 475.757983 -354.240073 
L 475.786902 -354.260154 
L 475.813489 -354.280226 
L 475.837499 -354.300289 
L 475.858809 -354.320344 
L 475.877407 -354.340391 
L 475.893372 -354.360429 
L 475.906859 -354.380459 
L 475.918072 -354.40048 
L 475.927253 -354.420493 
L 475.934653 -354.440498 
L 475.940528 -354.460494 
L 475.945122 -354.480481 
L 475.948658 -354.500461 
L 475.951338 -354.520432 
L 475.953336 -354.540395 
L 475.954798 -354.560349 
L 475.955847 -354.580295 
L 475.956577 -354.600232 
L 475.957065 -354.620162 
L 475.957363 -354.640083 
L 475.957511 -354.659995 
L 475.95753 -354.6799 
L 475.957431 -354.699796 
L 475.957213 -354.719683 
L 475.956866 -354.739563 
L 475.956376 -354.759434 
L 475.955723 -354.779297 
L 475.954887 -354.799151 
L 475.95385 -354.818997 
L 475.952601 -354.838835 
L 475.951137 -354.858665 
L 475.949471 -354.878487 
L 475.947627 -354.8983 
L 475.945652 -354.918105 
L 475.943606 -354.937902 
L 475.941565 -354.957691 
L 475.939617 -354.977471 
L 475.937856 -354.997243 
L 475.936371 -355.017007 
L 475.935245 -355.036763 
L 475.934542 -355.056511 
L 475.934302 -355.07625 
L 475.982147 -355.07625 
L 475.982147 -355.07625 
L 475.981909 -355.056511 
L 475.981209 -355.036763 
L 475.980087 -355.017007 
L 475.978609 -354.997243 
L 475.976854 -354.977471 
L 475.974913 -354.957691 
L 475.972878 -354.937902 
L 475.970837 -354.918105 
L 475.968866 -354.8983 
L 475.967026 -354.878487 
L 475.965362 -354.858665 
L 475.9639 -354.838835 
L 475.962653 -354.818997 
L 475.961617 -354.799151 
L 475.960781 -354.779297 
L 475.960128 -354.759434 
L 475.959638 -354.739563 
L 475.959291 -354.719683 
L 475.959073 -354.699796 
L 475.958974 -354.6799 
L 475.958993 -354.659995 
L 475.959141 -354.640083 
L 475.959439 -354.620162 
L 475.959927 -354.600232 
L 475.960657 -354.580295 
L 475.961705 -354.560349 
L 475.963166 -354.540395 
L 475.965161 -354.520432 
L 475.967837 -354.500461 
L 475.971366 -354.480481 
L 475.975946 -354.460494 
L 475.981798 -354.440498 
L 475.98916 -354.420493 
L 475.998278 -354.40048 
L 476.009394 -354.380459 
L 476.022731 -354.360429 
L 476.038475 -354.340391 
L 476.056755 -354.320344 
L 476.077623 -354.300289 
L 476.101033 -354.280226 
L 476.126832 -354.260154 
L 476.154748 -354.240073 
L 476.184393 -354.219984 
L 476.21527 -354.199887 
L 476.246799 -354.179781 
L 476.278339 -354.159667 
L 476.309232 -354.139544 
L 476.338834 -354.119413 
L 476.366561 -354.099273 
L 476.39192 -354.079125 
L 476.414535 -354.058968 
L 476.434169 -354.038803 
L 476.450719 -354.018629 
L 476.464217 -353.998446 
L 476.474804 -353.978255 
L 476.482707 -353.958056 
L 476.488206 -353.937848 
L 476.4916 -353.917631 
L 476.49318 -353.897406 
L 476.493203 -353.877172 
L 476.491873 -353.856929 
L 476.48934 -353.836678 
L 476.485693 -353.816419 
L 476.48097 -353.796151 
L 476.47517 -353.775874 
L 476.468264 -353.755588 
L 476.460208 -353.735294 
L 476.450953 -353.714991 
L 476.440454 -353.69468 
L 476.428673 -353.67436 
L 476.415582 -353.654031 
L 476.401168 -353.633694 
L 476.385433 -353.613347 
L 476.368399 -353.592993 
L 476.350115 -353.572629 
L 476.330663 -353.552257 
L 476.310168 -353.531876 
L 476.288798 -353.511486 
L 476.266771 -353.491088 
L 476.24435 -353.470681 
L 476.221837 -353.450265 
L 476.199556 -353.42984 
L 476.177839 -353.409407 
L 476.157002 -353.388965 
L 476.13733 -353.368514 
L 476.119057 -353.348055 
L 476.102352 -353.327586 
L 476.087312 -353.307109 
L 476.073959 -353.286623 
L 476.062246 -353.266128 
L 476.052064 -353.245624 
L 476.043259 -353.225112 
L 476.035642 -353.204591 
L 476.029011 -353.18406 
L 476.02316 -353.163521 
L 476.017899 -353.142974 
L 476.01306 -353.122417 
L 476.008508 -353.101851 
L 476.00414 -353.081277 
z
" style="stroke: #3f3f3f; stroke-width: 1.25"/>
    </defs>
    <g clip-path="url(#pcdb9597877)">
     <use xlink:href="#m2017b20f7a" x="0" y="392.514375" style="fill: #3274a1; stroke: #3f3f3f; stroke-width: 1.25"/>
    </g>
   </g>
   <g id="FillBetweenPolyCollection_10">
    <defs>
     <path id="ma31860a643" d="M 477.024875 -232.042914 
L 476.979169 -232.042914 
L 476.979318 -232.373479 
L 476.979783 -232.701767 
L 476.980539 -233.027809 
L 476.981544 -233.351637 
L 476.982746 -233.673279 
L 476.984081 -233.992765 
L 476.985479 -234.310124 
L 476.986861 -234.625384 
L 476.988145 -234.938573 
L 476.989247 -235.249717 
L 476.990081 -235.558843 
L 476.990558 -235.865977 
L 476.990586 -236.171145 
L 476.990071 -236.474371 
L 476.988913 -236.775681 
L 476.987008 -237.075097 
L 476.984246 -237.372645 
L 476.980515 -237.668347 
L 476.975698 -237.962225 
L 476.969678 -238.254303 
L 476.962345 -238.544602 
L 476.953593 -238.833143 
L 476.943335 -239.119948 
L 476.931501 -239.405038 
L 476.91805 -239.688433 
L 476.902971 -239.970153 
L 476.886292 -240.250217 
L 476.868085 -240.528645 
L 476.848467 -240.805457 
L 476.827604 -241.08067 
L 476.805713 -241.354303 
L 476.783059 -241.626375 
L 476.759953 -241.896902 
L 476.736749 -242.165902 
L 476.713831 -242.433393 
L 476.691609 -242.699391 
L 476.670502 -242.963912 
L 476.650926 -243.226974 
L 476.633274 -243.488592 
L 476.6179 -243.748782 
L 476.605099 -244.007559 
L 476.595091 -244.264939 
L 476.588005 -244.520936 
L 476.583864 -244.775566 
L 476.582583 -245.028843 
L 476.583964 -245.280781 
L 476.587697 -245.531395 
L 476.593376 -245.780698 
L 476.600508 -246.028703 
L 476.608534 -246.275425 
L 476.616855 -246.520876 
L 476.624855 -246.76507 
L 476.631931 -247.008019 
L 476.637518 -247.249736 
L 476.641118 -247.490233 
L 476.642324 -247.729523 
L 476.640846 -247.967618 
L 476.636524 -248.204529 
L 476.629347 -248.440269 
L 476.619461 -248.674848 
L 476.607166 -248.908279 
L 476.592913 -249.140572 
L 476.577289 -249.371738 
L 476.560991 -249.601789 
L 476.544798 -249.830734 
L 476.52953 -250.058586 
L 476.516008 -250.285353 
L 476.505008 -250.511046 
L 476.497218 -250.735676 
L 476.493203 -250.959252 
L 476.493366 -251.181784 
L 476.497937 -251.403283 
L 476.506957 -251.623756 
L 476.520285 -251.843215 
L 476.537611 -252.061667 
L 476.558482 -252.279123 
L 476.582332 -252.495592 
L 476.60852 -252.711082 
L 476.636366 -252.925602 
L 476.665185 -253.139161 
L 476.694323 -253.351767 
L 476.723174 -253.563429 
L 476.751211 -253.774155 
L 476.777988 -253.983954 
L 476.803154 -254.192834 
L 476.82645 -254.400802 
L 476.847708 -254.607866 
L 476.866843 -254.814035 
L 476.883847 -255.019316 
L 476.898773 -255.223717 
L 476.911726 -255.427245 
L 476.922855 -255.629908 
L 476.932334 -255.831712 
L 476.940359 -256.032666 
L 476.947131 -256.232776 
L 476.952852 -256.432049 
L 476.957712 -256.630493 
L 476.961889 -256.828114 
L 476.965538 -257.024919 
L 477.038429 -257.024919 
L 477.038429 -257.024919 
L 477.042051 -256.828114 
L 477.046194 -256.630493 
L 477.051012 -256.432049 
L 477.056676 -256.232776 
L 477.063373 -256.032666 
L 477.071297 -255.831712 
L 477.080643 -255.629908 
L 477.091593 -255.427245 
L 477.104309 -255.223717 
L 477.118923 -255.019316 
L 477.135521 -254.814035 
L 477.154136 -254.607866 
L 477.174737 -254.400802 
L 477.197218 -254.192834 
L 477.221394 -253.983954 
L 477.246992 -253.774155 
L 477.273657 -253.563429 
L 477.300952 -253.351767 
L 477.328368 -253.139161 
L 477.35534 -252.925602 
L 477.381264 -252.711082 
L 477.405523 -252.495592 
L 477.427515 -252.279123 
L 477.44668 -252.061667 
L 477.462534 -251.843215 
L 477.474696 -251.623756 
L 477.48291 -251.403283 
L 477.487067 -251.181784 
L 477.487216 -250.959252 
L 477.483564 -250.735676 
L 477.476472 -250.511046 
L 477.466441 -250.285353 
L 477.454081 -250.058586 
L 477.440089 -249.830734 
L 477.425205 -249.601789 
L 477.410181 -249.371738 
L 477.395735 -249.140572 
L 477.382521 -248.908279 
L 477.371094 -248.674848 
L 477.361887 -248.440269 
L 477.355193 -248.204529 
L 477.351157 -247.967618 
L 477.349775 -247.729523 
L 477.350902 -247.490233 
L 477.354264 -247.249736 
L 477.359477 -247.008019 
L 477.366072 -246.76507 
L 477.373518 -246.520876 
L 477.381251 -246.275425 
L 477.388698 -246.028703 
L 477.395306 -245.780698 
L 477.400562 -245.531395 
L 477.404015 -245.280781 
L 477.405291 -245.028843 
L 477.404107 -244.775566 
L 477.400278 -244.520936 
L 477.393718 -244.264939 
L 477.384439 -244.007559 
L 477.372546 -243.748782 
L 477.358225 -243.488592 
L 477.341731 -243.226974 
L 477.323376 -242.963912 
L 477.303512 -242.699391 
L 477.282512 -242.433393 
L 477.260764 -242.165902 
L 477.238649 -241.896902 
L 477.216532 -241.626375 
L 477.194754 -241.354303 
L 477.173621 -241.08067 
L 477.153399 -240.805457 
L 477.134311 -240.528645 
L 477.116532 -240.250217 
L 477.100191 -239.970153 
L 477.085373 -239.688433 
L 477.072119 -239.405038 
L 477.060431 -239.119948 
L 477.050277 -238.833143 
L 477.041599 -238.544602 
L 477.034316 -238.254303 
L 477.02833 -237.962225 
L 477.023535 -237.668347 
L 477.019818 -237.372645 
L 477.017065 -237.075097 
L 477.015165 -236.775681 
L 477.01401 -236.474371 
L 477.013496 -236.171145 
L 477.013524 -235.865977 
L 477.013999 -235.558843 
L 477.014831 -235.249717 
L 477.015931 -234.938573 
L 477.017212 -234.625384 
L 477.018589 -234.310124 
L 477.019982 -233.992765 
L 477.021313 -233.673279 
L 477.02251 -233.351637 
L 477.023511 -233.027809 
L 477.024264 -232.701767 
L 477.024727 -232.373479 
L 477.024875 -232.042914 
z
" style="stroke: #3f3f3f; stroke-width: 1.25"/>
    </defs>
    <g clip-path="url(#pcdb9597877)">
     <use xlink:href="#ma31860a643" x="0" y="392.514375" style="fill: #e1812c; stroke: #3f3f3f; stroke-width: 1.25"/>
    </g>
   </g>
   <g id="patch_3">
    <path d="M -23552.192993 109814.869459 
L -23552.192993 109814.869459 
L -23552.192993 109814.869459 
L -23552.192993 109814.869459 
z
" clip-path="url(#pcdb9597877)" style="fill: #3274a1; stroke: #3f3f3f; stroke-width: 1.25; stroke-linejoin: miter"/>
   </g>
   <g id="patch_4">
    <path d="M -23552.192993 109814.869459 
L -23552.192993 109814.869459 
L -23552.192993 109814.869459 
L -23552.192993 109814.869459 
z
" clip-path="url(#pcdb9597877)" style="fill: #e1812c; stroke: #3f3f3f; stroke-width: 1.25; stroke-linejoin: miter"/>
   </g>
   <g id="matplotlib.axis_1">
    <g id="xtick_1">
     <g id="line2d_1">
      <defs>
       <path id="mcff0ccaf0f" d="M 0 0 
L 0 3.5 
" style="stroke: #000000; stroke-width: 0.8"/>
      </defs>
      <g>
       <use xlink:href="#mcff0ccaf0f" x="101.821774" y="354.958125" style="stroke: #000000; stroke-width: 0.8"/>
      </g>
     </g>
     <g id="text_1">
      <!-- $\mathdefault{10^{-15}}$ -->
      <g transform="translate(87.871774 369.556562) scale(0.1 -0.1)">
       <defs>
        <path id="DejaVuSans-31" d="M 794 531 
L 1825 531 
L 1825 4091 
L 703 3866 
L 703 4441 
L 1819 4666 
L 2450 4666 
L 2450 531 
L 3481 531 
L 3481 0 
L 794 0 
L 794 531 
z
" transform="scale(0.015625)"/>
        <path id="DejaVuSans-30" d="M 2034 4250 
Q 1547 4250 1301 3770 
Q 1056 3291 1056 2328 
Q 1056 1369 1301 889 
Q 1547 409 2034 409 
Q 2525 409 2770 889 
Q 3016 1369 3016 2328 
Q 3016 3291 2770 3770 
Q 2525 4250 2034 4250 
z
M 2034 4750 
Q 2819 4750 3233 4129 
Q 3647 3509 3647 2328 
Q 3647 1150 3233 529 
Q 2819 -91 2034 -91 
Q 1250 -91 836 529 
Q 422 1150 422 2328 
Q 422 3509 836 4129 
Q 1250 4750 2034 4750 
z
" transform="scale(0.015625)"/>
        <path id="DejaVuSans-2212" d="M 678 2272 
L 4684 2272 
L 4684 1741 
L 678 1741 
L 678 2272 
z
" transform="scale(0.015625)"/>
        <path id="DejaVuSans-35" d="M 691 4666 
L 3169 4666 
L 3169 4134 
L 1269 4134 
L 1269 2991 
Q 1406 3038 1543 3061 
Q 1681 3084 1819 3084 
Q 2600 3084 3056 2656 
Q 3513 2228 3513 1497 
Q 3513 744 3044 326 
Q 2575 -91 1722 -91 
Q 1428 -91 1123 -41 
Q 819 9 494 109 
L 494 744 
Q 775 591 1075 516 
Q 1375 441 1709 441 
Q 2250 441 2565 725 
Q 2881 1009 2881 1497 
Q 2881 1984 2565 2268 
Q 2250 2553 1709 2553 
Q 1456 2553 1204 2497 
Q 953 2441 691 2322 
L 691 4666 
z
" transform="scale(0.015625)"/>
       </defs>
       <use xlink:href="#DejaVuSans-31" transform="translate(0 0.684375)"/>
       <use xlink:href="#DejaVuSans-30" transform="translate(63.623047 0.684375)"/>
       <use xlink:href="#DejaVuSans-2212" transform="translate(128.203125 38.965625) scale(0.7)"/>
       <use xlink:href="#DejaVuSans-31" transform="translate(186.855469 38.965625) scale(0.7)"/>
       <use xlink:href="#DejaVuSans-35" transform="translate(231.391602 38.965625) scale(0.7)"/>
      </g>
     </g>
    </g>
    <g id="xtick_2">
     <g id="line2d_2">
      <g>
       <use xlink:href="#mcff0ccaf0f" x="173.864458" y="354.958125" style="stroke: #000000; stroke-width: 0.8"/>
      </g>
     </g>
     <g id="text_2">
      <!-- $\mathdefault{10^{-12}}$ -->
      <g transform="translate(159.914458 369.556562) scale(0.1 -0.1)">
       <defs>
        <path id="DejaVuSans-32" d="M 1228 531 
L 3431 531 
L 3431 0 
L 469 0 
L 469 531 
Q 828 903 1448 1529 
Q 2069 2156 2228 2338 
Q 2531 2678 2651 2914 
Q 2772 3150 2772 3378 
Q 2772 3750 2511 3984 
Q 2250 4219 1831 4219 
Q 1534 4219 1204 4116 
Q 875 4013 500 3803 
L 500 4441 
Q 881 4594 1212 4672 
Q 1544 4750 1819 4750 
Q 2544 4750 2975 4387 
Q 3406 4025 3406 3419 
Q 3406 3131 3298 2873 
Q 3191 2616 2906 2266 
Q 2828 2175 2409 1742 
Q 1991 1309 1228 531 
z
" transform="scale(0.015625)"/>
       </defs>
       <use xlink:href="#DejaVuSans-31" transform="translate(0 0.765625)"/>
       <use xlink:href="#DejaVuSans-30" transform="translate(63.623047 0.765625)"/>
       <use xlink:href="#DejaVuSans-2212" transform="translate(128.203125 39.046875) scale(0.7)"/>
       <use xlink:href="#DejaVuSans-31" transform="translate(186.855469 39.046875) scale(0.7)"/>
       <use xlink:href="#DejaVuSans-32" transform="translate(231.391602 39.046875) scale(0.7)"/>
      </g>
     </g>
    </g>
    <g id="xtick_3">
     <g id="line2d_3">
      <g>
       <use xlink:href="#mcff0ccaf0f" x="245.907143" y="354.958125" style="stroke: #000000; stroke-width: 0.8"/>
      </g>
     </g>
     <g id="text_3">
      <!-- $\mathdefault{10^{-9}}$ -->
      <g transform="translate(234.157143 369.556562) scale(0.1 -0.1)">
       <defs>
        <path id="DejaVuSans-39" d="M 703 97 
L 703 672 
Q 941 559 1184 500 
Q 1428 441 1663 441 
Q 2288 441 2617 861 
Q 2947 1281 2994 2138 
Q 2813 1869 2534 1725 
Q 2256 1581 1919 1581 
Q 1219 1581 811 2004 
Q 403 2428 403 3163 
Q 403 3881 828 4315 
Q 1253 4750 1959 4750 
Q 2769 4750 3195 4129 
Q 3622 3509 3622 2328 
Q 3622 1225 3098 567 
Q 2575 -91 1691 -91 
Q 1453 -91 1209 -44 
Q 966 3 703 97 
z
M 1959 2075 
Q 2384 2075 2632 2365 
Q 2881 2656 2881 3163 
Q 2881 3666 2632 3958 
Q 2384 4250 1959 4250 
Q 1534 4250 1286 3958 
Q 1038 3666 1038 3163 
Q 1038 2656 1286 2365 
Q 1534 2075 1959 2075 
z
" transform="scale(0.015625)"/>
       </defs>
       <use xlink:href="#DejaVuSans-31" transform="translate(0 0.765625)"/>
       <use xlink:href="#DejaVuSans-30" transform="translate(63.623047 0.765625)"/>
       <use xlink:href="#DejaVuSans-2212" transform="translate(128.203125 39.046875) scale(0.7)"/>
       <use xlink:href="#DejaVuSans-39" transform="translate(186.855469 39.046875) scale(0.7)"/>
      </g>
     </g>
    </g>
    <g id="xtick_4">
     <g id="line2d_4">
      <g>
       <use xlink:href="#mcff0ccaf0f" x="317.949827" y="354.958125" style="stroke: #000000; stroke-width: 0.8"/>
      </g>
     </g>
     <g id="text_4">
      <!-- $\mathdefault{10^{-6}}$ -->
      <g transform="translate(306.199827 369.556562) scale(0.1 -0.1)">
       <defs>
        <path id="DejaVuSans-36" d="M 2113 2584 
Q 1688 2584 1439 2293 
Q 1191 2003 1191 1497 
Q 1191 994 1439 701 
Q 1688 409 2113 409 
Q 2538 409 2786 701 
Q 3034 994 3034 1497 
Q 3034 2003 2786 2293 
Q 2538 2584 2113 2584 
z
M 3366 4563 
L 3366 3988 
Q 3128 4100 2886 4159 
Q 2644 4219 2406 4219 
Q 1781 4219 1451 3797 
Q 1122 3375 1075 2522 
Q 1259 2794 1537 2939 
Q 1816 3084 2150 3084 
Q 2853 3084 3261 2657 
Q 3669 2231 3669 1497 
Q 3669 778 3244 343 
Q 2819 -91 2113 -91 
Q 1303 -91 875 529 
Q 447 1150 447 2328 
Q 447 3434 972 4092 
Q 1497 4750 2381 4750 
Q 2619 4750 2861 4703 
Q 3103 4656 3366 4563 
z
" transform="scale(0.015625)"/>
       </defs>
       <use xlink:href="#DejaVuSans-31" transform="translate(0 0.765625)"/>
       <use xlink:href="#DejaVuSans-30" transform="translate(63.623047 0.765625)"/>
       <use xlink:href="#DejaVuSans-2212" transform="translate(128.203125 39.046875) scale(0.7)"/>
       <use xlink:href="#DejaVuSans-36" transform="translate(186.855469 39.046875) scale(0.7)"/>
      </g>
     </g>
    </g>
    <g id="xtick_5">
     <g id="line2d_5">
      <g>
       <use xlink:href="#mcff0ccaf0f" x="389.992512" y="354.958125" style="stroke: #000000; stroke-width: 0.8"/>
      </g>
     </g>
     <g id="text_5">
      <!-- $\mathdefault{10^{-3}}$ -->
      <g transform="translate(378.242512 369.556562) scale(0.1 -0.1)">
       <defs>
        <path id="DejaVuSans-33" d="M 2597 2516 
Q 3050 2419 3304 2112 
Q 3559 1806 3559 1356 
Q 3559 666 3084 287 
Q 2609 -91 1734 -91 
Q 1441 -91 1130 -33 
Q 819 25 488 141 
L 488 750 
Q 750 597 1062 519 
Q 1375 441 1716 441 
Q 2309 441 2620 675 
Q 2931 909 2931 1356 
Q 2931 1769 2642 2001 
Q 2353 2234 1838 2234 
L 1294 2234 
L 1294 2753 
L 1863 2753 
Q 2328 2753 2575 2939 
Q 2822 3125 2822 3475 
Q 2822 3834 2567 4026 
Q 2313 4219 1838 4219 
Q 1578 4219 1281 4162 
Q 984 4106 628 3988 
L 628 4550 
Q 988 4650 1302 4700 
Q 1616 4750 1894 4750 
Q 2613 4750 3031 4423 
Q 3450 4097 3450 3541 
Q 3450 3153 3228 2886 
Q 3006 2619 2597 2516 
z
" transform="scale(0.015625)"/>
       </defs>
       <use xlink:href="#DejaVuSans-31" transform="translate(0 0.765625)"/>
       <use xlink:href="#DejaVuSans-30" transform="translate(63.623047 0.765625)"/>
       <use xlink:href="#DejaVuSans-2212" transform="translate(128.203125 39.046875) scale(0.7)"/>
       <use xlink:href="#DejaVuSans-33" transform="translate(186.855469 39.046875) scale(0.7)"/>
      </g>
     </g>
    </g>
    <g id="xtick_6">
     <g id="line2d_6">
      <g>
       <use xlink:href="#mcff0ccaf0f" x="462.035197" y="354.958125" style="stroke: #000000; stroke-width: 0.8"/>
      </g>
     </g>
     <g id="text_6">
      <!-- $\mathdefault{10^{0}}$ -->
      <g transform="translate(453.235197 369.556562) scale(0.1 -0.1)">
       <use xlink:href="#DejaVuSans-31" transform="translate(0 0.765625)"/>
       <use xlink:href="#DejaVuSans-30" transform="translate(63.623047 0.765625)"/>
       <use xlink:href="#DejaVuSans-30" transform="translate(128.203125 39.046875) scale(0.7)"/>
      </g>
     </g>
    </g>
    <g id="text_7">
     <!-- Dataset size (#rows) -->
     <g transform="translate(222.338281 383.234687) scale(0.1 -0.1)">
      <defs>
       <path id="DejaVuSans-44" d="M 1259 4147 
L 1259 519 
L 2022 519 
Q 2988 519 3436 956 
Q 3884 1394 3884 2338 
Q 3884 3275 3436 3711 
Q 2988 4147 2022 4147 
L 1259 4147 
z
M 628 4666 
L 1925 4666 
Q 3281 4666 3915 4102 
Q 4550 3538 4550 2338 
Q 4550 1131 3912 565 
Q 3275 0 1925 0 
L 628 0 
L 628 4666 
z
" transform="scale(0.015625)"/>
       <path id="DejaVuSans-61" d="M 2194 1759 
Q 1497 1759 1228 1600 
Q 959 1441 959 1056 
Q 959 750 1161 570 
Q 1363 391 1709 391 
Q 2188 391 2477 730 
Q 2766 1069 2766 1631 
L 2766 1759 
L 2194 1759 
z
M 3341 1997 
L 3341 0 
L 2766 0 
L 2766 531 
Q 2569 213 2275 61 
Q 1981 -91 1556 -91 
Q 1019 -91 701 211 
Q 384 513 384 1019 
Q 384 1609 779 1909 
Q 1175 2209 1959 2209 
L 2766 2209 
L 2766 2266 
Q 2766 2663 2505 2880 
Q 2244 3097 1772 3097 
Q 1472 3097 1187 3025 
Q 903 2953 641 2809 
L 641 3341 
Q 956 3463 1253 3523 
Q 1550 3584 1831 3584 
Q 2591 3584 2966 3190 
Q 3341 2797 3341 1997 
z
" transform="scale(0.015625)"/>
       <path id="DejaVuSans-74" d="M 1172 4494 
L 1172 3500 
L 2356 3500 
L 2356 3053 
L 1172 3053 
L 1172 1153 
Q 1172 725 1289 603 
Q 1406 481 1766 481 
L 2356 481 
L 2356 0 
L 1766 0 
Q 1100 0 847 248 
Q 594 497 594 1153 
L 594 3053 
L 172 3053 
L 172 3500 
L 594 3500 
L 594 4494 
L 1172 4494 
z
" transform="scale(0.015625)"/>
       <path id="DejaVuSans-73" d="M 2834 3397 
L 2834 2853 
Q 2591 2978 2328 3040 
Q 2066 3103 1784 3103 
Q 1356 3103 1142 2972 
Q 928 2841 928 2578 
Q 928 2378 1081 2264 
Q 1234 2150 1697 2047 
L 1894 2003 
Q 2506 1872 2764 1633 
Q 3022 1394 3022 966 
Q 3022 478 2636 193 
Q 2250 -91 1575 -91 
Q 1294 -91 989 -36 
Q 684 19 347 128 
L 347 722 
Q 666 556 975 473 
Q 1284 391 1588 391 
Q 1994 391 2212 530 
Q 2431 669 2431 922 
Q 2431 1156 2273 1281 
Q 2116 1406 1581 1522 
L 1381 1569 
Q 847 1681 609 1914 
Q 372 2147 372 2553 
Q 372 3047 722 3315 
Q 1072 3584 1716 3584 
Q 2034 3584 2315 3537 
Q 2597 3491 2834 3397 
z
" transform="scale(0.015625)"/>
       <path id="DejaVuSans-65" d="M 3597 1894 
L 3597 1613 
L 953 1613 
Q 991 1019 1311 708 
Q 1631 397 2203 397 
Q 2534 397 2845 478 
Q 3156 559 3463 722 
L 3463 178 
Q 3153 47 2828 -22 
Q 2503 -91 2169 -91 
Q 1331 -91 842 396 
Q 353 884 353 1716 
Q 353 2575 817 3079 
Q 1281 3584 2069 3584 
Q 2775 3584 3186 3129 
Q 3597 2675 3597 1894 
z
M 3022 2063 
Q 3016 2534 2758 2815 
Q 2500 3097 2075 3097 
Q 1594 3097 1305 2825 
Q 1016 2553 972 2059 
L 3022 2063 
z
" transform="scale(0.015625)"/>
       <path id="DejaVuSans-20" transform="scale(0.015625)"/>
       <path id="DejaVuSans-69" d="M 603 3500 
L 1178 3500 
L 1178 0 
L 603 0 
L 603 3500 
z
M 603 4863 
L 1178 4863 
L 1178 4134 
L 603 4134 
L 603 4863 
z
" transform="scale(0.015625)"/>
       <path id="DejaVuSans-7a" d="M 353 3500 
L 3084 3500 
L 3084 2975 
L 922 459 
L 3084 459 
L 3084 0 
L 275 0 
L 275 525 
L 2438 3041 
L 353 3041 
L 353 3500 
z
" transform="scale(0.015625)"/>
       <path id="DejaVuSans-28" d="M 1984 4856 
Q 1566 4138 1362 3434 
Q 1159 2731 1159 2009 
Q 1159 1288 1364 580 
Q 1569 -128 1984 -844 
L 1484 -844 
Q 1016 -109 783 600 
Q 550 1309 550 2009 
Q 550 2706 781 3412 
Q 1013 4119 1484 4856 
L 1984 4856 
z
" transform="scale(0.015625)"/>
       <path id="DejaVuSans-23" d="M 3272 2816 
L 2363 2816 
L 2100 1772 
L 3016 1772 
L 3272 2816 
z
M 2803 4594 
L 2478 3297 
L 3391 3297 
L 3719 4594 
L 4219 4594 
L 3897 3297 
L 4872 3297 
L 4872 2816 
L 3775 2816 
L 3519 1772 
L 4513 1772 
L 4513 1294 
L 3397 1294 
L 3072 0 
L 2572 0 
L 2894 1294 
L 1978 1294 
L 1656 0 
L 1153 0 
L 1478 1294 
L 494 1294 
L 494 1772 
L 1594 1772 
L 1856 2816 
L 850 2816 
L 850 3297 
L 1978 3297 
L 2297 4594 
L 2803 4594 
z
" transform="scale(0.015625)"/>
       <path id="DejaVuSans-72" d="M 2631 2963 
Q 2534 3019 2420 3045 
Q 2306 3072 2169 3072 
Q 1681 3072 1420 2755 
Q 1159 2438 1159 1844 
L 1159 0 
L 581 0 
L 581 3500 
L 1159 3500 
L 1159 2956 
Q 1341 3275 1631 3429 
Q 1922 3584 2338 3584 
Q 2397 3584 2469 3576 
Q 2541 3569 2628 3553 
L 2631 2963 
z
" transform="scale(0.015625)"/>
       <path id="DejaVuSans-6f" d="M 1959 3097 
Q 1497 3097 1228 2736 
Q 959 2375 959 1747 
Q 959 1119 1226 758 
Q 1494 397 1959 397 
Q 2419 397 2687 759 
Q 2956 1122 2956 1747 
Q 2956 2369 2687 2733 
Q 2419 3097 1959 3097 
z
M 1959 3584 
Q 2709 3584 3137 3096 
Q 3566 2609 3566 1747 
Q 3566 888 3137 398 
Q 2709 -91 1959 -91 
Q 1206 -91 779 398 
Q 353 888 353 1747 
Q 353 2609 779 3096 
Q 1206 3584 1959 3584 
z
" transform="scale(0.015625)"/>
       <path id="DejaVuSans-77" d="M 269 3500 
L 844 3500 
L 1563 769 
L 2278 3500 
L 2956 3500 
L 3675 769 
L 4391 3500 
L 4966 3500 
L 4050 0 
L 3372 0 
L 2619 2869 
L 1863 0 
L 1184 0 
L 269 3500 
z
" transform="scale(0.015625)"/>
       <path id="DejaVuSans-29" d="M 513 4856 
L 1013 4856 
Q 1481 4119 1714 3412 
Q 1947 2706 1947 2009 
Q 1947 1309 1714 600 
Q 1481 -109 1013 -844 
L 513 -844 
Q 928 -128 1133 580 
Q 1338 1288 1338 2009 
Q 1338 2731 1133 3434 
Q 928 4138 513 4856 
z
" transform="scale(0.015625)"/>
      </defs>
      <use xlink:href="#DejaVuSans-44"/>
      <use xlink:href="#DejaVuSans-61" transform="translate(77.001953 0)"/>
      <use xlink:href="#DejaVuSans-74" transform="translate(138.28125 0)"/>
      <use xlink:href="#DejaVuSans-61" transform="translate(177.490234 0)"/>
      <use xlink:href="#DejaVuSans-73" transform="translate(238.769531 0)"/>
      <use xlink:href="#DejaVuSans-65" transform="translate(290.869141 0)"/>
      <use xlink:href="#DejaVuSans-74" transform="translate(352.392578 0)"/>
      <use xlink:href="#DejaVuSans-20" transform="translate(391.601562 0)"/>
      <use xlink:href="#DejaVuSans-73" transform="translate(423.388672 0)"/>
      <use xlink:href="#DejaVuSans-69" transform="translate(475.488281 0)"/>
      <use xlink:href="#DejaVuSans-7a" transform="translate(503.271484 0)"/>
      <use xlink:href="#DejaVuSans-65" transform="translate(555.761719 0)"/>
      <use xlink:href="#DejaVuSans-20" transform="translate(617.285156 0)"/>
      <use xlink:href="#DejaVuSans-28" transform="translate(649.072266 0)"/>
      <use xlink:href="#DejaVuSans-23" transform="translate(688.085938 0)"/>
      <use xlink:href="#DejaVuSans-72" transform="translate(771.875 0)"/>
      <use xlink:href="#DejaVuSans-6f" transform="translate(810.738281 0)"/>
      <use xlink:href="#DejaVuSans-77" transform="translate(871.919922 0)"/>
      <use xlink:href="#DejaVuSans-73" transform="translate(953.707031 0)"/>
      <use xlink:href="#DejaVuSans-29" transform="translate(1005.806641 0)"/>
     </g>
    </g>
   </g>
   <g id="matplotlib.axis_2">
    <g id="ytick_1">
     <g id="line2d_7">
      <defs>
       <path id="mcaf7424d07" d="M 0 0 
L -3.5 0 
" style="stroke: #000000; stroke-width: 0.8"/>
      </defs>
      <g>
       <use xlink:href="#mcaf7424d07" x="51.378125" y="283.001664" style="stroke: #000000; stroke-width: 0.8"/>
      </g>
     </g>
     <g id="text_8">
      <!-- $\mathdefault{10^{-2}}$ -->
      <g transform="translate(20.878125 286.800882) scale(0.1 -0.1)">
       <use xlink:href="#DejaVuSans-31" transform="translate(0 0.765625)"/>
       <use xlink:href="#DejaVuSans-30" transform="translate(63.623047 0.765625)"/>
       <use xlink:href="#DejaVuSans-2212" transform="translate(128.203125 39.046875) scale(0.7)"/>
       <use xlink:href="#DejaVuSans-32" transform="translate(186.855469 39.046875) scale(0.7)"/>
      </g>
     </g>
    </g>
    <g id="ytick_2">
     <g id="line2d_8">
      <g>
       <use xlink:href="#mcaf7424d07" x="51.378125" y="173.250293" style="stroke: #000000; stroke-width: 0.8"/>
      </g>
     </g>
     <g id="text_9">
      <!-- $\mathdefault{10^{-1}}$ -->
      <g transform="translate(20.878125 177.049512) scale(0.1 -0.1)">
       <use xlink:href="#DejaVuSans-31" transform="translate(0 0.684375)"/>
       <use xlink:href="#DejaVuSans-30" transform="translate(63.623047 0.684375)"/>
       <use xlink:href="#DejaVuSans-2212" transform="translate(128.203125 38.965625) scale(0.7)"/>
       <use xlink:href="#DejaVuSans-31" transform="translate(186.855469 38.965625) scale(0.7)"/>
      </g>
     </g>
    </g>
    <g id="ytick_3">
     <g id="line2d_9">
      <g>
       <use xlink:href="#mcaf7424d07" x="51.378125" y="63.498923" style="stroke: #000000; stroke-width: 0.8"/>
      </g>
     </g>
     <g id="text_10">
      <!-- $\mathdefault{10^{0}}$ -->
      <g transform="translate(26.778125 67.298141) scale(0.1 -0.1)">
       <use xlink:href="#DejaVuSans-31" transform="translate(0 0.765625)"/>
       <use xlink:href="#DejaVuSans-30" transform="translate(63.623047 0.765625)"/>
       <use xlink:href="#DejaVuSans-30" transform="translate(128.203125 39.046875) scale(0.7)"/>
      </g>
     </g>
    </g>
    <g id="ytick_4">
     <g id="line2d_10">
      <defs>
       <path id="m35bb0b06bb" d="M 0 0 
L -2 0 
" style="stroke: #000000; stroke-width: 0.6"/>
      </defs>
      <g>
       <use xlink:href="#m35bb0b06bb" x="51.378125" y="340.388323" style="stroke: #000000; stroke-width: 0.6"/>
      </g>
     </g>
    </g>
    <g id="ytick_5">
     <g id="line2d_11">
      <g>
       <use xlink:href="#m35bb0b06bb" x="51.378125" y="326.676125" style="stroke: #000000; stroke-width: 0.6"/>
      </g>
     </g>
    </g>
    <g id="ytick_6">
     <g id="line2d_12">
      <g>
       <use xlink:href="#m35bb0b06bb" x="51.378125" y="316.040118" style="stroke: #000000; stroke-width: 0.6"/>
      </g>
     </g>
    </g>
    <g id="ytick_7">
     <g id="line2d_13">
      <g>
       <use xlink:href="#m35bb0b06bb" x="51.378125" y="307.349868" style="stroke: #000000; stroke-width: 0.6"/>
      </g>
     </g>
    </g>
    <g id="ytick_8">
     <g id="line2d_14">
      <g>
       <use xlink:href="#m35bb0b06bb" x="51.378125" y="300.002366" style="stroke: #000000; stroke-width: 0.6"/>
      </g>
     </g>
    </g>
    <g id="ytick_9">
     <g id="line2d_15">
      <g>
       <use xlink:href="#m35bb0b06bb" x="51.378125" y="293.63767" style="stroke: #000000; stroke-width: 0.6"/>
      </g>
     </g>
    </g>
    <g id="ytick_10">
     <g id="line2d_16">
      <g>
       <use xlink:href="#m35bb0b06bb" x="51.378125" y="288.023611" style="stroke: #000000; stroke-width: 0.6"/>
      </g>
     </g>
    </g>
    <g id="ytick_11">
     <g id="line2d_17">
      <g>
       <use xlink:href="#m35bb0b06bb" x="51.378125" y="249.963209" style="stroke: #000000; stroke-width: 0.6"/>
      </g>
     </g>
    </g>
    <g id="ytick_12">
     <g id="line2d_18">
      <g>
       <use xlink:href="#m35bb0b06bb" x="51.378125" y="230.636952" style="stroke: #000000; stroke-width: 0.6"/>
      </g>
     </g>
    </g>
    <g id="ytick_13">
     <g id="line2d_19">
      <g>
       <use xlink:href="#m35bb0b06bb" x="51.378125" y="216.924754" style="stroke: #000000; stroke-width: 0.6"/>
      </g>
     </g>
    </g>
    <g id="ytick_14">
     <g id="line2d_20">
      <g>
       <use xlink:href="#m35bb0b06bb" x="51.378125" y="206.288748" style="stroke: #000000; stroke-width: 0.6"/>
      </g>
     </g>
    </g>
    <g id="ytick_15">
     <g id="line2d_21">
      <g>
       <use xlink:href="#m35bb0b06bb" x="51.378125" y="197.598497" style="stroke: #000000; stroke-width: 0.6"/>
      </g>
     </g>
    </g>
    <g id="ytick_16">
     <g id="line2d_22">
      <g>
       <use xlink:href="#m35bb0b06bb" x="51.378125" y="190.250996" style="stroke: #000000; stroke-width: 0.6"/>
      </g>
     </g>
    </g>
    <g id="ytick_17">
     <g id="line2d_23">
      <g>
       <use xlink:href="#m35bb0b06bb" x="51.378125" y="183.8863" style="stroke: #000000; stroke-width: 0.6"/>
      </g>
     </g>
    </g>
    <g id="ytick_18">
     <g id="line2d_24">
      <g>
       <use xlink:href="#m35bb0b06bb" x="51.378125" y="178.27224" style="stroke: #000000; stroke-width: 0.6"/>
      </g>
     </g>
    </g>
    <g id="ytick_19">
     <g id="line2d_25">
      <g>
       <use xlink:href="#m35bb0b06bb" x="51.378125" y="140.211839" style="stroke: #000000; stroke-width: 0.6"/>
      </g>
     </g>
    </g>
    <g id="ytick_20">
     <g id="line2d_26">
      <g>
       <use xlink:href="#m35bb0b06bb" x="51.378125" y="120.885582" style="stroke: #000000; stroke-width: 0.6"/>
      </g>
     </g>
    </g>
    <g id="ytick_21">
     <g id="line2d_27">
      <g>
       <use xlink:href="#m35bb0b06bb" x="51.378125" y="107.173384" style="stroke: #000000; stroke-width: 0.6"/>
      </g>
     </g>
    </g>
    <g id="ytick_22">
     <g id="line2d_28">
      <g>
       <use xlink:href="#m35bb0b06bb" x="51.378125" y="96.537377" style="stroke: #000000; stroke-width: 0.6"/>
      </g>
     </g>
    </g>
    <g id="ytick_23">
     <g id="line2d_29">
      <g>
       <use xlink:href="#m35bb0b06bb" x="51.378125" y="87.847127" style="stroke: #000000; stroke-width: 0.6"/>
      </g>
     </g>
    </g>
    <g id="ytick_24">
     <g id="line2d_30">
      <g>
       <use xlink:href="#m35bb0b06bb" x="51.378125" y="80.499625" style="stroke: #000000; stroke-width: 0.6"/>
      </g>
     </g>
    </g>
    <g id="ytick_25">
     <g id="line2d_31">
      <g>
       <use xlink:href="#m35bb0b06bb" x="51.378125" y="74.134929" style="stroke: #000000; stroke-width: 0.6"/>
      </g>
     </g>
    </g>
    <g id="ytick_26">
     <g id="line2d_32">
      <g>
       <use xlink:href="#m35bb0b06bb" x="51.378125" y="68.52087" style="stroke: #000000; stroke-width: 0.6"/>
      </g>
     </g>
    </g>
    <g id="ytick_27">
     <g id="line2d_33">
      <g>
       <use xlink:href="#m35bb0b06bb" x="51.378125" y="30.460468" style="stroke: #000000; stroke-width: 0.6"/>
      </g>
     </g>
    </g>
    <g id="text_11">
     <!-- Query time (s) -->
     <g transform="translate(14.798437 224.814687) rotate(-90) scale(0.1 -0.1)">
      <defs>
       <path id="DejaVuSans-51" d="M 2522 4238 
Q 1834 4238 1429 3725 
Q 1025 3213 1025 2328 
Q 1025 1447 1429 934 
Q 1834 422 2522 422 
Q 3209 422 3611 934 
Q 4013 1447 4013 2328 
Q 4013 3213 3611 3725 
Q 3209 4238 2522 4238 
z
M 3406 84 
L 4238 -825 
L 3475 -825 
L 2784 -78 
Q 2681 -84 2626 -87 
Q 2572 -91 2522 -91 
Q 1538 -91 948 567 
Q 359 1225 359 2328 
Q 359 3434 948 4092 
Q 1538 4750 2522 4750 
Q 3503 4750 4090 4092 
Q 4678 3434 4678 2328 
Q 4678 1516 4351 937 
Q 4025 359 3406 84 
z
" transform="scale(0.015625)"/>
       <path id="DejaVuSans-75" d="M 544 1381 
L 544 3500 
L 1119 3500 
L 1119 1403 
Q 1119 906 1312 657 
Q 1506 409 1894 409 
Q 2359 409 2629 706 
Q 2900 1003 2900 1516 
L 2900 3500 
L 3475 3500 
L 3475 0 
L 2900 0 
L 2900 538 
Q 2691 219 2414 64 
Q 2138 -91 1772 -91 
Q 1169 -91 856 284 
Q 544 659 544 1381 
z
M 1991 3584 
L 1991 3584 
z
" transform="scale(0.015625)"/>
       <path id="DejaVuSans-79" d="M 2059 -325 
Q 1816 -950 1584 -1140 
Q 1353 -1331 966 -1331 
L 506 -1331 
L 506 -850 
L 844 -850 
Q 1081 -850 1212 -737 
Q 1344 -625 1503 -206 
L 1606 56 
L 191 3500 
L 800 3500 
L 1894 763 
L 2988 3500 
L 3597 3500 
L 2059 -325 
z
" transform="scale(0.015625)"/>
       <path id="DejaVuSans-6d" d="M 3328 2828 
Q 3544 3216 3844 3400 
Q 4144 3584 4550 3584 
Q 5097 3584 5394 3201 
Q 5691 2819 5691 2113 
L 5691 0 
L 5113 0 
L 5113 2094 
Q 5113 2597 4934 2840 
Q 4756 3084 4391 3084 
Q 3944 3084 3684 2787 
Q 3425 2491 3425 1978 
L 3425 0 
L 2847 0 
L 2847 2094 
Q 2847 2600 2669 2842 
Q 2491 3084 2119 3084 
Q 1678 3084 1418 2786 
Q 1159 2488 1159 1978 
L 1159 0 
L 581 0 
L 581 3500 
L 1159 3500 
L 1159 2956 
Q 1356 3278 1631 3431 
Q 1906 3584 2284 3584 
Q 2666 3584 2933 3390 
Q 3200 3197 3328 2828 
z
" transform="scale(0.015625)"/>
      </defs>
      <use xlink:href="#DejaVuSans-51"/>
      <use xlink:href="#DejaVuSans-75" transform="translate(78.710938 0)"/>
      <use xlink:href="#DejaVuSans-65" transform="translate(142.089844 0)"/>
      <use xlink:href="#DejaVuSans-72" transform="translate(203.613281 0)"/>
      <use xlink:href="#DejaVuSans-79" transform="translate(244.726562 0)"/>
      <use xlink:href="#DejaVuSans-20" transform="translate(303.90625 0)"/>
      <use xlink:href="#DejaVuSans-74" transform="translate(335.693359 0)"/>
      <use xlink:href="#DejaVuSans-69" transform="translate(374.902344 0)"/>
      <use xlink:href="#DejaVuSans-6d" transform="translate(402.685547 0)"/>
      <use xlink:href="#DejaVuSans-65" transform="translate(500.097656 0)"/>
      <use xlink:href="#DejaVuSans-20" transform="translate(561.621094 0)"/>
      <use xlink:href="#DejaVuSans-28" transform="translate(593.408203 0)"/>
      <use xlink:href="#DejaVuSans-73" transform="translate(632.421875 0)"/>
      <use xlink:href="#DejaVuSans-29" transform="translate(684.521484 0)"/>
     </g>
    </g>
   </g>
   <g id="line2d_34">
    <path clip-path="url(#pcdb9597877)" style="fill: none; stroke-dasharray: 1.5625,0.9375; stroke-dashoffset: 0; stroke: #3f3f3f; stroke-width: 1.25"/>
   </g>
   <g id="line2d_35">
    <path clip-path="url(#pcdb9597877)" style="fill: none; stroke-dasharray: 3.125,1.25; stroke-dashoffset: 0; stroke: #3f3f3f; stroke-width: 1.25"/>
   </g>
   <g id="line2d_36">
    <path clip-path="url(#pcdb9597877)" style="fill: none; stroke-dasharray: 1.5625,0.9375; stroke-dashoffset: 0; stroke: #3f3f3f; stroke-width: 1.25"/>
   </g>
   <g id="line2d_37">
    <path d="M 422.52647 335.389439 
L 451.871456 335.389439 
" clip-path="url(#pcdb9597877)" style="fill: none; stroke-dasharray: 1.5625,0.9375; stroke-dashoffset: 0; stroke: #3f3f3f; stroke-width: 1.25"/>
   </g>
   <g id="line2d_38">
    <path d="M 392.346392 332.542005 
L 452.446248 332.542005 
" clip-path="url(#pcdb9597877)" style="fill: none; stroke-dasharray: 3.125,1.25; stroke-dashoffset: 0; stroke: #3f3f3f; stroke-width: 1.25"/>
   </g>
   <g id="line2d_39">
    <path d="M 427.497394 329.902984 
L 451.482291 329.902984 
" clip-path="url(#pcdb9597877)" style="fill: none; stroke-dasharray: 1.5625,0.9375; stroke-dashoffset: 0; stroke: #3f3f3f; stroke-width: 1.25"/>
   </g>
   <g id="line2d_40">
    <path d="M 456.74454 248.519516 
L 462.013012 248.519516 
" clip-path="url(#pcdb9597877)" style="fill: none; stroke-dasharray: 1.5625,0.9375; stroke-dashoffset: 0; stroke: #3f3f3f; stroke-width: 1.25"/>
   </g>
   <g id="line2d_41">
    <path d="M 457.005532 247.864057 
L 461.852308 247.864057 
" clip-path="url(#pcdb9597877)" style="fill: none; stroke-dasharray: 3.125,1.25; stroke-dashoffset: 0; stroke: #3f3f3f; stroke-width: 1.25"/>
   </g>
   <g id="line2d_42">
    <path d="M 457.656847 246.972984 
L 461.421249 246.972984 
" clip-path="url(#pcdb9597877)" style="fill: none; stroke-dasharray: 1.5625,0.9375; stroke-dashoffset: 0; stroke: #3f3f3f; stroke-width: 1.25"/>
   </g>
   <g id="line2d_43">
    <path d="M 462.133787 332.257694 
L 465.473352 332.257694 
" clip-path="url(#pcdb9597877)" style="fill: none; stroke-dasharray: 1.5625,0.9375; stroke-dashoffset: 0; stroke: #3f3f3f; stroke-width: 1.25"/>
   </g>
   <g id="line2d_44">
    <path d="M 462.13467 330.690742 
L 465.472711 330.690742 
" clip-path="url(#pcdb9597877)" style="fill: none; stroke-dasharray: 3.125,1.25; stroke-dashoffset: 0; stroke: #3f3f3f; stroke-width: 1.25"/>
   </g>
   <g id="line2d_45">
    <path d="M 462.688352 328.067647 
L 465.051422 328.067647 
" clip-path="url(#pcdb9597877)" style="fill: none; stroke-dasharray: 1.5625,0.9375; stroke-dashoffset: 0; stroke: #3f3f3f; stroke-width: 1.25"/>
   </g>
   <g id="line2d_46">
    <path d="M 467.16502 203.990249 
L 469.078108 203.990249 
" clip-path="url(#pcdb9597877)" style="fill: none; stroke-dasharray: 1.5625,0.9375; stroke-dashoffset: 0; stroke: #3f3f3f; stroke-width: 1.25"/>
   </g>
   <g id="line2d_47">
    <path d="M 466.937661 203.565804 
L 469.263655 203.565804 
" clip-path="url(#pcdb9597877)" style="fill: none; stroke-dasharray: 3.125,1.25; stroke-dashoffset: 0; stroke: #3f3f3f; stroke-width: 1.25"/>
   </g>
   <g id="line2d_48">
    <path d="M 467.142256 203.061611 
L 469.09702 203.061611 
" clip-path="url(#pcdb9597877)" style="fill: none; stroke-dasharray: 1.5625,0.9375; stroke-dashoffset: 0; stroke: #3f3f3f; stroke-width: 1.25"/>
   </g>
   <g id="line2d_49">
    <path d="M 469.423795 306.890093 
L 471.030788 306.890093 
" clip-path="url(#pcdb9597877)" style="fill: none; stroke-dasharray: 1.5625,0.9375; stroke-dashoffset: 0; stroke: #3f3f3f; stroke-width: 1.25"/>
   </g>
   <g id="line2d_50">
    <path d="M 469.264238 305.822137 
L 471.165644 305.822137 
" clip-path="url(#pcdb9597877)" style="fill: none; stroke-dasharray: 3.125,1.25; stroke-dashoffset: 0; stroke: #3f3f3f; stroke-width: 1.25"/>
   </g>
   <g id="line2d_51">
    <path d="M 469.393735 304.731848 
L 471.056487 304.731848 
" clip-path="url(#pcdb9597877)" style="fill: none; stroke-dasharray: 1.5625,0.9375; stroke-dashoffset: 0; stroke: #3f3f3f; stroke-width: 1.25"/>
   </g>
   <g id="line2d_52">
    <path d="M 472.314304 107.921984 
L 473.213043 107.921984 
" clip-path="url(#pcdb9597877)" style="fill: none; stroke-dasharray: 1.5625,0.9375; stroke-dashoffset: 0; stroke: #3f3f3f; stroke-width: 1.25"/>
   </g>
   <g id="line2d_53">
    <path d="M 472.025228 107.128775 
L 473.471383 107.128775 
" clip-path="url(#pcdb9597877)" style="fill: none; stroke-dasharray: 3.125,1.25; stroke-dashoffset: 0; stroke: #3f3f3f; stroke-width: 1.25"/>
   </g>
   <g id="line2d_54">
    <path d="M 472.041247 106.711466 
L 473.457418 106.711466 
" clip-path="url(#pcdb9597877)" style="fill: none; stroke-dasharray: 1.5625,0.9375; stroke-dashoffset: 0; stroke: #3f3f3f; stroke-width: 1.25"/>
   </g>
   <g id="line2d_55">
    <path d="M 473.536914 231.388854 
L 474.759258 231.388854 
" clip-path="url(#pcdb9597877)" style="fill: none; stroke-dasharray: 1.5625,0.9375; stroke-dashoffset: 0; stroke: #3f3f3f; stroke-width: 1.25"/>
   </g>
   <g id="line2d_56">
    <path d="M 473.519991 230.52198 
L 474.774286 230.52198 
" clip-path="url(#pcdb9597877)" style="fill: none; stroke-dasharray: 3.125,1.25; stroke-dashoffset: 0; stroke: #3f3f3f; stroke-width: 1.25"/>
   </g>
   <g id="line2d_57">
    <path d="M 473.711734 229.725467 
L 474.60127 229.725467 
" clip-path="url(#pcdb9597877)" style="fill: none; stroke-dasharray: 1.5625,0.9375; stroke-dashoffset: 0; stroke: #3f3f3f; stroke-width: 1.25"/>
   </g>
   <g id="line2d_58">
    <path d="M 475.493178 38.877435 
L 476.40347 38.877435 
" clip-path="url(#pcdb9597877)" style="fill: none; stroke-dasharray: 1.5625,0.9375; stroke-dashoffset: 0; stroke: #3f3f3f; stroke-width: 1.25"/>
   </g>
   <g id="line2d_59">
    <path d="M 475.401301 38.690906 
L 476.486962 38.690906 
" clip-path="url(#pcdb9597877)" style="fill: none; stroke-dasharray: 3.125,1.25; stroke-dashoffset: 0; stroke: #3f3f3f; stroke-width: 1.25"/>
   </g>
   <g id="line2d_60">
    <path d="M 475.443592 38.493288 
L 476.448704 38.493288 
" clip-path="url(#pcdb9597877)" style="fill: none; stroke-dasharray: 1.5625,0.9375; stroke-dashoffset: 0; stroke: #3f3f3f; stroke-width: 1.25"/>
   </g>
   <g id="line2d_61">
    <path d="M 476.583702 147.706703 
L 477.404257 147.706703 
" clip-path="url(#pcdb9597877)" style="fill: none; stroke-dasharray: 1.5625,0.9375; stroke-dashoffset: 0; stroke: #3f3f3f; stroke-width: 1.25"/>
   </g>
   <g id="line2d_62">
    <path d="M 476.597496 143.448335 
L 477.39149 143.448335 
" clip-path="url(#pcdb9597877)" style="fill: none; stroke-dasharray: 3.125,1.25; stroke-dashoffset: 0; stroke: #3f3f3f; stroke-width: 1.25"/>
   </g>
   <g id="line2d_63">
    <path d="M 476.493877 141.307768 
L 477.486602 141.307768 
" clip-path="url(#pcdb9597877)" style="fill: none; stroke-dasharray: 1.5625,0.9375; stroke-dashoffset: 0; stroke: #3f3f3f; stroke-width: 1.25"/>
   </g>
   <g id="patch_5">
    <path d="M 51.378125 354.958125 
L 51.378125 22.318125 
" style="fill: none; stroke: #000000; stroke-width: 0.8; stroke-linejoin: miter; stroke-linecap: square"/>
   </g>
   <g id="patch_6">
    <path d="M 497.778125 354.958125 
L 497.778125 22.318125 
" style="fill: none; stroke: #000000; stroke-width: 0.8; stroke-linejoin: miter; stroke-linecap: square"/>
   </g>
   <g id="patch_7">
    <path d="M 51.378125 354.958125 
L 497.778125 354.958125 
" style="fill: none; stroke: #000000; stroke-width: 0.8; stroke-linejoin: miter; stroke-linecap: square"/>
   </g>
   <g id="patch_8">
    <path d="M 51.378125 22.318125 
L 497.778125 22.318125 
" style="fill: none; stroke: #000000; stroke-width: 0.8; stroke-linejoin: miter; stroke-linecap: square"/>
   </g>
   <g id="text_12">
    <!-- Row Removal Time -->
    <g transform="translate(217.605312 16.318125) scale(0.12 -0.12)">
     <defs>
      <path id="DejaVuSans-52" d="M 2841 2188 
Q 3044 2119 3236 1894 
Q 3428 1669 3622 1275 
L 4263 0 
L 3584 0 
L 2988 1197 
Q 2756 1666 2539 1819 
Q 2322 1972 1947 1972 
L 1259 1972 
L 1259 0 
L 628 0 
L 628 4666 
L 2053 4666 
Q 2853 4666 3247 4331 
Q 3641 3997 3641 3322 
Q 3641 2881 3436 2590 
Q 3231 2300 2841 2188 
z
M 1259 4147 
L 1259 2491 
L 2053 2491 
Q 2509 2491 2742 2702 
Q 2975 2913 2975 3322 
Q 2975 3731 2742 3939 
Q 2509 4147 2053 4147 
L 1259 4147 
z
" transform="scale(0.015625)"/>
      <path id="DejaVuSans-76" d="M 191 3500 
L 800 3500 
L 1894 563 
L 2988 3500 
L 3597 3500 
L 2284 0 
L 1503 0 
L 191 3500 
z
" transform="scale(0.015625)"/>
      <path id="DejaVuSans-6c" d="M 603 4863 
L 1178 4863 
L 1178 0 
L 603 0 
L 603 4863 
z
" transform="scale(0.015625)"/>
      <path id="DejaVuSans-54" d="M -19 4666 
L 3928 4666 
L 3928 4134 
L 2272 4134 
L 2272 0 
L 1638 0 
L 1638 4134 
L -19 4134 
L -19 4666 
z
" transform="scale(0.015625)"/>
     </defs>
     <use xlink:href="#DejaVuSans-52"/>
     <use xlink:href="#DejaVuSans-6f" transform="translate(64.982422 0)"/>
     <use xlink:href="#DejaVuSans-77" transform="translate(126.164062 0)"/>
     <use xlink:href="#DejaVuSans-20" transform="translate(207.951172 0)"/>
     <use xlink:href="#DejaVuSans-52" transform="translate(239.738281 0)"/>
     <use xlink:href="#DejaVuSans-65" transform="translate(304.720703 0)"/>
     <use xlink:href="#DejaVuSans-6d" transform="translate(366.244141 0)"/>
     <use xlink:href="#DejaVuSans-6f" transform="translate(463.65625 0)"/>
     <use xlink:href="#DejaVuSans-76" transform="translate(524.837891 0)"/>
     <use xlink:href="#DejaVuSans-61" transform="translate(584.017578 0)"/>
     <use xlink:href="#DejaVuSans-6c" transform="translate(645.296875 0)"/>
     <use xlink:href="#DejaVuSans-20" transform="translate(673.080078 0)"/>
     <use xlink:href="#DejaVuSans-54" transform="translate(704.867188 0)"/>
     <use xlink:href="#DejaVuSans-69" transform="translate(762.826172 0)"/>
     <use xlink:href="#DejaVuSans-6d" transform="translate(790.609375 0)"/>
     <use xlink:href="#DejaVuSans-65" transform="translate(888.021484 0)"/>
    </g>
   </g>
   <g id="legend_1">
    <g id="patch_9">
     <path d="M 58.378125 74.3525 
L 133.571875 74.3525 
Q 135.571875 74.3525 135.571875 72.3525 
L 135.571875 29.318125 
Q 135.571875 27.318125 133.571875 27.318125 
L 58.378125 27.318125 
Q 56.378125 27.318125 56.378125 29.318125 
L 56.378125 72.3525 
Q 56.378125 74.3525 58.378125 74.3525 
z
" style="fill: #ffffff; opacity: 0.8; stroke: #cccccc; stroke-linejoin: miter"/>
    </g>
    <g id="text_13">
     <!-- DBMS -->
     <g transform="translate(81.20625 38.916562) scale(0.1 -0.1)">
      <defs>
       <path id="DejaVuSans-42" d="M 1259 2228 
L 1259 519 
L 2272 519 
Q 2781 519 3026 730 
Q 3272 941 3272 1375 
Q 3272 1813 3026 2020 
Q 2781 2228 2272 2228 
L 1259 2228 
z
M 1259 4147 
L 1259 2741 
L 2194 2741 
Q 2656 2741 2882 2914 
Q 3109 3088 3109 3444 
Q 3109 3797 2882 3972 
Q 2656 4147 2194 4147 
L 1259 4147 
z
M 628 4666 
L 2241 4666 
Q 2963 4666 3353 4366 
Q 3744 4066 3744 3513 
Q 3744 3084 3544 2831 
Q 3344 2578 2956 2516 
Q 3422 2416 3680 2098 
Q 3938 1781 3938 1306 
Q 3938 681 3513 340 
Q 3088 0 2303 0 
L 628 0 
L 628 4666 
z
" transform="scale(0.015625)"/>
       <path id="DejaVuSans-4d" d="M 628 4666 
L 1569 4666 
L 2759 1491 
L 3956 4666 
L 4897 4666 
L 4897 0 
L 4281 0 
L 4281 4097 
L 3078 897 
L 2444 897 
L 1241 4097 
L 1241 0 
L 628 0 
L 628 4666 
z
" transform="scale(0.015625)"/>
       <path id="DejaVuSans-53" d="M 3425 4513 
L 3425 3897 
Q 3066 4069 2747 4153 
Q 2428 4238 2131 4238 
Q 1616 4238 1336 4038 
Q 1056 3838 1056 3469 
Q 1056 3159 1242 3001 
Q 1428 2844 1947 2747 
L 2328 2669 
Q 3034 2534 3370 2195 
Q 3706 1856 3706 1288 
Q 3706 609 3251 259 
Q 2797 -91 1919 -91 
Q 1588 -91 1214 -16 
Q 841 59 441 206 
L 441 856 
Q 825 641 1194 531 
Q 1563 422 1919 422 
Q 2459 422 2753 634 
Q 3047 847 3047 1241 
Q 3047 1584 2836 1778 
Q 2625 1972 2144 2069 
L 1759 2144 
Q 1053 2284 737 2584 
Q 422 2884 422 3419 
Q 422 4038 858 4394 
Q 1294 4750 2059 4750 
Q 2388 4750 2728 4690 
Q 3069 4631 3425 4513 
z
" transform="scale(0.015625)"/>
      </defs>
      <use xlink:href="#DejaVuSans-44"/>
      <use xlink:href="#DejaVuSans-42" transform="translate(77.001953 0)"/>
      <use xlink:href="#DejaVuSans-4d" transform="translate(145.605469 0)"/>
      <use xlink:href="#DejaVuSans-53" transform="translate(231.884766 0)"/>
     </g>
    </g>
    <g id="patch_10">
     <path d="M 60.378125 53.594687 
L 80.378125 53.594687 
L 80.378125 46.594687 
L 60.378125 46.594687 
z
" style="fill: #3274a1; stroke: #3f3f3f; stroke-width: 1.25; stroke-linejoin: miter"/>
    </g>
    <g id="text_14">
     <!-- pandas -->
     <g transform="translate(88.378125 53.594687) scale(0.1 -0.1)">
      <defs>
       <path id="DejaVuSans-70" d="M 1159 525 
L 1159 -1331 
L 581 -1331 
L 581 3500 
L 1159 3500 
L 1159 2969 
Q 1341 3281 1617 3432 
Q 1894 3584 2278 3584 
Q 2916 3584 3314 3078 
Q 3713 2572 3713 1747 
Q 3713 922 3314 415 
Q 2916 -91 2278 -91 
Q 1894 -91 1617 61 
Q 1341 213 1159 525 
z
M 3116 1747 
Q 3116 2381 2855 2742 
Q 2594 3103 2138 3103 
Q 1681 3103 1420 2742 
Q 1159 2381 1159 1747 
Q 1159 1113 1420 752 
Q 1681 391 2138 391 
Q 2594 391 2855 752 
Q 3116 1113 3116 1747 
z
" transform="scale(0.015625)"/>
       <path id="DejaVuSans-6e" d="M 3513 2113 
L 3513 0 
L 2938 0 
L 2938 2094 
Q 2938 2591 2744 2837 
Q 2550 3084 2163 3084 
Q 1697 3084 1428 2787 
Q 1159 2491 1159 1978 
L 1159 0 
L 581 0 
L 581 3500 
L 1159 3500 
L 1159 2956 
Q 1366 3272 1645 3428 
Q 1925 3584 2291 3584 
Q 2894 3584 3203 3211 
Q 3513 2838 3513 2113 
z
" transform="scale(0.015625)"/>
       <path id="DejaVuSans-64" d="M 2906 2969 
L 2906 4863 
L 3481 4863 
L 3481 0 
L 2906 0 
L 2906 525 
Q 2725 213 2448 61 
Q 2172 -91 1784 -91 
Q 1150 -91 751 415 
Q 353 922 353 1747 
Q 353 2572 751 3078 
Q 1150 3584 1784 3584 
Q 2172 3584 2448 3432 
Q 2725 3281 2906 2969 
z
M 947 1747 
Q 947 1113 1208 752 
Q 1469 391 1925 391 
Q 2381 391 2643 752 
Q 2906 1113 2906 1747 
Q 2906 2381 2643 2742 
Q 2381 3103 1925 3103 
Q 1469 3103 1208 2742 
Q 947 2381 947 1747 
z
" transform="scale(0.015625)"/>
      </defs>
      <use xlink:href="#DejaVuSans-70"/>
      <use xlink:href="#DejaVuSans-61" transform="translate(63.476562 0)"/>
      <use xlink:href="#DejaVuSans-6e" transform="translate(124.755859 0)"/>
      <use xlink:href="#DejaVuSans-64" transform="translate(188.134766 0)"/>
      <use xlink:href="#DejaVuSans-61" transform="translate(251.611328 0)"/>
      <use xlink:href="#DejaVuSans-73" transform="translate(312.890625 0)"/>
     </g>
    </g>
    <g id="patch_11">
     <path d="M 60.378125 68.272812 
L 80.378125 68.272812 
L 80.378125 61.272812 
L 60.378125 61.272812 
z
" style="fill: #e1812c; stroke: #3f3f3f; stroke-width: 1.25; stroke-linejoin: miter"/>
    </g>
    <g id="text_15">
     <!-- postgres -->
     <g transform="translate(88.378125 68.272812) scale(0.1 -0.1)">
      <defs>
       <path id="DejaVuSans-67" d="M 2906 1791 
Q 2906 2416 2648 2759 
Q 2391 3103 1925 3103 
Q 1463 3103 1205 2759 
Q 947 2416 947 1791 
Q 947 1169 1205 825 
Q 1463 481 1925 481 
Q 2391 481 2648 825 
Q 2906 1169 2906 1791 
z
M 3481 434 
Q 3481 -459 3084 -895 
Q 2688 -1331 1869 -1331 
Q 1566 -1331 1297 -1286 
Q 1028 -1241 775 -1147 
L 775 -588 
Q 1028 -725 1275 -790 
Q 1522 -856 1778 -856 
Q 2344 -856 2625 -561 
Q 2906 -266 2906 331 
L 2906 616 
Q 2728 306 2450 153 
Q 2172 0 1784 0 
Q 1141 0 747 490 
Q 353 981 353 1791 
Q 353 2603 747 3093 
Q 1141 3584 1784 3584 
Q 2172 3584 2450 3431 
Q 2728 3278 2906 2969 
L 2906 3500 
L 3481 3500 
L 3481 434 
z
" transform="scale(0.015625)"/>
      </defs>
      <use xlink:href="#DejaVuSans-70"/>
      <use xlink:href="#DejaVuSans-6f" transform="translate(63.476562 0)"/>
      <use xlink:href="#DejaVuSans-73" transform="translate(124.658203 0)"/>
      <use xlink:href="#DejaVuSans-74" transform="translate(176.757812 0)"/>
      <use xlink:href="#DejaVuSans-67" transform="translate(215.966797 0)"/>
      <use xlink:href="#DejaVuSans-72" transform="translate(279.443359 0)"/>
      <use xlink:href="#DejaVuSans-65" transform="translate(318.306641 0)"/>
      <use xlink:href="#DejaVuSans-73" transform="translate(379.830078 0)"/>
     </g>
    </g>
   </g>
  </g>
 </g>
 <defs>
  <clipPath id="pcdb9597877">
   <rect x="51.378125" y="22.318125" width="446.4" height="332.64"/>
  </clipPath>
 </defs>
</svg>
