<?xml version="1.0" encoding="utf-8" standalone="no"?>
<!DOCTYPE svg PUBLIC "-//W3C//DTD SVG 1.1//EN"
  "http://www.w3.org/Graphics/SVG/1.1/DTD/svg11.dtd">
<svg xmlns:xlink="http://www.w3.org/1999/xlink" width="504.978125pt" height="392.514375pt" viewBox="0 0 504.978125 392.514375" xmlns="http://www.w3.org/2000/svg" version="1.1">
 <metadata>
  <rdf:RDF xmlns:dc="http://purl.org/dc/elements/1.1/" xmlns:cc="http://creativecommons.org/ns#" xmlns:rdf="http://www.w3.org/1999/02/22-rdf-syntax-ns#">
   <cc:Work>
    <dc:type rdf:resource="http://purl.org/dc/dcmitype/StillImage"/>
    <dc:date>2025-08-04T23:46:35.365029</dc:date>
    <dc:format>image/svg+xml</dc:format>
    <dc:creator>
     <cc:Agent>
      <dc:title>Matplotlib v3.10.5, https://matplotlib.org/</dc:title>
     </cc:Agent>
    </dc:creator>
   </cc:Work>
  </rdf:RDF>
 </metadata>
 <defs>
  <style type="text/css">*{stroke-linejoin: round; stroke-linecap: butt}</style>
 </defs>
 <g id="figure_1">
  <g id="patch_1">
   <path d="M 0 392.514375 
L 504.978125 392.514375 
L 504.978125 0 
L 0 0 
z
" style="fill: #ffffff"/>
  </g>
  <g id="axes_1">
   <g id="patch_2">
    <path d="M 51.378125 354.958125 
L 497.778125 354.958125 
L 497.778125 22.318125 
L 51.378125 22.318125 
z
" style="fill: #ffffff"/>
   </g>
   <g id="FillBetweenPolyCollection_1">
    <defs>
     <path id="m899e94d8a7" d="M -23552.192993 -129.71306 
L -23552.192993 -129.71306 
L -23552.192993 -130.031823 
L -23552.192993 -130.348541 
L -23552.192993 -130.66324 
L -23552.192993 -130.975946 
L -23552.192993 -131.286684 
L -23552.192993 -131.595478 
L -23552.192993 -131.902353 
L -23552.192993 -132.207333 
L -23552.192993 -132.510441 
L -23552.192993 -132.811699 
L -23552.192993 -133.11113 
L -23552.192993 -133.408756 
L -23552.192993 -133.704598 
L -23552.192993 -133.998679 
L -23552.192993 -134.291018 
L -23552.192993 -134.581637 
L -23552.192993 -134.870555 
L -23552.192993 -135.157792 
L -23552.192993 -135.443368 
L -23552.192993 -135.727301 
L -23552.192993 -136.009611 
L -23552.192993 -136.290316 
L -23552.192993 -136.569435 
L -23552.192993 -136.846984 
L -23552.192993 -137.122981 
L -23552.192993 -137.397445 
L -23552.192993 -137.670391 
L -23552.192993 -137.941836 
L -23552.192993 -138.211798 
L -23552.192993 -138.480291 
L -23552.192993 -138.747332 
L -23552.192993 -139.012937 
L -23552.192993 -139.27712 
L -23552.192993 -139.539898 
L -23552.192993 -139.801284 
L -23552.192993 -140.061294 
L -23552.192993 -140.319941 
L -23552.192993 -140.577241 
L -23552.192993 -140.833207 
L -23552.192993 -141.087853 
L -23552.192993 -141.341192 
L -23552.192993 -141.593238 
L -23552.192993 -141.844004 
L -23552.192993 -142.093502 
L -23552.192993 -142.341746 
L -23552.192993 -142.588749 
L -23552.192993 -142.834521 
L -23552.192993 -143.079077 
L -23552.192993 -143.322427 
L -23552.192993 -143.564583 
L -23552.192993 -143.805558 
L -23552.192993 -144.045362 
L -23552.192993 -144.284007 
L -23552.192993 -144.521505 
L -23552.192993 -144.757865 
L -23552.192993 -144.993099 
L -23552.192993 -145.227218 
L -23552.192993 -145.460232 
L -23552.192993 -145.692151 
L -23552.192993 -145.922986 
L -23552.192993 -146.152747 
L -23552.192993 -146.381444 
L -23552.192993 -146.609086 
L -23552.192993 -146.835683 
L -23552.192993 -147.061246 
L -23552.192993 -147.285782 
L -23552.192993 -147.509302 
L -23552.192993 -147.731815 
L -23552.192993 -147.953329 
L -23552.192993 -148.173854 
L -23552.192993 -148.393398 
L -23552.192993 -148.611971 
L -23552.192993 -148.82958 
L -23552.192993 -149.046234 
L -23552.192993 -149.261942 
L -23552.192993 -149.476712 
L -23552.192993 -149.690551 
L -23552.192993 -149.903468 
L -23552.192993 -150.115471 
L -23552.192993 -150.326567 
L -23552.192993 -150.536765 
L -23552.192993 -150.746072 
L -23552.192993 -150.954495 
L -23552.192993 -151.162042 
L -23552.192993 -151.36872 
L -23552.192993 -151.574537 
L -23552.192993 -151.779499 
L -23552.192993 -151.983614 
L -23552.192993 -152.186889 
L -23552.192993 -152.38933 
L -23552.192993 -152.590945 
L -23552.192993 -152.791739 
L -23552.192993 -152.99172 
L -23552.192993 -153.190895 
L -23552.192993 -153.389269 
L -23552.192993 -153.58685 
L -23552.192993 -153.783643 
L -23552.192993 -153.979654 
L -23552.192993 -154.174891 
L -23552.192993 -154.174891 
L -23552.192993 -154.174891 
L -23552.192993 -153.979654 
L -23552.192993 -153.783643 
L -23552.192993 -153.58685 
L -23552.192993 -153.389269 
L -23552.192993 -153.190895 
L -23552.192993 -152.99172 
L -23552.192993 -152.791739 
L -23552.192993 -152.590945 
L -23552.192993 -152.38933 
L -23552.192993 -152.186889 
L -23552.192993 -151.983614 
L -23552.192993 -151.779499 
L -23552.192993 -151.574537 
L -23552.192993 -151.36872 
L -23552.192993 -151.162042 
L -23552.192993 -150.954495 
L -23552.192993 -150.746072 
L -23552.192993 -150.536765 
L -23552.192993 -150.326567 
L -23552.192993 -150.115471 
L -23552.192993 -149.903468 
L -23552.192993 -149.690551 
L -23552.192993 -149.476712 
L -23552.192993 -149.261942 
L -23552.192993 -149.046234 
L -23552.192993 -148.82958 
L -23552.192993 -148.611971 
L -23552.192993 -148.393398 
L -23552.192993 -148.173854 
L -23552.192993 -147.953329 
L -23552.192993 -147.731815 
L -23552.192993 -147.509302 
L -23552.192993 -147.285782 
L -23552.192993 -147.061246 
L -23552.192993 -146.835683 
L -23552.192993 -146.609086 
L -23552.192993 -146.381444 
L -23552.192993 -146.152747 
L -23552.192993 -145.922986 
L -23552.192993 -145.692151 
L -23552.192993 -145.460232 
L -23552.192993 -145.227218 
L -23552.192993 -144.993099 
L -23552.192993 -144.757865 
L -23552.192993 -144.521505 
L -23552.192993 -144.284007 
L -23552.192993 -144.045362 
L -23552.192993 -143.805558 
L -23552.192993 -143.564583 
L -23552.192993 -143.322427 
L -23552.192993 -143.079077 
L -23552.192993 -142.834521 
L -23552.192993 -142.588749 
L -23552.192993 -142.341746 
L -23552.192993 -142.093502 
L -23552.192993 -141.844004 
L -23552.192993 -141.593238 
L -23552.192993 -141.341192 
L -23552.192993 -141.087853 
L -23552.192993 -140.833207 
L -23552.192993 -140.577241 
L -23552.192993 -140.319941 
L -23552.192993 -140.061294 
L -23552.192993 -139.801284 
L -23552.192993 -139.539898 
L -23552.192993 -139.27712 
L -23552.192993 -139.012937 
L -23552.192993 -138.747332 
L -23552.192993 -138.480291 
L -23552.192993 -138.211798 
L -23552.192993 -137.941836 
L -23552.192993 -137.670391 
L -23552.192993 -137.397445 
L -23552.192993 -137.122981 
L -23552.192993 -136.846984 
L -23552.192993 -136.569435 
L -23552.192993 -136.290316 
L -23552.192993 -136.009611 
L -23552.192993 -135.727301 
L -23552.192993 -135.443368 
L -23552.192993 -135.157792 
L -23552.192993 -134.870555 
L -23552.192993 -134.581637 
L -23552.192993 -134.291018 
L -23552.192993 -133.998679 
L -23552.192993 -133.704598 
L -23552.192993 -133.408756 
L -23552.192993 -133.11113 
L -23552.192993 -132.811699 
L -23552.192993 -132.510441 
L -23552.192993 -132.207333 
L -23552.192993 -131.902353 
L -23552.192993 -131.595478 
L -23552.192993 -131.286684 
L -23552.192993 -130.975946 
L -23552.192993 -130.66324 
L -23552.192993 -130.348541 
L -23552.192993 -130.031823 
L -23552.192993 -129.71306 
z
" style="stroke: #3f3f3f; stroke-width: 1.25"/>
    </defs>
    <g clip-path="url(#p1c030fada1)">
     <use xlink:href="#m899e94d8a7" x="0" y="392.514375" style="fill: #3274a1; stroke: #3f3f3f; stroke-width: 1.25"/>
    </g>
   </g>
   <g id="FillBetweenPolyCollection_2">
    <defs>
     <path id="mdda9591c36" d="M 450.529802 -52.67625 
L 434.027532 -52.67625 
L 431.99067 -53.476565 
L 429.585298 -54.264113 
L 426.710867 -55.039297 
L 423.213231 -55.802498 
L 418.836708 -56.554081 
L 413.107111 -57.294395 
L 404.975901 -58.023772 
L 391.19747 -58.742531 
L 71.669034 -59.450977 
L 388.431367 -60.149401 
L 403.550131 -60.838083 
L 412.103954 -61.517291 
L 418.029451 -62.187283 
L 422.512159 -62.848304 
L 426.071997 -63.500592 
L 428.984398 -64.144375 
L 431.413529 -64.779872 
L 433.465638 -65.407293 
L 435.213883 -66.026841 
L 436.711186 -66.638711 
L 437.997429 -67.243092 
L 439.103732 -67.840163 
L 440.055121 -68.4301 
L 440.872251 -69.013072 
L 441.572547 -69.58924 
L 442.170977 -70.158763 
L 442.680579 -70.721791 
L 443.112821 -71.278471 
L 443.477855 -71.828944 
L 443.784686 -72.373348 
L 444.041292 -72.911814 
L 444.25472 -73.444471 
L 444.431155 -73.971443 
L 444.575986 -74.49285 
L 444.693869 -75.008809 
L 444.7888 -75.519431 
L 444.86418 -76.024826 
L 444.922899 -76.525101 
L 444.967414 -77.020357 
L 444.999825 -77.510695 
L 445.021956 -77.996211 
L 445.035421 -78.476999 
L 445.041682 -78.953151 
L 445.042099 -79.424754 
L 445.037962 -79.891895 
L 445.030508 -80.354659 
L 445.02093 -80.813125 
L 445.010366 -81.267373 
L 444.99988 -81.71748 
L 444.990438 -82.16352 
L 444.98288 -82.605567 
L 444.977887 -83.043692 
L 444.975961 -83.477963 
L 444.977404 -83.908448 
L 444.982314 -84.335212 
L 444.990589 -84.758318 
L 445.001945 -85.17783 
L 445.015939 -85.593807 
L 445.032008 -86.006309 
L 445.049503 -86.415393 
L 445.067733 -86.821115 
L 445.085997 -87.223531 
L 445.103622 -87.622693 
L 445.119985 -88.018654 
L 445.134534 -88.411465 
L 445.146798 -88.801176 
L 445.156395 -89.187834 
L 445.163031 -89.571488 
L 445.1665 -89.952184 
L 445.166679 -90.329967 
L 445.163526 -90.704881 
L 445.157078 -91.07697 
L 445.147448 -91.446276 
L 445.134827 -91.81284 
L 445.119482 -92.176702 
L 445.101752 -92.537903 
L 445.082043 -92.89648 
L 445.060821 -93.252472 
L 445.038595 -93.605916 
L 445.015898 -93.956847 
L 444.993271 -94.305302 
L 444.971231 -94.651314 
L 444.950254 -94.994919 
L 444.930752 -95.336149 
L 444.913058 -95.675037 
L 444.897418 -96.011615 
L 444.883993 -96.345914 
L 444.872867 -96.677964 
L 444.864063 -97.007797 
L 444.857561 -97.33544 
L 444.853325 -97.660924 
L 444.851318 -97.984276 
L 444.851519 -98.305524 
L 444.853931 -98.624696 
L 444.858582 -98.941817 
L 444.86551 -99.256915 
L 444.874755 -99.570014 
L 444.886334 -99.881141 
L 444.900223 -100.190319 
L 445.58837 -100.190319 
L 445.58837 -100.190319 
L 445.601355 -99.881141 
L 445.612156 -99.570014 
L 445.620763 -99.256915 
L 445.627203 -98.941817 
L 445.631521 -98.624696 
L 445.633759 -98.305524 
L 445.633946 -97.984276 
L 445.632084 -97.660924 
L 445.628151 -97.33544 
L 445.622109 -97.007797 
L 445.613914 -96.677964 
L 445.603541 -96.345914 
L 445.590995 -96.011615 
L 445.57634 -95.675037 
L 445.559709 -95.336149 
L 445.541315 -94.994919 
L 445.521455 -94.651314 
L 445.500505 -94.305302 
L 445.478906 -93.956847 
L 445.457149 -93.605916 
L 445.435752 -93.252472 
L 445.415238 -92.89648 
L 445.396114 -92.537903 
L 445.378848 -92.176702 
L 445.363858 -91.81284 
L 445.351497 -91.446276 
L 445.342045 -91.07697 
L 445.335706 -90.704881 
L 445.332604 -90.329967 
L 445.33278 -89.952184 
L 445.336193 -89.571488 
L 445.342716 -89.187834 
L 445.352134 -88.801176 
L 445.364145 -88.411465 
L 445.378357 -88.018654 
L 445.394295 -87.622693 
L 445.411407 -87.223531 
L 445.42908 -86.821115 
L 445.446659 -86.415393 
L 445.463473 -86.006309 
L 445.478867 -85.593807 
L 445.492236 -85.17783 
L 445.503059 -84.758318 
L 445.510931 -84.335212 
L 445.515596 -83.908448 
L 445.516966 -83.477963 
L 445.515137 -83.043692 
L 445.510393 -82.605567 
L 445.503203 -82.16352 
L 445.494206 -81.71748 
L 445.484195 -81.267373 
L 445.47409 -80.813125 
L 445.464911 -80.354659 
L 445.457757 -79.891895 
L 445.453781 -79.424754 
L 445.454182 -78.953151 
L 445.460197 -78.476999 
L 445.473108 -77.996211 
L 445.494258 -77.510695 
L 445.525075 -77.020357 
L 445.567097 -76.525101 
L 445.622 -76.024826 
L 445.691611 -75.519431 
L 445.777916 -75.008809 
L 445.883032 -74.49285 
L 446.009154 -73.971443 
L 446.158466 -73.444471 
L 446.333008 -72.911814 
L 446.53452 -72.373348 
L 446.764254 -71.828944 
L 447.022783 -71.278471 
L 447.309828 -70.721791 
L 447.624119 -70.158763 
L 447.963316 -69.58924 
L 448.324 -69.013072 
L 448.701741 -68.4301 
L 449.091237 -67.840163 
L 449.486502 -67.243092 
L 449.881093 -66.638711 
L 450.268349 -66.026841 
L 450.641615 -65.407293 
L 450.994445 -64.779872 
L 451.320773 -64.144375 
L 451.615046 -63.500592 
L 451.872314 -62.848304 
L 452.088299 -62.187283 
L 452.259431 -61.517291 
L 452.382867 -60.838083 
L 452.456502 -60.149401 
L 452.478974 -59.450977 
L 452.449667 -58.742531 
L 452.368713 -58.023772 
L 452.237006 -57.294395 
L 452.056213 -56.554081 
L 451.82879 -55.802498 
L 451.557989 -55.039297 
L 451.247868 -54.264113 
L 450.903272 -53.476565 
L 450.529802 -52.67625 
z
" style="stroke: #3f3f3f; stroke-width: 1.25"/>
    </defs>
    <g clip-path="url(#p1c030fada1)">
     <use xlink:href="#mdda9591c36" x="0" y="392.514375" style="fill: #e1812c; stroke: #3f3f3f; stroke-width: 1.25"/>
    </g>
   </g>
   <g id="FillBetweenPolyCollection_3">
    <defs>
     <path id="m5e407b7aa0" d="M 461.016664 -135.33077 
L 458.211187 -135.33077 
L 457.971998 -135.602985 
L 457.729769 -135.873707 
L 457.493172 -136.142953 
L 457.271808 -136.410738 
L 457.075595 -136.677079 
L 456.914003 -136.941991 
L 456.795213 -137.205489 
L 456.725314 -137.467588 
L 456.70767 -137.728304 
L 456.742571 -137.987649 
L 456.827236 -138.24564 
L 456.956166 -138.50229 
L 457.12178 -138.757612 
L 457.3152 -139.011621 
L 457.527077 -139.26433 
L 457.748323 -139.515752 
L 457.970701 -139.7659 
L 458.187212 -140.014787 
L 458.392322 -140.262426 
L 458.582015 -140.508829 
L 458.753729 -140.754009 
L 458.906207 -140.997977 
L 459.039291 -141.240745 
L 459.15369 -141.482326 
L 459.25074 -141.72273 
L 459.332184 -141.961969 
L 459.399963 -142.200055 
L 459.456056 -142.436998 
L 459.502345 -142.67281 
L 459.540529 -142.907501 
L 459.572072 -143.141081 
L 459.59819 -143.373562 
L 459.619858 -143.604953 
L 459.63784 -143.835264 
L 459.652732 -144.064507 
L 459.664999 -144.292689 
L 459.675017 -144.519823 
L 459.683101 -144.745916 
L 459.689528 -144.970978 
L 459.694548 -145.195019 
L 459.698395 -145.418049 
L 459.701281 -145.640075 
L 459.703397 -145.861107 
L 459.704913 -146.081154 
L 459.705974 -146.300225 
L 459.706697 -146.518328 
L 459.707178 -146.735472 
L 459.70749 -146.951665 
L 459.707688 -147.166916 
L 459.707809 -147.381232 
L 459.707882 -147.594622 
L 459.707925 -147.807094 
L 459.707949 -148.018655 
L 459.707962 -148.229314 
L 459.70797 -148.439078 
L 459.707973 -148.647954 
L 459.707975 -148.85595 
L 459.707976 -149.063074 
L 459.707977 -149.269333 
L 459.707977 -149.474733 
L 459.707977 -149.679283 
L 459.707977 -149.882988 
L 459.707977 -150.085857 
L 459.707977 -150.287896 
L 459.707977 -150.489111 
L 459.707977 -150.689509 
L 459.707977 -150.889097 
L 459.707977 -151.087882 
L 459.707977 -151.28587 
L 459.707976 -151.483067 
L 459.707974 -151.679479 
L 459.70797 -151.875113 
L 459.707963 -152.069975 
L 459.707951 -152.264071 
L 459.707928 -152.457407 
L 459.707888 -152.649989 
L 459.707821 -152.841823 
L 459.707708 -153.032914 
L 459.707527 -153.223269 
L 459.707241 -153.412892 
L 459.706805 -153.60179 
L 459.706156 -153.789968 
L 459.705219 -153.977432 
L 459.703903 -154.164186 
L 459.702109 -154.350237 
L 459.699735 -154.535589 
L 459.696687 -154.720248 
L 459.692896 -154.904219 
L 459.688332 -155.087507 
L 459.683021 -155.270117 
L 459.677062 -155.452054 
L 459.670631 -155.633324 
L 459.663981 -155.81393 
L 459.657436 -155.993878 
L 459.651361 -156.173173 
L 459.646134 -156.351818 
L 459.642107 -156.52982 
L 459.639565 -156.707182 
L 459.638696 -156.88391 
L 459.776801 -156.88391 
L 459.776801 -156.88391 
L 459.775944 -156.707182 
L 459.773434 -156.52982 
L 459.769456 -156.351818 
L 459.764288 -156.173173 
L 459.758275 -155.993878 
L 459.751789 -155.81393 
L 459.745191 -155.633324 
L 459.738801 -155.452054 
L 459.732874 -155.270117 
L 459.727586 -155.087507 
L 459.723037 -154.904219 
L 459.719256 -154.720248 
L 459.716213 -154.535589 
L 459.713842 -154.350237 
L 459.71205 -154.164186 
L 459.710735 -153.977432 
L 459.709798 -153.789968 
L 459.70915 -153.60179 
L 459.708713 -153.412892 
L 459.708428 -153.223269 
L 459.708246 -153.032914 
L 459.708134 -152.841823 
L 459.708066 -152.649989 
L 459.708027 -152.457407 
L 459.708004 -152.264071 
L 459.707991 -152.069975 
L 459.707985 -151.875113 
L 459.707981 -151.679479 
L 459.707979 -151.483067 
L 459.707978 -151.28587 
L 459.707978 -151.087882 
L 459.707978 -150.889097 
L 459.707977 -150.689509 
L 459.707977 -150.489111 
L 459.707977 -150.287896 
L 459.707977 -150.085857 
L 459.707977 -149.882988 
L 459.707977 -149.679283 
L 459.707978 -149.474733 
L 459.707978 -149.269333 
L 459.707978 -149.063074 
L 459.707979 -148.85595 
L 459.707981 -148.647954 
L 459.707985 -148.439078 
L 459.707992 -148.229314 
L 459.708006 -148.018655 
L 459.70803 -147.807094 
L 459.708073 -147.594622 
L 459.708146 -147.381232 
L 459.708267 -147.166916 
L 459.708464 -146.951665 
L 459.708776 -146.735472 
L 459.709257 -146.518328 
L 459.709981 -146.300225 
L 459.71104 -146.081154 
L 459.712556 -145.861107 
L 459.71467 -145.640075 
L 459.717551 -145.418049 
L 459.721389 -145.195019 
L 459.726394 -144.970978 
L 459.732794 -144.745916 
L 459.740833 -144.519823 
L 459.750779 -144.292689 
L 459.762931 -144.064507 
L 459.777646 -143.835264 
L 459.795359 -143.604953 
L 459.816621 -143.373562 
L 459.842134 -143.141081 
L 459.87278 -142.907501 
L 459.909633 -142.67281 
L 459.953956 -142.436998 
L 460.007155 -142.200055 
L 460.0707 -141.961969 
L 460.146007 -141.72273 
L 460.234287 -141.482326 
L 460.336361 -141.240745 
L 460.452486 -140.997977 
L 460.582187 -140.754009 
L 460.724137 -140.508829 
L 460.8761 -140.262426 
L 461.034948 -140.014787 
L 461.196764 -139.7659 
L 461.35701 -139.515752 
L 461.510755 -139.26433 
L 461.652932 -139.011621 
L 461.778601 -138.757612 
L 461.883206 -138.50229 
L 461.962793 -138.24564 
L 462.0142 -137.987649 
L 462.035197 -137.728304 
L 462.024596 -137.467588 
L 461.982316 -137.205489 
L 461.909409 -136.941991 
L 461.808046 -136.677079 
L 461.68146 -136.410738 
L 461.533832 -136.142953 
L 461.370117 -135.873707 
L 461.195812 -135.602985 
L 461.016664 -135.33077 
z
" style="stroke: #3f3f3f; stroke-width: 1.25"/>
    </defs>
    <g clip-path="url(#p1c030fada1)">
     <use xlink:href="#m5e407b7aa0" x="0" y="392.514375" style="fill: #3274a1; stroke: #3f3f3f; stroke-width: 1.25"/>
    </g>
   </g>
   <g id="FillBetweenPolyCollection_4">
    <defs>
     <path id="m9ca6e1c848" d="M 464.803851 -55.746625 
L 462.990798 -55.746625 
L 462.852439 -56.383357 
L 462.711985 -57.011983 
L 462.573336 -57.632705 
L 462.440907 -58.24572 
L 462.319475 -58.851217 
L 462.213947 -59.449379 
L 462.129059 -60.040381 
L 462.069005 -60.624392 
L 462.037055 -61.201576 
L 462.035197 -61.77209 
L 462.063876 -62.336087 
L 462.121896 -62.893715 
L 462.206482 -63.445115 
L 462.313535 -63.990425 
L 462.438009 -64.529778 
L 462.574366 -65.063303 
L 462.71703 -65.591124 
L 462.860795 -66.113362 
L 463.001124 -66.630135 
L 463.134351 -67.141554 
L 463.25776 -67.64773 
L 463.369574 -68.14877 
L 463.468872 -68.644776 
L 463.555453 -69.135849 
L 463.629687 -69.622086 
L 463.69235 -70.103581 
L 463.744484 -70.580426 
L 463.787268 -71.052709 
L 463.821919 -71.520518 
L 463.849625 -71.983936 
L 463.871496 -72.443044 
L 463.888535 -72.897923 
L 463.90163 -73.348649 
L 463.91155 -73.795298 
L 463.91895 -74.237943 
L 463.924382 -74.676654 
L 463.9283 -75.111502 
L 463.931075 -75.542553 
L 463.933002 -75.969874 
L 463.934314 -76.393527 
L 463.935188 -76.813577 
L 463.935758 -77.230083 
L 463.936122 -77.643105 
L 463.936348 -78.052701 
L 463.936486 -78.458926 
L 463.936568 -78.861837 
L 463.936615 -79.261486 
L 463.936642 -79.657927 
L 463.936657 -80.051209 
L 463.936665 -80.441384 
L 463.936669 -80.828499 
L 463.936671 -81.212603 
L 463.936672 -81.593742 
L 463.936673 -81.971961 
L 463.936673 -82.347305 
L 463.936673 -82.719817 
L 463.936673 -83.08954 
L 463.936673 -83.456514 
L 463.936673 -83.820781 
L 463.936673 -84.18238 
L 463.936673 -84.541351 
L 463.936673 -84.89773 
L 463.936673 -85.251555 
L 463.936673 -85.602863 
L 463.936673 -85.951689 
L 463.936673 -86.298068 
L 463.936673 -86.642033 
L 463.936673 -86.983619 
L 463.936673 -87.322858 
L 463.936672 -87.659782 
L 463.936671 -87.994422 
L 463.936669 -88.32681 
L 463.936664 -88.656974 
L 463.936656 -88.984946 
L 463.936642 -89.310754 
L 463.936617 -89.634425 
L 463.936573 -89.955989 
L 463.9365 -90.275472 
L 463.936382 -90.592901 
L 463.936196 -90.908302 
L 463.93591 -91.221701 
L 463.935482 -91.533123 
L 463.934863 -91.842593 
L 463.933989 -92.150136 
L 463.932794 -92.455775 
L 463.931207 -92.759534 
L 463.929164 -93.061435 
L 463.926616 -93.361501 
L 463.92354 -93.659755 
L 463.919953 -93.956218 
L 463.91592 -94.250912 
L 463.91156 -94.543857 
L 463.907046 -94.835074 
L 463.902597 -95.124583 
L 463.898464 -95.412405 
L 463.894904 -95.698559 
L 463.89216 -95.983064 
L 463.890428 -96.265939 
L 463.889836 -96.547202 
L 463.983301 -96.547202 
L 463.983301 -96.547202 
L 463.982714 -96.265939 
L 463.980996 -95.983064 
L 463.978275 -95.698559 
L 463.974743 -95.412405 
L 463.970638 -95.124583 
L 463.966216 -94.835074 
L 463.961726 -94.543857 
L 463.957385 -94.250912 
L 463.953366 -93.956218 
L 463.94979 -93.659755 
L 463.946721 -93.361501 
L 463.944177 -93.061435 
L 463.942136 -92.759534 
L 463.940551 -92.455775 
L 463.939356 -92.150136 
L 463.938483 -91.842593 
L 463.937863 -91.533123 
L 463.937436 -91.221701 
L 463.93715 -90.908302 
L 463.936964 -90.592901 
L 463.936846 -90.275472 
L 463.936773 -89.955989 
L 463.93673 -89.634425 
L 463.936704 -89.310754 
L 463.93669 -88.984946 
L 463.936682 -88.656974 
L 463.936677 -88.32681 
L 463.936675 -87.994422 
L 463.936674 -87.659782 
L 463.936674 -87.322858 
L 463.936673 -86.983619 
L 463.936673 -86.642033 
L 463.936673 -86.298068 
L 463.936673 -85.951689 
L 463.936673 -85.602863 
L 463.936673 -85.251555 
L 463.936673 -84.89773 
L 463.936673 -84.541351 
L 463.936673 -84.18238 
L 463.936673 -83.820781 
L 463.936673 -83.456514 
L 463.936673 -83.08954 
L 463.936673 -82.719817 
L 463.936673 -82.347305 
L 463.936673 -81.971961 
L 463.936674 -81.593742 
L 463.936675 -81.212603 
L 463.936677 -80.828499 
L 463.936681 -80.441384 
L 463.936689 -80.051209 
L 463.936704 -79.657927 
L 463.936731 -79.261486 
L 463.936778 -78.861837 
L 463.93686 -78.458926 
L 463.936998 -78.052701 
L 463.937224 -77.643105 
L 463.937588 -77.230083 
L 463.938157 -76.813577 
L 463.939031 -76.393527 
L 463.940342 -75.969874 
L 463.942268 -75.542553 
L 463.945039 -75.111502 
L 463.94895 -74.676654 
L 463.954366 -74.237943 
L 463.961736 -73.795298 
L 463.971599 -73.348649 
L 463.98459 -72.897923 
L 464.001445 -72.443044 
L 464.023 -71.983936 
L 464.050178 -71.520518 
L 464.083968 -71.052709 
L 464.125384 -70.580426 
L 464.175403 -70.103581 
L 464.234881 -69.622086 
L 464.304448 -69.135849 
L 464.384389 -68.644776 
L 464.474519 -68.14877 
L 464.574079 -67.64773 
L 464.681657 -67.141554 
L 464.795164 -66.630135 
L 464.911869 -66.113362 
L 465.028502 -65.591124 
L 465.141415 -65.063303 
L 465.246792 -64.529778 
L 465.340887 -63.990425 
L 465.420257 -63.445115 
L 465.481976 -62.893715 
L 465.523815 -62.336087 
L 465.544349 -61.77209 
L 465.543021 -61.201576 
L 465.520132 -60.624392 
L 465.476783 -60.040381 
L 465.414767 -59.449379 
L 465.336441 -58.851217 
L 465.244577 -58.24572 
L 465.14222 -57.632705 
L 465.032543 -57.011983 
L 464.918728 -56.383357 
L 464.803851 -55.746625 
z
" style="stroke: #3f3f3f; stroke-width: 1.25"/>
    </defs>
    <g clip-path="url(#p1c030fada1)">
     <use xlink:href="#m9ca6e1c848" x="0" y="392.514375" style="fill: #e1812c; stroke: #3f3f3f; stroke-width: 1.25"/>
    </g>
   </g>
   <g id="FillBetweenPolyCollection_5">
    <defs>
     <path id="mb3f6404610" d="M 468.719746 -176.158894 
L 467.57986 -176.158894 
L 467.534495 -176.224374 
L 467.489139 -176.289767 
L 467.444138 -176.355073 
L 467.399824 -176.420293 
L 467.356505 -176.485427 
L 467.314459 -176.550475 
L 467.273935 -176.615438 
L 467.235144 -176.680315 
L 467.198262 -176.745107 
L 467.163435 -176.809815 
L 467.13078 -176.874437 
L 467.100391 -176.938975 
L 467.072346 -177.003429 
L 467.046712 -177.067799 
L 467.023555 -177.132085 
L 467.002942 -177.196287 
L 466.984946 -177.260406 
L 466.969649 -177.324442 
L 466.957141 -177.388395 
L 466.947521 -177.452265 
L 466.94089 -177.516053 
L 466.937346 -177.579758 
L 466.93698 -177.643381 
L 466.939868 -177.706923 
L 466.946059 -177.770382 
L 466.955574 -177.833761 
L 466.968395 -177.897058 
L 466.984463 -177.960274 
L 467.003672 -178.023409 
L 467.025869 -178.086463 
L 467.050856 -178.149437 
L 467.078389 -178.212331 
L 467.108187 -178.275145 
L 467.139934 -178.337879 
L 467.17329 -178.400533 
L 467.207898 -178.463108 
L 467.243391 -178.525604 
L 467.279405 -178.588021 
L 467.315585 -178.650359 
L 467.351594 -178.712618 
L 467.387121 -178.774799 
L 467.421885 -178.836902 
L 467.455642 -178.898927 
L 467.488188 -178.960874 
L 467.519357 -179.022743 
L 467.549029 -179.084535 
L 467.577118 -179.14625 
L 467.60358 -179.207887 
L 467.6284 -179.269448 
L 467.651595 -179.330932 
L 467.673204 -179.39234 
L 467.693282 -179.453671 
L 467.7119 -179.514926 
L 467.729134 -179.576106 
L 467.745066 -179.637209 
L 467.759776 -179.698237 
L 467.773343 -179.75919 
L 467.785845 -179.820068 
L 467.797354 -179.88087 
L 467.80794 -179.941598 
L 467.817674 -180.002252 
L 467.826625 -180.06283 
L 467.834866 -180.123335 
L 467.842472 -180.183766 
L 467.849525 -180.244122 
L 467.856111 -180.304405 
L 467.862323 -180.364615 
L 467.868256 -180.424751 
L 467.874009 -180.484814 
L 467.879682 -180.544804 
L 467.885369 -180.604721 
L 467.891159 -180.664566 
L 467.897132 -180.724338 
L 467.903353 -180.784038 
L 467.909874 -180.843665 
L 467.916728 -180.903221 
L 467.923929 -180.962705 
L 467.931474 -181.022118 
L 467.939341 -181.081459 
L 467.947493 -181.140729 
L 467.955878 -181.199928 
L 467.964433 -181.259055 
L 467.973089 -181.318113 
L 467.981773 -181.377099 
L 467.990413 -181.436016 
L 467.998938 -181.494862 
L 468.007285 -181.553637 
L 468.015403 -181.612344 
L 468.023247 -181.67098 
L 468.030787 -181.729547 
L 468.038005 -181.788044 
L 468.044895 -181.846472 
L 468.051462 -181.904832 
L 468.057719 -181.963122 
L 468.063689 -182.021343 
L 468.069399 -182.079496 
L 468.074878 -182.137581 
L 468.080158 -182.195597 
L 468.085267 -182.253545 
L 468.244859 -182.253545 
L 468.244859 -182.253545 
L 468.249889 -182.195597 
L 468.255081 -182.137581 
L 468.260463 -182.079496 
L 468.266066 -182.021343 
L 468.271918 -181.963122 
L 468.278045 -181.904832 
L 468.284466 -181.846472 
L 468.291195 -181.788044 
L 468.298236 -181.729547 
L 468.30558 -181.67098 
L 468.313209 -181.612344 
L 468.321092 -181.553637 
L 468.329186 -181.494862 
L 468.337438 -181.436016 
L 468.345788 -181.377099 
L 468.354167 -181.318113 
L 468.362506 -181.259055 
L 468.370734 -181.199928 
L 468.378786 -181.140729 
L 468.386601 -181.081459 
L 468.394133 -181.022118 
L 468.401345 -180.962705 
L 468.40822 -180.903221 
L 468.414754 -180.843665 
L 468.420963 -180.784038 
L 468.426879 -180.724338 
L 468.432553 -180.664566 
L 468.438047 -180.604721 
L 468.443438 -180.544804 
L 468.448809 -180.484814 
L 468.454251 -180.424751 
L 468.459857 -180.364615 
L 468.465719 -180.304405 
L 468.471928 -180.244122 
L 468.478568 -180.183766 
L 468.485719 -180.123335 
L 468.493455 -180.06283 
L 468.501845 -180.002252 
L 468.510952 -179.941598 
L 468.520839 -179.88087 
L 468.531565 -179.820068 
L 468.543191 -179.75919 
L 468.555777 -179.698237 
L 468.569387 -179.637209 
L 468.584086 -179.576106 
L 468.599939 -179.514926 
L 468.617008 -179.453671 
L 468.635351 -179.39234 
L 468.655016 -179.330932 
L 468.676039 -179.269448 
L 468.698437 -179.207887 
L 468.722204 -179.14625 
L 468.747308 -179.084535 
L 468.773688 -179.022743 
L 468.801248 -178.960874 
L 468.829859 -178.898927 
L 468.859359 -178.836902 
L 468.889553 -178.774799 
L 468.920216 -178.712618 
L 468.951098 -178.650359 
L 468.981927 -178.588021 
L 469.01242 -178.525604 
L 469.042282 -178.463108 
L 469.071219 -178.400533 
L 469.098944 -178.337879 
L 469.125182 -178.275145 
L 469.149676 -178.212331 
L 469.172195 -178.149437 
L 469.192539 -178.086463 
L 469.210538 -178.023409 
L 469.226057 -177.960274 
L 469.238999 -177.897058 
L 469.249301 -177.833761 
L 469.256931 -177.770382 
L 469.261889 -177.706923 
L 469.2642 -177.643381 
L 469.263907 -177.579758 
L 469.261071 -177.516053 
L 469.255759 -177.452265 
L 469.248043 -177.388395 
L 469.237991 -177.324442 
L 469.225668 -177.260406 
L 469.211128 -177.196287 
L 469.194418 -177.132085 
L 469.175575 -177.067799 
L 469.154628 -177.003429 
L 469.131602 -176.938975 
L 469.106524 -176.874437 
L 469.079427 -176.809815 
L 469.050356 -176.745107 
L 469.019375 -176.680315 
L 468.986571 -176.615438 
L 468.95206 -176.550475 
L 468.91599 -176.485427 
L 468.878542 -176.420293 
L 468.839933 -176.355073 
L 468.800409 -176.289767 
L 468.760247 -176.224374 
L 468.719746 -176.158894 
z
" style="stroke: #3f3f3f; stroke-width: 1.25"/>
    </defs>
    <g clip-path="url(#p1c030fada1)">
     <use xlink:href="#mb3f6404610" x="0" y="392.514375" style="fill: #3274a1; stroke: #3f3f3f; stroke-width: 1.25"/>
    </g>
   </g>
   <g id="FillBetweenPolyCollection_6">
    <defs>
     <path id="m84d233de1e" d="M 470.715908 -77.186452 
L 469.779505 -77.186452 
L 469.747764 -77.287479 
L 469.715971 -77.3883 
L 469.684316 -77.488915 
L 469.65299 -77.589326 
L 469.622177 -77.689533 
L 469.592052 -77.789537 
L 469.562779 -77.889339 
L 469.534509 -77.988939 
L 469.507374 -78.088339 
L 469.48149 -78.187539 
L 469.456951 -78.286541 
L 469.433833 -78.385344 
L 469.41219 -78.48395 
L 469.392058 -78.582359 
L 469.373454 -78.680573 
L 469.356381 -78.778592 
L 469.340829 -78.876416 
L 469.326777 -78.974047 
L 469.3142 -79.071486 
L 469.303069 -79.168732 
L 469.293356 -79.265787 
L 469.285038 -79.362652 
L 469.278101 -79.459327 
L 469.272537 -79.555814 
L 469.268351 -79.652112 
L 469.265563 -79.748222 
L 469.2642 -79.844146 
L 469.264302 -79.939884 
L 469.26592 -80.035437 
L 469.269106 -80.130805 
L 469.27392 -80.225989 
L 469.280414 -80.32099 
L 469.288639 -80.415809 
L 469.29863 -80.510446 
L 469.31041 -80.604902 
L 469.323979 -80.699177 
L 469.339317 -80.793273 
L 469.356374 -80.88719 
L 469.375077 -80.980928 
L 469.395322 -81.074489 
L 469.416979 -81.167873 
L 469.439891 -81.261081 
L 469.463883 -81.354113 
L 469.488756 -81.44697 
L 469.514303 -81.539653 
L 469.540304 -81.632162 
L 469.56654 -81.724498 
L 469.59279 -81.816662 
L 469.618845 -81.908654 
L 469.644505 -82.000475 
L 469.669587 -82.092125 
L 469.69393 -82.183606 
L 469.717392 -82.274917 
L 469.739856 -82.36606 
L 469.761229 -82.457035 
L 469.781444 -82.547843 
L 469.800454 -82.638484 
L 469.818234 -82.728959 
L 469.83478 -82.819268 
L 469.850104 -82.909413 
L 469.864229 -82.999393 
L 469.877194 -83.08921 
L 469.889041 -83.178863 
L 469.899822 -83.268354 
L 469.90959 -83.357683 
L 469.918398 -83.446851 
L 469.926302 -83.535858 
L 469.933354 -83.624705 
L 469.939605 -83.713392 
L 469.945103 -83.80192 
L 469.949894 -83.89029 
L 469.954022 -83.978502 
L 469.95753 -84.066556 
L 469.960461 -84.154454 
L 469.962858 -84.242196 
L 469.964766 -84.329782 
L 469.966233 -84.417212 
L 469.967311 -84.504489 
L 469.968057 -84.591611 
L 469.968533 -84.67858 
L 469.968805 -84.765396 
L 469.968946 -84.852059 
L 469.969034 -84.938571 
L 469.96915 -85.024931 
L 469.969379 -85.111141 
L 469.96981 -85.1972 
L 469.97053 -85.28311 
L 469.971625 -85.36887 
L 469.973178 -85.454482 
L 469.975267 -85.539945 
L 469.977961 -85.625261 
L 469.981322 -85.71043 
L 469.985396 -85.795452 
L 469.990221 -85.880328 
L 469.995815 -85.965058 
L 470.002186 -86.049643 
L 470.009323 -86.134083 
L 470.017199 -86.218379 
L 470.025772 -86.302532 
L 470.485586 -86.302532 
L 470.485586 -86.302532 
L 470.493783 -86.218379 
L 470.501301 -86.134083 
L 470.508105 -86.049643 
L 470.51417 -85.965058 
L 470.519491 -85.880328 
L 470.524075 -85.795452 
L 470.527942 -85.71043 
L 470.53113 -85.625261 
L 470.533685 -85.539945 
L 470.535665 -85.454482 
L 470.537136 -85.36887 
L 470.538173 -85.28311 
L 470.538855 -85.1972 
L 470.539262 -85.111141 
L 470.53948 -85.024931 
L 470.53959 -84.938571 
L 470.539673 -84.852059 
L 470.539806 -84.765396 
L 470.540064 -84.67858 
L 470.540514 -84.591611 
L 470.54122 -84.504489 
L 470.542241 -84.417212 
L 470.543629 -84.329782 
L 470.545434 -84.242196 
L 470.547699 -84.154454 
L 470.550469 -84.066556 
L 470.553782 -83.978502 
L 470.557678 -83.89029 
L 470.562196 -83.80192 
L 470.567375 -83.713392 
L 470.573257 -83.624705 
L 470.579885 -83.535858 
L 470.587304 -83.446851 
L 470.595558 -83.357683 
L 470.604696 -83.268354 
L 470.614762 -83.178863 
L 470.625801 -83.08921 
L 470.637853 -82.999393 
L 470.650952 -82.909413 
L 470.665123 -82.819268 
L 470.680379 -82.728959 
L 470.696722 -82.638484 
L 470.714136 -82.547843 
L 470.732587 -82.457035 
L 470.752022 -82.36606 
L 470.772367 -82.274917 
L 470.793526 -82.183606 
L 470.815384 -82.092125 
L 470.837806 -82.000475 
L 470.860638 -81.908654 
L 470.883714 -81.816662 
L 470.906853 -81.724498 
L 470.92987 -81.632162 
L 470.952575 -81.539653 
L 470.97478 -81.44697 
L 470.996302 -81.354113 
L 471.016971 -81.261081 
L 471.036628 -81.167873 
L 471.055134 -81.074489 
L 471.072369 -80.980928 
L 471.088236 -80.88719 
L 471.102662 -80.793273 
L 471.115597 -80.699177 
L 471.127011 -80.604902 
L 471.136897 -80.510446 
L 471.145266 -80.415809 
L 471.152145 -80.32099 
L 471.157569 -80.225989 
L 471.161585 -80.130805 
L 471.164242 -80.035437 
L 471.16559 -79.939884 
L 471.165676 -79.844146 
L 471.16454 -79.748222 
L 471.162215 -79.652112 
L 471.158723 -79.555814 
L 471.154078 -79.459327 
L 471.148278 -79.362652 
L 471.141317 -79.265787 
L 471.133174 -79.168732 
L 471.123825 -79.071486 
L 471.113239 -78.974047 
L 471.101385 -78.876416 
L 471.088231 -78.778592 
L 471.073748 -78.680573 
L 471.057917 -78.582359 
L 471.040726 -78.48395 
L 471.022176 -78.385344 
L 471.002283 -78.286541 
L 470.981077 -78.187539 
L 470.958608 -78.088339 
L 470.93494 -77.988939 
L 470.910159 -77.889339 
L 470.884366 -77.789537 
L 470.857679 -77.689533 
L 470.830232 -77.589326 
L 470.80217 -77.488915 
L 470.773651 -77.3883 
L 470.74484 -77.287479 
L 470.715908 -77.186452 
z
" style="stroke: #3f3f3f; stroke-width: 1.25"/>
    </defs>
    <g clip-path="url(#p1c030fada1)">
     <use xlink:href="#m84d233de1e" x="0" y="392.514375" style="fill: #e1812c; stroke: #3f3f3f; stroke-width: 1.25"/>
    </g>
   </g>
   <g id="FillBetweenPolyCollection_7">
    <defs>
     <path id="mf390a88f4a" d="M 473.141561 -269.697102 
L 472.391665 -269.697102 
L 472.362813 -269.769492 
L 472.333801 -269.841777 
L 472.30485 -269.913956 
L 472.276187 -269.98603 
L 472.248038 -270.057998 
L 472.220629 -270.129862 
L 472.194176 -270.201622 
L 472.168887 -270.273277 
L 472.144953 -270.344829 
L 472.122545 -270.416276 
L 472.101814 -270.487621 
L 472.082885 -270.558863 
L 472.065857 -270.630002 
L 472.050798 -270.701039 
L 472.03775 -270.771973 
L 472.026725 -270.842806 
L 472.017705 -270.913538 
L 472.01065 -270.984168 
L 472.005493 -271.054697 
L 472.002148 -271.125126 
L 472.00051 -271.195454 
L 472.000461 -271.265683 
L 472.001875 -271.335811 
L 472.004617 -271.405841 
L 472.008552 -271.475771 
L 472.013544 -271.545602 
L 472.01946 -271.615334 
L 472.026174 -271.684968 
L 472.033564 -271.754504 
L 472.041518 -271.823943 
L 472.049928 -271.893283 
L 472.058698 -271.962527 
L 472.067734 -272.031673 
L 472.076954 -272.100723 
L 472.086276 -272.169676 
L 472.095626 -272.238534 
L 472.104936 -272.307295 
L 472.11414 -272.375961 
L 472.123177 -272.444531 
L 472.131993 -272.513006 
L 472.14054 -272.581387 
L 472.148776 -272.649672 
L 472.156669 -272.717864 
L 472.164195 -272.785961 
L 472.171343 -272.853965 
L 472.178111 -272.921875 
L 472.18451 -272.989692 
L 472.190562 -273.057416 
L 472.196302 -273.125047 
L 472.201772 -273.192586 
L 472.207026 -273.260032 
L 472.212124 -273.327386 
L 472.217131 -273.394649 
L 472.222115 -273.46182 
L 472.227147 -273.528899 
L 472.232295 -273.595888 
L 472.237625 -273.662786 
L 472.243198 -273.729594 
L 472.249071 -273.796311 
L 472.255293 -273.862938 
L 472.261908 -273.929475 
L 472.268951 -273.995923 
L 472.276452 -274.062282 
L 472.284432 -274.128551 
L 472.292908 -274.194732 
L 472.301888 -274.260824 
L 472.311378 -274.326828 
L 472.321375 -274.392743 
L 472.331873 -274.458571 
L 472.342858 -274.524311 
L 472.354314 -274.589964 
L 472.366216 -274.655529 
L 472.378535 -274.721007 
L 472.391234 -274.786399 
L 472.404272 -274.851705 
L 472.417601 -274.916924 
L 472.431166 -274.982057 
L 472.44491 -275.047104 
L 472.458769 -275.112065 
L 472.472676 -275.176942 
L 472.486565 -275.241733 
L 472.500366 -275.306439 
L 472.514014 -275.37106 
L 472.527444 -275.435597 
L 472.540598 -275.50005 
L 472.553423 -275.564419 
L 472.565873 -275.628704 
L 472.577909 -275.692905 
L 472.589503 -275.757023 
L 472.600634 -275.821058 
L 472.61129 -275.88501 
L 472.621468 -275.948879 
L 472.63117 -276.012666 
L 472.640407 -276.07637 
L 472.649192 -276.139992 
L 472.657545 -276.203533 
L 472.665486 -276.266991 
L 472.673038 -276.330369 
L 472.680221 -276.393665 
L 472.865658 -276.393665 
L 472.865658 -276.393665 
L 472.87271 -276.330369 
L 472.880112 -276.266991 
L 472.887886 -276.203533 
L 472.89605 -276.139992 
L 472.904623 -276.07637 
L 472.913621 -276.012666 
L 472.923055 -275.948879 
L 472.932933 -275.88501 
L 472.943255 -275.821058 
L 472.954015 -275.757023 
L 472.965199 -275.692905 
L 472.976783 -275.628704 
L 472.988738 -275.564419 
L 473.001023 -275.50005 
L 473.013594 -275.435597 
L 473.026396 -275.37106 
L 473.039373 -275.306439 
L 473.052463 -275.241733 
L 473.065601 -275.176942 
L 473.078723 -275.112065 
L 473.091765 -275.047104 
L 473.104665 -274.982057 
L 473.117366 -274.916924 
L 473.129815 -274.851705 
L 473.141962 -274.786399 
L 473.153766 -274.721007 
L 473.165189 -274.655529 
L 473.176201 -274.589964 
L 473.186777 -274.524311 
L 473.196899 -274.458571 
L 473.206551 -274.392743 
L 473.215726 -274.326828 
L 473.22442 -274.260824 
L 473.232634 -274.194732 
L 473.240373 -274.128551 
L 473.247649 -274.062282 
L 473.254478 -273.995923 
L 473.260882 -273.929475 
L 473.266889 -273.862938 
L 473.272533 -273.796311 
L 473.277854 -273.729594 
L 473.282899 -273.662786 
L 473.287718 -273.595888 
L 473.292368 -273.528899 
L 473.296909 -273.46182 
L 473.301403 -273.394649 
L 473.305914 -273.327386 
L 473.310502 -273.260032 
L 473.315226 -273.192586 
L 473.32014 -273.125047 
L 473.32529 -273.057416 
L 473.330716 -272.989692 
L 473.336446 -272.921875 
L 473.342498 -272.853965 
L 473.348883 -272.785961 
L 473.355597 -272.717864 
L 473.362627 -272.649672 
L 473.369953 -272.581387 
L 473.377543 -272.513006 
L 473.385361 -272.444531 
L 473.393362 -272.375961 
L 473.401496 -272.307295 
L 473.40971 -272.238534 
L 473.417947 -272.169676 
L 473.426145 -272.100723 
L 473.434239 -272.031673 
L 473.442159 -271.962527 
L 473.449833 -271.893283 
L 473.457182 -271.823943 
L 473.464121 -271.754504 
L 473.470559 -271.684968 
L 473.476401 -271.615334 
L 473.481544 -271.545602 
L 473.485878 -271.475771 
L 473.489292 -271.405841 
L 473.49167 -271.335811 
L 473.492895 -271.265683 
L 473.492853 -271.195454 
L 473.491433 -271.125126 
L 473.488532 -271.054697 
L 473.484057 -270.984168 
L 473.477927 -270.913538 
L 473.47008 -270.842806 
L 473.46047 -270.771973 
L 473.449072 -270.701039 
L 473.435885 -270.630002 
L 473.42093 -270.558863 
L 473.404252 -270.487621 
L 473.385921 -270.416276 
L 473.366029 -270.344829 
L 473.344693 -270.273277 
L 473.322048 -270.201622 
L 473.29825 -270.129862 
L 473.273469 -270.057998 
L 473.247891 -269.98603 
L 473.221708 -269.913956 
L 473.195123 -269.841777 
L 473.16834 -269.769492 
L 473.141561 -269.697102 
z
" style="stroke: #3f3f3f; stroke-width: 1.25"/>
    </defs>
    <g clip-path="url(#p1c030fada1)">
     <use xlink:href="#mf390a88f4a" x="0" y="392.514375" style="fill: #3274a1; stroke: #3f3f3f; stroke-width: 1.25"/>
    </g>
   </g>
   <g id="FillBetweenPolyCollection_8">
    <defs>
     <path id="m98cfeda8e1" d="M 474.190209 -147.345088 
L 474.141701 -147.345088 
L 474.141255 -147.476398 
L 474.140954 -147.607359 
L 474.140684 -147.737974 
L 474.14029 -147.868244 
L 474.139584 -147.998171 
L 474.13835 -148.127757 
L 474.13635 -148.257004 
L 474.133327 -148.385914 
L 474.129019 -148.514488 
L 474.123159 -148.642728 
L 474.115485 -148.770636 
L 474.105744 -148.898213 
L 474.093701 -149.025461 
L 474.07914 -149.152383 
L 474.061878 -149.278978 
L 474.04177 -149.405251 
L 474.018723 -149.531201 
L 473.992707 -149.65683 
L 473.963769 -149.782141 
L 473.932049 -149.907134 
L 473.897793 -150.031812 
L 473.861361 -150.156176 
L 473.823231 -150.280227 
L 473.783997 -150.403968 
L 473.744355 -150.527399 
L 473.705084 -150.650522 
L 473.667014 -150.773339 
L 473.630993 -150.895852 
L 473.59784 -151.018061 
L 473.568313 -151.139968 
L 473.543065 -151.261575 
L 473.522617 -151.382883 
L 473.507333 -151.503894 
L 473.497415 -151.624609 
L 473.492895 -151.74503 
L 473.493654 -151.865158 
L 473.499432 -151.984994 
L 473.509858 -152.10454 
L 473.524474 -152.223797 
L 473.542764 -152.342767 
L 473.564177 -152.461451 
L 473.58816 -152.57985 
L 473.61417 -152.697966 
L 473.641692 -152.8158 
L 473.670256 -152.933354 
L 473.699439 -153.050628 
L 473.728867 -153.167625 
L 473.758221 -153.284345 
L 473.787223 -153.400789 
L 473.815637 -153.51696 
L 473.843258 -153.632858 
L 473.869906 -153.748484 
L 473.895418 -153.863841 
L 473.919651 -153.978928 
L 473.942476 -154.093748 
L 473.963787 -154.208302 
L 473.983502 -154.32259 
L 474.00157 -154.436614 
L 474.01798 -154.550376 
L 474.032762 -154.663876 
L 474.045988 -154.777116 
L 474.057771 -154.890097 
L 474.068252 -155.002819 
L 474.077598 -155.115285 
L 474.085981 -155.227496 
L 474.093569 -155.339452 
L 474.100511 -155.451154 
L 474.106928 -155.562605 
L 474.112909 -155.673804 
L 474.118502 -155.784754 
L 474.123722 -155.895455 
L 474.128552 -156.005908 
L 474.132954 -156.116115 
L 474.136875 -156.226076 
L 474.140258 -156.335793 
L 474.143053 -156.445267 
L 474.145218 -156.554498 
L 474.146732 -156.663488 
L 474.147595 -156.772238 
L 474.147828 -156.88075 
L 474.147477 -156.989023 
L 474.146604 -157.097059 
L 474.145292 -157.20486 
L 474.143633 -157.312426 
L 474.141729 -157.419757 
L 474.139684 -157.526856 
L 474.137599 -157.633723 
L 474.13557 -157.74036 
L 474.133683 -157.846766 
L 474.132015 -157.952944 
L 474.130626 -158.058894 
L 474.129565 -158.164617 
L 474.128869 -158.270114 
L 474.128561 -158.375386 
L 474.128654 -158.480435 
L 474.129149 -158.58526 
L 474.130037 -158.689863 
L 474.131298 -158.794245 
L 474.132904 -158.898406 
L 474.198958 -158.898406 
L 474.198958 -158.898406 
L 474.200553 -158.794245 
L 474.201806 -158.689863 
L 474.202688 -158.58526 
L 474.203179 -158.480435 
L 474.203272 -158.375386 
L 474.202966 -158.270114 
L 474.202275 -158.164617 
L 474.201222 -158.058894 
L 474.199842 -157.952944 
L 474.198184 -157.846766 
L 474.196309 -157.74036 
L 474.194291 -157.633723 
L 474.192217 -157.526856 
L 474.190181 -157.419757 
L 474.188286 -157.312426 
L 474.186634 -157.20486 
L 474.185327 -157.097059 
L 474.184457 -156.989023 
L 474.184107 -156.88075 
L 474.184339 -156.772238 
L 474.185199 -156.663488 
L 474.186708 -156.554498 
L 474.188864 -156.445267 
L 474.191645 -156.335793 
L 474.195011 -156.226076 
L 474.198909 -156.116115 
L 474.203281 -156.005908 
L 474.208075 -155.895455 
L 474.21325 -155.784754 
L 474.218789 -155.673804 
L 474.224706 -155.562605 
L 474.231048 -155.451154 
L 474.237899 -155.339452 
L 474.245377 -155.227496 
L 474.253626 -155.115285 
L 474.262807 -155.002819 
L 474.273085 -154.890097 
L 474.284613 -154.777116 
L 474.297524 -154.663876 
L 474.311916 -154.550376 
L 474.327845 -154.436614 
L 474.345327 -154.32259 
L 474.364334 -154.208302 
L 474.384801 -154.093748 
L 474.406632 -153.978928 
L 474.429707 -153.863841 
L 474.453887 -153.748484 
L 474.479021 -153.632858 
L 474.504942 -153.51696 
L 474.531469 -153.400789 
L 474.558401 -153.284345 
L 474.585513 -153.167625 
L 474.612548 -153.050628 
L 474.639213 -152.933354 
L 474.665174 -152.8158 
L 474.690062 -152.697966 
L 474.713466 -152.57985 
L 474.734949 -152.461451 
L 474.754052 -152.342767 
L 474.770309 -152.223797 
L 474.783262 -152.10454 
L 474.792481 -151.984994 
L 474.797583 -151.865158 
L 474.798252 -151.74503 
L 474.794263 -151.624609 
L 474.785496 -151.503894 
L 474.771957 -151.382883 
L 474.753784 -151.261575 
L 474.731251 -151.139968 
L 474.704769 -151.018061 
L 474.674864 -150.895852 
L 474.642166 -150.773339 
L 474.607373 -150.650522 
L 474.571227 -150.527399 
L 474.534472 -150.403968 
L 474.497829 -150.280227 
L 474.46196 -150.156176 
L 474.427449 -150.031812 
L 474.394785 -149.907134 
L 474.364351 -149.782141 
L 474.336428 -149.65683 
L 474.311193 -149.531201 
L 474.288734 -149.405251 
L 474.26906 -149.278978 
L 474.25211 -149.152383 
L 474.237769 -149.025461 
L 474.225877 -148.898213 
L 474.216239 -148.770636 
L 474.208633 -148.642728 
L 474.202817 -148.514488 
L 474.198538 -148.385914 
L 474.195533 -148.257004 
L 474.193543 -148.127757 
L 474.192316 -147.998171 
L 474.191613 -147.868244 
L 474.191221 -147.737974 
L 474.190952 -147.607359 
L 474.190654 -147.476398 
L 474.190209 -147.345088 
z
" style="stroke: #3f3f3f; stroke-width: 1.25"/>
    </defs>
    <g clip-path="url(#p1c030fada1)">
     <use xlink:href="#m98cfeda8e1" x="0" y="392.514375" style="fill: #e1812c; stroke: #3f3f3f; stroke-width: 1.25"/>
    </g>
   </g>
   <g id="FillBetweenPolyCollection_9">
    <defs>
     <path id="mfb17bbf9d4" d="M 476.069537 -352.069598 
L 475.845767 -352.069598 
L 475.830745 -352.100902 
L 475.81472 -352.132187 
L 475.7978 -352.163451 
L 475.780121 -352.194696 
L 475.761844 -352.225921 
L 475.743147 -352.257126 
L 475.724216 -352.288311 
L 475.705243 -352.319477 
L 475.686407 -352.350623 
L 475.667873 -352.381749 
L 475.649779 -352.412856 
L 475.632229 -352.443943 
L 475.615293 -352.475011 
L 475.599 -352.506059 
L 475.583342 -352.537088 
L 475.568282 -352.568097 
L 475.553754 -352.599087 
L 475.539679 -352.630057 
L 475.52597 -352.661008 
L 475.512551 -352.691939 
L 475.499364 -352.722851 
L 475.486382 -352.753744 
L 475.473616 -352.784618 
L 475.461129 -352.815472 
L 475.449033 -352.846307 
L 475.437494 -352.877122 
L 475.426729 -352.907919 
L 475.416996 -352.938696 
L 475.40859 -352.969454 
L 475.401821 -353.000193 
L 475.397002 -353.030912 
L 475.394432 -353.061613 
L 475.394372 -353.092295 
L 475.397029 -353.122957 
L 475.402543 -353.153601 
L 475.410968 -353.184225 
L 475.422269 -353.214831 
L 475.436316 -353.245417 
L 475.452886 -353.275985 
L 475.471675 -353.306533 
L 475.492307 -353.337063 
L 475.514354 -353.367574 
L 475.537351 -353.398066 
L 475.560827 -353.428539 
L 475.584316 -353.458994 
L 475.607386 -353.48943 
L 475.62965 -353.519847 
L 475.650786 -353.550245 
L 475.670543 -353.580624 
L 475.688749 -353.610985 
L 475.705312 -353.641327 
L 475.720213 -353.671651 
L 475.733504 -353.701956 
L 475.745295 -353.732242 
L 475.755743 -353.76251 
L 475.765037 -353.792759 
L 475.773382 -353.82299 
L 475.780992 -353.853202 
L 475.788071 -353.883396 
L 475.794808 -353.913571 
L 475.801365 -353.943728 
L 475.807876 -353.973866 
L 475.81444 -354.003987 
L 475.821125 -354.034088 
L 475.827966 -354.064172 
L 475.834971 -354.094237 
L 475.842125 -354.124283 
L 475.849392 -354.154312 
L 475.856725 -354.184322 
L 475.864066 -354.214314 
L 475.871351 -354.244288 
L 475.878517 -354.274243 
L 475.885501 -354.304181 
L 475.892241 -354.3341 
L 475.898683 -354.364001 
L 475.904776 -354.393884 
L 475.910474 -354.423749 
L 475.915738 -354.453596 
L 475.920533 -354.483425 
L 475.924835 -354.513236 
L 475.928621 -354.543029 
L 475.931878 -354.572804 
L 475.934603 -354.602561 
L 475.936798 -354.6323 
L 475.938477 -354.662021 
L 475.939662 -354.691725 
L 475.940386 -354.72141 
L 475.940692 -354.751078 
L 475.940633 -354.780727 
L 475.940269 -354.810359 
L 475.939668 -354.839974 
L 475.938904 -354.86957 
L 475.938052 -354.899149 
L 475.937187 -354.92871 
L 475.93638 -354.958253 
L 475.935698 -354.987779 
L 475.935196 -355.017287 
L 475.93492 -355.046777 
L 475.934899 -355.07625 
L 475.981553 -355.07625 
L 475.981553 -355.07625 
L 475.981532 -355.046777 
L 475.981257 -355.017287 
L 475.980757 -354.987779 
L 475.980078 -354.958253 
L 475.979275 -354.92871 
L 475.978413 -354.899149 
L 475.977564 -354.86957 
L 475.976803 -354.839974 
L 475.976205 -354.810359 
L 475.975842 -354.780727 
L 475.975783 -354.751078 
L 475.976088 -354.72141 
L 475.976809 -354.691725 
L 475.97799 -354.662021 
L 475.979662 -354.6323 
L 475.981847 -354.602561 
L 475.984559 -354.572804 
L 475.9878 -354.543029 
L 475.991563 -354.513236 
L 475.995835 -354.483425 
L 476.000594 -354.453596 
L 476.005812 -354.423749 
L 476.011455 -354.393884 
L 476.017482 -354.364001 
L 476.023848 -354.3341 
L 476.0305 -354.304181 
L 476.037382 -354.274243 
L 476.044435 -354.244288 
L 476.051595 -354.214314 
L 476.0588 -354.184322 
L 476.065987 -354.154312 
L 476.073101 -354.124283 
L 476.080093 -354.094237 
L 476.086931 -354.064172 
L 476.0936 -354.034088 
L 476.100108 -354.003987 
L 476.106491 -353.973866 
L 476.112814 -353.943728 
L 476.119174 -353.913571 
L 476.1257 -353.883396 
L 476.13255 -353.853202 
L 476.139902 -353.82299 
L 476.147953 -353.792759 
L 476.156903 -353.76251 
L 476.166947 -353.732242 
L 476.178259 -353.701956 
L 476.190979 -353.671651 
L 476.205203 -353.641327 
L 476.220966 -353.610985 
L 476.238237 -353.580624 
L 476.256913 -353.550245 
L 476.276816 -353.519847 
L 476.297698 -353.48943 
L 476.319243 -353.458994 
L 476.341087 -353.428539 
L 476.362823 -353.398066 
L 476.384026 -353.367574 
L 476.404267 -353.337063 
L 476.423136 -353.306533 
L 476.440257 -353.275985 
L 476.455308 -353.245417 
L 476.468031 -353.214831 
L 476.478243 -353.184225 
L 476.485843 -353.153601 
L 476.49081 -353.122957 
L 476.493203 -353.092295 
L 476.493148 -353.061613 
L 476.490834 -353.030912 
L 476.486494 -353.000193 
L 476.48039 -352.969454 
L 476.472798 -352.938696 
L 476.463995 -352.907919 
L 476.454239 -352.877122 
L 476.443761 -352.846307 
L 476.432753 -352.815472 
L 476.421364 -352.784618 
L 476.409694 -352.753744 
L 476.397797 -352.722851 
L 476.385684 -352.691939 
L 476.373327 -352.661008 
L 476.360672 -352.630057 
L 476.347645 -352.599087 
L 476.334164 -352.568097 
L 476.320151 -352.537088 
L 476.305541 -352.506059 
L 476.290292 -352.475011 
L 476.274392 -352.443943 
L 476.257863 -352.412856 
L 476.240765 -352.381749 
L 476.223191 -352.350623 
L 476.205269 -352.319477 
L 476.187151 -352.288311 
L 476.169011 -352.257126 
L 476.151029 -352.225921 
L 476.133391 -352.194696 
L 476.116273 -352.163451 
L 476.099836 -352.132187 
L 476.084219 -352.100902 
L 476.069537 -352.069598 
z
" style="stroke: #3f3f3f; stroke-width: 1.25"/>
    </defs>
    <g clip-path="url(#p1c030fada1)">
     <use xlink:href="#mfb17bbf9d4" x="0" y="392.514375" style="fill: #3274a1; stroke: #3f3f3f; stroke-width: 1.25"/>
    </g>
   </g>
   <g id="FillBetweenPolyCollection_10">
    <defs>
     <path id="m7556fbb207" d="M 477.045434 -236.444044 
L 476.958479 -236.444044 
L 476.955691 -236.645391 
L 476.953047 -236.84592 
L 476.95053 -237.045637 
L 476.948107 -237.24455 
L 476.945725 -237.442665 
L 476.94332 -237.639988 
L 476.94082 -237.836526 
L 476.938149 -238.032284 
L 476.935235 -238.22727 
L 476.93202 -238.421488 
L 476.928462 -238.614945 
L 476.924544 -238.807647 
L 476.920279 -238.999601 
L 476.91571 -239.19081 
L 476.910907 -239.381282 
L 476.905972 -239.571022 
L 476.901024 -239.760036 
L 476.896198 -239.948329 
L 476.891628 -240.135907 
L 476.887446 -240.322774 
L 476.883763 -240.508937 
L 476.880659 -240.694401 
L 476.878181 -240.879171 
L 476.876327 -241.063252 
L 476.875046 -241.246649 
L 476.874238 -241.429367 
L 476.873748 -241.611412 
L 476.873376 -241.792788 
L 476.872878 -241.9735 
L 476.871976 -242.153553 
L 476.87037 -242.332952 
L 476.867743 -242.511701 
L 476.863782 -242.689806 
L 476.858184 -242.86727 
L 476.850673 -243.044099 
L 476.841016 -243.220297 
L 476.829032 -243.395868 
L 476.81461 -243.570817 
L 476.797717 -243.745148 
L 476.77841 -243.918866 
L 476.756845 -244.091975 
L 476.733279 -244.26448 
L 476.708073 -244.436383 
L 476.681686 -244.60769 
L 476.654671 -244.778405 
L 476.627655 -244.948532 
L 476.601326 -245.118074 
L 476.576402 -245.287036 
L 476.553608 -245.455422 
L 476.53364 -245.623236 
L 476.517134 -245.790481 
L 476.504634 -245.957162 
L 476.496564 -246.123281 
L 476.493203 -246.288844 
L 476.494671 -246.453854 
L 476.500926 -246.618314 
L 476.511763 -246.782227 
L 476.526831 -246.945599 
L 476.545652 -247.108431 
L 476.567651 -247.270729 
L 476.592189 -247.432495 
L 476.618594 -247.593732 
L 476.646196 -247.754445 
L 476.674356 -247.914636 
L 476.702491 -248.074309 
L 476.730091 -248.233467 
L 476.756732 -248.392114 
L 476.78208 -248.550253 
L 476.805893 -248.707887 
L 476.828013 -248.865019 
L 476.848357 -249.021653 
L 476.866906 -249.177792 
L 476.88369 -249.333438 
L 476.89878 -249.488595 
L 476.912268 -249.643266 
L 476.924261 -249.797454 
L 476.934872 -249.951162 
L 476.944211 -250.104393 
L 476.952382 -250.25715 
L 476.959481 -250.409436 
L 476.965595 -250.561254 
L 476.9708 -250.712606 
L 476.975167 -250.863496 
L 476.978761 -251.013926 
L 476.981646 -251.163898 
L 476.983882 -251.313417 
L 476.985533 -251.462485 
L 476.986664 -251.611103 
L 476.987345 -251.759276 
L 476.987648 -251.907005 
L 476.987646 -252.054294 
L 476.987417 -252.201145 
L 476.987037 -252.34756 
L 476.986578 -252.493542 
L 476.98611 -252.639094 
L 476.985694 -252.784218 
L 476.985385 -252.928916 
L 476.985224 -253.073192 
L 476.985242 -253.217048 
L 477.018825 -253.217048 
L 477.018825 -253.217048 
L 477.018843 -253.073192 
L 477.018683 -252.928916 
L 477.018374 -252.784218 
L 477.01796 -252.639094 
L 477.017494 -252.493542 
L 477.017036 -252.34756 
L 477.016657 -252.201145 
L 477.016428 -252.054294 
L 477.016427 -251.907005 
L 477.016728 -251.759276 
L 477.017407 -251.611103 
L 477.018536 -251.462485 
L 477.020181 -251.313417 
L 477.022409 -251.163898 
L 477.025281 -251.013926 
L 477.028858 -250.863496 
L 477.033201 -250.712606 
L 477.038373 -250.561254 
L 477.04444 -250.409436 
L 477.051477 -250.25715 
L 477.059565 -250.104393 
L 477.068792 -249.951162 
L 477.079257 -249.797454 
L 477.09106 -249.643266 
L 477.104302 -249.488595 
L 477.119076 -249.333438 
L 477.13546 -249.177792 
L 477.153505 -249.021653 
L 477.173225 -248.865019 
L 477.19458 -248.707887 
L 477.21747 -248.550253 
L 477.241724 -248.392114 
L 477.267091 -248.233467 
L 477.293239 -248.074309 
L 477.319755 -247.914636 
L 477.346156 -247.754445 
L 477.371901 -247.593732 
L 477.396406 -247.432495 
L 477.419071 -247.270729 
L 477.439305 -247.108431 
L 477.45655 -246.945599 
L 477.470314 -246.782227 
L 477.480189 -246.618314 
L 477.485881 -246.453854 
L 477.487216 -246.288844 
L 477.484159 -246.123281 
L 477.476813 -245.957162 
L 477.465412 -245.790481 
L 477.450318 -245.623236 
L 477.431997 -245.455422 
L 477.410999 -245.287036 
L 477.387939 -245.118074 
L 477.363463 -244.948532 
L 477.338225 -244.778405 
L 477.31286 -244.60769 
L 477.287962 -244.436383 
L 477.264063 -244.26448 
L 477.241617 -244.091975 
L 477.220989 -243.918866 
L 477.202451 -243.745148 
L 477.186175 -243.570817 
L 477.172239 -243.395868 
L 477.16063 -243.220297 
L 477.151255 -243.044099 
L 477.143953 -242.86727 
L 477.138503 -242.689806 
L 477.134643 -242.511701 
L 477.132083 -242.332952 
L 477.130516 -242.153553 
L 477.129636 -241.9735 
L 477.12915 -241.792788 
L 477.128787 -241.611412 
L 477.128309 -241.429367 
L 477.12752 -241.246649 
L 477.12627 -241.063252 
L 477.12446 -240.879171 
L 477.122039 -240.694401 
L 477.119005 -240.508937 
L 477.115402 -240.322774 
L 477.111309 -240.135907 
L 477.106833 -239.948329 
L 477.102101 -239.760036 
L 477.097245 -239.571022 
L 477.092397 -239.381282 
L 477.087676 -239.19081 
L 477.083179 -238.999601 
L 477.078978 -238.807647 
L 477.075117 -238.614945 
L 477.071607 -238.421488 
L 477.068434 -238.22727 
L 477.065556 -238.032284 
L 477.062917 -237.836526 
L 477.060445 -237.639988 
L 477.058067 -237.442665 
L 477.05571 -237.24455 
L 477.053311 -237.045637 
L 477.050818 -236.84592 
L 477.048198 -236.645391 
L 477.045434 -236.444044 
z
" style="stroke: #3f3f3f; stroke-width: 1.25"/>
    </defs>
    <g clip-path="url(#p1c030fada1)">
     <use xlink:href="#m7556fbb207" x="0" y="392.514375" style="fill: #e1812c; stroke: #3f3f3f; stroke-width: 1.25"/>
    </g>
   </g>
   <g id="patch_3">
    <path d="M -23552.192993 113742.458606 
L -23552.192993 113742.458606 
L -23552.192993 113742.458606 
L -23552.192993 113742.458606 
z
" clip-path="url(#p1c030fada1)" style="fill: #3274a1; stroke: #3f3f3f; stroke-width: 1.25; stroke-linejoin: miter"/>
   </g>
   <g id="patch_4">
    <path d="M -23552.192993 113742.458606 
L -23552.192993 113742.458606 
L -23552.192993 113742.458606 
L -23552.192993 113742.458606 
z
" clip-path="url(#p1c030fada1)" style="fill: #e1812c; stroke: #3f3f3f; stroke-width: 1.25; stroke-linejoin: miter"/>
   </g>
   <g id="matplotlib.axis_1">
    <g id="xtick_1">
     <g id="line2d_1">
      <defs>
       <path id="m1a0e227da1" d="M 0 0 
L 0 3.5 
" style="stroke: #000000; stroke-width: 0.8"/>
      </defs>
      <g>
       <use xlink:href="#m1a0e227da1" x="101.821774" y="354.958125" style="stroke: #000000; stroke-width: 0.8"/>
      </g>
     </g>
     <g id="text_1">
      <!-- $\mathdefault{10^{-15}}$ -->
      <g transform="translate(87.871774 369.556562) scale(0.1 -0.1)">
       <defs>
        <path id="DejaVuSans-31" d="M 794 531 
L 1825 531 
L 1825 4091 
L 703 3866 
L 703 4441 
L 1819 4666 
L 2450 4666 
L 2450 531 
L 3481 531 
L 3481 0 
L 794 0 
L 794 531 
z
" transform="scale(0.015625)"/>
        <path id="DejaVuSans-30" d="M 2034 4250 
Q 1547 4250 1301 3770 
Q 1056 3291 1056 2328 
Q 1056 1369 1301 889 
Q 1547 409 2034 409 
Q 2525 409 2770 889 
Q 3016 1369 3016 2328 
Q 3016 3291 2770 3770 
Q 2525 4250 2034 4250 
z
M 2034 4750 
Q 2819 4750 3233 4129 
Q 3647 3509 3647 2328 
Q 3647 1150 3233 529 
Q 2819 -91 2034 -91 
Q 1250 -91 836 529 
Q 422 1150 422 2328 
Q 422 3509 836 4129 
Q 1250 4750 2034 4750 
z
" transform="scale(0.015625)"/>
        <path id="DejaVuSans-2212" d="M 678 2272 
L 4684 2272 
L 4684 1741 
L 678 1741 
L 678 2272 
z
" transform="scale(0.015625)"/>
        <path id="DejaVuSans-35" d="M 691 4666 
L 3169 4666 
L 3169 4134 
L 1269 4134 
L 1269 2991 
Q 1406 3038 1543 3061 
Q 1681 3084 1819 3084 
Q 2600 3084 3056 2656 
Q 3513 2228 3513 1497 
Q 3513 744 3044 326 
Q 2575 -91 1722 -91 
Q 1428 -91 1123 -41 
Q 819 9 494 109 
L 494 744 
Q 775 591 1075 516 
Q 1375 441 1709 441 
Q 2250 441 2565 725 
Q 2881 1009 2881 1497 
Q 2881 1984 2565 2268 
Q 2250 2553 1709 2553 
Q 1456 2553 1204 2497 
Q 953 2441 691 2322 
L 691 4666 
z
" transform="scale(0.015625)"/>
       </defs>
       <use xlink:href="#DejaVuSans-31" transform="translate(0 0.684375)"/>
       <use xlink:href="#DejaVuSans-30" transform="translate(63.623047 0.684375)"/>
       <use xlink:href="#DejaVuSans-2212" transform="translate(128.203125 38.965625) scale(0.7)"/>
       <use xlink:href="#DejaVuSans-31" transform="translate(186.855469 38.965625) scale(0.7)"/>
       <use xlink:href="#DejaVuSans-35" transform="translate(231.391602 38.965625) scale(0.7)"/>
      </g>
     </g>
    </g>
    <g id="xtick_2">
     <g id="line2d_2">
      <g>
       <use xlink:href="#m1a0e227da1" x="173.864458" y="354.958125" style="stroke: #000000; stroke-width: 0.8"/>
      </g>
     </g>
     <g id="text_2">
      <!-- $\mathdefault{10^{-12}}$ -->
      <g transform="translate(159.914458 369.556562) scale(0.1 -0.1)">
       <defs>
        <path id="DejaVuSans-32" d="M 1228 531 
L 3431 531 
L 3431 0 
L 469 0 
L 469 531 
Q 828 903 1448 1529 
Q 2069 2156 2228 2338 
Q 2531 2678 2651 2914 
Q 2772 3150 2772 3378 
Q 2772 3750 2511 3984 
Q 2250 4219 1831 4219 
Q 1534 4219 1204 4116 
Q 875 4013 500 3803 
L 500 4441 
Q 881 4594 1212 4672 
Q 1544 4750 1819 4750 
Q 2544 4750 2975 4387 
Q 3406 4025 3406 3419 
Q 3406 3131 3298 2873 
Q 3191 2616 2906 2266 
Q 2828 2175 2409 1742 
Q 1991 1309 1228 531 
z
" transform="scale(0.015625)"/>
       </defs>
       <use xlink:href="#DejaVuSans-31" transform="translate(0 0.765625)"/>
       <use xlink:href="#DejaVuSans-30" transform="translate(63.623047 0.765625)"/>
       <use xlink:href="#DejaVuSans-2212" transform="translate(128.203125 39.046875) scale(0.7)"/>
       <use xlink:href="#DejaVuSans-31" transform="translate(186.855469 39.046875) scale(0.7)"/>
       <use xlink:href="#DejaVuSans-32" transform="translate(231.391602 39.046875) scale(0.7)"/>
      </g>
     </g>
    </g>
    <g id="xtick_3">
     <g id="line2d_3">
      <g>
       <use xlink:href="#m1a0e227da1" x="245.907143" y="354.958125" style="stroke: #000000; stroke-width: 0.8"/>
      </g>
     </g>
     <g id="text_3">
      <!-- $\mathdefault{10^{-9}}$ -->
      <g transform="translate(234.157143 369.556562) scale(0.1 -0.1)">
       <defs>
        <path id="DejaVuSans-39" d="M 703 97 
L 703 672 
Q 941 559 1184 500 
Q 1428 441 1663 441 
Q 2288 441 2617 861 
Q 2947 1281 2994 2138 
Q 2813 1869 2534 1725 
Q 2256 1581 1919 1581 
Q 1219 1581 811 2004 
Q 403 2428 403 3163 
Q 403 3881 828 4315 
Q 1253 4750 1959 4750 
Q 2769 4750 3195 4129 
Q 3622 3509 3622 2328 
Q 3622 1225 3098 567 
Q 2575 -91 1691 -91 
Q 1453 -91 1209 -44 
Q 966 3 703 97 
z
M 1959 2075 
Q 2384 2075 2632 2365 
Q 2881 2656 2881 3163 
Q 2881 3666 2632 3958 
Q 2384 4250 1959 4250 
Q 1534 4250 1286 3958 
Q 1038 3666 1038 3163 
Q 1038 2656 1286 2365 
Q 1534 2075 1959 2075 
z
" transform="scale(0.015625)"/>
       </defs>
       <use xlink:href="#DejaVuSans-31" transform="translate(0 0.765625)"/>
       <use xlink:href="#DejaVuSans-30" transform="translate(63.623047 0.765625)"/>
       <use xlink:href="#DejaVuSans-2212" transform="translate(128.203125 39.046875) scale(0.7)"/>
       <use xlink:href="#DejaVuSans-39" transform="translate(186.855469 39.046875) scale(0.7)"/>
      </g>
     </g>
    </g>
    <g id="xtick_4">
     <g id="line2d_4">
      <g>
       <use xlink:href="#m1a0e227da1" x="317.949827" y="354.958125" style="stroke: #000000; stroke-width: 0.8"/>
      </g>
     </g>
     <g id="text_4">
      <!-- $\mathdefault{10^{-6}}$ -->
      <g transform="translate(306.199827 369.556562) scale(0.1 -0.1)">
       <defs>
        <path id="DejaVuSans-36" d="M 2113 2584 
Q 1688 2584 1439 2293 
Q 1191 2003 1191 1497 
Q 1191 994 1439 701 
Q 1688 409 2113 409 
Q 2538 409 2786 701 
Q 3034 994 3034 1497 
Q 3034 2003 2786 2293 
Q 2538 2584 2113 2584 
z
M 3366 4563 
L 3366 3988 
Q 3128 4100 2886 4159 
Q 2644 4219 2406 4219 
Q 1781 4219 1451 3797 
Q 1122 3375 1075 2522 
Q 1259 2794 1537 2939 
Q 1816 3084 2150 3084 
Q 2853 3084 3261 2657 
Q 3669 2231 3669 1497 
Q 3669 778 3244 343 
Q 2819 -91 2113 -91 
Q 1303 -91 875 529 
Q 447 1150 447 2328 
Q 447 3434 972 4092 
Q 1497 4750 2381 4750 
Q 2619 4750 2861 4703 
Q 3103 4656 3366 4563 
z
" transform="scale(0.015625)"/>
       </defs>
       <use xlink:href="#DejaVuSans-31" transform="translate(0 0.765625)"/>
       <use xlink:href="#DejaVuSans-30" transform="translate(63.623047 0.765625)"/>
       <use xlink:href="#DejaVuSans-2212" transform="translate(128.203125 39.046875) scale(0.7)"/>
       <use xlink:href="#DejaVuSans-36" transform="translate(186.855469 39.046875) scale(0.7)"/>
      </g>
     </g>
    </g>
    <g id="xtick_5">
     <g id="line2d_5">
      <g>
       <use xlink:href="#m1a0e227da1" x="389.992512" y="354.958125" style="stroke: #000000; stroke-width: 0.8"/>
      </g>
     </g>
     <g id="text_5">
      <!-- $\mathdefault{10^{-3}}$ -->
      <g transform="translate(378.242512 369.556562) scale(0.1 -0.1)">
       <defs>
        <path id="DejaVuSans-33" d="M 2597 2516 
Q 3050 2419 3304 2112 
Q 3559 1806 3559 1356 
Q 3559 666 3084 287 
Q 2609 -91 1734 -91 
Q 1441 -91 1130 -33 
Q 819 25 488 141 
L 488 750 
Q 750 597 1062 519 
Q 1375 441 1716 441 
Q 2309 441 2620 675 
Q 2931 909 2931 1356 
Q 2931 1769 2642 2001 
Q 2353 2234 1838 2234 
L 1294 2234 
L 1294 2753 
L 1863 2753 
Q 2328 2753 2575 2939 
Q 2822 3125 2822 3475 
Q 2822 3834 2567 4026 
Q 2313 4219 1838 4219 
Q 1578 4219 1281 4162 
Q 984 4106 628 3988 
L 628 4550 
Q 988 4650 1302 4700 
Q 1616 4750 1894 4750 
Q 2613 4750 3031 4423 
Q 3450 4097 3450 3541 
Q 3450 3153 3228 2886 
Q 3006 2619 2597 2516 
z
" transform="scale(0.015625)"/>
       </defs>
       <use xlink:href="#DejaVuSans-31" transform="translate(0 0.765625)"/>
       <use xlink:href="#DejaVuSans-30" transform="translate(63.623047 0.765625)"/>
       <use xlink:href="#DejaVuSans-2212" transform="translate(128.203125 39.046875) scale(0.7)"/>
       <use xlink:href="#DejaVuSans-33" transform="translate(186.855469 39.046875) scale(0.7)"/>
      </g>
     </g>
    </g>
    <g id="xtick_6">
     <g id="line2d_6">
      <g>
       <use xlink:href="#m1a0e227da1" x="462.035197" y="354.958125" style="stroke: #000000; stroke-width: 0.8"/>
      </g>
     </g>
     <g id="text_6">
      <!-- $\mathdefault{10^{0}}$ -->
      <g transform="translate(453.235197 369.556562) scale(0.1 -0.1)">
       <use xlink:href="#DejaVuSans-31" transform="translate(0 0.765625)"/>
       <use xlink:href="#DejaVuSans-30" transform="translate(63.623047 0.765625)"/>
       <use xlink:href="#DejaVuSans-30" transform="translate(128.203125 39.046875) scale(0.7)"/>
      </g>
     </g>
    </g>
    <g id="text_7">
     <!-- Dataset size (#rows) -->
     <g transform="translate(222.338281 383.234687) scale(0.1 -0.1)">
      <defs>
       <path id="DejaVuSans-44" d="M 1259 4147 
L 1259 519 
L 2022 519 
Q 2988 519 3436 956 
Q 3884 1394 3884 2338 
Q 3884 3275 3436 3711 
Q 2988 4147 2022 4147 
L 1259 4147 
z
M 628 4666 
L 1925 4666 
Q 3281 4666 3915 4102 
Q 4550 3538 4550 2338 
Q 4550 1131 3912 565 
Q 3275 0 1925 0 
L 628 0 
L 628 4666 
z
" transform="scale(0.015625)"/>
       <path id="DejaVuSans-61" d="M 2194 1759 
Q 1497 1759 1228 1600 
Q 959 1441 959 1056 
Q 959 750 1161 570 
Q 1363 391 1709 391 
Q 2188 391 2477 730 
Q 2766 1069 2766 1631 
L 2766 1759 
L 2194 1759 
z
M 3341 1997 
L 3341 0 
L 2766 0 
L 2766 531 
Q 2569 213 2275 61 
Q 1981 -91 1556 -91 
Q 1019 -91 701 211 
Q 384 513 384 1019 
Q 384 1609 779 1909 
Q 1175 2209 1959 2209 
L 2766 2209 
L 2766 2266 
Q 2766 2663 2505 2880 
Q 2244 3097 1772 3097 
Q 1472 3097 1187 3025 
Q 903 2953 641 2809 
L 641 3341 
Q 956 3463 1253 3523 
Q 1550 3584 1831 3584 
Q 2591 3584 2966 3190 
Q 3341 2797 3341 1997 
z
" transform="scale(0.015625)"/>
       <path id="DejaVuSans-74" d="M 1172 4494 
L 1172 3500 
L 2356 3500 
L 2356 3053 
L 1172 3053 
L 1172 1153 
Q 1172 725 1289 603 
Q 1406 481 1766 481 
L 2356 481 
L 2356 0 
L 1766 0 
Q 1100 0 847 248 
Q 594 497 594 1153 
L 594 3053 
L 172 3053 
L 172 3500 
L 594 3500 
L 594 4494 
L 1172 4494 
z
" transform="scale(0.015625)"/>
       <path id="DejaVuSans-73" d="M 2834 3397 
L 2834 2853 
Q 2591 2978 2328 3040 
Q 2066 3103 1784 3103 
Q 1356 3103 1142 2972 
Q 928 2841 928 2578 
Q 928 2378 1081 2264 
Q 1234 2150 1697 2047 
L 1894 2003 
Q 2506 1872 2764 1633 
Q 3022 1394 3022 966 
Q 3022 478 2636 193 
Q 2250 -91 1575 -91 
Q 1294 -91 989 -36 
Q 684 19 347 128 
L 347 722 
Q 666 556 975 473 
Q 1284 391 1588 391 
Q 1994 391 2212 530 
Q 2431 669 2431 922 
Q 2431 1156 2273 1281 
Q 2116 1406 1581 1522 
L 1381 1569 
Q 847 1681 609 1914 
Q 372 2147 372 2553 
Q 372 3047 722 3315 
Q 1072 3584 1716 3584 
Q 2034 3584 2315 3537 
Q 2597 3491 2834 3397 
z
" transform="scale(0.015625)"/>
       <path id="DejaVuSans-65" d="M 3597 1894 
L 3597 1613 
L 953 1613 
Q 991 1019 1311 708 
Q 1631 397 2203 397 
Q 2534 397 2845 478 
Q 3156 559 3463 722 
L 3463 178 
Q 3153 47 2828 -22 
Q 2503 -91 2169 -91 
Q 1331 -91 842 396 
Q 353 884 353 1716 
Q 353 2575 817 3079 
Q 1281 3584 2069 3584 
Q 2775 3584 3186 3129 
Q 3597 2675 3597 1894 
z
M 3022 2063 
Q 3016 2534 2758 2815 
Q 2500 3097 2075 3097 
Q 1594 3097 1305 2825 
Q 1016 2553 972 2059 
L 3022 2063 
z
" transform="scale(0.015625)"/>
       <path id="DejaVuSans-20" transform="scale(0.015625)"/>
       <path id="DejaVuSans-69" d="M 603 3500 
L 1178 3500 
L 1178 0 
L 603 0 
L 603 3500 
z
M 603 4863 
L 1178 4863 
L 1178 4134 
L 603 4134 
L 603 4863 
z
" transform="scale(0.015625)"/>
       <path id="DejaVuSans-7a" d="M 353 3500 
L 3084 3500 
L 3084 2975 
L 922 459 
L 3084 459 
L 3084 0 
L 275 0 
L 275 525 
L 2438 3041 
L 353 3041 
L 353 3500 
z
" transform="scale(0.015625)"/>
       <path id="DejaVuSans-28" d="M 1984 4856 
Q 1566 4138 1362 3434 
Q 1159 2731 1159 2009 
Q 1159 1288 1364 580 
Q 1569 -128 1984 -844 
L 1484 -844 
Q 1016 -109 783 600 
Q 550 1309 550 2009 
Q 550 2706 781 3412 
Q 1013 4119 1484 4856 
L 1984 4856 
z
" transform="scale(0.015625)"/>
       <path id="DejaVuSans-23" d="M 3272 2816 
L 2363 2816 
L 2100 1772 
L 3016 1772 
L 3272 2816 
z
M 2803 4594 
L 2478 3297 
L 3391 3297 
L 3719 4594 
L 4219 4594 
L 3897 3297 
L 4872 3297 
L 4872 2816 
L 3775 2816 
L 3519 1772 
L 4513 1772 
L 4513 1294 
L 3397 1294 
L 3072 0 
L 2572 0 
L 2894 1294 
L 1978 1294 
L 1656 0 
L 1153 0 
L 1478 1294 
L 494 1294 
L 494 1772 
L 1594 1772 
L 1856 2816 
L 850 2816 
L 850 3297 
L 1978 3297 
L 2297 4594 
L 2803 4594 
z
" transform="scale(0.015625)"/>
       <path id="DejaVuSans-72" d="M 2631 2963 
Q 2534 3019 2420 3045 
Q 2306 3072 2169 3072 
Q 1681 3072 1420 2755 
Q 1159 2438 1159 1844 
L 1159 0 
L 581 0 
L 581 3500 
L 1159 3500 
L 1159 2956 
Q 1341 3275 1631 3429 
Q 1922 3584 2338 3584 
Q 2397 3584 2469 3576 
Q 2541 3569 2628 3553 
L 2631 2963 
z
" transform="scale(0.015625)"/>
       <path id="DejaVuSans-6f" d="M 1959 3097 
Q 1497 3097 1228 2736 
Q 959 2375 959 1747 
Q 959 1119 1226 758 
Q 1494 397 1959 397 
Q 2419 397 2687 759 
Q 2956 1122 2956 1747 
Q 2956 2369 2687 2733 
Q 2419 3097 1959 3097 
z
M 1959 3584 
Q 2709 3584 3137 3096 
Q 3566 2609 3566 1747 
Q 3566 888 3137 398 
Q 2709 -91 1959 -91 
Q 1206 -91 779 398 
Q 353 888 353 1747 
Q 353 2609 779 3096 
Q 1206 3584 1959 3584 
z
" transform="scale(0.015625)"/>
       <path id="DejaVuSans-77" d="M 269 3500 
L 844 3500 
L 1563 769 
L 2278 3500 
L 2956 3500 
L 3675 769 
L 4391 3500 
L 4966 3500 
L 4050 0 
L 3372 0 
L 2619 2869 
L 1863 0 
L 1184 0 
L 269 3500 
z
" transform="scale(0.015625)"/>
       <path id="DejaVuSans-29" d="M 513 4856 
L 1013 4856 
Q 1481 4119 1714 3412 
Q 1947 2706 1947 2009 
Q 1947 1309 1714 600 
Q 1481 -109 1013 -844 
L 513 -844 
Q 928 -128 1133 580 
Q 1338 1288 1338 2009 
Q 1338 2731 1133 3434 
Q 928 4138 513 4856 
z
" transform="scale(0.015625)"/>
      </defs>
      <use xlink:href="#DejaVuSans-44"/>
      <use xlink:href="#DejaVuSans-61" transform="translate(77.001953 0)"/>
      <use xlink:href="#DejaVuSans-74" transform="translate(138.28125 0)"/>
      <use xlink:href="#DejaVuSans-61" transform="translate(177.490234 0)"/>
      <use xlink:href="#DejaVuSans-73" transform="translate(238.769531 0)"/>
      <use xlink:href="#DejaVuSans-65" transform="translate(290.869141 0)"/>
      <use xlink:href="#DejaVuSans-74" transform="translate(352.392578 0)"/>
      <use xlink:href="#DejaVuSans-20" transform="translate(391.601562 0)"/>
      <use xlink:href="#DejaVuSans-73" transform="translate(423.388672 0)"/>
      <use xlink:href="#DejaVuSans-69" transform="translate(475.488281 0)"/>
      <use xlink:href="#DejaVuSans-7a" transform="translate(503.271484 0)"/>
      <use xlink:href="#DejaVuSans-65" transform="translate(555.761719 0)"/>
      <use xlink:href="#DejaVuSans-20" transform="translate(617.285156 0)"/>
      <use xlink:href="#DejaVuSans-28" transform="translate(649.072266 0)"/>
      <use xlink:href="#DejaVuSans-23" transform="translate(688.085938 0)"/>
      <use xlink:href="#DejaVuSans-72" transform="translate(771.875 0)"/>
      <use xlink:href="#DejaVuSans-6f" transform="translate(810.738281 0)"/>
      <use xlink:href="#DejaVuSans-77" transform="translate(871.919922 0)"/>
      <use xlink:href="#DejaVuSans-73" transform="translate(953.707031 0)"/>
      <use xlink:href="#DejaVuSans-29" transform="translate(1005.806641 0)"/>
     </g>
    </g>
   </g>
   <g id="matplotlib.axis_2">
    <g id="ytick_1">
     <g id="line2d_7">
      <defs>
       <path id="mb252781752" d="M 0 0 
L -3.5 0 
" style="stroke: #000000; stroke-width: 0.8"/>
      </defs>
      <g>
       <use xlink:href="#mb252781752" x="51.378125" y="282.234497" style="stroke: #000000; stroke-width: 0.8"/>
      </g>
     </g>
     <g id="text_8">
      <!-- $\mathdefault{10^{-2}}$ -->
      <g transform="translate(20.878125 286.033716) scale(0.1 -0.1)">
       <use xlink:href="#DejaVuSans-31" transform="translate(0 0.765625)"/>
       <use xlink:href="#DejaVuSans-30" transform="translate(63.623047 0.765625)"/>
       <use xlink:href="#DejaVuSans-2212" transform="translate(128.203125 39.046875) scale(0.7)"/>
       <use xlink:href="#DejaVuSans-32" transform="translate(186.855469 39.046875) scale(0.7)"/>
      </g>
     </g>
    </g>
    <g id="ytick_2">
     <g id="line2d_8">
      <g>
       <use xlink:href="#mb252781752" x="51.378125" y="168.546898" style="stroke: #000000; stroke-width: 0.8"/>
      </g>
     </g>
     <g id="text_9">
      <!-- $\mathdefault{10^{-1}}$ -->
      <g transform="translate(20.878125 172.346117) scale(0.1 -0.1)">
       <use xlink:href="#DejaVuSans-31" transform="translate(0 0.684375)"/>
       <use xlink:href="#DejaVuSans-30" transform="translate(63.623047 0.684375)"/>
       <use xlink:href="#DejaVuSans-2212" transform="translate(128.203125 38.965625) scale(0.7)"/>
       <use xlink:href="#DejaVuSans-31" transform="translate(186.855469 38.965625) scale(0.7)"/>
      </g>
     </g>
    </g>
    <g id="ytick_3">
     <g id="line2d_9">
      <g>
       <use xlink:href="#mb252781752" x="51.378125" y="54.859298" style="stroke: #000000; stroke-width: 0.8"/>
      </g>
     </g>
     <g id="text_10">
      <!-- $\mathdefault{10^{0}}$ -->
      <g transform="translate(26.778125 58.658517) scale(0.1 -0.1)">
       <use xlink:href="#DejaVuSans-31" transform="translate(0 0.765625)"/>
       <use xlink:href="#DejaVuSans-30" transform="translate(63.623047 0.765625)"/>
       <use xlink:href="#DejaVuSans-30" transform="translate(128.203125 39.046875) scale(0.7)"/>
      </g>
     </g>
    </g>
    <g id="ytick_4">
     <g id="line2d_10">
      <defs>
       <path id="m4c227d0a1b" d="M 0 0 
L -2 0 
" style="stroke: #000000; stroke-width: 0.6"/>
      </defs>
      <g>
       <use xlink:href="#m4c227d0a1b" x="51.378125" y="341.679326" style="stroke: #000000; stroke-width: 0.6"/>
      </g>
     </g>
    </g>
    <g id="ytick_5">
     <g id="line2d_11">
      <g>
       <use xlink:href="#m4c227d0a1b" x="51.378125" y="327.475341" style="stroke: #000000; stroke-width: 0.6"/>
      </g>
     </g>
    </g>
    <g id="ytick_6">
     <g id="line2d_12">
      <g>
       <use xlink:href="#m4c227d0a1b" x="51.378125" y="316.457875" style="stroke: #000000; stroke-width: 0.6"/>
      </g>
     </g>
    </g>
    <g id="ytick_7">
     <g id="line2d_13">
      <g>
       <use xlink:href="#m4c227d0a1b" x="51.378125" y="307.455949" style="stroke: #000000; stroke-width: 0.6"/>
      </g>
     </g>
    </g>
    <g id="ytick_8">
     <g id="line2d_14">
      <g>
       <use xlink:href="#m4c227d0a1b" x="51.378125" y="299.844929" style="stroke: #000000; stroke-width: 0.6"/>
      </g>
     </g>
    </g>
    <g id="ytick_9">
     <g id="line2d_15">
      <g>
       <use xlink:href="#m4c227d0a1b" x="51.378125" y="293.251964" style="stroke: #000000; stroke-width: 0.6"/>
      </g>
     </g>
    </g>
    <g id="ytick_10">
     <g id="line2d_16">
      <g>
       <use xlink:href="#m4c227d0a1b" x="51.378125" y="287.436556" style="stroke: #000000; stroke-width: 0.6"/>
      </g>
     </g>
    </g>
    <g id="ytick_11">
     <g id="line2d_17">
      <g>
       <use xlink:href="#m4c227d0a1b" x="51.378125" y="248.01112" style="stroke: #000000; stroke-width: 0.6"/>
      </g>
     </g>
    </g>
    <g id="ytick_12">
     <g id="line2d_18">
      <g>
       <use xlink:href="#m4c227d0a1b" x="51.378125" y="227.991727" style="stroke: #000000; stroke-width: 0.6"/>
      </g>
     </g>
    </g>
    <g id="ytick_13">
     <g id="line2d_19">
      <g>
       <use xlink:href="#m4c227d0a1b" x="51.378125" y="213.787742" style="stroke: #000000; stroke-width: 0.6"/>
      </g>
     </g>
    </g>
    <g id="ytick_14">
     <g id="line2d_20">
      <g>
       <use xlink:href="#m4c227d0a1b" x="51.378125" y="202.770275" style="stroke: #000000; stroke-width: 0.6"/>
      </g>
     </g>
    </g>
    <g id="ytick_15">
     <g id="line2d_21">
      <g>
       <use xlink:href="#m4c227d0a1b" x="51.378125" y="193.76835" style="stroke: #000000; stroke-width: 0.6"/>
      </g>
     </g>
    </g>
    <g id="ytick_16">
     <g id="line2d_22">
      <g>
       <use xlink:href="#m4c227d0a1b" x="51.378125" y="186.15733" style="stroke: #000000; stroke-width: 0.6"/>
      </g>
     </g>
    </g>
    <g id="ytick_17">
     <g id="line2d_23">
      <g>
       <use xlink:href="#m4c227d0a1b" x="51.378125" y="179.564365" style="stroke: #000000; stroke-width: 0.6"/>
      </g>
     </g>
    </g>
    <g id="ytick_18">
     <g id="line2d_24">
      <g>
       <use xlink:href="#m4c227d0a1b" x="51.378125" y="173.748957" style="stroke: #000000; stroke-width: 0.6"/>
      </g>
     </g>
    </g>
    <g id="ytick_19">
     <g id="line2d_25">
      <g>
       <use xlink:href="#m4c227d0a1b" x="51.378125" y="134.32352" style="stroke: #000000; stroke-width: 0.6"/>
      </g>
     </g>
    </g>
    <g id="ytick_20">
     <g id="line2d_26">
      <g>
       <use xlink:href="#m4c227d0a1b" x="51.378125" y="114.304128" style="stroke: #000000; stroke-width: 0.6"/>
      </g>
     </g>
    </g>
    <g id="ytick_21">
     <g id="line2d_27">
      <g>
       <use xlink:href="#m4c227d0a1b" x="51.378125" y="100.100143" style="stroke: #000000; stroke-width: 0.6"/>
      </g>
     </g>
    </g>
    <g id="ytick_22">
     <g id="line2d_28">
      <g>
       <use xlink:href="#m4c227d0a1b" x="51.378125" y="89.082676" style="stroke: #000000; stroke-width: 0.6"/>
      </g>
     </g>
    </g>
    <g id="ytick_23">
     <g id="line2d_29">
      <g>
       <use xlink:href="#m4c227d0a1b" x="51.378125" y="80.08075" style="stroke: #000000; stroke-width: 0.6"/>
      </g>
     </g>
    </g>
    <g id="ytick_24">
     <g id="line2d_30">
      <g>
       <use xlink:href="#m4c227d0a1b" x="51.378125" y="72.46973" style="stroke: #000000; stroke-width: 0.6"/>
      </g>
     </g>
    </g>
    <g id="ytick_25">
     <g id="line2d_31">
      <g>
       <use xlink:href="#m4c227d0a1b" x="51.378125" y="65.876765" style="stroke: #000000; stroke-width: 0.6"/>
      </g>
     </g>
    </g>
    <g id="ytick_26">
     <g id="line2d_32">
      <g>
       <use xlink:href="#m4c227d0a1b" x="51.378125" y="60.061358" style="stroke: #000000; stroke-width: 0.6"/>
      </g>
     </g>
    </g>
    <g id="text_11">
     <!-- Query time (s) -->
     <g transform="translate(14.798437 224.814687) rotate(-90) scale(0.1 -0.1)">
      <defs>
       <path id="DejaVuSans-51" d="M 2522 4238 
Q 1834 4238 1429 3725 
Q 1025 3213 1025 2328 
Q 1025 1447 1429 934 
Q 1834 422 2522 422 
Q 3209 422 3611 934 
Q 4013 1447 4013 2328 
Q 4013 3213 3611 3725 
Q 3209 4238 2522 4238 
z
M 3406 84 
L 4238 -825 
L 3475 -825 
L 2784 -78 
Q 2681 -84 2626 -87 
Q 2572 -91 2522 -91 
Q 1538 -91 948 567 
Q 359 1225 359 2328 
Q 359 3434 948 4092 
Q 1538 4750 2522 4750 
Q 3503 4750 4090 4092 
Q 4678 3434 4678 2328 
Q 4678 1516 4351 937 
Q 4025 359 3406 84 
z
" transform="scale(0.015625)"/>
       <path id="DejaVuSans-75" d="M 544 1381 
L 544 3500 
L 1119 3500 
L 1119 1403 
Q 1119 906 1312 657 
Q 1506 409 1894 409 
Q 2359 409 2629 706 
Q 2900 1003 2900 1516 
L 2900 3500 
L 3475 3500 
L 3475 0 
L 2900 0 
L 2900 538 
Q 2691 219 2414 64 
Q 2138 -91 1772 -91 
Q 1169 -91 856 284 
Q 544 659 544 1381 
z
M 1991 3584 
L 1991 3584 
z
" transform="scale(0.015625)"/>
       <path id="DejaVuSans-79" d="M 2059 -325 
Q 1816 -950 1584 -1140 
Q 1353 -1331 966 -1331 
L 506 -1331 
L 506 -850 
L 844 -850 
Q 1081 -850 1212 -737 
Q 1344 -625 1503 -206 
L 1606 56 
L 191 3500 
L 800 3500 
L 1894 763 
L 2988 3500 
L 3597 3500 
L 2059 -325 
z
" transform="scale(0.015625)"/>
       <path id="DejaVuSans-6d" d="M 3328 2828 
Q 3544 3216 3844 3400 
Q 4144 3584 4550 3584 
Q 5097 3584 5394 3201 
Q 5691 2819 5691 2113 
L 5691 0 
L 5113 0 
L 5113 2094 
Q 5113 2597 4934 2840 
Q 4756 3084 4391 3084 
Q 3944 3084 3684 2787 
Q 3425 2491 3425 1978 
L 3425 0 
L 2847 0 
L 2847 2094 
Q 2847 2600 2669 2842 
Q 2491 3084 2119 3084 
Q 1678 3084 1418 2786 
Q 1159 2488 1159 1978 
L 1159 0 
L 581 0 
L 581 3500 
L 1159 3500 
L 1159 2956 
Q 1356 3278 1631 3431 
Q 1906 3584 2284 3584 
Q 2666 3584 2933 3390 
Q 3200 3197 3328 2828 
z
" transform="scale(0.015625)"/>
      </defs>
      <use xlink:href="#DejaVuSans-51"/>
      <use xlink:href="#DejaVuSans-75" transform="translate(78.710938 0)"/>
      <use xlink:href="#DejaVuSans-65" transform="translate(142.089844 0)"/>
      <use xlink:href="#DejaVuSans-72" transform="translate(203.613281 0)"/>
      <use xlink:href="#DejaVuSans-79" transform="translate(244.726562 0)"/>
      <use xlink:href="#DejaVuSans-20" transform="translate(303.90625 0)"/>
      <use xlink:href="#DejaVuSans-74" transform="translate(335.693359 0)"/>
      <use xlink:href="#DejaVuSans-69" transform="translate(374.902344 0)"/>
      <use xlink:href="#DejaVuSans-6d" transform="translate(402.685547 0)"/>
      <use xlink:href="#DejaVuSans-65" transform="translate(500.097656 0)"/>
      <use xlink:href="#DejaVuSans-20" transform="translate(561.621094 0)"/>
      <use xlink:href="#DejaVuSans-28" transform="translate(593.408203 0)"/>
      <use xlink:href="#DejaVuSans-73" transform="translate(632.421875 0)"/>
      <use xlink:href="#DejaVuSans-29" transform="translate(684.521484 0)"/>
     </g>
    </g>
   </g>
   <g id="line2d_33">
    <path clip-path="url(#p1c030fada1)" style="fill: none; stroke-dasharray: 1.5625,0.9375; stroke-dashoffset: 0; stroke: #3f3f3f; stroke-width: 1.25"/>
   </g>
   <g id="line2d_34">
    <path clip-path="url(#p1c030fada1)" style="fill: none; stroke-dasharray: 3.125,1.25; stroke-dashoffset: 0; stroke: #3f3f3f; stroke-width: 1.25"/>
   </g>
   <g id="line2d_35">
    <path clip-path="url(#p1c030fada1)" style="fill: none; stroke-dasharray: 1.5625,0.9375; stroke-dashoffset: 0; stroke: #3f3f3f; stroke-width: 1.25"/>
   </g>
   <g id="line2d_36">
    <path d="M 415.833842 335.520775 
L 452.1636 335.520775 
" clip-path="url(#p1c030fada1)" style="fill: none; stroke-dasharray: 1.5625,0.9375; stroke-dashoffset: 0; stroke: #3f3f3f; stroke-width: 1.25"/>
   </g>
   <g id="line2d_37">
    <path d="M 399.66246 331.955137 
L 452.412868 331.955137 
" clip-path="url(#p1c030fada1)" style="fill: none; stroke-dasharray: 3.125,1.25; stroke-dashoffset: 0; stroke: #3f3f3f; stroke-width: 1.25"/>
   </g>
   <g id="line2d_38">
    <path d="M 423.024547 329.584861 
L 451.840811 329.584861 
" clip-path="url(#p1c030fada1)" style="fill: none; stroke-dasharray: 1.5625,0.9375; stroke-dashoffset: 0; stroke: #3f3f3f; stroke-width: 1.25"/>
   </g>
   <g id="line2d_39">
    <path d="M 456.905673 255.553762 
L 461.914565 255.553762 
" clip-path="url(#p1c030fada1)" style="fill: none; stroke-dasharray: 1.5625,0.9375; stroke-dashoffset: 0; stroke: #3f3f3f; stroke-width: 1.25"/>
   </g>
   <g id="line2d_40">
    <path d="M 456.764859 254.458882 
L 462.000732 254.458882 
" clip-path="url(#p1c030fada1)" style="fill: none; stroke-dasharray: 3.125,1.25; stroke-dashoffset: 0; stroke: #3f3f3f; stroke-width: 1.25"/>
   </g>
   <g id="line2d_41">
    <path d="M 456.963447 254.000918 
L 461.878664 254.000918 
" clip-path="url(#p1c030fada1)" style="fill: none; stroke-dasharray: 1.5625,0.9375; stroke-dashoffset: 0; stroke: #3f3f3f; stroke-width: 1.25"/>
   </g>
   <g id="line2d_42">
    <path d="M 462.181291 332.836228 
L 465.438728 332.836228 
" clip-path="url(#p1c030fada1)" style="fill: none; stroke-dasharray: 1.5625,0.9375; stroke-dashoffset: 0; stroke: #3f3f3f; stroke-width: 1.25"/>
   </g>
   <g id="line2d_43">
    <path d="M 462.036225 330.721979 
L 465.543614 330.721979 
" clip-path="url(#p1c030fada1)" style="fill: none; stroke-dasharray: 3.125,1.25; stroke-dashoffset: 0; stroke: #3f3f3f; stroke-width: 1.25"/>
   </g>
   <g id="line2d_44">
    <path d="M 462.262842 328.782115 
L 465.378647 328.782115 
" clip-path="url(#p1c030fada1)" style="fill: none; stroke-dasharray: 1.5625,0.9375; stroke-dashoffset: 0; stroke: #3f3f3f; stroke-width: 1.25"/>
   </g>
   <g id="line2d_45">
    <path d="M 467.053581 215.463802 
L 469.169971 215.463802 
" clip-path="url(#p1c030fada1)" style="fill: none; stroke-dasharray: 1.5625,0.9375; stroke-dashoffset: 0; stroke: #3f3f3f; stroke-width: 1.25"/>
   </g>
   <g id="line2d_46">
    <path d="M 466.953753 214.692739 
L 469.250762 214.692739 
" clip-path="url(#p1c030fada1)" style="fill: none; stroke-dasharray: 3.125,1.25; stroke-dashoffset: 0; stroke: #3f3f3f; stroke-width: 1.25"/>
   </g>
   <g id="line2d_47">
    <path d="M 467.350821 213.803095 
L 468.920881 213.803095 
" clip-path="url(#p1c030fada1)" style="fill: none; stroke-dasharray: 1.5625,0.9375; stroke-dashoffset: 0; stroke: #3f3f3f; stroke-width: 1.25"/>
   </g>
   <g id="line2d_48">
    <path d="M 469.328326 313.551072 
L 471.111934 313.551072 
" clip-path="url(#p1c030fada1)" style="fill: none; stroke-dasharray: 1.5625,0.9375; stroke-dashoffset: 0; stroke: #3f3f3f; stroke-width: 1.25"/>
   </g>
   <g id="line2d_49">
    <path d="M 469.327233 311.795233 
L 471.112856 311.795233 
" clip-path="url(#p1c030fada1)" style="fill: none; stroke-dasharray: 3.125,1.25; stroke-dashoffset: 0; stroke: #3f3f3f; stroke-width: 1.25"/>
   </g>
   <g id="line2d_50">
    <path d="M 469.722598 310.218338 
L 470.767659 310.218338 
" clip-path="url(#p1c030fada1)" style="fill: none; stroke-dasharray: 1.5625,0.9375; stroke-dashoffset: 0; stroke: #3f3f3f; stroke-width: 1.25"/>
   </g>
   <g id="line2d_51">
    <path d="M 472.008194 121.49659 
L 473.486189 121.49659 
" clip-path="url(#p1c030fada1)" style="fill: none; stroke-dasharray: 1.5625,0.9375; stroke-dashoffset: 0; stroke: #3f3f3f; stroke-width: 1.25"/>
   </g>
   <g id="line2d_52">
    <path d="M 472.092373 120.299797 
L 473.412578 120.299797 
" clip-path="url(#p1c030fada1)" style="fill: none; stroke-dasharray: 3.125,1.25; stroke-dashoffset: 0; stroke: #3f3f3f; stroke-width: 1.25"/>
   </g>
   <g id="line2d_53">
    <path d="M 472.23941 118.830187 
L 473.281284 118.830187 
" clip-path="url(#p1c030fada1)" style="fill: none; stroke-dasharray: 1.5625,0.9375; stroke-dashoffset: 0; stroke: #3f3f3f; stroke-width: 1.25"/>
   </g>
   <g id="line2d_54">
    <path d="M 473.56376 241.352434 
L 474.735322 241.352434 
" clip-path="url(#p1c030fada1)" style="fill: none; stroke-dasharray: 1.5625,0.9375; stroke-dashoffset: 0; stroke: #3f3f3f; stroke-width: 1.25"/>
   </g>
   <g id="line2d_55">
    <path d="M 473.494923 240.622881 
L 474.796463 240.622881 
" clip-path="url(#p1c030fada1)" style="fill: none; stroke-dasharray: 3.125,1.25; stroke-dashoffset: 0; stroke: #3f3f3f; stroke-width: 1.25"/>
   </g>
   <g id="line2d_56">
    <path d="M 473.666467 239.59662 
L 474.642665 239.59662 
" clip-path="url(#p1c030fada1)" style="fill: none; stroke-dasharray: 1.5625,0.9375; stroke-dashoffset: 0; stroke: #3f3f3f; stroke-width: 1.25"/>
   </g>
   <g id="line2d_57">
    <path d="M 475.491871 39.773686 
L 476.404667 39.773686 
" clip-path="url(#p1c030fada1)" style="fill: none; stroke-dasharray: 1.5625,0.9375; stroke-dashoffset: 0; stroke: #3f3f3f; stroke-width: 1.25"/>
   </g>
   <g id="line2d_58">
    <path d="M 475.395078 39.413929 
L 476.492567 39.413929 
" clip-path="url(#p1c030fada1)" style="fill: none; stroke-dasharray: 3.125,1.25; stroke-dashoffset: 0; stroke: #3f3f3f; stroke-width: 1.25"/>
   </g>
   <g id="line2d_59">
    <path d="M 475.500299 39.166257 
L 476.396939 39.166257 
" clip-path="url(#p1c030fada1)" style="fill: none; stroke-dasharray: 1.5625,0.9375; stroke-dashoffset: 0; stroke: #3f3f3f; stroke-width: 1.25"/>
   </g>
   <g id="line2d_60">
    <path d="M 476.680767 147.90086 
L 477.313725 147.90086 
" clip-path="url(#p1c030fada1)" style="fill: none; stroke-dasharray: 1.5625,0.9375; stroke-dashoffset: 0; stroke: #3f3f3f; stroke-width: 1.25"/>
   </g>
   <g id="line2d_61">
    <path d="M 476.495977 146.362155 
L 477.484693 146.362155 
" clip-path="url(#p1c030fada1)" style="fill: none; stroke-dasharray: 3.125,1.25; stroke-dashoffset: 0; stroke: #3f3f3f; stroke-width: 1.25"/>
   </g>
   <g id="line2d_62">
    <path d="M 476.505388 145.828536 
L 477.476126 145.828536 
" clip-path="url(#p1c030fada1)" style="fill: none; stroke-dasharray: 1.5625,0.9375; stroke-dashoffset: 0; stroke: #3f3f3f; stroke-width: 1.25"/>
   </g>
   <g id="patch_5">
    <path d="M 51.378125 354.958125 
L 51.378125 22.318125 
" style="fill: none; stroke: #000000; stroke-width: 0.8; stroke-linejoin: miter; stroke-linecap: square"/>
   </g>
   <g id="patch_6">
    <path d="M 497.778125 354.958125 
L 497.778125 22.318125 
" style="fill: none; stroke: #000000; stroke-width: 0.8; stroke-linejoin: miter; stroke-linecap: square"/>
   </g>
   <g id="patch_7">
    <path d="M 51.378125 354.958125 
L 497.778125 354.958125 
" style="fill: none; stroke: #000000; stroke-width: 0.8; stroke-linejoin: miter; stroke-linecap: square"/>
   </g>
   <g id="patch_8">
    <path d="M 51.378125 22.318125 
L 497.778125 22.318125 
" style="fill: none; stroke: #000000; stroke-width: 0.8; stroke-linejoin: miter; stroke-linecap: square"/>
   </g>
   <g id="text_12">
    <!-- Row Removal Time -->
    <g transform="translate(217.605312 16.318125) scale(0.12 -0.12)">
     <defs>
      <path id="DejaVuSans-52" d="M 2841 2188 
Q 3044 2119 3236 1894 
Q 3428 1669 3622 1275 
L 4263 0 
L 3584 0 
L 2988 1197 
Q 2756 1666 2539 1819 
Q 2322 1972 1947 1972 
L 1259 1972 
L 1259 0 
L 628 0 
L 628 4666 
L 2053 4666 
Q 2853 4666 3247 4331 
Q 3641 3997 3641 3322 
Q 3641 2881 3436 2590 
Q 3231 2300 2841 2188 
z
M 1259 4147 
L 1259 2491 
L 2053 2491 
Q 2509 2491 2742 2702 
Q 2975 2913 2975 3322 
Q 2975 3731 2742 3939 
Q 2509 4147 2053 4147 
L 1259 4147 
z
" transform="scale(0.015625)"/>
      <path id="DejaVuSans-76" d="M 191 3500 
L 800 3500 
L 1894 563 
L 2988 3500 
L 3597 3500 
L 2284 0 
L 1503 0 
L 191 3500 
z
" transform="scale(0.015625)"/>
      <path id="DejaVuSans-6c" d="M 603 4863 
L 1178 4863 
L 1178 0 
L 603 0 
L 603 4863 
z
" transform="scale(0.015625)"/>
      <path id="DejaVuSans-54" d="M -19 4666 
L 3928 4666 
L 3928 4134 
L 2272 4134 
L 2272 0 
L 1638 0 
L 1638 4134 
L -19 4134 
L -19 4666 
z
" transform="scale(0.015625)"/>
     </defs>
     <use xlink:href="#DejaVuSans-52"/>
     <use xlink:href="#DejaVuSans-6f" transform="translate(64.982422 0)"/>
     <use xlink:href="#DejaVuSans-77" transform="translate(126.164062 0)"/>
     <use xlink:href="#DejaVuSans-20" transform="translate(207.951172 0)"/>
     <use xlink:href="#DejaVuSans-52" transform="translate(239.738281 0)"/>
     <use xlink:href="#DejaVuSans-65" transform="translate(304.720703 0)"/>
     <use xlink:href="#DejaVuSans-6d" transform="translate(366.244141 0)"/>
     <use xlink:href="#DejaVuSans-6f" transform="translate(463.65625 0)"/>
     <use xlink:href="#DejaVuSans-76" transform="translate(524.837891 0)"/>
     <use xlink:href="#DejaVuSans-61" transform="translate(584.017578 0)"/>
     <use xlink:href="#DejaVuSans-6c" transform="translate(645.296875 0)"/>
     <use xlink:href="#DejaVuSans-20" transform="translate(673.080078 0)"/>
     <use xlink:href="#DejaVuSans-54" transform="translate(704.867188 0)"/>
     <use xlink:href="#DejaVuSans-69" transform="translate(762.826172 0)"/>
     <use xlink:href="#DejaVuSans-6d" transform="translate(790.609375 0)"/>
     <use xlink:href="#DejaVuSans-65" transform="translate(888.021484 0)"/>
    </g>
   </g>
   <g id="legend_1">
    <g id="patch_9">
     <path d="M 58.378125 74.3525 
L 133.571875 74.3525 
Q 135.571875 74.3525 135.571875 72.3525 
L 135.571875 29.318125 
Q 135.571875 27.318125 133.571875 27.318125 
L 58.378125 27.318125 
Q 56.378125 27.318125 56.378125 29.318125 
L 56.378125 72.3525 
Q 56.378125 74.3525 58.378125 74.3525 
z
" style="fill: #ffffff; opacity: 0.8; stroke: #cccccc; stroke-linejoin: miter"/>
    </g>
    <g id="text_13">
     <!-- DBMS -->
     <g transform="translate(81.20625 38.916562) scale(0.1 -0.1)">
      <defs>
       <path id="DejaVuSans-42" d="M 1259 2228 
L 1259 519 
L 2272 519 
Q 2781 519 3026 730 
Q 3272 941 3272 1375 
Q 3272 1813 3026 2020 
Q 2781 2228 2272 2228 
L 1259 2228 
z
M 1259 4147 
L 1259 2741 
L 2194 2741 
Q 2656 2741 2882 2914 
Q 3109 3088 3109 3444 
Q 3109 3797 2882 3972 
Q 2656 4147 2194 4147 
L 1259 4147 
z
M 628 4666 
L 2241 4666 
Q 2963 4666 3353 4366 
Q 3744 4066 3744 3513 
Q 3744 3084 3544 2831 
Q 3344 2578 2956 2516 
Q 3422 2416 3680 2098 
Q 3938 1781 3938 1306 
Q 3938 681 3513 340 
Q 3088 0 2303 0 
L 628 0 
L 628 4666 
z
" transform="scale(0.015625)"/>
       <path id="DejaVuSans-4d" d="M 628 4666 
L 1569 4666 
L 2759 1491 
L 3956 4666 
L 4897 4666 
L 4897 0 
L 4281 0 
L 4281 4097 
L 3078 897 
L 2444 897 
L 1241 4097 
L 1241 0 
L 628 0 
L 628 4666 
z
" transform="scale(0.015625)"/>
       <path id="DejaVuSans-53" d="M 3425 4513 
L 3425 3897 
Q 3066 4069 2747 4153 
Q 2428 4238 2131 4238 
Q 1616 4238 1336 4038 
Q 1056 3838 1056 3469 
Q 1056 3159 1242 3001 
Q 1428 2844 1947 2747 
L 2328 2669 
Q 3034 2534 3370 2195 
Q 3706 1856 3706 1288 
Q 3706 609 3251 259 
Q 2797 -91 1919 -91 
Q 1588 -91 1214 -16 
Q 841 59 441 206 
L 441 856 
Q 825 641 1194 531 
Q 1563 422 1919 422 
Q 2459 422 2753 634 
Q 3047 847 3047 1241 
Q 3047 1584 2836 1778 
Q 2625 1972 2144 2069 
L 1759 2144 
Q 1053 2284 737 2584 
Q 422 2884 422 3419 
Q 422 4038 858 4394 
Q 1294 4750 2059 4750 
Q 2388 4750 2728 4690 
Q 3069 4631 3425 4513 
z
" transform="scale(0.015625)"/>
      </defs>
      <use xlink:href="#DejaVuSans-44"/>
      <use xlink:href="#DejaVuSans-42" transform="translate(77.001953 0)"/>
      <use xlink:href="#DejaVuSans-4d" transform="translate(145.605469 0)"/>
      <use xlink:href="#DejaVuSans-53" transform="translate(231.884766 0)"/>
     </g>
    </g>
    <g id="patch_10">
     <path d="M 60.378125 53.594687 
L 80.378125 53.594687 
L 80.378125 46.594687 
L 60.378125 46.594687 
z
" style="fill: #3274a1; stroke: #3f3f3f; stroke-width: 1.25; stroke-linejoin: miter"/>
    </g>
    <g id="text_14">
     <!-- pandas -->
     <g transform="translate(88.378125 53.594687) scale(0.1 -0.1)">
      <defs>
       <path id="DejaVuSans-70" d="M 1159 525 
L 1159 -1331 
L 581 -1331 
L 581 3500 
L 1159 3500 
L 1159 2969 
Q 1341 3281 1617 3432 
Q 1894 3584 2278 3584 
Q 2916 3584 3314 3078 
Q 3713 2572 3713 1747 
Q 3713 922 3314 415 
Q 2916 -91 2278 -91 
Q 1894 -91 1617 61 
Q 1341 213 1159 525 
z
M 3116 1747 
Q 3116 2381 2855 2742 
Q 2594 3103 2138 3103 
Q 1681 3103 1420 2742 
Q 1159 2381 1159 1747 
Q 1159 1113 1420 752 
Q 1681 391 2138 391 
Q 2594 391 2855 752 
Q 3116 1113 3116 1747 
z
" transform="scale(0.015625)"/>
       <path id="DejaVuSans-6e" d="M 3513 2113 
L 3513 0 
L 2938 0 
L 2938 2094 
Q 2938 2591 2744 2837 
Q 2550 3084 2163 3084 
Q 1697 3084 1428 2787 
Q 1159 2491 1159 1978 
L 1159 0 
L 581 0 
L 581 3500 
L 1159 3500 
L 1159 2956 
Q 1366 3272 1645 3428 
Q 1925 3584 2291 3584 
Q 2894 3584 3203 3211 
Q 3513 2838 3513 2113 
z
" transform="scale(0.015625)"/>
       <path id="DejaVuSans-64" d="M 2906 2969 
L 2906 4863 
L 3481 4863 
L 3481 0 
L 2906 0 
L 2906 525 
Q 2725 213 2448 61 
Q 2172 -91 1784 -91 
Q 1150 -91 751 415 
Q 353 922 353 1747 
Q 353 2572 751 3078 
Q 1150 3584 1784 3584 
Q 2172 3584 2448 3432 
Q 2725 3281 2906 2969 
z
M 947 1747 
Q 947 1113 1208 752 
Q 1469 391 1925 391 
Q 2381 391 2643 752 
Q 2906 1113 2906 1747 
Q 2906 2381 2643 2742 
Q 2381 3103 1925 3103 
Q 1469 3103 1208 2742 
Q 947 2381 947 1747 
z
" transform="scale(0.015625)"/>
      </defs>
      <use xlink:href="#DejaVuSans-70"/>
      <use xlink:href="#DejaVuSans-61" transform="translate(63.476562 0)"/>
      <use xlink:href="#DejaVuSans-6e" transform="translate(124.755859 0)"/>
      <use xlink:href="#DejaVuSans-64" transform="translate(188.134766 0)"/>
      <use xlink:href="#DejaVuSans-61" transform="translate(251.611328 0)"/>
      <use xlink:href="#DejaVuSans-73" transform="translate(312.890625 0)"/>
     </g>
    </g>
    <g id="patch_11">
     <path d="M 60.378125 68.272812 
L 80.378125 68.272812 
L 80.378125 61.272812 
L 60.378125 61.272812 
z
" style="fill: #e1812c; stroke: #3f3f3f; stroke-width: 1.25; stroke-linejoin: miter"/>
    </g>
    <g id="text_15">
     <!-- postgres -->
     <g transform="translate(88.378125 68.272812) scale(0.1 -0.1)">
      <defs>
       <path id="DejaVuSans-67" d="M 2906 1791 
Q 2906 2416 2648 2759 
Q 2391 3103 1925 3103 
Q 1463 3103 1205 2759 
Q 947 2416 947 1791 
Q 947 1169 1205 825 
Q 1463 481 1925 481 
Q 2391 481 2648 825 
Q 2906 1169 2906 1791 
z
M 3481 434 
Q 3481 -459 3084 -895 
Q 2688 -1331 1869 -1331 
Q 1566 -1331 1297 -1286 
Q 1028 -1241 775 -1147 
L 775 -588 
Q 1028 -725 1275 -790 
Q 1522 -856 1778 -856 
Q 2344 -856 2625 -561 
Q 2906 -266 2906 331 
L 2906 616 
Q 2728 306 2450 153 
Q 2172 0 1784 0 
Q 1141 0 747 490 
Q 353 981 353 1791 
Q 353 2603 747 3093 
Q 1141 3584 1784 3584 
Q 2172 3584 2450 3431 
Q 2728 3278 2906 2969 
L 2906 3500 
L 3481 3500 
L 3481 434 
z
" transform="scale(0.015625)"/>
      </defs>
      <use xlink:href="#DejaVuSans-70"/>
      <use xlink:href="#DejaVuSans-6f" transform="translate(63.476562 0)"/>
      <use xlink:href="#DejaVuSans-73" transform="translate(124.658203 0)"/>
      <use xlink:href="#DejaVuSans-74" transform="translate(176.757812 0)"/>
      <use xlink:href="#DejaVuSans-67" transform="translate(215.966797 0)"/>
      <use xlink:href="#DejaVuSans-72" transform="translate(279.443359 0)"/>
      <use xlink:href="#DejaVuSans-65" transform="translate(318.306641 0)"/>
      <use xlink:href="#DejaVuSans-73" transform="translate(379.830078 0)"/>
     </g>
    </g>
   </g>
  </g>
 </g>
 <defs>
  <clipPath id="p1c030fada1">
   <rect x="51.378125" y="22.318125" width="446.4" height="332.64"/>
  </clipPath>
 </defs>
</svg>
